                                                                        S      1
,,9HClipsi v1,9HClipsi v1,7Hunknown,7Hunknown,32,38,7,99,15,,1.,2,2HMM, G      1
1,0.08,15H20240829.144052,0.01,10000.,7Hunknown,7Hunknown,11,0,15H202408G      2
14.120655;                                                              G      3
     186       1                                                00000000D      1
     186            -119       1       0                               0D      2
     514       2                                                00010000D      3
     514                       1       1                               0D      4
     510       3                                                00010000D      5
     510            -119       1       1                               0D      6
     510       4                                                00010000D      7
     510            -119       1       1                               0D      8
     510       5                                                00010000D      9
     510            -119       1       1                               0D     10
     510       6                                                00010000D     11
     510            -119       1       1                               0D     12
     510       7                                                00010000D     13
     510            -119       1       1                               0D     14
     510       8                                                00010000D     15
     510            -119       1       1                               0D     16
     510       9                                                00010000D     17
     510            -119       1       1                               0D     18
     510      10                                                00010000D     19
     510            -119       1       1                               0D     20
     510      11                                                00010000D     21
     510            -119       1       1                               0D     22
     510      12                                                00010000D     23
     510            -119       1       1                               0D     24
     508      13                                                00010000D     25
     508                       1       1                               0D     26
     508      14                                                00010000D     27
     508                       1       1                               0D     28
     508      15                                                00010000D     29
     508                       1       1                               0D     30
     508      16                                                00010000D     31
     508                       1       1                               0D     32
     508      17                                                00010000D     33
     508                       1       1                               0D     34
     508      18                                                00010000D     35
     508                       1       1                               0D     36
     508      19                                                00010000D     37
     508                       1       1                               0D     38
     508      20                                                00010000D     39
     508                       1       1                               0D     40
     508      21                                                00010000D     41
     508                       2       1                               0D     42
     508      23                                                00010000D     43
     508                       2       1                               0D     44
     126      25                                                00010000D     45
     126       0               2       0                               0D     46
     126      27                                                00010000D     47
     126       0               2       0                               0D     48
     126      29                                                00010000D     49
     126       0               2       0                               0D     50
     126      31                                                00010000D     51
     126       0               2       0                               0D     52
     126      33                                                00010000D     53
     126       0               2       0                               0D     54
     126      35                                                00010000D     55
     126       0               2       0                               0D     56
     126      37                                                00010000D     57
     126       0               2       0                               0D     58
     126      39                                                00010000D     59
     126       0               3       0                               0D     60
     126      42                                                00010000D     61
     126       0               3       0                               0D     62
     126      45                                                00010000D     63
     126       0               3       0                               0D     64
     126      48                                                00010000D     65
     126       0               3       0                               0D     66
     126      51                                                00010000D     67
     126       0               3       0                               0D     68
     126      54                                                00010000D     69
     126       0               3       0                               0D     70
     126      57                                                00010000D     71
     126       0              26       0                               0D     72
     126      83                                                00010000D     73
     126       0              26       0                               0D     74
     126     109                                                00010000D     75
     126       0               3       0                               0D     76
     126     112                                                00010000D     77
     126       0               7       0                               0D     78
     126     119                                                00010000D     79
     126       0               7       0                               0D     80
     126     126                                                00010000D     81
     126       0               2       0                               0D     82
     126     128                                                00010000D     83
     126       0              18       0                               0D     84
     126     146                                                00010000D     85
     126       0              18       0                               0D     86
     126     164                                                00010000D     87
     126       0               2       0                               0D     88
     126     166                                                00010000D     89
     126       0               2       0                               0D     90
     126     168                                                00010000D     91
     126       0               2       0                               0D     92
     128     170                                                00010000D     93
     128       0    -119       4       0                               0D     94
     128     174                                                00010000D     95
     128       0    -119       3       0                               0D     96
     128     177                                                00010000D     97
     128       0    -119       6       0                               0D     98
     128     183                                                00010000D     99
     128       0    -119       6       0                               0D    100
     128     189                                                00010000D    101
     128       0    -119      44       0                               0D    102
     128     233                                                00010000D    103
     128       0    -119      11       0                               0D    104
     128     244                                                00010000D    105
     128       0    -119      31       0                               0D    106
     128     275                                                00010000D    107
     128       0    -119       3       0                               0D    108
     128     278                                                00010000D    109
     128       0    -119       7       0                               0D    110
     128     285                                                00010000D    111
     128       0    -119       7       0                               0D    112
     502     292                                                00010000D    113
     502                       6       1                               0D    114
     504     298                                                00010001D    115
     504                       7       1                               0D    116
     406     305                                                00000000D    117
     406                       1      15                               0D    118
     314     306                                                00000200D    119
     314                       2       0                               0D    120
186,3,1,0,0,1,117;                                                     1P      1
514,10,5,1,7,1,9,1,11,1,13,1,15,1,17,1,19,1,21,1,23,1;                 3P      2
510,93,1,1,25;                                                         5P      3
510,95,1,1,27;                                                         7P      4
510,97,1,1,29;                                                         9P      5
510,99,1,1,31;                                                        11P      6
510,101,1,1,33;                                                       13P      7
510,103,1,1,35;                                                       15P      8
510,105,1,1,37;                                                       17P      9
510,107,1,1,39;                                                       19P     10
510,109,1,1,41;                                                       21P     11
510,111,1,1,43;                                                       23P     12
508,4,0,115,1,0,0,0,115,2,1,0,0,115,3,0,0,0,115,4,0,0;                25P     13
508,4,0,115,5,1,0,0,115,4,1,0,0,115,6,0,0,0,115,7,0,0;                27P     14
508,4,0,115,8,1,0,0,115,7,1,0,0,115,9,0,0,0,115,10,0,0;               29P     15
508,4,0,115,11,1,0,0,115,10,1,0,0,115,12,0,0,0,115,13,0,0;            31P     16
508,4,0,115,14,0,0,0,115,13,1,0,0,115,15,0,0,0,115,16,0,0;            33P     17
508,4,0,115,17,1,0,0,115,16,1,0,0,115,18,0,0,0,115,19,0,0;            35P     18
508,4,0,115,20,1,0,0,115,19,1,0,0,115,21,0,0,0,115,22,0,0;            37P     19
508,4,0,115,23,1,0,0,115,22,1,0,0,115,24,0,0,0,115,2,0,0;             39P     20
508,8,0,115,24,1,0,0,115,21,1,0,0,115,18,1,0,0,115,15,1,0,0,115,      41P     21
12,1,0,0,115,9,1,0,0,115,6,1,0,0,115,3,1,0;                           41P     22
508,8,0,115,23,0,0,0,115,1,1,0,0,115,5,0,0,0,115,8,0,0,0,115,11,      43P     23
0,0,0,115,14,1,0,0,115,17,0,0,0,115,20,0,0;                           43P     24
126,1,1,0,0,1,0,0.,0.,5.,5.,1.,1.,0.,0.,0.,-50.,0.,0.,0.,5.,0.,       45P     25
0.,0.;                                                                45P     26
126,1,1,0,0,1,0,0.,0.,3.,3.,1.,1.,0.,0.,0.,0.,0.,30.,0.,3.,0.,        47P     27
0.,0.;                                                                47P     28
126,1,1,0,0,1,0,-5.,-5.,0.,0.,1.,1.,-50.,0.,30.,0.,0.,30.,-5.,        49P     29
0.,0.,0.,0.;                                                          49P     30
126,1,1,0,0,1,0,0.,0.,3.,3.,1.,1.,-50.,0.,0.,-50.,0.,30.,0.,3.,       51P     31
0.,0.,0.;                                                             51P     32
126,1,1,0,0,1,0,0.,0.,0.2,0.2,1.,1.,-50.,2.,0.,-50.,0.,0.,0.,         53P     33
0.2,0.,0.,0.;                                                         53P     34
126,1,1,0,0,1,0,0.,0.,0.2,0.2,1.,1.,-50.,2.,30.,-50.,0.,30.,0.,       55P     35
0.2,0.,0.,0.;                                                         55P     36
126,1,1,0,0,1,0,0.,0.,3.,3.,1.,1.,-50.,2.,0.,-50.,2.,30.,0.,3.,       57P     37
0.,0.,0.;                                                             57P     38
126,1,1,0,0,1,0,0.,0.,4.87000000290573,4.87000000290573,1.,1.,        59P     39
-1.29999997094274,1.99999995529652,0.,-50.,2.,0.,0.,                  59P     40
4.87000000290573,0.,0.,0.;                                            59P     41
126,1,1,0,0,1,0,0.,0.,4.87000000290573,4.87000000290573,1.,1.,        61P     42
-1.29999997094274,1.99999995529652,30.,-50.,2.,30.,0.,                61P     43
4.87000000290573,0.,0.,0.;                                            61P     44
126,1,1,0,0,1,0,0.,0.,3.,3.,1.,1.,-1.29999997094274,                  63P     45
1.99999995529652,0.,-1.29999997094274,1.99999995529652,30.,0.,        63P     46
3.,0.,0.,0.;                                                          63P     47
126,1,1,0,0,1,0,0.,0.,0.0192367466684499,0.0192367466684499,1.,       65P     48
1.,-1.21308021642023,2.17161055669503,0.,-1.29999997094274,           65P     49
1.99999995529652,0.,0.,0.0192367466684499,0.,0.,0.;                   65P     50
126,1,1,0,0,1,0,0.,0.,0.0192367466684499,0.0192367466684499,1.,       67P     51
1.,-1.21308021642023,2.17161055669503,30.,-1.29999997094274,          67P     52
1.99999995529652,30.,0.,0.0192367466684499,0.,0.,0.;                  67P     53
126,1,1,0,0,1,0,0.,0.,3.,3.,1.,1.,-1.21308021642023,                  69P     54
2.17161055669503,0.,-1.21308021642023,2.17161055669503,30.,0.,        69P     55
3.,0.,0.,0.;                                                          69P     56
126,24,3,0,0,1,0,0.,0.,0.,0.,0.134766023900444,                       71P     57
0.134766023900444,0.134766023900444,0.238041884148428,                71P     58
0.238041884148428,0.238041884148428,0.330458448257592,                71P     59
0.330458448257592,0.330458448257592,0.454817635985517,                71P     60
0.454817635985517,0.454817635985517,0.640455903273652,                71P     61
0.640455903273652,0.640455903273652,0.784665660158501,                71P     62
0.784665660158501,0.784665660158501,0.917008132977176,                71P     63
0.917008132977176,0.917008132977176,1.,1.,1.,1.,1.,1.,1.,1.,1.,       71P     64
1.,1.,1.,1.,1.,1.,1.,1.,1.,1.,1.,1.,1.,1.,1.,1.,1.,1.,1.,1.,          71P     65
-1.21308021642023,2.17161055669503,0.,-0.446695601599956,             71P     66
7.58902794821056,0.,-0.379546128695964,11.8864531031003,0.,           71P     67
-0.956030187094259,14.9516088432952,0.,-1.3978098384277,              71P     68
17.3005435873856,0.,-2.20142715843148,18.8821575439039,0.,            71P     69
-3.242811254988,19.8440529748391,0.,-4.17469543286449,                71P     70
20.7048065967009,0.,-5.33067226522769,21.1469623575839,0.,            71P     71
-6.88525113245583,21.2106957423243,0.,-8.97715064258187,              71P     72
21.29645777031,0.,-11.7549854356917,20.5984116999468,0.,              71P     73
-14.8644713178405,19.3311792204703,0.,-19.506183618036,               71P     74
17.4395068314874,0.,-24.8559710683,14.3532695830541,0.,               71P     75
-29.7999035039716,11.5083916251326,0.,-33.640508703635,               71P     76
9.29839923147304,0.,-37.2255937285845,7.25503957612956,0.,            71P     77
-40.2594956765582,5.82031668688316,0.,-43.0437322965869,              71P     78
4.5036597624558,0.,-45.3612038019501,3.67488278152059,0.,             71P     79
-47.2994282667627,3.45981988223789,0.,-48.5148873980463,              71P     80
3.32495409683528,0.,-49.6176513804251,3.42675618429144,0.,            71P     81
-50.5593374929977,3.90997460416449,0.,0.,1.,0.,0.,0.;                 71P     82
126,24,3,0,0,1,0,-1.,-1.,-1.,-1.,-0.917008132977176,                  73P     83
-0.917008132977176,-0.917008132977176,-0.784665660158501,             73P     84
-0.784665660158501,-0.784665660158501,-0.640455903273652,             73P     85
-0.640455903273652,-0.640455903273652,-0.454817635985517,             73P     86
-0.454817635985517,-0.454817635985517,-0.330458448257592,             73P     87
-0.330458448257592,-0.330458448257592,-0.238041884148428,             73P     88
-0.238041884148428,-0.238041884148428,-0.134766023900444,             73P     89
-0.134766023900444,-0.134766023900444,0.,0.,0.,0.,1.,1.,1.,1.,        73P     90
1.,1.,1.,1.,1.,1.,1.,1.,1.,1.,1.,1.,1.,1.,1.,1.,1.,1.,1.,1.,1.,       73P     91
-50.5593374929977,3.90997460416449,30.,-49.6176513804251,             73P     92
3.42675618429144,30.,-48.5148873980463,3.32495409683528,30.,          73P     93
-47.2994282667627,3.45981988223789,30.,-45.3612038019501,             73P     94
3.67488278152059,30.,-43.0437322965869,4.5036597624558,30.,           73P     95
-40.2594956765582,5.82031668688316,30.,-37.2255937285845,             73P     96
7.25503957612956,30.,-33.640508703635,9.29839923147304,30.,           73P     97
-29.7999035039716,11.5083916251326,30.,-24.8559710683,                73P     98
14.3532695830541,30.,-19.506183618036,17.4395068314874,30.,           73P     99
-14.8644713178405,19.3311792204703,30.,-11.7549854356917,             73P    100
20.5984116999468,30.,-8.97715064258187,21.29645777031,30.,            73P    101
-6.88525113245583,21.2106957423243,30.,-5.33067226522769,             73P    102
21.1469623575839,30.,-4.17469543286449,20.7048065967009,30.,          73P    103
-3.242811254988,19.8440529748391,30.,-2.20142715843148,               73P    104
18.8821575439039,30.,-1.3978098384277,17.3005435873856,30.,           73P    105
-0.956030187094259,14.9516088432952,30.,-0.379546128695964,           73P    106
11.8864531031003,30.,-0.446695601599956,7.58902794821056,30.,         73P    107
-1.21308021642023,2.17161055669503,30.,-1.,0.,0.,0.,0.;               73P    108
126,1,1,0,0,1,0,0.,0.,3.,3.,1.,1.,-50.5593374929977,                  75P    109
3.90997460416449,0.,-50.5593374929977,3.90997460416449,30.,0.,        75P    110
3.,0.,0.,0.;                                                          75P    111
126,4,2,0,0,0,0,0.,0.,0.,1.5707963267949,1.5707963267949,             77P    112
3.14159265358979,3.14159265358979,3.14159265358979,1.,                77P    113
0.707106781186546,1.,0.707106781186559,1.,-50.,5.,0.,                 77P    114
-50.5450126979178,5.27966874649886,0.,-50.8246814444166,              77P    115
4.7346560485811,0.,-51.1043501909155,4.18964335066335,0.,             77P    116
-50.5593374929977,3.90997460416449,0.,0.,3.14159265358979,0.,0.,      77P    117
0.;                                                                   77P    118
126,4,2,0,0,0,0,0.,0.,0.,1.5707963267949,1.5707963267949,             79P    119
3.14159265358979,3.14159265358979,3.14159265358979,1.,                79P    120
0.707106781186546,1.,0.707106781186559,1.,-50.,5.,30.,                79P    121
-50.5450126979178,5.27966874649886,30.,-50.8246814444166,             79P    122
4.7346560485811,30.,-51.1043501909155,4.18964335066335,30.,           79P    123
-50.5593374929977,3.90997460416449,30.,0.,3.14159265358979,0.,        79P    124
0.,0.;                                                                79P    125
126,1,1,0,0,1,0,0.,0.,3.,3.,1.,1.,-50.,5.,0.,-50.,5.,30.,0.,3.,       81P    126
0.,0.,0.;                                                             81P    127
126,19,5,0,0,0,0,0.,0.,0.,0.,0.,0.,0.0666666666666667,                83P    128
0.133333333333333,0.2,0.266666666666667,0.333333333333333,0.4,        83P    129
0.466666666666667,0.533333333333333,0.6,0.666666666666667,            83P    130
0.733333333333333,0.8,0.866666666666667,0.933333333333333,1.,1.,      83P    131
1.,1.,1.,1.,1.,1.,1.,1.,1.,1.,1.,1.,1.,1.,1.,1.,1.,1.,1.,1.,1.,       83P    132
1.,1.,1.,0.,2.,0.,0.230719241268672,3.63090751828217,0.,              83P    133
0.590670854936376,6.73175228521395,0.,0.82613913265443,               83P    134
10.9001110054055,0.,0.526738870010694,15.4850636296023,0.,            83P    135
-0.885153058951709,19.5674492328319,0.,-3.33394589658063,             83P    136
21.9931867743733,0.,-6.77962613375832,22.8075374001671,0.,            83P    137
-11.1159553252521,22.1482403621069,0.,-16.1407150827509,              83P    138
20.2892917315832,0.,-21.5902452455813,17.5915316617335,0.,            83P    139
-27.1703192564957,14.4590524602402,0.,-32.5848513508042,              83P    140
11.2991508434382,0.,-37.5660394022473,8.48111082845699,0.,            83P    141
-41.9010036390511,6.3001052840986,0.,-45.4722174834772,               83P    142
4.92366154627272,0.,-47.6856868125961,4.51681365765821,0.,            83P    143
-48.9829028943279,4.60616082683444,0.,-49.6876473510489,              83P    144
4.83971882832913,0.,-50.,5.,0.,0.,1.,0.,0.,0.;                        83P    145
126,19,5,0,0,0,0,0.,0.,0.,0.,0.,0.,0.0666666666666667,                85P    146
0.133333333333333,0.2,0.266666666666667,0.333333333333333,0.4,        85P    147
0.466666666666667,0.533333333333333,0.6,0.666666666666667,            85P    148
0.733333333333333,0.8,0.866666666666667,0.933333333333333,1.,1.,      85P    149
1.,1.,1.,1.,1.,1.,1.,1.,1.,1.,1.,1.,1.,1.,1.,1.,1.,1.,1.,1.,1.,       85P    150
1.,1.,1.,0.,2.,30.,0.230719241268672,3.63090751828217,30.,            85P    151
0.590670854936376,6.73175228521395,30.,0.82613913265443,              85P    152
10.9001110054055,30.,0.526738870010694,15.4850636296023,30.,          85P    153
-0.885153058951709,19.5674492328319,30.,-3.33394589658063,            85P    154
21.9931867743733,30.,-6.77962613375832,22.8075374001671,30.,          85P    155
-11.1159553252521,22.1482403621069,30.,-16.1407150827509,             85P    156
20.2892917315832,30.,-21.5902452455813,17.5915316617335,30.,          85P    157
-27.1703192564957,14.4590524602402,30.,-32.5848513508042,             85P    158
11.2991508434382,30.,-37.5660394022473,8.48111082845699,30.,          85P    159
-41.9010036390511,6.3001052840986,30.,-45.4722174834772,              85P    160
4.92366154627272,30.,-47.6856868125961,4.51681365765821,30.,          85P    161
-48.9829028943279,4.60616082683444,30.,-49.6876473510489,             85P    162
4.83971882832913,30.,-50.,5.,30.,0.,1.,0.,0.,0.;                      85P    163
126,1,1,0,0,1,0,0.,0.,3.,3.,1.,1.,0.,2.,0.,0.,2.,30.,0.,3.,0.,        87P    164
0.,0.;                                                                87P    165
126,1,1,0,0,1,0,0.,0.,0.2,0.2,1.,1.,0.,0.,0.,0.,2.,0.,0.,0.2,0.,      89P    166
0.,0.;                                                                89P    167
126,1,1,0,0,1,0,0.,0.,0.2,0.2,1.,1.,0.,0.,30.,0.,2.,30.,0.,0.2,       91P    168
0.,0.,0.;                                                             91P    169
128,1,1,1,1,0,0,1,0,0,-0.001,-0.001,5.001,5.001,-0.001,-0.001,        93P    170
3.001,3.001,1.,1.,1.,1.,-50.01,0.,-0.01,0.0100000000000033,0.,        93P    171
-0.01,-50.01,0.,30.01,0.0100000000000033,0.,30.01,-0.001,5.001,       93P    172
-0.001,3.001;                                                         93P    173
128,1,1,1,1,0,0,1,0,0,-0.001,-0.001,0.201,0.201,-0.001,-0.001,        95P    174
3.001,3.001,1.,1.,1.,1.,-50.,2.01,-0.01,-50.,-0.01,-0.01,-50.,        95P    175
2.01,30.01,-50.,-0.01,30.01,-0.001,0.201,-0.001,3.001;                95P    176
128,1,1,1,1,0,0,1,0,0,-0.001,-0.001,4.87100000290573,                 97P    177
4.87100000290573,-0.001,-0.001,3.001,3.001,1.,1.,1.,1.,               97P    178
-1.28999997094274,1.99999995528734,-0.01,-50.01,                      97P    179
2.00000000000918,-0.01,-1.28999997094274,1.99999995528734,30.01,      97P    180
-50.01,2.00000000000918,30.01,-0.001,4.87100000290573,-0.001,         97P    181
3.001;                                                                97P    182
128,1,1,1,1,0,0,1,0,0,-0.001,-0.001,0.0202367466684499,               99P    183
0.0202367466684499,-0.001,-0.001,3.001,3.001,1.,1.,1.,1.,             99P    184
-1.20856179363177,2.18053153508895,-0.01,-1.30451839373119,           99P    185
1.9910789769026,-0.01,-1.20856179363177,2.18053153508895,30.01,       99P    186
-1.30451839373119,1.9910789769026,30.01,-0.001,                       99P    187
0.0202367466684499,-0.001,3.001;                                      99P    188
128,24,1,3,1,0,0,1,0,0,-1.,-1.,-1.,-1.,-0.917008132977176,           101P    189
-0.917008132977176,-0.917008132977176,-0.784665660158501,            101P    190
-0.784665660158501,-0.784665660158501,-0.640455903273652,            101P    191
-0.640455903273652,-0.640455903273652,-0.454817635985517,            101P    192
-0.454817635985517,-0.454817635985517,-0.330458448257592,            101P    193
-0.330458448257592,-0.330458448257592,-0.238041884148428,            101P    194
-0.238041884148428,-0.238041884148428,-0.134766023900444,            101P    195
-0.134766023900444,-0.134766023900444,0.,0.,0.,0.,0.,0.,3.,3.,       101P    196
1.,1.,1.,1.,1.,1.,1.,1.,1.,1.,1.,1.,1.,1.,1.,1.,1.,1.,1.,1.,1.,      101P    197
1.,1.,1.,1.,1.,1.,1.,1.,1.,1.,1.,1.,1.,1.,1.,1.,1.,1.,1.,1.,1.,      101P    198
1.,1.,1.,1.,1.,1.,1.,1.,-50.5593374929977,3.90997460416449,0.,       101P    199
-49.6176513804251,3.42675618429144,0.,-48.5148873980463,             101P    200
3.32495409683528,0.,-47.2994282667627,3.45981988223789,0.,           101P    201
-45.3612038019501,3.67488278152059,0.,-43.0437322965869,             101P    202
4.5036597624558,0.,-40.2594956765582,5.82031668688316,0.,            101P    203
-37.2255937285845,7.25503957612956,0.,-33.640508703635,              101P    204
9.29839923147304,0.,-29.7999035039716,11.5083916251326,0.,           101P    205
-24.8559710683,14.3532695830541,0.,-19.506183618036,                 101P    206
17.4395068314874,0.,-14.8644713178405,19.3311792204703,0.,           101P    207
-11.7549854356917,20.5984116999468,0.,-8.97715064258187,             101P    208
21.29645777031,0.,-6.88525113245583,21.2106957423243,0.,             101P    209
-5.33067226522769,21.1469623575839,0.,-4.17469543286449,             101P    210
20.7048065967009,0.,-3.242811254988,19.8440529748391,0.,             101P    211
-2.20142715843148,18.8821575439039,0.,-1.3978098384277,              101P    212
17.3005435873856,0.,-0.956030187094259,14.9516088432952,0.,          101P    213
-0.379546128695964,11.8864531031003,0.,-0.446695601599956,           101P    214
7.58902794821056,0.,-1.21308021642023,2.17161055669503,0.,           101P    215
-50.5593374929977,3.90997460416449,30.,-49.6176513804251,            101P    216
3.42675618429144,30.,-48.5148873980463,3.32495409683528,30.,         101P    217
-47.2994282667627,3.45981988223789,30.,-45.3612038019501,            101P    218
3.67488278152059,30.,-43.0437322965869,4.5036597624558,30.,          101P    219
-40.2594956765582,5.82031668688316,30.,-37.2255937285845,            101P    220
7.25503957612956,30.,-33.640508703635,9.29839923147304,30.,          101P    221
-29.7999035039716,11.5083916251326,30.,-24.8559710683,               101P    222
14.3532695830541,30.,-19.506183618036,17.4395068314874,30.,          101P    223
-14.8644713178405,19.3311792204703,30.,-11.7549854356917,            101P    224
20.5984116999468,30.,-8.97715064258187,21.29645777031,30.,           101P    225
-6.88525113245583,21.2106957423243,30.,-5.33067226522769,            101P    226
21.1469623575839,30.,-4.17469543286449,20.7048065967009,30.,         101P    227
-3.242811254988,19.8440529748391,30.,-2.20142715843148,              101P    228
18.8821575439039,30.,-1.3978098384277,17.3005435873856,30.,          101P    229
-0.956030187094259,14.9516088432952,30.,-0.379546128695964,          101P    230
11.8864531031003,30.,-0.446695601599956,7.58902794821056,30.,        101P    231
-1.21308021642023,2.17161055669503,30.,-1.,0.,0.,3.;                 101P    232
128,1,4,1,2,0,0,0,0,0,0.,0.,48.9732480455894,48.9732480455894,       103P    233
0.,0.,0.,1.5707963267949,1.5707963267949,3.14159265358979,           103P    234
3.14159265358979,3.14159265358979,1.,1.,0.707106781186548,           103P    235
0.707106781186548,1.,1.,0.707106781186548,0.707106781186548,1.,      103P    236
1.,-50.,5.,30.,-50.,5.,0.,-50.5450126979178,5.27966874649886,        103P    237
30.,-50.5450126979178,5.27966874649886,0.,-50.8246814444166,         103P    238
4.7346560485811,30.,-50.8246814444166,4.7346560485811,0.,            103P    239
-51.1043501909155,4.18964335066335,30.,-51.1043501909155,            103P    240
4.18964335066335,0.,-50.5593374929977,3.90997460416449,30.,          103P    241
-50.5593374929977,3.90997460416449,0.,0.,48.9732480455894,0.,        103P    242
3.14159265358979;                                                    103P    243
128,19,1,5,1,0,0,0,0,0,0.,0.,0.,0.,0.,0.,0.0666666666666667,         105P    244
0.133333333333333,0.2,0.266666666666667,0.333333333333333,0.4,       105P    245
0.466666666666667,0.533333333333333,0.6,0.666666666666667,           105P    246
0.733333333333333,0.8,0.866666666666667,0.933333333333333,1.,1.,     105P    247
1.,1.,1.,1.,0.,0.,3.,3.,1.,1.,1.,1.,1.,1.,1.,1.,1.,1.,1.,1.,1.,      105P    248
1.,1.,1.,1.,1.,1.,1.,1.,1.,1.,1.,1.,1.,1.,1.,1.,1.,1.,1.,1.,1.,      105P    249
1.,1.,1.,1.,1.,1.,0.,2.,0.,0.230719241268672,3.63090751828217,       105P    250
0.,0.590670854936376,6.73175228521395,0.,0.82613913265443,           105P    251
10.9001110054055,0.,0.526738870010694,15.4850636296023,0.,           105P    252
-0.885153058951709,19.5674492328319,0.,-3.33394589658063,            105P    253
21.9931867743733,0.,-6.77962613375832,22.8075374001671,0.,           105P    254
-11.1159553252521,22.1482403621069,0.,-16.1407150827509,             105P    255
20.2892917315832,0.,-21.5902452455813,17.5915316617335,0.,           105P    256
-27.1703192564957,14.4590524602402,0.,-32.5848513508042,             105P    257
11.2991508434382,0.,-37.5660394022473,8.48111082845699,0.,           105P    258
-41.9010036390511,6.3001052840986,0.,-45.4722174834772,              105P    259
4.92366154627272,0.,-47.6856868125961,4.51681365765821,0.,           105P    260
-48.9829028943279,4.60616082683444,0.,-49.6876473510489,             105P    261
4.83971882832913,0.,-50.,5.,0.,0.,2.,30.,0.230719241268672,          105P    262
3.63090751828217,30.,0.590670854936376,6.73175228521395,30.,         105P    263
0.82613913265443,10.9001110054055,30.,0.526738870010694,             105P    264
15.4850636296023,30.,-0.885153058951709,19.5674492328319,30.,        105P    265
-3.33394589658063,21.9931867743733,30.,-6.77962613375832,            105P    266
22.8075374001671,30.,-11.1159553252521,22.1482403621069,30.,         105P    267
-16.1407150827509,20.2892917315832,30.,-21.5902452455813,            105P    268
17.5915316617335,30.,-27.1703192564957,14.4590524602402,30.,         105P    269
-32.5848513508042,11.2991508434382,30.,-37.5660394022473,            105P    270
8.48111082845699,30.,-41.9010036390511,6.3001052840986,30.,          105P    271
-45.4722174834772,4.92366154627272,30.,-47.6856868125961,            105P    272
4.51681365765821,30.,-48.9829028943279,4.60616082683444,30.,         105P    273
-49.6876473510489,4.83971882832913,30.,-50.,5.,30.,0.,1.,0.,3.;      105P    274
128,1,1,1,1,0,0,1,0,0,-0.001,-0.001,0.201,0.201,-0.001,-0.001,       107P    275
3.001,3.001,1.,1.,1.,1.,0.,-0.01,-0.01,0.,2.01,-0.01,0.,-0.01,       107P    276
30.01,0.,2.01,30.01,-0.001,0.201,-0.001,3.001;                       107P    277
128,1,1,1,1,0,0,1,0,0,-2.60812957136402,-2.60812957136402,           109P    278
2.57155978129703,2.57155978129703,-1.14137687000835,                 109P    279
-1.14137687000835,1.10654287440832,1.10654287440832,1.,1.,1.,1.,     109P    280
-51.1143501909155,-0.0099999999999989,30.,0.682543335695072,         109P    281
-0.0099999999999989,30.,-51.1143501909155,22.4691974441668,30.,      109P    282
0.682543335695076,22.4691974441668,30.,-2.60812957136402,            109P    283
2.57155978129703,-1.14137687000835,1.10654287440832;                 109P    284
128,1,1,1,1,0,0,1,0,0,-2.60812957136402,-2.60812957136402,           111P    285
2.57155978129703,2.57155978129703,-1.14137687000835,                 111P    286
-1.14137687000835,1.10654287440832,1.10654287440832,1.,1.,1.,1.,     111P    287
0.682543335695063,-0.0099999999999989,0.,-51.1143501909155,          111P    288
-0.0099999999999989,0.,0.682543335695058,22.4691974441668,0.,        111P    289
-51.1143501909155,22.4691974441668,0.,-2.60812957136402,             111P    290
2.57155978129703,-1.14137687000835,1.10654287440832;                 111P    291
502,16,0.,0.,0.,-50.,0.,0.,0.,0.,30.,-50.,0.,30.,-50.,2.,0.,         113P    292
-50.,2.,30.,-1.29999997094274,1.99999995529652,0.,                   113P    293
-1.29999997094274,1.99999995529652,30.,-1.21308021642023,            113P    294
2.17161055669503,0.,-1.21308021642023,2.17161055669503,30.,          113P    295
-50.5593374929977,3.90997460416449,0.,-50.5593374929977,             113P    296
3.90997460416449,30.,-50.,5.,0.,-50.,5.,30.,0.,2.,0.,0.,2.,30.;      113P    297
504,24,45,113,1,113,2,47,113,1,113,3,49,113,4,113,3,51,113,2,        115P    298
113,4,53,113,5,113,2,55,113,6,113,4,57,113,5,113,6,59,113,7,113,     115P    299
5,61,113,8,113,6,63,113,7,113,8,65,113,9,113,7,67,113,10,113,8,      115P    300
69,113,9,113,10,71,113,9,113,11,73,113,12,113,10,75,113,11,113,      115P    301
12,77,113,13,113,11,79,113,14,113,12,81,113,13,113,14,83,113,15,     115P    302
113,13,85,113,16,113,14,87,113,15,113,16,89,113,1,113,15,91,113,     115P    303
3,113,16;                                                            115P    304
406,1,5HBody1;                                                       117P    305
314,62.7450980392157,62.7450980392157,62.7450980392157,13HSteel      119P    306
- Satin;                                                             119P    307
S      1G      3D    120P    307                                        T      1
