                                                                        S      1
,,11HNewkansi v2,11HNewkansi v2,7Hunknown,7Hunknown,32,38,7,99,15,,1.,2,G      1
2HMM,1,0.08,15H20240829.143543,0.01,10000.,7Hunknown,7Hunknown,11,0,15H2G      2
0240816.135048;                                                         G      3
     186       1                                                00000000D      1
     186            -199       1       0                               0D      2
     514       2                                                00010000D      3
     514                       2       1                               0D      4
     510       4                                                00010000D      5
     510            -199       1       1                               0D      6
     510       5                                                00010000D      7
     510            -199       1       1                               0D      8
     510       6                                                00010000D      9
     510            -199       1       1                               0D     10
     510       7                                                00010000D     11
     510            -199       1       1                               0D     12
     510       8                                                00010000D     13
     510            -199       1       1                               0D     14
     510       9                                                00010000D     15
     510            -199       1       1                               0D     16
     510      10                                                00010000D     17
     510            -199       1       1                               0D     18
     510      11                                                00010000D     19
     510            -199       1       1                               0D     20
     510      12                                                00010000D     21
     510            -199       1       1                               0D     22
     510      13                                                00010000D     23
     510            -199       1       1                               0D     24
     510      14                                                00010000D     25
     510            -199       1       1                               0D     26
     510      15                                                00010000D     27
     510            -199       1       1                               0D     28
     510      16                                                00010000D     29
     510            -199       1       1                               0D     30
     510      17                                                00010000D     31
     510            -199       1       1                               0D     32
     510      18                                                00010000D     33
     510            -199       1       1                               0D     34
     510      19                                                00010000D     35
     510            -199       1       1                               0D     36
     510      20                                                00010000D     37
     510            -199       1       1                               0D     38
     510      21                                                00010000D     39
     510            -199       1       1                               0D     40
     508      22                                                00010000D     41
     508                       1       1                               0D     42
     508      23                                                00010000D     43
     508                       1       1                               0D     44
     508      24                                                00010000D     45
     508                       2       1                               0D     46
     508      26                                                00010000D     47
     508                       1       1                               0D     48
     508      27                                                00010000D     49
     508                       1       1                               0D     50
     508      28                                                00010000D     51
     508                       1       1                               0D     52
     508      29                                                00010000D     53
     508                       1       1                               0D     54
     508      30                                                00010000D     55
     508                       1       1                               0D     56
     508      31                                                00010000D     57
     508                       1       1                               0D     58
     508      32                                                00010000D     59
     508                       1       1                               0D     60
     508      33                                                00010000D     61
     508                       1       1                               0D     62
     508      34                                                00010000D     63
     508                       1       1                               0D     64
     508      35                                                00010000D     65
     508                       1       1                               0D     66
     508      36                                                00010000D     67
     508                       1       1                               0D     68
     508      37                                                00010000D     69
     508                       1       1                               0D     70
     508      38                                                00010000D     71
     508                       1       1                               0D     72
     508      39                                                00010000D     73
     508                       1       1                               0D     74
     508      40                                                00010000D     75
     508                       2       1                               0D     76
     508      42                                                00010000D     77
     508                       1       1                               0D     78
     508      43                                                00010000D     79
     508                       1       1                               0D     80
     508      44                                                00010000D     81
     508                       1       1                               0D     82
     508      45                                                00010000D     83
     508                       1       1                               0D     84
     126      46                                                00010000D     85
     126       0               5       0                               0D     86
     126      51                                                00010000D     87
     126       0               2       0                               0D     88
     126      53                                                00010000D     89
     126       0               5       0                               0D     90
     126      58                                                00010000D     91
     126       0               2       0                               0D     92
     126      60                                                00010000D     93
     126       0               2       0                               0D     94
     126      62                                                00010000D     95
     126       0               2       0                               0D     96
     126      64                                                00010000D     97
     126       0               2       0                               0D     98
     126      66                                                00010000D     99
     126       0               3       0                               0D    100
     126      69                                                00010000D    101
     126       0               5       0                               0D    102
     126      74                                                00010000D    103
     126       0               2       0                               0D    104
     126      76                                                00010000D    105
     126       0               6       0                               0D    106
     126      82                                                00010000D    107
     126       0               2       0                               0D    108
     126      84                                                00010000D    109
     126       0               5       0                               0D    110
     126      89                                                00010000D    111
     126       0               5       0                               0D    112
     126      94                                                00010000D    113
     126       0               2       0                               0D    114
     126      96                                                00010000D    115
     126       0               2       0                               0D    116
     126      98                                                00010000D    117
     126       0               2       0                               0D    118
     126     100                                                00010000D    119
     126       0               2       0                               0D    120
     126     102                                                00010000D    121
     126       0               5       0                               0D    122
     126     107                                                00010000D    123
     126       0               2       0                               0D    124
     126     109                                                00010000D    125
     126       0               5       0                               0D    126
     126     114                                                00010000D    127
     126       0               2       0                               0D    128
     126     116                                                00010000D    129
     126       0              12       0                               0D    130
     126     128                                                00010000D    131
     126       0               3       0                               0D    132
     126     131                                                00010000D    133
     126       0              12       0                               0D    134
     126     143                                                00010000D    135
     126       0              12       0                               0D    136
     126     155                                                00010000D    137
     126       0               3       0                               0D    138
     126     158                                                00010000D    139
     126       0              12       0                               0D    140
     126     170                                                00010000D    141
     126       0              12       0                               0D    142
     126     182                                                00010000D    143
     126       0               3       0                               0D    144
     126     185                                                00010000D    145
     126       0              12       0                               0D    146
     126     197                                                00010000D    147
     126       0              12       0                               0D    148
     126     209                                                00010000D    149
     126       0               3       0                               0D    150
     126     212                                                00010000D    151
     126       0              12       0                               0D    152
     126     224                                                00010000D    153
     126       0               3       0                               0D    154
     126     227                                                00010000D    155
     126       0               3       0                               0D    156
     128     230                                                00010000D    157
     128       0    -199       6       0                               0D    158
     128     236                                                00010000D    159
     128       0    -199       4       0                               0D    160
     128     240                                                00010000D    161
     128       0    -199       5       0                               0D    162
     128     245                                                00010000D    163
     128       0    -199       7       0                               0D    164
     128     252                                                00010000D    165
     128       0    -199       3       0                               0D    166
     128     255                                                00010000D    167
     128       0    -199       9       0                               0D    168
     128     264                                                00010000D    169
     128       0    -199       7       0                               0D    170
     128     271                                                00010000D    171
     128       0    -199      20       0                               0D    172
     128     291                                                00010000D    173
     128       0    -199       5       0                               0D    174
     128     296                                                00010000D    175
     128       0    -199      20       0                               0D    176
     128     316                                                00010000D    177
     128       0    -199       5       0                               0D    178
     128     321                                                00010000D    179
     128       0    -199      20       0                               0D    180
     128     341                                                00010000D    181
     128       0    -199       5       0                               0D    182
     128     346                                                00010000D    183
     128       0    -199      20       0                               0D    184
     128     366                                                00010000D    185
     128       0    -199       5       0                               0D    186
     128     371                                                00010000D    187
     128       0    -199       4       0                               0D    188
     128     375                                                00010000D    189
     128       0    -199       5       0                               0D    190
     128     380                                                00010000D    191
     128       0    -199       5       0                               0D    192
     502     385                                                00010000D    193
     502                      10       1                               0D    194
     504     395                                                00010001D    195
     504                      10       1                               0D    196
     406     405                                                00000000D    197
     406                       1      15                               0D    198
     314     406                                                00000200D    199
     314                       2       0                               0D    200
186,3,1,0,0,1,197;                                                     1P      1
514,18,5,1,7,1,9,1,11,1,13,1,15,1,17,1,19,1,21,1,23,1,25,1,27,1,       3P      2
29,1,31,1,33,1,35,1,37,1,39,1;                                         3P      3
510,157,1,1,41;                                                        5P      4
510,159,1,1,43;                                                        7P      5
510,161,1,1,45;                                                        9P      6
510,163,1,1,47;                                                       11P      7
510,165,1,1,49;                                                       13P      8
510,167,1,1,51;                                                       15P      9
510,169,1,1,53;                                                       17P     10
510,171,1,1,55;                                                       19P     11
510,173,1,1,57;                                                       21P     12
510,175,1,1,59;                                                       23P     13
510,177,1,1,61;                                                       25P     14
510,179,1,1,63;                                                       27P     15
510,181,1,1,65;                                                       29P     16
510,183,1,1,67;                                                       31P     17
510,185,1,1,69;                                                       33P     18
510,187,1,1,71;                                                       35P     19
510,189,1,1,73;                                                       37P     20
510,191,5,1,75,77,79,81,83;                                           39P     21
508,4,0,195,1,1,0,0,195,2,1,0,0,195,3,1,0,0,195,4,1,0;                41P     22
508,4,0,195,4,0,0,0,195,5,0,0,0,195,6,0,0,0,195,7,0,0;                43P     23
508,8,0,195,3,0,0,0,195,8,1,0,0,195,9,0,0,0,195,10,1,0,0,195,11,      45P     24
0,0,0,195,12,1,0,0,195,13,0,0,0,195,5,1,0;                            45P     25
508,4,0,195,14,1,0,0,195,15,1,0,0,195,9,1,0,0,195,16,1,0;             47P     26
508,4,0,195,15,0,0,0,195,17,0,0,0,195,18,0,0,0,195,10,0,0;            49P     27
508,4,0,195,19,1,0,0,195,20,1,0,0,195,11,1,0,0,195,18,1,0;            51P     28
508,4,0,195,21,1,0,0,195,6,1,0,0,195,13,1,0,0,195,22,1,0;             53P     29
508,4,0,195,23,0,0,0,195,24,1,0,0,195,25,0,0,0,195,24,0,0;            55P     30
508,1,0,195,23,1,0;                                                   57P     31
508,4,0,195,26,0,0,0,195,27,1,0,0,195,28,0,0,0,195,27,0,0;            59P     32
508,1,0,195,26,1,0;                                                   61P     33
508,4,0,195,29,0,0,0,195,30,1,0,0,195,31,0,0,0,195,30,0,0;            63P     34
508,1,0,195,29,1,0;                                                   65P     35
508,4,0,195,32,0,0,0,195,33,1,0,0,195,34,0,0,0,195,33,0,0;            67P     36
508,1,0,195,32,1,0;                                                   69P     37
508,4,0,195,20,0,0,0,195,35,0,0,0,195,22,0,0,0,195,12,0,0;            71P     38
508,4,0,195,2,0,0,0,195,36,0,0,0,195,16,0,0,0,195,8,0,0;              73P     39
508,8,0,195,1,0,0,0,195,7,1,0,0,195,21,0,0,0,195,35,1,0,0,195,        75P     40
19,0,0,0,195,17,1,0,0,195,14,0,0,0,195,36,1,0;                        75P     41
508,1,0,195,25,1,0;                                                   77P     42
508,1,0,195,28,1,0;                                                   79P     43
508,1,0,195,31,1,0;                                                   81P     44
508,1,0,195,34,1,0;                                                   83P     45
126,2,2,0,0,0,0,-0.785398163397448,-0.785398163397448,                85P     46
-0.785398163397448,0.785398163397448,0.785398163397448,               85P     47
0.785398163397448,1.,0.707106781186545,1.,-123.,3.,-43.95,-123.,      85P     48
3.,-45.95,-121.,3.,-45.95,-0.785398163397448,0.785398163397448,       85P     49
0.,0.,0.;                                                             85P     50
126,1,1,0,0,1,0,-0.3,-0.3,0.,0.,1.,1.,-121.,3.,-45.95,-121.,0.,       87P     51
-45.95,-0.3,0.,0.,0.,0.;                                              87P     52
126,2,2,0,0,0,0,-0.785398163397448,-0.785398163397448,                89P     53
-0.785398163397448,0.785398163397448,0.785398163397448,               89P     54
0.785398163397448,1.,0.707106781186545,1.,-121.,0.,-45.95,-123.,      89P     55
0.,-45.95,-123.,0.,-43.95,-0.785398163397448,0.785398163397448,       89P     56
0.,0.,0.;                                                             89P     57
126,1,1,0,0,1,0,0.,0.,0.3,0.3,1.,1.,-123.,0.,-43.95,-123.,3.,         91P     58
-43.95,0.,0.3,0.,0.,0.;                                               91P     59
126,1,1,0,0,1,0,0.2,0.2,4.395,4.395,1.,1.,-123.,0.,-2.,-123.,0.,      93P     60
-43.95,0.2,4.395,0.,0.,0.;                                            93P     61
126,1,1,0,0,1,0,-0.3,-0.3,0.,0.,1.,1.,-123.,3.,-2.,-123.,0.,-2.,      95P     62
-0.3,0.,0.,0.,0.;                                                     95P     63
126,1,1,0,0,1,0,-4.395,-4.395,-0.2,-0.2,1.,1.,-123.,3.,-43.95,        97P     64
-123.,3.,-2.,-4.395,-0.2,0.,0.,0.;                                    97P     65
126,1,1,0,0,1,0,0.199999999999999,0.199999999999999,12.1,12.1,        99P     66
1.,1.,-121.,0.,-45.95,-1.99999999999999,0.,-45.95,                    99P     67
0.199999999999999,12.1,0.,0.,0.;                                      99P     68
126,2,2,0,0,0,0,-0.785398163397451,-0.785398163397451,               101P     69
-0.785398163397451,0.785398163397442,0.785398163397442,              101P     70
0.785398163397442,1.,0.707106781186548,1.,-2.77555756156289D-16,     101P     71
0.,-43.95,-6.2450045135165D-16,0.,-45.95,-1.99999999999999,0.,       101P     72
-45.95,-0.785398163397451,0.785398163397442,0.,0.,0.;                101P     73
126,1,1,0,0,1,0,0.2,0.2,4.395,4.395,1.,1.,0.,0.,-43.95,0.,0.,        103P     74
-2.,0.2,4.395,0.,0.,0.;                                              103P     75
126,2,2,0,0,0,0,-0.785398163397449,-0.785398163397449,               105P     76
-0.785398163397449,0.785398163397449,0.785398163397449,              105P     77
0.785398163397449,1.,0.707106781186547,1.,-2.,0.,0.,                 105P     78
2.08166817117218D-16,0.,6.93889390390724D-17,                        105P     79
-1.66533453693773D-15,0.,-2.,-0.785398163397449,                     105P     80
0.785398163397449,0.,0.,0.;                                          105P     81
126,1,1,0,0,1,0,0.2,0.2,12.1,12.1,1.,1.,-2.,0.,0.,-121.,0.,0.,       107P     82
0.2,12.1,0.,0.,0.;                                                   107P     83
126,2,2,0,0,0,0,-0.785398163397451,-0.785398163397451,               109P     84
-0.785398163397451,0.785398163397446,0.785398163397446,              109P     85
0.785398163397446,1.,0.707106781186551,1.,-123.,0.,-2.,-123.,0.,     109P     86
-1.66533453693773D-15,-121.,0.,-1.66533453693773D-15,                109P     87
-0.785398163397451,0.785398163397446,0.,0.,0.;                       109P     88
126,2,2,0,0,0,0,-0.785398163397442,-0.785398163397442,               111P     89
-0.785398163397442,0.785398163397451,0.785398163397451,              111P     90
0.785398163397451,1.,0.707106781186548,1.,-1.99999999999999,3.,      111P     91
-45.95,-6.2450045135165D-16,3.,-45.95,-2.77555756156289D-16,3.,      111P     92
-43.95,-0.785398163397442,0.785398163397451,0.,0.,0.;                111P     93
126,1,1,0,0,1,0,-0.3,-0.3,0.,0.,1.,1.,0.,3.,-43.95,0.,0.,-43.95,     113P     94
-0.3,0.,0.,0.,0.;                                                    113P     95
126,1,1,0,0,1,0,0.,0.,0.3,0.3,1.,1.,-2.,0.,-45.95,-2.,3.,-45.95,     115P     96
0.,0.3,0.,0.,0.;                                                     115P     97
126,1,1,0,0,1,0,-4.395,-4.395,-0.2,-0.2,1.,1.,0.,3.,-2.,0.,3.,       117P     98
-43.95,-4.395,-0.2,0.,0.,0.;                                         117P     99
126,1,1,0,0,1,0,0.,0.,0.3,0.3,1.,1.,0.,0.,-2.,0.,3.,-2.,0.,0.3,      119P    100
0.,0.,0.;                                                            119P    101
126,2,2,0,0,0,0,-0.785398163397449,-0.785398163397449,               121P    102
-0.785398163397449,0.785398163397449,0.785398163397449,              121P    103
0.785398163397449,1.,0.707106781186547,1.,-1.66533453693773D-15,     121P    104
3.,-2.,2.08166817117218D-16,3.,6.93889390390724D-17,-2.,3.,0.,       121P    105
-0.785398163397449,0.785398163397449,0.,0.,0.;                       121P    106
126,1,1,0,0,1,0,-0.3,-0.3,0.,0.,1.,1.,-2.,3.,0.,-2.,0.,0.,-0.3,      123P    107
0.,0.,0.,0.;                                                         123P    108
126,2,2,0,0,0,0,-0.785398163397446,-0.785398163397446,               125P    109
-0.785398163397446,0.785398163397451,0.785398163397451,              125P    110
0.785398163397451,1.,0.707106781186551,1.,-121.,3.,                  125P    111
-1.66533453693773D-15,-123.,3.,-1.66533453693773D-15,-123.,3.,       125P    112
-2.,-0.785398163397446,0.785398163397451,0.,0.,0.;                   125P    113
126,1,1,0,0,1,0,0.,0.,0.3,0.3,1.,1.,-121.,0.,0.,-121.,3.,0.,0.,      127P    114
0.3,0.,0.,0.;                                                        127P    115
126,8,2,0,1,0,0,-3.14159265358979,-3.14159265358979,                 129P    116
-3.14159265358979,-1.5707963267949,-1.5707963267949,0.,0.,           129P    117
1.5707963267949,1.5707963267949,3.14159265358979,                    129P    118
3.14159265358979,3.14159265358979,1.,0.707106781186548,1.,           129P    119
0.707106781186548,1.,0.707106781186548,1.,0.707106781186548,1.,      129P    120
-2.03553390593274,16.,-3.53553390593274,-2.03553390593274,16.,       129P    121
-5.03553390593274,-3.53553390593274,16.,-5.03553390593274,           129P    122
-5.03553390593274,16.,-5.03553390593274,-5.03553390593274,16.,       129P    123
-3.53553390593274,-5.03553390593274,16.,-2.03553390593274,           129P    124
-3.53553390593274,16.,-2.03553390593274,-2.03553390593274,16.,       129P    125
-2.03553390593274,-2.03553390593274,16.,-3.53553390593274,           129P    126
-3.14159265358979,3.14159265358979,0.,0.,0.;                         129P    127
126,1,1,0,0,1,0,-8.66666666666667,-8.66666666666667,0.,0.,1.,1.,     131P    128
-2.03553390593274,16.,-3.53553390593274,-2.03553390593274,3.,        131P    129
-3.53553390593274,-8.66666666666667,0.,0.,0.,0.;                     131P    130
126,8,2,0,1,0,0,-3.14159265358979,-3.14159265358979,                 133P    131
-3.14159265358979,-1.5707963267949,-1.5707963267949,0.,0.,           133P    132
1.5707963267949,1.5707963267949,3.14159265358979,                    133P    133
3.14159265358979,3.14159265358979,1.,0.707106781186548,1.,           133P    134
0.707106781186548,1.,0.707106781186548,1.,0.707106781186548,1.,      133P    135
-2.03553390593274,3.,-3.53553390593274,-2.03553390593274,3.,         133P    136
-2.03553390593274,-3.53553390593274,3.,-2.03553390593274,            133P    137
-5.03553390593274,3.,-2.03553390593274,-5.03553390593274,3.,         133P    138
-3.53553390593274,-5.03553390593274,3.,-5.03553390593274,            133P    139
-3.53553390593274,3.,-5.03553390593274,-2.03553390593274,3.,         133P    140
-5.03553390593274,-2.03553390593274,3.,-3.53553390593274,            133P    141
-3.14159265358979,3.14159265358979,0.,0.,0.;                         133P    142
126,8,2,0,1,0,0,-3.14159265358979,-3.14159265358979,                 135P    143
-3.14159265358979,-1.5707963267949,-1.5707963267949,0.,0.,           135P    144
1.5707963267949,1.5707963267949,3.14159265358979,                    135P    145
3.14159265358979,3.14159265358979,1.,0.707106781186547,1.,           135P    146
0.707106781186547,1.,0.707106781186547,1.,0.707106781186547,1.,      135P    147
-117.964466094067,16.,-42.4144660940673,-117.964466094067,16.,       135P    148
-43.9144660940673,-119.464466094067,16.,-43.9144660940673,           135P    149
-120.964466094067,16.,-43.9144660940673,-120.964466094067,16.,       135P    150
-42.4144660940673,-120.964466094067,16.,-40.9144660940673,           135P    151
-119.464466094067,16.,-40.9144660940673,-117.964466094067,16.,       135P    152
-40.9144660940673,-117.964466094067,16.,-42.4144660940673,           135P    153
-3.14159265358979,3.14159265358979,0.,0.,0.;                         135P    154
126,1,1,0,0,1,0,-8.66666666666665,-8.66666666666665,0.,0.,1.,1.,     137P    155
-117.964466094067,16.,-42.4144660940673,-117.964466094067,3.,        137P    156
-42.4144660940673,-8.66666666666665,0.,0.,0.,0.;                     137P    157
126,8,2,0,1,0,0,-3.14159265358979,-3.14159265358979,                 139P    158
-3.14159265358979,-1.5707963267949,-1.5707963267949,0.,0.,           139P    159
1.5707963267949,1.5707963267949,3.14159265358979,                    139P    160
3.14159265358979,3.14159265358979,1.,0.707106781186547,1.,           139P    161
0.707106781186547,1.,0.707106781186547,1.,0.707106781186547,1.,      139P    162
-117.964466094067,3.,-42.4144660940673,-117.964466094067,3.,         139P    163
-40.9144660940673,-119.464466094067,3.,-40.9144660940673,            139P    164
-120.964466094067,3.,-40.9144660940673,-120.964466094067,3.,         139P    165
-42.4144660940673,-120.964466094067,3.,-43.9144660940673,            139P    166
-119.464466094067,3.,-43.9144660940673,-117.964466094067,3.,         139P    167
-43.9144660940673,-117.964466094067,3.,-42.4144660940673,            139P    168
-3.14159265358979,3.14159265358979,0.,0.,0.;                         139P    169
126,8,2,0,1,0,0,-3.14159265358979,-3.14159265358979,                 141P    170
-3.14159265358979,-1.5707963267949,-1.5707963267949,0.,0.,           141P    171
1.5707963267949,1.5707963267949,3.14159265358979,                    141P    172
3.14159265358979,3.14159265358979,1.,0.707106781186538,1.,           141P    173
0.707106781186538,1.,0.707106781186539,1.,0.707106781186539,1.,      141P    174
-117.964466094067,16.,-3.53553390593273,-117.964466094067,16.,       141P    175
-5.03553390593274,-119.464466094067,16.,-5.03553390593274,           141P    176
-120.964466094067,16.,-5.03553390593274,-120.964466094067,16.,       141P    177
-3.53553390593273,-120.964466094067,16.,-2.03553390593273,           141P    178
-119.464466094067,16.,-2.03553390593273,-117.964466094067,16.,       141P    179
-2.03553390593273,-117.964466094067,16.,-3.53553390593273,           141P    180
-3.14159265358979,3.14159265358979,0.,0.,0.;                         141P    181
126,1,1,0,0,1,0,-8.66666666666665,-8.66666666666665,0.,0.,1.,1.,     143P    182
-117.964466094067,16.,-3.53553390593273,-117.964466094067,3.,        143P    183
-3.53553390593273,-8.66666666666665,0.,0.,0.,0.;                     143P    184
126,8,2,0,1,0,0,-3.14159265358979,-3.14159265358979,                 145P    185
-3.14159265358979,-1.5707963267949,-1.5707963267949,0.,0.,           145P    186
1.5707963267949,1.5707963267949,3.14159265358979,                    145P    187
3.14159265358979,3.14159265358979,1.,0.707106781186539,1.,           145P    188
0.707106781186539,1.,0.707106781186538,1.,0.707106781186538,1.,      145P    189
-117.964466094067,3.,-3.53553390593273,-117.964466094067,3.,         145P    190
-2.03553390593273,-119.464466094067,3.,-2.03553390593273,            145P    191
-120.964466094067,3.,-2.03553390593273,-120.964466094067,3.,         145P    192
-3.53553390593273,-120.964466094067,3.,-5.03553390593274,            145P    193
-119.464466094067,3.,-5.03553390593274,-117.964466094067,3.,         145P    194
-5.03553390593274,-117.964466094067,3.,-3.53553390593273,            145P    195
-3.14159265358979,3.14159265358979,0.,0.,0.;                         145P    196
126,8,2,0,1,0,0,-3.14159265358979,-3.14159265358979,                 147P    197
-3.14159265358979,-1.5707963267949,-1.5707963267949,0.,0.,           147P    198
1.5707963267949,1.5707963267949,3.14159265358979,                    147P    199
3.14159265358979,3.14159265358979,1.,0.707106781186539,1.,           147P    200
0.707106781186539,1.,0.707106781186539,1.,0.707106781186539,1.,      147P    201
-2.03553390593274,16.,-42.4144660940673,-2.03553390593274,16.,       147P    202
-43.9144660940673,-3.53553390593274,16.,-43.9144660940673,           147P    203
-5.03553390593274,16.,-43.9144660940673,-5.03553390593274,16.,       147P    204
-42.4144660940673,-5.03553390593274,16.,-40.9144660940673,           147P    205
-3.53553390593274,16.,-40.9144660940673,-2.03553390593274,16.,       147P    206
-40.9144660940673,-2.03553390593274,16.,-42.4144660940673,           147P    207
-3.14159265358979,3.14159265358979,0.,0.,0.;                         147P    208
126,1,1,0,0,1,0,-8.66666666666667,-8.66666666666667,0.,0.,1.,1.,     149P    209
-2.03553390593274,16.,-42.4144660940673,-2.03553390593274,3.,        149P    210
-42.4144660940673,-8.66666666666667,0.,0.,0.,0.;                     149P    211
126,8,2,0,1,0,0,-3.14159265358979,-3.14159265358979,                 151P    212
-3.14159265358979,-1.5707963267949,-1.5707963267949,0.,0.,           151P    213
1.5707963267949,1.5707963267949,3.14159265358979,                    151P    214
3.14159265358979,3.14159265358979,1.,0.707106781186539,1.,           151P    215
0.707106781186539,1.,0.707106781186539,1.,0.707106781186539,1.,      151P    216
-2.03553390593274,3.,-42.4144660940673,-2.03553390593274,3.,         151P    217
-40.9144660940673,-3.53553390593274,3.,-40.9144660940673,            151P    218
-5.03553390593274,3.,-40.9144660940673,-5.03553390593274,3.,         151P    219
-42.4144660940673,-5.03553390593274,3.,-43.9144660940673,            151P    220
-3.53553390593274,3.,-43.9144660940673,-2.03553390593274,3.,         151P    221
-43.9144660940673,-2.03553390593274,3.,-42.4144660940673,            151P    222
-3.14159265358979,3.14159265358979,0.,0.,0.;                         151P    223
126,1,1,0,0,1,0,-12.1,-12.1,-0.199999999999999,                      153P    224
-0.199999999999999,1.,1.,-121.,3.,0.,-2.,3.,0.,-12.1,                153P    225
-0.199999999999999,0.,0.,0.;                                         153P    226
126,1,1,0,0,1,0,-12.1,-12.1,-0.199999999999999,                      155P    227
-0.199999999999999,1.,1.,-1.99999999999999,3.,-45.95,-121.,3.,       155P    228
-45.95,-12.1,-0.199999999999999,0.,0.,0.;                            155P    229
128,1,2,1,2,0,0,0,0,0,0.,0.,1.5,1.5,-0.785398163397448,              157P    230
-0.785398163397448,-0.785398163397448,0.785398163397448,             157P    231
0.785398163397448,0.785398163397448,1.,1.,0.707106781186548,         157P    232
0.707106781186548,1.,1.,-121.,3.,-45.95,-121.,0.,-45.95,-123.,       157P    233
3.,-45.95,-123.,0.,-45.95,-123.,3.,-43.95,-123.,0.,-43.95,0.,        157P    234
1.5,-0.785398163397448,0.785398163397448;                            157P    235
128,1,1,1,1,0,0,1,0,0,0.198999999999999,0.198999999999999,4.396,     159P    236
4.396,-0.001,-0.001,0.301,0.301,1.,1.,1.,1.,-123.,-0.01,-43.96,      159P    237
-123.,-0.01,-1.99,-123.,3.01,-43.96,-123.,3.01,-1.99,                159P    238
0.198999999999999,4.396,-0.001,0.301;                                159P    239
128,1,1,1,1,0,0,1,0,0,-6.151,-6.151,6.151,6.151,-2.2985,-2.2985,     161P    240
2.2985,2.2985,1.,1.,1.,1.,0.0100000000000033,0.,                     161P    241
0.0099999999999989,-123.01,0.,0.0099999999999989,                    161P    242
0.0100000000000122,0.,-45.96,-123.01,0.,-45.96,-6.151,6.151,         161P    243
-2.2985,2.2985;                                                      161P    244
128,1,2,1,2,0,0,0,0,0,0.,0.,1.5,1.5,-0.785398163397451,              163P    245
-0.785398163397451,-0.785398163397451,0.785398163397446,             163P    246
0.785398163397446,0.785398163397446,1.,1.,0.707106781186548,         163P    247
0.707106781186548,1.,1.,1.38777878078145D-15,3.,-43.95,              163P    248
1.38777878078145D-15,0.,-43.95,-5.82867087928207D-15,3.,-45.95,      163P    249
-5.82867087928207D-15,0.,-45.95,-2.,3.,-45.95,-2.,0.,-45.95,0.,      163P    250
1.5,-0.785398163397451,0.785398163397446;                            163P    251
128,1,1,1,1,0,0,1,0,0,0.199,0.199,4.396,4.396,-0.001,-0.001,         165P    252
0.301,0.301,1.,1.,1.,1.,0.,-0.01,-1.99,0.,-0.01,-43.96,0.,3.01,      165P    253
-1.99,0.,3.01,-43.96,0.199,4.396,-0.001,0.301;                       165P    254
128,1,2,1,2,0,0,0,0,0,0.,0.,1.5,1.5,-0.785398163397449,              167P    255
-0.785398163397449,-0.785398163397449,0.785398163397449,             167P    256
0.785398163397449,0.785398163397449,1.,1.,0.707106781186547,         167P    257
0.707106781186547,1.,1.,-2.,3.,1.38777878078145D-16,-2.,0.,          167P    258
1.38777878078145D-16,2.77555756156289D-16,3.,                        167P    259
-2.77555756156289D-16,2.77555756156289D-16,0.,                       167P    260
-2.77555756156289D-16,-1.66533453693773D-15,3.,-2.,                  167P    261
-1.66533453693773D-15,0.,-2.,0.,1.5,-0.785398163397449,              167P    262
0.785398163397449;                                                   167P    263
128,1,2,1,2,0,0,0,0,0,0.,0.,1.5,1.5,-0.785398163397451,              169P    264
-0.785398163397451,-0.785398163397451,0.785398163397446,             169P    265
0.785398163397446,0.785398163397446,1.,1.,0.707106781186548,         169P    266
0.707106781186548,1.,1.,-123.,3.,-2.,-123.,0.,-2.,-123.,3.,          169P    267
2.77555756156289D-15,-123.,0.,2.77555756156289D-15,-121.,3.,         169P    268
-1.2490009027033D-15,-121.,0.,-1.2490009027033D-15,0.,1.5,           169P    269
-0.785398163397451,0.785398163397446;                                169P    270
128,1,8,1,2,0,1,0,0,1,0.,0.,8.66666666666667,8.66666666666667,       171P    271
-3.14159265358979,-3.14159265358979,-3.14159265358979,               171P    272
-1.5707963267949,-1.5707963267949,0.,0.,1.5707963267949,             171P    273
1.5707963267949,3.14159265358979,3.14159265358979,                   171P    274
3.14159265358979,1.,1.,0.707106781186548,0.707106781186548,1.,       171P    275
1.,0.707106781186548,0.707106781186548,1.,1.,0.707106781186548,      171P    276
0.707106781186548,1.,1.,0.707106781186548,0.707106781186548,1.,      171P    277
1.,-2.03553390593274,16.,-3.53553390593274,-2.03553390593274,3.,     171P    278
-3.53553390593274,-2.03553390593274,16.,-5.03553390593274,           171P    279
-2.03553390593274,3.,-5.03553390593274,-3.53553390593274,16.,        171P    280
-5.03553390593274,-3.53553390593274,3.,-5.03553390593274,            171P    281
-5.03553390593274,16.,-5.03553390593274,-5.03553390593274,3.,        171P    282
-5.03553390593274,-5.03553390593274,16.,-3.53553390593274,           171P    283
-5.03553390593274,3.,-3.53553390593274,-5.03553390593274,16.,        171P    284
-2.03553390593274,-5.03553390593274,3.,-2.03553390593274,            171P    285
-3.53553390593274,16.,-2.03553390593274,-3.53553390593274,3.,        171P    286
-2.03553390593274,-2.03553390593274,16.,-2.03553390593274,           171P    287
-2.03553390593274,3.,-2.03553390593274,-2.03553390593274,16.,        171P    288
-3.53553390593274,-2.03553390593274,3.,-3.53553390593274,0.,         171P    289
8.66666666666667,-3.14159265358979,3.14159265358979;                 171P    290
128,1,1,1,1,0,0,1,0,0,-0.151,-0.151,0.151,0.151,-0.151,-0.151,       173P    291
0.151,0.151,1.,1.,1.,1.,-2.02553390593274,16.,-5.04553390593274,     173P    292
-5.04553390593274,16.,-5.04553390593274,-2.02553390593274,16.,       173P    293
-2.02553390593274,-5.04553390593274,16.,-2.02553390593274,           173P    294
-0.151,0.151,-0.151,0.151;                                           173P    295
128,1,8,1,2,0,1,0,0,1,0.,0.,8.66666666666665,8.66666666666665,       175P    296
-3.14159265358979,-3.14159265358979,-3.14159265358979,               175P    297
-1.5707963267949,-1.5707963267949,0.,0.,1.5707963267949,             175P    298
1.5707963267949,3.14159265358979,3.14159265358979,                   175P    299
3.14159265358979,1.,1.,0.707106781186548,0.707106781186548,1.,       175P    300
1.,0.707106781186548,0.707106781186548,1.,1.,0.707106781186548,      175P    301
0.707106781186548,1.,1.,0.707106781186548,0.707106781186548,1.,      175P    302
1.,-117.964466094067,16.,-42.4144660940673,-117.964466094067,3.,     175P    303
-42.4144660940673,-117.964466094067,16.,-43.9144660940673,           175P    304
-117.964466094067,3.,-43.9144660940673,-119.464466094067,16.,        175P    305
-43.9144660940673,-119.464466094067,3.,-43.9144660940673,            175P    306
-120.964466094067,16.,-43.9144660940673,-120.964466094067,3.,        175P    307
-43.9144660940673,-120.964466094067,16.,-42.4144660940673,           175P    308
-120.964466094067,3.,-42.4144660940673,-120.964466094067,16.,        175P    309
-40.9144660940673,-120.964466094067,3.,-40.9144660940673,            175P    310
-119.464466094067,16.,-40.9144660940673,-119.464466094067,3.,        175P    311
-40.9144660940673,-117.964466094067,16.,-40.9144660940673,           175P    312
-117.964466094067,3.,-40.9144660940673,-117.964466094067,16.,        175P    313
-42.4144660940673,-117.964466094067,3.,-42.4144660940673,0.,         175P    314
8.66666666666665,-3.14159265358979,3.14159265358979;                 175P    315
128,1,1,1,1,0,0,1,0,0,-0.151,-0.151,0.151,0.151,-0.151,-0.151,       177P    316
0.151,0.151,1.,1.,1.,1.,-117.954466094067,16.,-43.9244660940673,     177P    317
-120.974466094067,16.,-43.9244660940673,-117.954466094067,16.,       177P    318
-40.9044660940673,-120.974466094067,16.,-40.9044660940673,           177P    319
-0.151,0.151,-0.151,0.151;                                           177P    320
128,1,8,1,2,0,1,0,0,1,0.,0.,8.66666666666665,8.66666666666665,       179P    321
-3.14159265358979,-3.14159265358979,-3.14159265358979,               179P    322
-1.5707963267949,-1.5707963267949,0.,0.,1.5707963267949,             179P    323
1.5707963267949,3.14159265358979,3.14159265358979,                   179P    324
3.14159265358979,1.,1.,0.707106781186548,0.707106781186548,1.,       179P    325
1.,0.707106781186548,0.707106781186548,1.,1.,0.707106781186548,      179P    326
0.707106781186548,1.,1.,0.707106781186548,0.707106781186548,1.,      179P    327
1.,-117.964466094067,16.,-3.53553390593273,-117.964466094067,3.,     179P    328
-3.53553390593273,-117.964466094067,16.,-5.03553390593274,           179P    329
-117.964466094067,3.,-5.03553390593274,-119.464466094067,16.,        179P    330
-5.03553390593274,-119.464466094067,3.,-5.03553390593274,            179P    331
-120.964466094067,16.,-5.03553390593274,-120.964466094067,3.,        179P    332
-5.03553390593274,-120.964466094067,16.,-3.53553390593273,           179P    333
-120.964466094067,3.,-3.53553390593273,-120.964466094067,16.,        179P    334
-2.03553390593273,-120.964466094067,3.,-2.03553390593273,            179P    335
-119.464466094067,16.,-2.03553390593273,-119.464466094067,3.,        179P    336
-2.03553390593273,-117.964466094067,16.,-2.03553390593273,           179P    337
-117.964466094067,3.,-2.03553390593273,-117.964466094067,16.,        179P    338
-3.53553390593273,-117.964466094067,3.,-3.53553390593273,0.,         179P    339
8.66666666666665,-3.14159265358979,3.14159265358979;                 179P    340
128,1,1,1,1,0,0,1,0,0,-0.151,-0.151,0.151,0.151,-0.151,-0.151,       181P    341
0.151,0.151,1.,1.,1.,1.,-117.954466094067,16.,-5.04553390593274,     181P    342
-120.974466094067,16.,-5.04553390593274,-117.954466094067,16.,       181P    343
-2.02553390593273,-120.974466094067,16.,-2.02553390593273,           181P    344
-0.151,0.151,-0.151,0.151;                                           181P    345
128,1,8,1,2,0,1,0,0,1,0.,0.,8.66666666666667,8.66666666666667,       183P    346
-3.14159265358979,-3.14159265358979,-3.14159265358979,               183P    347
-1.5707963267949,-1.5707963267949,0.,0.,1.5707963267949,             183P    348
1.5707963267949,3.14159265358979,3.14159265358979,                   183P    349
3.14159265358979,1.,1.,0.707106781186548,0.707106781186548,1.,       183P    350
1.,0.707106781186548,0.707106781186548,1.,1.,0.707106781186548,      183P    351
0.707106781186548,1.,1.,0.707106781186548,0.707106781186548,1.,      183P    352
1.,-2.03553390593274,16.,-42.4144660940673,-2.03553390593274,3.,     183P    353
-42.4144660940673,-2.03553390593274,16.,-43.9144660940673,           183P    354
-2.03553390593274,3.,-43.9144660940673,-3.53553390593274,16.,        183P    355
-43.9144660940673,-3.53553390593274,3.,-43.9144660940673,            183P    356
-5.03553390593274,16.,-43.9144660940673,-5.03553390593274,3.,        183P    357
-43.9144660940673,-5.03553390593274,16.,-42.4144660940673,           183P    358
-5.03553390593274,3.,-42.4144660940673,-5.03553390593274,16.,        183P    359
-40.9144660940673,-5.03553390593274,3.,-40.9144660940673,            183P    360
-3.53553390593274,16.,-40.9144660940673,-3.53553390593274,3.,        183P    361
-40.9144660940673,-2.03553390593274,16.,-40.9144660940673,           183P    362
-2.03553390593274,3.,-40.9144660940673,-2.03553390593274,16.,        183P    363
-42.4144660940673,-2.03553390593274,3.,-42.4144660940673,0.,         183P    364
8.66666666666667,-3.14159265358979,3.14159265358979;                 183P    365
128,1,1,1,1,0,0,1,0,0,-0.151,-0.151,0.151,0.151,-0.151,-0.151,       185P    366
0.151,0.151,1.,1.,1.,1.,-2.02553390593274,16.,-43.9244660940673,     185P    367
-5.04553390593274,16.,-43.9244660940673,-2.02553390593274,16.,       185P    368
-40.9044660940673,-5.04553390593274,16.,-40.9044660940673,           185P    369
-0.151,0.151,-0.151,0.151;                                           185P    370
128,1,1,1,1,0,0,1,0,0,0.198999999999999,0.198999999999999,           187P    371
12.101,12.101,-0.001,-0.001,0.301,0.301,1.,1.,1.,1.,-121.01,         187P    372
-0.01,0.,-1.99,-0.01,0.,-121.01,3.01,0.,-1.99,3.01,0.,               187P    373
0.198999999999999,12.101,-0.001,0.301;                               187P    374
128,1,1,1,1,0,0,1,0,0,0.198999999999999,0.198999999999999,           189P    375
12.101,12.101,-0.001,-0.001,0.301,0.301,1.,1.,1.,1.,                 189P    376
-1.98999999999999,-0.01,-45.95,-121.01,-0.01,-45.95,                 189P    377
-1.98999999999999,3.01,-45.95,-121.01,3.01,-45.95,                   189P    378
0.198999999999999,12.101,-0.001,0.301;                               189P    379
128,1,1,1,1,0,0,1,0,0,-2.2985,-2.2985,2.2985,2.2985,-6.151,          191P    380
-6.151,6.151,6.151,1.,1.,1.,1.,-123.01,3.,-45.96,-123.01,3.,         191P    381
0.0099999999999989,0.0100000000000033,3.,-45.96,                     191P    382
0.0100000000000122,3.,0.00999999999999446,-2.2985,2.2985,-6.151,     191P    383
6.151;                                                               191P    384
502,24,-123.,3.,-43.95,-121.,3.,-45.95,-121.,0.,-45.95,-123.,0.,     193P    385
-43.95,-123.,0.,-2.,-123.,3.,-2.,-1.99999999999999,0.,-45.95,0.,     193P    386
0.,-43.95,0.,0.,-2.,-2.,0.,0.,-121.,0.,0.,-1.99999999999999,3.,      193P    387
-45.95,0.,3.,-43.95,0.,3.,-2.,-2.,3.,0.,-121.,3.,0.,                 193P    388
-2.03553390593274,16.,-3.53553390593274,-2.03553390593274,3.,        193P    389
-3.53553390593274,-117.964466094067,16.,-42.4144660940673,           193P    390
-117.964466094067,3.,-42.4144660940673,-117.964466094067,16.,        193P    391
-3.53553390593273,-117.964466094067,3.,-3.53553390593273,            193P    392
-2.03553390593274,16.,-42.4144660940673,-2.03553390593274,3.,        193P    393
-42.4144660940673;                                                   193P    394
504,36,85,193,1,193,2,87,193,2,193,3,89,193,3,193,4,91,193,4,        195P    395
193,1,93,193,5,193,4,95,193,6,193,5,97,193,1,193,6,99,193,3,193,     195P    396
7,101,193,8,193,7,103,193,8,193,9,105,193,10,193,9,107,193,10,       195P    397
193,11,109,193,5,193,11,111,193,12,193,13,113,193,13,193,8,115,      195P    398
193,7,193,12,117,193,14,193,13,119,193,9,193,14,121,193,14,193,      195P    399
15,123,193,15,193,10,125,193,16,193,6,127,193,11,193,16,129,193,     195P    400
17,193,17,131,193,17,193,18,133,193,18,193,18,135,193,19,193,19,     195P    401
137,193,19,193,20,139,193,20,193,20,141,193,21,193,21,143,193,       195P    402
21,193,22,145,193,22,193,22,147,193,23,193,23,149,193,23,193,24,     195P    403
151,193,24,193,24,153,193,16,193,15,155,193,12,193,2;                195P    404
406,1,5HBody1;                                                       197P    405
314,62.7450980392157,62.7450980392157,62.7450980392157,13HSteel      199P    406
- Satin;                                                             199P    407
S      1G      3D    200P    407                                        T      1
