G04 #@! TF.GenerationSoftware,KiCad,Pcbnew,(6.0.7-1)-1*
G04 #@! TF.CreationDate,2024-08-15T11:28:19+03:00*
G04 #@! TF.ProjectId,Induction,496e6475-6374-4696-9f6e-2e6b69636164,rev?*
G04 #@! TF.SameCoordinates,Original*
G04 #@! TF.FileFunction,Paste,Top*
G04 #@! TF.FilePolarity,Positive*
%FSLAX46Y46*%
G04 Gerber Fmt 4.6, Leading zero omitted, Abs format (unit mm)*
G04 Created by KiCad (PCBNEW (6.0.7-1)-1) date 2024-08-15 11:28:19*
%MOMM*%
%LPD*%
G01*
G04 APERTURE LIST*
G04 Aperture macros list*
%AMRoundRect*
0 Rectangle with rounded corners*
0 $1 Rounding radius*
0 $2 $3 $4 $5 $6 $7 $8 $9 X,Y pos of 4 corners*
0 Add a 4 corners polygon primitive as box body*
4,1,4,$2,$3,$4,$5,$6,$7,$8,$9,$2,$3,0*
0 Add four circle primitives for the rounded corners*
1,1,$1+$1,$2,$3*
1,1,$1+$1,$4,$5*
1,1,$1+$1,$6,$7*
1,1,$1+$1,$8,$9*
0 Add four rect primitives between the rounded corners*
20,1,$1+$1,$2,$3,$4,$5,0*
20,1,$1+$1,$4,$5,$6,$7,0*
20,1,$1+$1,$6,$7,$8,$9,0*
20,1,$1+$1,$8,$9,$2,$3,0*%
G04 Aperture macros list end*
%ADD10C,0.001000*%
%ADD11RoundRect,0.237500X0.300000X0.237500X-0.300000X0.237500X-0.300000X-0.237500X0.300000X-0.237500X0*%
%ADD12R,1.981200X0.355600*%
%ADD13RoundRect,0.155000X-0.212500X-0.155000X0.212500X-0.155000X0.212500X0.155000X-0.212500X0.155000X0*%
G04 APERTURE END LIST*
G36*
X162200000Y-74411000D02*
G01*
X162062000Y-74582000D01*
X161952000Y-74744000D01*
X161851000Y-74925000D01*
X161779000Y-75086000D01*
X161682000Y-75370000D01*
X161674000Y-75400000D01*
X160800000Y-75400000D01*
X160800000Y-73200000D01*
X161200000Y-72800000D01*
X162200000Y-72800000D01*
X162200000Y-74411000D01*
G37*
D10*
X162200000Y-74411000D02*
X162062000Y-74582000D01*
X161952000Y-74744000D01*
X161851000Y-74925000D01*
X161779000Y-75086000D01*
X161682000Y-75370000D01*
X161674000Y-75400000D01*
X160800000Y-75400000D01*
X160800000Y-73200000D01*
X161200000Y-72800000D01*
X162200000Y-72800000D01*
X162200000Y-74411000D01*
G36*
X162582000Y-77938000D02*
G01*
X162699000Y-78019000D01*
X162877000Y-78124000D01*
X163101000Y-78228000D01*
X163287000Y-78294000D01*
X163400000Y-78325000D01*
X163400000Y-79200000D01*
X160800000Y-79200000D01*
X160800000Y-77800000D01*
X162411000Y-77800000D01*
X162582000Y-77938000D01*
G37*
X162582000Y-77938000D02*
X162699000Y-78019000D01*
X162877000Y-78124000D01*
X163101000Y-78228000D01*
X163287000Y-78294000D01*
X163400000Y-78325000D01*
X163400000Y-79200000D01*
X160800000Y-79200000D01*
X160800000Y-77800000D01*
X162411000Y-77800000D01*
X162582000Y-77938000D01*
G36*
X167200000Y-74200000D02*
G01*
X165588000Y-74200000D01*
X165419000Y-74063000D01*
X165316000Y-73990000D01*
X165152000Y-73891000D01*
X164894000Y-73768000D01*
X164657000Y-73688000D01*
X164600000Y-73676000D01*
X164600000Y-72800000D01*
X167200000Y-72800000D01*
X167200000Y-74200000D01*
G37*
X167200000Y-74200000D02*
X165588000Y-74200000D01*
X165419000Y-74063000D01*
X165316000Y-73990000D01*
X165152000Y-73891000D01*
X164894000Y-73768000D01*
X164657000Y-73688000D01*
X164600000Y-73676000D01*
X164600000Y-72800000D01*
X167200000Y-72800000D01*
X167200000Y-74200000D01*
G36*
X167200000Y-79200000D02*
G01*
X165800000Y-79200000D01*
X165800000Y-77589000D01*
X165867000Y-77511000D01*
X165946000Y-77408000D01*
X166088000Y-77190000D01*
X166219000Y-76921000D01*
X166301000Y-76689000D01*
X166326000Y-76600000D01*
X167200000Y-76600000D01*
X167200000Y-79200000D01*
G37*
X167200000Y-79200000D02*
X165800000Y-79200000D01*
X165800000Y-77589000D01*
X165867000Y-77511000D01*
X165946000Y-77408000D01*
X166088000Y-77190000D01*
X166219000Y-76921000D01*
X166301000Y-76689000D01*
X166326000Y-76600000D01*
X167200000Y-76600000D01*
X167200000Y-79200000D01*
G36*
X162582000Y-66938000D02*
G01*
X162699000Y-67019000D01*
X162877000Y-67124000D01*
X163101000Y-67228000D01*
X163287000Y-67294000D01*
X163400000Y-67325000D01*
X163400000Y-68200000D01*
X160800000Y-68200000D01*
X160800000Y-66800000D01*
X162411000Y-66800000D01*
X162582000Y-66938000D01*
G37*
X162582000Y-66938000D02*
X162699000Y-67019000D01*
X162877000Y-67124000D01*
X163101000Y-67228000D01*
X163287000Y-67294000D01*
X163400000Y-67325000D01*
X163400000Y-68200000D01*
X160800000Y-68200000D01*
X160800000Y-66800000D01*
X162411000Y-66800000D01*
X162582000Y-66938000D01*
G36*
X167200000Y-68200000D02*
G01*
X165800000Y-68200000D01*
X165800000Y-66589000D01*
X165867000Y-66511000D01*
X165946000Y-66408000D01*
X166088000Y-66190000D01*
X166219000Y-65921000D01*
X166301000Y-65689000D01*
X166326000Y-65600000D01*
X167200000Y-65600000D01*
X167200000Y-68200000D01*
G37*
X167200000Y-68200000D02*
X165800000Y-68200000D01*
X165800000Y-66589000D01*
X165867000Y-66511000D01*
X165946000Y-66408000D01*
X166088000Y-66190000D01*
X166219000Y-65921000D01*
X166301000Y-65689000D01*
X166326000Y-65600000D01*
X167200000Y-65600000D01*
X167200000Y-68200000D01*
G36*
X162200000Y-63411000D02*
G01*
X162062000Y-63582000D01*
X161952000Y-63744000D01*
X161851000Y-63925000D01*
X161779000Y-64086000D01*
X161682000Y-64370000D01*
X161674000Y-64400000D01*
X160800000Y-64400000D01*
X160800000Y-62200000D01*
X161200000Y-61800000D01*
X162200000Y-61800000D01*
X162200000Y-63411000D01*
G37*
X162200000Y-63411000D02*
X162062000Y-63582000D01*
X161952000Y-63744000D01*
X161851000Y-63925000D01*
X161779000Y-64086000D01*
X161682000Y-64370000D01*
X161674000Y-64400000D01*
X160800000Y-64400000D01*
X160800000Y-62200000D01*
X161200000Y-61800000D01*
X162200000Y-61800000D01*
X162200000Y-63411000D01*
G36*
X167200000Y-63200000D02*
G01*
X165588000Y-63200000D01*
X165419000Y-63063000D01*
X165316000Y-62990000D01*
X165152000Y-62891000D01*
X164894000Y-62768000D01*
X164657000Y-62688000D01*
X164600000Y-62676000D01*
X164600000Y-61800000D01*
X167200000Y-61800000D01*
X167200000Y-63200000D01*
G37*
X167200000Y-63200000D02*
X165588000Y-63200000D01*
X165419000Y-63063000D01*
X165316000Y-62990000D01*
X165152000Y-62891000D01*
X164894000Y-62768000D01*
X164657000Y-62688000D01*
X164600000Y-62676000D01*
X164600000Y-61800000D01*
X167200000Y-61800000D01*
X167200000Y-63200000D01*
D11*
X158000000Y-66000000D03*
X156275000Y-66000000D03*
X158000000Y-68000000D03*
X156275000Y-68000000D03*
X158000000Y-76000000D03*
X156275000Y-76000000D03*
D12*
X147536200Y-68142500D03*
X147536200Y-68777500D03*
X147536200Y-69412500D03*
X147536200Y-70047500D03*
X147536200Y-70682500D03*
X147536200Y-71317500D03*
X147536200Y-71952500D03*
X147536200Y-72587500D03*
X147536200Y-73222500D03*
X147536200Y-73857500D03*
X152463800Y-73857500D03*
X152463800Y-73222500D03*
X152463800Y-72587500D03*
X152463800Y-71952500D03*
X152463800Y-71317500D03*
X152463800Y-70682500D03*
X152463800Y-70047500D03*
X152463800Y-69412500D03*
X152463800Y-68777500D03*
X152463800Y-68142500D03*
D13*
X142432500Y-75500000D03*
X143567500Y-75500000D03*
D11*
X158000000Y-74000000D03*
X156275000Y-74000000D03*
M02*
