G04 #@! TF.GenerationSoftware,KiCad,Pcbnew,(6.0.7-1)-1*
G04 #@! TF.CreationDate,2024-08-15T11:28:18+03:00*
G04 #@! TF.ProjectId,Induction,496e6475-6374-4696-9f6e-2e6b69636164,rev?*
G04 #@! TF.SameCoordinates,Original*
G04 #@! TF.FileFunction,Copper,L1,Top*
G04 #@! TF.FilePolarity,Positive*
%FSLAX46Y46*%
G04 Gerber Fmt 4.6, Leading zero omitted, Abs format (unit mm)*
G04 Created by KiCad (PCBNEW (6.0.7-1)-1) date 2024-08-15 11:28:18*
%MOMM*%
%LPD*%
G01*
G04 APERTURE LIST*
G04 Aperture macros list*
%AMRoundRect*
0 Rectangle with rounded corners*
0 $1 Rounding radius*
0 $2 $3 $4 $5 $6 $7 $8 $9 X,Y pos of 4 corners*
0 Add a 4 corners polygon primitive as box body*
4,1,4,$2,$3,$4,$5,$6,$7,$8,$9,$2,$3,0*
0 Add four circle primitives for the rounded corners*
1,1,$1+$1,$2,$3*
1,1,$1+$1,$4,$5*
1,1,$1+$1,$6,$7*
1,1,$1+$1,$8,$9*
0 Add four rect primitives between the rounded corners*
20,1,$1+$1,$2,$3,$4,$5,0*
20,1,$1+$1,$4,$5,$6,$7,0*
20,1,$1+$1,$6,$7,$8,$9,0*
20,1,$1+$1,$8,$9,$2,$3,0*%
%AMFreePoly0*
4,1,26,0.700354,1.300354,0.700500,1.300000,0.700500,-0.311000,0.700435,-0.311157,0.700389,-0.311314,0.562405,-0.482294,0.452424,-0.644266,0.351443,-0.825234,0.279467,-0.986179,0.182478,-1.270146,0.174483,-1.300129,0.174404,-1.300232,0.174354,-1.300354,0.174292,-1.300380,0.174251,-1.300433,0.174121,-1.300450,0.174000,-1.300500,-0.700000,-1.300500,-0.700354,-1.300354,-0.700500,-1.300000,
-0.700501,0.900000,-0.700354,0.900354,-0.300354,1.300354,-0.300000,1.300500,0.700000,1.300500,0.700354,1.300354,0.700354,1.300354,$1*%
%AMFreePoly1*
4,1,25,1.200354,0.700354,1.200500,0.700000,1.200500,-0.700000,1.200354,-0.700354,1.200000,-0.700500,-0.412000,-0.700500,-0.412151,-0.700438,-0.412315,-0.700389,-0.581300,-0.563401,-0.684277,-0.490417,-0.848238,-0.391440,-1.106183,-0.268466,-1.343136,-0.188482,-1.400103,-0.176489,-1.400219,-0.176410,-1.400354,-0.176354,-1.400375,-0.176303,-1.400419,-0.176273,-1.400445,-0.176133,-1.400500,-0.176000,
-1.400500,0.700000,-1.400354,0.700354,-1.400000,0.700500,1.200000,0.700500,1.200354,0.700354,1.200354,0.700354,$1*%
%AMFreePoly2*
4,1,25,0.700354,1.400354,0.700500,1.400000,0.700500,-1.200000,0.700354,-1.200354,0.700000,-1.200500,-0.700000,-1.200500,-0.700354,-1.200354,-0.700500,-1.200000,-0.700500,0.411000,-0.700433,0.411163,-0.700379,0.411326,-0.633390,0.489314,-0.554410,0.592286,-0.412438,0.810244,-0.281460,1.079199,-0.199476,1.311153,-0.174481,1.400136,-0.174403,1.400236,-0.174354,1.400354,-0.174289,1.400381,
-0.174245,1.400437,-0.174116,1.400452,-0.174000,1.400500,0.700000,1.400500,0.700354,1.400354,0.700354,1.400354,$1*%
%AMFreePoly3*
4,1,25,0.411154,0.700437,0.411314,0.700389,0.582297,0.562403,0.699262,0.481427,0.877222,0.376449,1.101189,0.272463,1.287154,0.206476,1.400132,0.175482,1.400233,0.175404,1.400354,0.175354,1.400380,0.175290,1.400435,0.175248,1.400451,0.175119,1.400500,0.175000,1.400500,-0.700000,1.400354,-0.700354,1.400000,-0.700500,-1.200000,-0.700500,-1.200354,-0.700354,-1.200500,-0.700000,
-1.200500,0.700000,-1.200354,0.700354,-1.200000,0.700500,0.411000,0.700500,0.411154,0.700437,0.411154,0.700437,$1*%
G04 Aperture macros list end*
G04 #@! TA.AperFunction,SMDPad,CuDef*
%ADD10RoundRect,0.237500X0.300000X0.237500X-0.300000X0.237500X-0.300000X-0.237500X0.300000X-0.237500X0*%
G04 #@! TD*
G04 #@! TA.AperFunction,SMDPad,CuDef*
%ADD11R,1.981200X0.355600*%
G04 #@! TD*
G04 #@! TA.AperFunction,SMDPad,CuDef*
%ADD12RoundRect,0.155000X-0.212500X-0.155000X0.212500X-0.155000X0.212500X0.155000X-0.212500X0.155000X0*%
G04 #@! TD*
G04 #@! TA.AperFunction,ComponentPad*
%ADD13RoundRect,0.250000X0.550000X-0.550000X0.550000X0.550000X-0.550000X0.550000X-0.550000X-0.550000X0*%
G04 #@! TD*
G04 #@! TA.AperFunction,ComponentPad*
%ADD14C,1.600000*%
G04 #@! TD*
G04 #@! TA.AperFunction,SMDPad,CuDef*
%ADD15FreePoly0,0.000000*%
G04 #@! TD*
G04 #@! TA.AperFunction,SMDPad,CuDef*
%ADD16FreePoly1,0.000000*%
G04 #@! TD*
G04 #@! TA.AperFunction,SMDPad,CuDef*
%ADD17FreePoly2,0.000000*%
G04 #@! TD*
G04 #@! TA.AperFunction,SMDPad,CuDef*
%ADD18FreePoly3,0.000000*%
G04 #@! TD*
G04 #@! TA.AperFunction,ViaPad*
%ADD19C,1.700000*%
G04 #@! TD*
G04 #@! TA.AperFunction,Conductor*
%ADD20C,0.300000*%
G04 #@! TD*
G04 #@! TA.AperFunction,Conductor*
%ADD21C,0.250000*%
G04 #@! TD*
G04 APERTURE END LIST*
D10*
X158000000Y-66000000D03*
X156275000Y-66000000D03*
X158000000Y-68000000D03*
X156275000Y-68000000D03*
X158000000Y-76000000D03*
X156275000Y-76000000D03*
D11*
X147536200Y-68142500D03*
X147536200Y-68777500D03*
X147536200Y-69412500D03*
X147536200Y-70047500D03*
X147536200Y-70682500D03*
X147536200Y-71317500D03*
X147536200Y-71952500D03*
X147536200Y-72587500D03*
X147536200Y-73222500D03*
X147536200Y-73857500D03*
X152463800Y-73857500D03*
X152463800Y-73222500D03*
X152463800Y-72587500D03*
X152463800Y-71952500D03*
X152463800Y-71317500D03*
X152463800Y-70682500D03*
X152463800Y-70047500D03*
X152463800Y-69412500D03*
X152463800Y-68777500D03*
X152463800Y-68142500D03*
D12*
X142432500Y-75500000D03*
X143567500Y-75500000D03*
D13*
X171000000Y-72600000D03*
D14*
X171000000Y-69000000D03*
D10*
X158000000Y-74000000D03*
X156275000Y-74000000D03*
D15*
X161500000Y-74100000D03*
D16*
X166000000Y-73500000D03*
D17*
X166500000Y-78000000D03*
D18*
X162000000Y-78500000D03*
D13*
X143000000Y-72600000D03*
D14*
X143000000Y-69000000D03*
D15*
X161500000Y-63100000D03*
D16*
X166000000Y-62500000D03*
D17*
X166500000Y-67000000D03*
D18*
X162000000Y-67500000D03*
D19*
X159500000Y-64500000D03*
X159200000Y-70700000D03*
D20*
X158582500Y-71317500D02*
X159200000Y-70700000D01*
X152463800Y-71317500D02*
X158582500Y-71317500D01*
D21*
X152463800Y-70682500D02*
X155282850Y-70682500D01*
X155282850Y-70682500D02*
X156565350Y-69400000D01*
X156565350Y-69400000D02*
X166400000Y-69400000D01*
X166400000Y-69400000D02*
X169600000Y-72600000D01*
D20*
X152463800Y-70047500D02*
X155246804Y-70047500D01*
X155246804Y-70047500D02*
X156394304Y-68900000D01*
X156394304Y-68900000D02*
X164100000Y-68900000D01*
X164100000Y-68900000D02*
X164500000Y-68500000D01*
X164500000Y-68500000D02*
X164500000Y-64000000D01*
X164500000Y-64000000D02*
X166000000Y-62500000D01*
X158000000Y-68000000D02*
X161500000Y-68000000D01*
X158000000Y-66000000D02*
X158000000Y-68000000D01*
X161500000Y-68000000D02*
X162000000Y-67500000D01*
X156000000Y-66000000D02*
X156275000Y-66000000D01*
X153857500Y-68142500D02*
X156000000Y-66000000D01*
X152463800Y-68142500D02*
X153857500Y-68142500D01*
X155000000Y-68000000D02*
X156275000Y-68000000D01*
X154222500Y-68777500D02*
X155000000Y-68000000D01*
X152463800Y-68777500D02*
X154222500Y-68777500D01*
X159500000Y-78500000D02*
X162000000Y-78500000D01*
X158000000Y-74000000D02*
X158000000Y-76000000D01*
X158000000Y-77000000D02*
X159500000Y-78500000D01*
X158000000Y-76000000D02*
X158000000Y-77000000D01*
X156000000Y-76000000D02*
X156275000Y-76000000D01*
X153857500Y-73857500D02*
X156000000Y-76000000D01*
X152463800Y-73857500D02*
X153857500Y-73857500D01*
X155000000Y-74000000D02*
X156275000Y-74000000D01*
X152463800Y-73222500D02*
X154222500Y-73222500D01*
X154222500Y-73222500D02*
X155000000Y-74000000D01*
X148826800Y-70047500D02*
X149250000Y-70470700D01*
X143567500Y-75500000D02*
X144500000Y-75500000D01*
X145000000Y-75000000D02*
X145000000Y-74000000D01*
X149250000Y-72742100D02*
X148769600Y-73222500D01*
X149250000Y-70470700D02*
X149250000Y-72742100D01*
X147536200Y-70047500D02*
X148826800Y-70047500D01*
X148769600Y-73222500D02*
X147536200Y-73222500D01*
X144500000Y-75500000D02*
X145000000Y-75000000D01*
X145777500Y-73222500D02*
X147536200Y-73222500D01*
X145000000Y-74000000D02*
X145777500Y-73222500D01*
X161600000Y-74100000D02*
X163000000Y-75500000D01*
D21*
X169600000Y-72600000D02*
X171000000Y-72600000D01*
X166700000Y-75500000D02*
X163000000Y-75500000D01*
X169600000Y-72600000D02*
X166700000Y-75500000D01*
D20*
X161500000Y-74100000D02*
X161600000Y-74100000D01*
X159500000Y-64500000D02*
X159500000Y-64000000D01*
X159500000Y-64000000D02*
X160400000Y-63100000D01*
X160400000Y-63100000D02*
X161500000Y-63100000D01*
X143000000Y-72600000D02*
X144400000Y-72600000D01*
X144400000Y-72600000D02*
X146317500Y-70682500D01*
X146317500Y-70682500D02*
X147536200Y-70682500D01*
X156151554Y-71952500D02*
X156380554Y-72181500D01*
X152463800Y-71952500D02*
X156151554Y-71952500D01*
X164681500Y-72181500D02*
X166000000Y-73500000D01*
X156380554Y-72181500D02*
X164681500Y-72181500D01*
G04 #@! TA.AperFunction,Conductor*
G36*
X171987103Y-60256921D02*
G01*
X172000000Y-60259486D01*
X172012172Y-60257065D01*
X172024579Y-60257065D01*
X172024579Y-60257705D01*
X172035358Y-60257029D01*
X172219248Y-60270181D01*
X172239420Y-60271624D01*
X172257214Y-60274182D01*
X172482960Y-60323290D01*
X172500209Y-60328355D01*
X172555356Y-60348923D01*
X172716670Y-60409090D01*
X172733017Y-60416556D01*
X172935782Y-60527275D01*
X172950905Y-60536994D01*
X173135848Y-60675441D01*
X173149434Y-60687214D01*
X173312786Y-60850566D01*
X173324559Y-60864152D01*
X173463006Y-61049095D01*
X173472725Y-61064218D01*
X173583444Y-61266983D01*
X173590910Y-61283330D01*
X173651077Y-61444644D01*
X173671645Y-61499791D01*
X173676710Y-61517040D01*
X173725818Y-61742786D01*
X173728376Y-61760580D01*
X173742747Y-61961505D01*
X173742971Y-61964639D01*
X173742295Y-61975421D01*
X173742935Y-61975421D01*
X173742935Y-61987828D01*
X173740514Y-62000000D01*
X173742935Y-62012170D01*
X173743079Y-62012894D01*
X173745500Y-62037476D01*
X173745500Y-79962524D01*
X173743079Y-79987103D01*
X173740514Y-80000000D01*
X173742935Y-80012172D01*
X173742935Y-80024579D01*
X173742295Y-80024579D01*
X173742971Y-80035358D01*
X173732641Y-80179788D01*
X173728376Y-80239420D01*
X173725818Y-80257214D01*
X173676710Y-80482960D01*
X173671645Y-80500209D01*
X173590910Y-80716670D01*
X173583444Y-80733017D01*
X173472725Y-80935782D01*
X173463006Y-80950905D01*
X173324559Y-81135848D01*
X173312786Y-81149434D01*
X173149434Y-81312786D01*
X173135848Y-81324559D01*
X172950905Y-81463006D01*
X172935782Y-81472725D01*
X172733017Y-81583444D01*
X172716670Y-81590910D01*
X172555356Y-81651077D01*
X172500209Y-81671645D01*
X172482960Y-81676710D01*
X172257214Y-81725818D01*
X172239420Y-81728376D01*
X172219248Y-81729819D01*
X172035358Y-81742971D01*
X172024579Y-81742295D01*
X172024579Y-81742935D01*
X172012172Y-81742935D01*
X172000000Y-81740514D01*
X171987103Y-81743079D01*
X171962524Y-81745500D01*
X142037476Y-81745500D01*
X142012897Y-81743079D01*
X142000000Y-81740514D01*
X141987828Y-81742935D01*
X141975421Y-81742935D01*
X141975421Y-81742295D01*
X141964642Y-81742971D01*
X141780752Y-81729819D01*
X141760580Y-81728376D01*
X141742786Y-81725818D01*
X141517040Y-81676710D01*
X141499791Y-81671645D01*
X141444644Y-81651077D01*
X141283330Y-81590910D01*
X141266983Y-81583444D01*
X141064218Y-81472725D01*
X141049095Y-81463006D01*
X140864152Y-81324559D01*
X140850566Y-81312786D01*
X140687214Y-81149434D01*
X140675441Y-81135848D01*
X140536994Y-80950905D01*
X140527275Y-80935782D01*
X140416556Y-80733017D01*
X140409090Y-80716670D01*
X140328355Y-80500209D01*
X140323290Y-80482960D01*
X140274182Y-80257214D01*
X140271624Y-80239420D01*
X140267359Y-80179788D01*
X140257029Y-80035358D01*
X140257705Y-80024579D01*
X140257065Y-80024579D01*
X140257065Y-80012172D01*
X140259486Y-80000000D01*
X140256921Y-79987103D01*
X140254500Y-79962524D01*
X140254500Y-78935964D01*
X141642112Y-78935964D01*
X141642312Y-78941292D01*
X141642312Y-78941294D01*
X141644464Y-78998599D01*
X141643705Y-78998628D01*
X141644034Y-79000016D01*
X141644340Y-78999989D01*
X141644374Y-79000377D01*
X141644465Y-79001838D01*
X141644523Y-79002085D01*
X141644648Y-79003507D01*
X141650736Y-79165669D01*
X141651831Y-79170888D01*
X141664628Y-79231879D01*
X141663861Y-79232040D01*
X141664841Y-79234316D01*
X141664937Y-79235408D01*
X141666361Y-79240722D01*
X141666464Y-79241307D01*
X141667635Y-79246210D01*
X141697939Y-79390637D01*
X141718071Y-79441615D01*
X141723975Y-79456566D01*
X141724724Y-79458541D01*
X141726097Y-79463663D01*
X141728422Y-79468649D01*
X141728423Y-79468651D01*
X141728947Y-79469775D01*
X141731934Y-79476717D01*
X141782372Y-79604436D01*
X141819273Y-79665246D01*
X141820811Y-79668126D01*
X141820890Y-79668080D01*
X141823639Y-79672841D01*
X141825965Y-79677829D01*
X141829122Y-79682337D01*
X141829124Y-79682341D01*
X141830674Y-79684555D01*
X141835181Y-79691462D01*
X141850279Y-79716342D01*
X141901621Y-79800952D01*
X141905116Y-79804979D01*
X141905117Y-79804981D01*
X141951993Y-79859000D01*
X141955555Y-79863563D01*
X141958347Y-79866890D01*
X141961505Y-79871401D01*
X141967791Y-79877687D01*
X141973861Y-79884201D01*
X142052276Y-79974566D01*
X142056407Y-79977953D01*
X142116309Y-80027070D01*
X142123574Y-80033652D01*
X142124706Y-80034602D01*
X142128599Y-80038495D01*
X142133103Y-80041649D01*
X142133108Y-80041653D01*
X142135936Y-80043633D01*
X142143554Y-80049410D01*
X142225901Y-80116931D01*
X142225907Y-80116935D01*
X142230029Y-80120315D01*
X142234668Y-80122955D01*
X142234667Y-80122955D01*
X142307355Y-80164331D01*
X142317296Y-80170622D01*
X142317660Y-80170877D01*
X142317667Y-80170881D01*
X142322171Y-80174035D01*
X142327155Y-80176359D01*
X142327160Y-80176362D01*
X142329875Y-80177628D01*
X142338952Y-80182318D01*
X142383061Y-80207426D01*
X142429798Y-80234030D01*
X142493668Y-80257214D01*
X142519498Y-80266590D01*
X142529753Y-80270833D01*
X142531348Y-80271577D01*
X142531350Y-80271578D01*
X142536337Y-80273903D01*
X142541653Y-80275327D01*
X142541655Y-80275328D01*
X142542719Y-80275613D01*
X142543702Y-80275876D01*
X142554081Y-80279143D01*
X142645871Y-80312461D01*
X142746443Y-80330648D01*
X142756616Y-80332926D01*
X142764592Y-80335063D01*
X142770990Y-80335623D01*
X142782412Y-80337152D01*
X142872069Y-80353364D01*
X142876208Y-80353559D01*
X142876215Y-80353560D01*
X142894670Y-80354430D01*
X142894677Y-80354430D01*
X142896158Y-80354500D01*
X143057712Y-80354500D01*
X143137444Y-80347735D01*
X143223733Y-80340413D01*
X143223737Y-80340412D01*
X143229044Y-80339962D01*
X143234199Y-80338624D01*
X143234205Y-80338623D01*
X143446368Y-80283556D01*
X143446367Y-80283556D01*
X143451539Y-80282214D01*
X143598412Y-80216052D01*
X143656262Y-80189993D01*
X143656265Y-80189992D01*
X143661123Y-80187803D01*
X143851803Y-80059430D01*
X143878826Y-80033652D01*
X144014271Y-79904443D01*
X144018128Y-79900764D01*
X144155342Y-79716342D01*
X144171504Y-79684555D01*
X144257102Y-79516194D01*
X144257102Y-79516193D01*
X144259520Y-79511438D01*
X144323778Y-79304495D01*
X144326103Y-79297006D01*
X144327685Y-79291911D01*
X144338254Y-79212171D01*
X144357188Y-79069319D01*
X144357188Y-79069316D01*
X144357888Y-79064036D01*
X144355536Y-79001401D01*
X144356295Y-79001372D01*
X144355966Y-78999984D01*
X144355660Y-79000011D01*
X144355626Y-78999623D01*
X144355535Y-78998162D01*
X144355477Y-78997915D01*
X144355352Y-78996493D01*
X144349264Y-78834331D01*
X144347163Y-78824315D01*
X144335372Y-78768121D01*
X144336139Y-78767960D01*
X144335159Y-78765684D01*
X144335063Y-78764592D01*
X144333639Y-78759278D01*
X144333536Y-78758693D01*
X144332362Y-78753778D01*
X144323886Y-78713378D01*
X144302061Y-78609363D01*
X144276025Y-78543434D01*
X144275276Y-78541459D01*
X144273903Y-78536337D01*
X144271053Y-78530225D01*
X144268066Y-78523283D01*
X144217628Y-78395564D01*
X144180727Y-78334754D01*
X144179189Y-78331874D01*
X144179110Y-78331920D01*
X144176361Y-78327159D01*
X144174035Y-78322171D01*
X144170876Y-78317659D01*
X144169326Y-78315445D01*
X144164819Y-78308538D01*
X144101147Y-78203609D01*
X144101145Y-78203606D01*
X144098379Y-78199048D01*
X144094776Y-78194896D01*
X144048007Y-78141000D01*
X144044445Y-78136437D01*
X144041653Y-78133110D01*
X144038495Y-78128599D01*
X144032209Y-78122313D01*
X144026139Y-78115799D01*
X143951224Y-78029467D01*
X143951222Y-78029465D01*
X143947724Y-78025434D01*
X143883692Y-77972930D01*
X143876426Y-77966348D01*
X143875294Y-77965398D01*
X143871401Y-77961505D01*
X143866897Y-77958351D01*
X143866892Y-77958347D01*
X143864064Y-77956367D01*
X143856446Y-77950590D01*
X143774099Y-77883069D01*
X143774093Y-77883065D01*
X143769971Y-77879685D01*
X143692645Y-77835669D01*
X143682704Y-77829378D01*
X143682340Y-77829123D01*
X143682333Y-77829119D01*
X143677829Y-77825965D01*
X143672845Y-77823641D01*
X143672840Y-77823638D01*
X143670125Y-77822372D01*
X143661048Y-77817682D01*
X143608603Y-77787829D01*
X143570202Y-77765970D01*
X143480502Y-77733410D01*
X143470247Y-77729167D01*
X143468652Y-77728423D01*
X143468650Y-77728422D01*
X143463663Y-77726097D01*
X143458347Y-77724673D01*
X143458345Y-77724672D01*
X143457281Y-77724387D01*
X143456298Y-77724124D01*
X143445919Y-77720857D01*
X143354129Y-77687539D01*
X143253557Y-77669352D01*
X143243384Y-77667074D01*
X143235408Y-77664937D01*
X143229010Y-77664377D01*
X143217588Y-77662848D01*
X143127931Y-77646636D01*
X143123792Y-77646441D01*
X143123785Y-77646440D01*
X143105330Y-77645570D01*
X143105323Y-77645570D01*
X143103842Y-77645500D01*
X142942288Y-77645500D01*
X142862556Y-77652265D01*
X142776267Y-77659587D01*
X142776263Y-77659588D01*
X142770956Y-77660038D01*
X142765801Y-77661376D01*
X142765795Y-77661377D01*
X142593058Y-77706211D01*
X142548461Y-77717786D01*
X142441497Y-77765970D01*
X142343738Y-77810007D01*
X142343735Y-77810008D01*
X142338877Y-77812197D01*
X142148197Y-77940570D01*
X142144340Y-77944249D01*
X142144338Y-77944251D01*
X142075610Y-78009814D01*
X141981872Y-78099236D01*
X141844658Y-78283658D01*
X141842242Y-78288409D01*
X141842240Y-78288413D01*
X141742898Y-78483806D01*
X141740480Y-78488562D01*
X141672315Y-78708089D01*
X141642112Y-78935964D01*
X140254500Y-78935964D01*
X140254500Y-75772345D01*
X141824487Y-75772345D01*
X141824618Y-75773171D01*
X141830670Y-75791797D01*
X141880488Y-75889568D01*
X141891999Y-75905412D01*
X141969588Y-75983001D01*
X141985432Y-75994512D01*
X142083203Y-76044330D01*
X142101830Y-76050382D01*
X142160606Y-76059691D01*
X142174288Y-76057923D01*
X142178500Y-76043949D01*
X142178500Y-75772115D01*
X142174025Y-75756876D01*
X142172635Y-75755671D01*
X142164952Y-75754000D01*
X141839697Y-75754000D01*
X141826461Y-75757887D01*
X141824487Y-75772345D01*
X140254500Y-75772345D01*
X140254500Y-75228106D01*
X141824416Y-75228106D01*
X141826184Y-75241788D01*
X141840158Y-75246000D01*
X142160385Y-75246000D01*
X142175624Y-75241525D01*
X142176829Y-75240135D01*
X142178500Y-75232452D01*
X142178500Y-74955590D01*
X142174613Y-74942354D01*
X142160155Y-74940380D01*
X142101830Y-74949618D01*
X142083203Y-74955670D01*
X141985432Y-75005488D01*
X141969588Y-75016999D01*
X141891999Y-75094588D01*
X141880488Y-75110432D01*
X141830670Y-75208203D01*
X141824618Y-75226829D01*
X141824416Y-75228106D01*
X140254500Y-75228106D01*
X140254500Y-73197756D01*
X141945500Y-73197756D01*
X141952202Y-73259448D01*
X141954974Y-73266841D01*
X141954974Y-73266843D01*
X141958795Y-73277036D01*
X142002929Y-73394764D01*
X142008309Y-73401943D01*
X142008311Y-73401946D01*
X142072377Y-73487428D01*
X142089596Y-73510404D01*
X142096776Y-73515785D01*
X142198054Y-73591689D01*
X142198057Y-73591691D01*
X142205236Y-73597071D01*
X142292752Y-73629879D01*
X142333157Y-73645026D01*
X142333159Y-73645026D01*
X142340552Y-73647798D01*
X142348402Y-73648651D01*
X142348403Y-73648651D01*
X142398847Y-73654131D01*
X142402244Y-73654500D01*
X143597756Y-73654500D01*
X143601153Y-73654131D01*
X143651597Y-73648651D01*
X143651598Y-73648651D01*
X143659448Y-73647798D01*
X143666841Y-73645026D01*
X143666843Y-73645026D01*
X143707248Y-73629879D01*
X143794764Y-73597071D01*
X143801943Y-73591691D01*
X143801946Y-73591689D01*
X143903224Y-73515785D01*
X143910404Y-73510404D01*
X143927623Y-73487428D01*
X143991689Y-73401946D01*
X143991691Y-73401943D01*
X143997071Y-73394764D01*
X144041205Y-73277036D01*
X144045026Y-73266843D01*
X144045026Y-73266841D01*
X144047798Y-73259448D01*
X144054500Y-73197756D01*
X144054500Y-73130500D01*
X144074502Y-73062379D01*
X144128158Y-73015886D01*
X144180500Y-73004500D01*
X144464066Y-73004500D01*
X144473498Y-73001435D01*
X144473500Y-73001435D01*
X144485287Y-72997605D01*
X144504513Y-72992989D01*
X144516762Y-72991049D01*
X144526555Y-72989498D01*
X144546439Y-72979366D01*
X144564705Y-72971801D01*
X144576496Y-72967970D01*
X144585929Y-72964905D01*
X144603989Y-72951784D01*
X144620846Y-72941454D01*
X144640723Y-72931326D01*
X144663511Y-72908538D01*
X144663515Y-72908535D01*
X146084693Y-71487356D01*
X146147005Y-71453331D01*
X146217820Y-71458395D01*
X146274656Y-71500942D01*
X146297367Y-71551871D01*
X146305866Y-71594601D01*
X146306132Y-71594999D01*
X146312836Y-71657374D01*
X146308859Y-71670920D01*
X146305866Y-71675399D01*
X146303445Y-71687568D01*
X146303445Y-71687569D01*
X146292516Y-71742514D01*
X146291100Y-71749633D01*
X146291101Y-72155366D01*
X146305866Y-72229601D01*
X146306132Y-72229999D01*
X146312836Y-72292374D01*
X146308859Y-72305920D01*
X146305866Y-72310399D01*
X146303445Y-72322568D01*
X146303445Y-72322569D01*
X146295581Y-72362104D01*
X146291100Y-72384633D01*
X146291101Y-72586000D01*
X146291101Y-72692000D01*
X146271099Y-72760120D01*
X146217444Y-72806613D01*
X146165101Y-72818000D01*
X145713434Y-72818000D01*
X145704002Y-72821065D01*
X145704000Y-72821065D01*
X145692213Y-72824895D01*
X145672987Y-72829511D01*
X145650945Y-72833002D01*
X145631062Y-72843133D01*
X145612796Y-72850699D01*
X145591571Y-72857595D01*
X145583547Y-72863425D01*
X145573511Y-72870716D01*
X145556656Y-72881045D01*
X145536777Y-72891174D01*
X145513989Y-72913962D01*
X145513985Y-72913965D01*
X144691465Y-73736485D01*
X144691462Y-73736489D01*
X144668674Y-73759277D01*
X144660560Y-73775201D01*
X144658546Y-73779154D01*
X144648216Y-73796011D01*
X144635095Y-73814071D01*
X144632030Y-73823504D01*
X144628199Y-73835295D01*
X144620634Y-73853561D01*
X144610502Y-73873445D01*
X144608951Y-73883238D01*
X144607011Y-73895487D01*
X144602395Y-73914713D01*
X144600329Y-73921073D01*
X144595500Y-73935934D01*
X144595500Y-74780260D01*
X144575498Y-74848381D01*
X144558595Y-74869355D01*
X144369355Y-75058595D01*
X144307043Y-75092621D01*
X144280260Y-75095500D01*
X144161810Y-75095500D01*
X144093689Y-75075498D01*
X144072715Y-75058595D01*
X144023698Y-75009578D01*
X143908120Y-74950688D01*
X143898331Y-74949138D01*
X143898329Y-74949137D01*
X143870079Y-74944663D01*
X143812226Y-74935500D01*
X143322774Y-74935500D01*
X143264921Y-74944663D01*
X143236671Y-74949137D01*
X143236669Y-74949138D01*
X143226880Y-74950688D01*
X143111302Y-75009578D01*
X143088742Y-75032138D01*
X143026433Y-75066164D01*
X142955617Y-75061101D01*
X142910552Y-75032139D01*
X142895412Y-75016999D01*
X142879568Y-75005488D01*
X142781797Y-74955670D01*
X142763170Y-74949618D01*
X142704394Y-74940309D01*
X142690712Y-74942077D01*
X142686500Y-74956051D01*
X142686500Y-76044410D01*
X142690387Y-76057646D01*
X142704845Y-76059620D01*
X142763170Y-76050382D01*
X142781797Y-76044330D01*
X142879568Y-75994512D01*
X142895414Y-75983000D01*
X142910554Y-75967860D01*
X142972867Y-75933836D01*
X143043682Y-75938902D01*
X143088742Y-75967862D01*
X143111302Y-75990422D01*
X143226880Y-76049312D01*
X143236669Y-76050862D01*
X143236671Y-76050863D01*
X143263102Y-76055049D01*
X143322774Y-76064500D01*
X143812226Y-76064500D01*
X143871898Y-76055049D01*
X143898329Y-76050863D01*
X143898331Y-76050862D01*
X143908120Y-76049312D01*
X144023698Y-75990422D01*
X144072715Y-75941405D01*
X144135027Y-75907379D01*
X144161810Y-75904500D01*
X144564066Y-75904500D01*
X144573498Y-75901435D01*
X144573500Y-75901435D01*
X144585287Y-75897605D01*
X144604513Y-75892989D01*
X144616762Y-75891049D01*
X144626555Y-75889498D01*
X144646439Y-75879366D01*
X144664705Y-75871801D01*
X144676496Y-75867970D01*
X144685929Y-75864905D01*
X144703989Y-75851784D01*
X144720846Y-75841454D01*
X144729648Y-75836969D01*
X144740723Y-75831326D01*
X144763511Y-75808538D01*
X144763515Y-75808535D01*
X145308535Y-75263515D01*
X145308538Y-75263511D01*
X145331326Y-75240723D01*
X145341455Y-75220844D01*
X145351784Y-75203989D01*
X145359075Y-75193953D01*
X145364905Y-75185929D01*
X145371801Y-75164704D01*
X145379367Y-75146438D01*
X145384997Y-75135388D01*
X145389498Y-75126555D01*
X145392989Y-75104513D01*
X145397605Y-75085287D01*
X145401435Y-75073500D01*
X145401435Y-75073498D01*
X145404500Y-75064066D01*
X145404500Y-74219740D01*
X145424502Y-74151619D01*
X145441405Y-74130645D01*
X145517922Y-74054128D01*
X146291601Y-74054128D01*
X146292809Y-74066388D01*
X146303915Y-74122231D01*
X146313233Y-74144727D01*
X146355583Y-74208108D01*
X146372792Y-74225317D01*
X146436175Y-74267668D01*
X146458666Y-74276984D01*
X146514515Y-74288093D01*
X146526770Y-74289300D01*
X147340285Y-74289300D01*
X147355524Y-74284825D01*
X147356729Y-74283435D01*
X147358400Y-74275752D01*
X147358400Y-74271184D01*
X147714000Y-74271184D01*
X147718475Y-74286423D01*
X147719865Y-74287628D01*
X147727548Y-74289299D01*
X148545628Y-74289299D01*
X148557888Y-74288091D01*
X148613731Y-74276985D01*
X148636227Y-74267667D01*
X148699608Y-74225317D01*
X148716817Y-74208108D01*
X148759168Y-74144725D01*
X148768484Y-74122234D01*
X148779593Y-74066385D01*
X148780800Y-74054130D01*
X148780800Y-74053415D01*
X148776325Y-74038176D01*
X148774935Y-74036971D01*
X148767252Y-74035300D01*
X147732115Y-74035300D01*
X147716876Y-74039775D01*
X147715671Y-74041165D01*
X147714000Y-74048848D01*
X147714000Y-74271184D01*
X147358400Y-74271184D01*
X147358400Y-74053415D01*
X147353925Y-74038176D01*
X147352535Y-74036971D01*
X147344852Y-74035300D01*
X146309716Y-74035300D01*
X146294477Y-74039775D01*
X146293272Y-74041165D01*
X146291601Y-74048848D01*
X146291601Y-74054128D01*
X145517922Y-74054128D01*
X145908145Y-73663905D01*
X145970457Y-73629879D01*
X145997240Y-73627000D01*
X146191579Y-73627000D01*
X146259700Y-73647002D01*
X146274091Y-73657775D01*
X146297465Y-73678029D01*
X146305148Y-73679700D01*
X148762684Y-73679700D01*
X148777923Y-73675225D01*
X148791288Y-73659801D01*
X148799083Y-73654633D01*
X151218700Y-73654633D01*
X151218701Y-74060366D01*
X151225812Y-74096118D01*
X151231006Y-74122231D01*
X151233466Y-74134601D01*
X151289716Y-74218784D01*
X151373899Y-74275034D01*
X151448133Y-74289800D01*
X152463635Y-74289800D01*
X153479466Y-74289799D01*
X153553701Y-74275034D01*
X153560197Y-74270693D01*
X153603904Y-74262000D01*
X153637760Y-74262000D01*
X153705881Y-74282002D01*
X153726855Y-74298905D01*
X155446095Y-76018144D01*
X155480120Y-76080456D01*
X155483000Y-76107239D01*
X155483000Y-76284070D01*
X155489536Y-76344236D01*
X155501011Y-76374846D01*
X155527529Y-76445581D01*
X155539007Y-76476199D01*
X155623526Y-76588974D01*
X155736301Y-76673493D01*
X155744702Y-76676643D01*
X155744705Y-76676644D01*
X155788730Y-76693148D01*
X155868264Y-76722964D01*
X155928430Y-76729500D01*
X156621570Y-76729500D01*
X156681736Y-76722964D01*
X156761270Y-76693148D01*
X156805295Y-76676644D01*
X156805298Y-76676643D01*
X156813699Y-76673493D01*
X156926474Y-76588974D01*
X157010993Y-76476199D01*
X157019518Y-76453459D01*
X157062160Y-76396694D01*
X157128722Y-76371995D01*
X157198071Y-76387203D01*
X157248189Y-76437489D01*
X157255482Y-76453459D01*
X157264007Y-76476199D01*
X157348526Y-76588974D01*
X157461301Y-76673493D01*
X157469702Y-76676643D01*
X157469705Y-76676644D01*
X157513730Y-76693148D01*
X157570494Y-76735790D01*
X157595194Y-76802352D01*
X157595500Y-76811130D01*
X157595500Y-77064066D01*
X157598565Y-77073498D01*
X157598565Y-77073500D01*
X157602395Y-77085287D01*
X157607011Y-77104513D01*
X157610502Y-77126555D01*
X157615003Y-77135388D01*
X157620633Y-77146438D01*
X157628199Y-77164704D01*
X157635095Y-77185929D01*
X157640925Y-77193953D01*
X157648216Y-77203989D01*
X157658545Y-77220844D01*
X157668674Y-77240723D01*
X157691462Y-77263511D01*
X157691465Y-77263515D01*
X159168674Y-78740723D01*
X159259277Y-78831326D01*
X159279164Y-78841459D01*
X159296022Y-78851791D01*
X159314071Y-78864904D01*
X159323506Y-78867969D01*
X159323507Y-78867970D01*
X159335296Y-78871801D01*
X159353560Y-78879366D01*
X159373445Y-78889498D01*
X159394969Y-78892907D01*
X159395493Y-78892990D01*
X159414718Y-78897606D01*
X159424133Y-78900665D01*
X159435934Y-78904499D01*
X159468162Y-78904499D01*
X159468166Y-78904500D01*
X160414014Y-78904500D01*
X160482135Y-78924502D01*
X160528628Y-78978158D01*
X160540014Y-79030500D01*
X160540014Y-79199778D01*
X160539973Y-79199984D01*
X160542394Y-79212159D01*
X160557201Y-79286622D01*
X160559645Y-79298913D01*
X160559576Y-79298941D01*
X160559693Y-79299225D01*
X160559713Y-79299255D01*
X160559719Y-79299286D01*
X160559760Y-79299385D01*
X160559791Y-79299372D01*
X160565042Y-79307234D01*
X160565042Y-79307235D01*
X160609474Y-79373767D01*
X160609476Y-79373769D01*
X160616396Y-79384131D01*
X160626767Y-79391039D01*
X160626768Y-79391040D01*
X160695505Y-79436826D01*
X160695510Y-79436829D01*
X160700660Y-79440259D01*
X160701043Y-79440417D01*
X160773699Y-79454817D01*
X160787829Y-79457618D01*
X160787830Y-79457618D01*
X160799984Y-79460027D01*
X160800190Y-79459986D01*
X163399778Y-79459986D01*
X163399984Y-79460027D01*
X163412159Y-79457606D01*
X163489642Y-79442199D01*
X163489644Y-79442198D01*
X163498913Y-79440355D01*
X163498941Y-79440424D01*
X163499225Y-79440307D01*
X163499255Y-79440287D01*
X163499286Y-79440281D01*
X163499385Y-79440240D01*
X163499372Y-79440209D01*
X163507858Y-79434542D01*
X163573767Y-79390526D01*
X163573769Y-79390524D01*
X163584131Y-79383604D01*
X163591280Y-79372871D01*
X163636826Y-79304495D01*
X163636829Y-79304490D01*
X163640259Y-79299340D01*
X163640417Y-79298957D01*
X163660027Y-79200016D01*
X163659986Y-79199810D01*
X163659986Y-79188840D01*
X165540524Y-79188840D01*
X165542905Y-79199788D01*
X165542904Y-79212159D01*
X165557998Y-79288067D01*
X165563305Y-79300596D01*
X165563512Y-79301755D01*
X165563470Y-79302142D01*
X165565458Y-79306956D01*
X165609835Y-79373405D01*
X165627129Y-79390678D01*
X165695698Y-79436353D01*
X165701296Y-79439335D01*
X165707284Y-79441144D01*
X165787829Y-79457108D01*
X165800139Y-79457103D01*
X165808233Y-79459476D01*
X166227885Y-79459476D01*
X166243124Y-79455001D01*
X166244329Y-79453611D01*
X166246000Y-79445928D01*
X166246000Y-79441361D01*
X166754000Y-79441361D01*
X166758475Y-79456600D01*
X166759865Y-79457805D01*
X166767548Y-79459476D01*
X167188840Y-79459476D01*
X167199788Y-79457095D01*
X167212159Y-79457096D01*
X167288067Y-79442002D01*
X167300596Y-79436695D01*
X167301755Y-79436488D01*
X167302142Y-79436530D01*
X167306956Y-79434542D01*
X167373405Y-79390165D01*
X167390678Y-79372871D01*
X167436353Y-79304302D01*
X167439335Y-79298704D01*
X167441144Y-79292716D01*
X167457108Y-79212171D01*
X167457103Y-79199861D01*
X167459476Y-79191767D01*
X167459476Y-78935964D01*
X169642112Y-78935964D01*
X169642312Y-78941292D01*
X169642312Y-78941294D01*
X169644464Y-78998599D01*
X169643705Y-78998628D01*
X169644034Y-79000016D01*
X169644340Y-78999989D01*
X169644374Y-79000377D01*
X169644465Y-79001838D01*
X169644523Y-79002085D01*
X169644648Y-79003507D01*
X169650736Y-79165669D01*
X169651831Y-79170888D01*
X169664628Y-79231879D01*
X169663861Y-79232040D01*
X169664841Y-79234316D01*
X169664937Y-79235408D01*
X169666361Y-79240722D01*
X169666464Y-79241307D01*
X169667635Y-79246210D01*
X169697939Y-79390637D01*
X169718071Y-79441615D01*
X169723975Y-79456566D01*
X169724724Y-79458541D01*
X169726097Y-79463663D01*
X169728422Y-79468649D01*
X169728423Y-79468651D01*
X169728947Y-79469775D01*
X169731934Y-79476717D01*
X169782372Y-79604436D01*
X169819273Y-79665246D01*
X169820811Y-79668126D01*
X169820890Y-79668080D01*
X169823639Y-79672841D01*
X169825965Y-79677829D01*
X169829122Y-79682337D01*
X169829124Y-79682341D01*
X169830674Y-79684555D01*
X169835181Y-79691462D01*
X169850279Y-79716342D01*
X169901621Y-79800952D01*
X169905116Y-79804979D01*
X169905117Y-79804981D01*
X169951993Y-79859000D01*
X169955555Y-79863563D01*
X169958347Y-79866890D01*
X169961505Y-79871401D01*
X169967791Y-79877687D01*
X169973861Y-79884201D01*
X170052276Y-79974566D01*
X170056407Y-79977953D01*
X170116309Y-80027070D01*
X170123574Y-80033652D01*
X170124706Y-80034602D01*
X170128599Y-80038495D01*
X170133103Y-80041649D01*
X170133108Y-80041653D01*
X170135936Y-80043633D01*
X170143554Y-80049410D01*
X170225901Y-80116931D01*
X170225907Y-80116935D01*
X170230029Y-80120315D01*
X170234668Y-80122955D01*
X170234667Y-80122955D01*
X170307355Y-80164331D01*
X170317296Y-80170622D01*
X170317660Y-80170877D01*
X170317667Y-80170881D01*
X170322171Y-80174035D01*
X170327155Y-80176359D01*
X170327160Y-80176362D01*
X170329875Y-80177628D01*
X170338952Y-80182318D01*
X170383061Y-80207426D01*
X170429798Y-80234030D01*
X170493668Y-80257214D01*
X170519498Y-80266590D01*
X170529753Y-80270833D01*
X170531348Y-80271577D01*
X170531350Y-80271578D01*
X170536337Y-80273903D01*
X170541653Y-80275327D01*
X170541655Y-80275328D01*
X170542719Y-80275613D01*
X170543702Y-80275876D01*
X170554081Y-80279143D01*
X170645871Y-80312461D01*
X170746443Y-80330648D01*
X170756616Y-80332926D01*
X170764592Y-80335063D01*
X170770990Y-80335623D01*
X170782412Y-80337152D01*
X170872069Y-80353364D01*
X170876208Y-80353559D01*
X170876215Y-80353560D01*
X170894670Y-80354430D01*
X170894677Y-80354430D01*
X170896158Y-80354500D01*
X171057712Y-80354500D01*
X171137444Y-80347735D01*
X171223733Y-80340413D01*
X171223737Y-80340412D01*
X171229044Y-80339962D01*
X171234199Y-80338624D01*
X171234205Y-80338623D01*
X171446368Y-80283556D01*
X171446367Y-80283556D01*
X171451539Y-80282214D01*
X171598412Y-80216052D01*
X171656262Y-80189993D01*
X171656265Y-80189992D01*
X171661123Y-80187803D01*
X171851803Y-80059430D01*
X171878826Y-80033652D01*
X172014271Y-79904443D01*
X172018128Y-79900764D01*
X172155342Y-79716342D01*
X172171504Y-79684555D01*
X172257102Y-79516194D01*
X172257102Y-79516193D01*
X172259520Y-79511438D01*
X172323778Y-79304495D01*
X172326103Y-79297006D01*
X172327685Y-79291911D01*
X172338254Y-79212171D01*
X172357188Y-79069319D01*
X172357188Y-79069316D01*
X172357888Y-79064036D01*
X172355536Y-79001401D01*
X172356295Y-79001372D01*
X172355966Y-78999984D01*
X172355660Y-79000011D01*
X172355626Y-78999623D01*
X172355535Y-78998162D01*
X172355477Y-78997915D01*
X172355352Y-78996493D01*
X172349264Y-78834331D01*
X172347163Y-78824315D01*
X172335372Y-78768121D01*
X172336139Y-78767960D01*
X172335159Y-78765684D01*
X172335063Y-78764592D01*
X172333639Y-78759278D01*
X172333536Y-78758693D01*
X172332362Y-78753778D01*
X172323886Y-78713378D01*
X172302061Y-78609363D01*
X172276025Y-78543434D01*
X172275276Y-78541459D01*
X172273903Y-78536337D01*
X172271053Y-78530225D01*
X172268066Y-78523283D01*
X172217628Y-78395564D01*
X172180727Y-78334754D01*
X172179189Y-78331874D01*
X172179110Y-78331920D01*
X172176361Y-78327159D01*
X172174035Y-78322171D01*
X172170876Y-78317659D01*
X172169326Y-78315445D01*
X172164819Y-78308538D01*
X172101147Y-78203609D01*
X172101145Y-78203606D01*
X172098379Y-78199048D01*
X172094776Y-78194896D01*
X172048007Y-78141000D01*
X172044445Y-78136437D01*
X172041653Y-78133110D01*
X172038495Y-78128599D01*
X172032209Y-78122313D01*
X172026139Y-78115799D01*
X171951224Y-78029467D01*
X171951222Y-78029465D01*
X171947724Y-78025434D01*
X171883692Y-77972930D01*
X171876426Y-77966348D01*
X171875294Y-77965398D01*
X171871401Y-77961505D01*
X171866897Y-77958351D01*
X171866892Y-77958347D01*
X171864064Y-77956367D01*
X171856446Y-77950590D01*
X171774099Y-77883069D01*
X171774093Y-77883065D01*
X171769971Y-77879685D01*
X171692645Y-77835669D01*
X171682704Y-77829378D01*
X171682340Y-77829123D01*
X171682333Y-77829119D01*
X171677829Y-77825965D01*
X171672845Y-77823641D01*
X171672840Y-77823638D01*
X171670125Y-77822372D01*
X171661048Y-77817682D01*
X171608603Y-77787829D01*
X171570202Y-77765970D01*
X171480502Y-77733410D01*
X171470247Y-77729167D01*
X171468652Y-77728423D01*
X171468650Y-77728422D01*
X171463663Y-77726097D01*
X171458347Y-77724673D01*
X171458345Y-77724672D01*
X171457281Y-77724387D01*
X171456298Y-77724124D01*
X171445919Y-77720857D01*
X171354129Y-77687539D01*
X171253557Y-77669352D01*
X171243384Y-77667074D01*
X171235408Y-77664937D01*
X171229010Y-77664377D01*
X171217588Y-77662848D01*
X171127931Y-77646636D01*
X171123792Y-77646441D01*
X171123785Y-77646440D01*
X171105330Y-77645570D01*
X171105323Y-77645570D01*
X171103842Y-77645500D01*
X170942288Y-77645500D01*
X170862556Y-77652265D01*
X170776267Y-77659587D01*
X170776263Y-77659588D01*
X170770956Y-77660038D01*
X170765801Y-77661376D01*
X170765795Y-77661377D01*
X170593058Y-77706211D01*
X170548461Y-77717786D01*
X170441497Y-77765970D01*
X170343738Y-77810007D01*
X170343735Y-77810008D01*
X170338877Y-77812197D01*
X170148197Y-77940570D01*
X170144340Y-77944249D01*
X170144338Y-77944251D01*
X170075610Y-78009814D01*
X169981872Y-78099236D01*
X169844658Y-78283658D01*
X169842242Y-78288409D01*
X169842240Y-78288413D01*
X169742898Y-78483806D01*
X169740480Y-78488562D01*
X169672315Y-78708089D01*
X169642112Y-78935964D01*
X167459476Y-78935964D01*
X167459476Y-78272115D01*
X167455001Y-78256876D01*
X167453611Y-78255671D01*
X167445928Y-78254000D01*
X166772115Y-78254000D01*
X166756876Y-78258475D01*
X166755671Y-78259865D01*
X166754000Y-78267548D01*
X166754000Y-79441361D01*
X166246000Y-79441361D01*
X166246000Y-78272115D01*
X166241525Y-78256876D01*
X166240135Y-78255671D01*
X166232452Y-78254000D01*
X165558639Y-78254000D01*
X165543400Y-78258475D01*
X165542195Y-78259865D01*
X165540524Y-78267548D01*
X165540524Y-79188840D01*
X163659986Y-79188840D01*
X163659986Y-78325171D01*
X163659457Y-78325171D01*
X163659438Y-78324966D01*
X163659986Y-78324966D01*
X163659986Y-78324901D01*
X163658887Y-78319098D01*
X163658336Y-78313229D01*
X163658682Y-78313197D01*
X163657696Y-78303975D01*
X163657577Y-78299312D01*
X163658027Y-78293137D01*
X163658005Y-78292960D01*
X163657417Y-78293033D01*
X163657407Y-78292635D01*
X163657282Y-78292091D01*
X163657886Y-78292014D01*
X163657868Y-78291873D01*
X163655868Y-78285946D01*
X163655866Y-78285939D01*
X163651233Y-78272211D01*
X163646818Y-78255366D01*
X163643116Y-78235821D01*
X163643115Y-78235818D01*
X163642017Y-78230019D01*
X163642006Y-78229991D01*
X163641494Y-78230192D01*
X163641151Y-78229004D01*
X163640278Y-78227349D01*
X163640854Y-78227115D01*
X163640826Y-78227046D01*
X163637356Y-78221806D01*
X163634421Y-78216240D01*
X163634572Y-78216160D01*
X163629128Y-78206717D01*
X163625139Y-78194896D01*
X163616909Y-78185519D01*
X163616907Y-78185516D01*
X163607943Y-78175303D01*
X163597589Y-78161758D01*
X163590959Y-78151747D01*
X163584051Y-78141316D01*
X163573656Y-78134355D01*
X163566985Y-78127650D01*
X163566953Y-78127684D01*
X163562435Y-78123456D01*
X163558350Y-78118802D01*
X163558290Y-78118756D01*
X163557923Y-78119234D01*
X163557359Y-78118706D01*
X163556914Y-78118431D01*
X163557264Y-78117970D01*
X163557239Y-78117951D01*
X163534061Y-78106523D01*
X163519677Y-78098210D01*
X163515630Y-78095500D01*
X163499923Y-78084983D01*
X163499793Y-78084929D01*
X163499565Y-78085478D01*
X163499125Y-78085243D01*
X163499333Y-78084739D01*
X163499171Y-78084672D01*
X163488527Y-78082461D01*
X163476662Y-78078223D01*
X163468610Y-78074254D01*
X163468616Y-78074232D01*
X163455601Y-78070661D01*
X163455596Y-78070659D01*
X163369418Y-78047017D01*
X163360618Y-78044253D01*
X163204999Y-77989034D01*
X163194075Y-77984571D01*
X163003707Y-77896187D01*
X162992748Y-77890429D01*
X162974535Y-77879685D01*
X162899917Y-77835669D01*
X162843168Y-77802193D01*
X162835467Y-77797265D01*
X162741644Y-77732312D01*
X162735726Y-77727885D01*
X165540524Y-77727885D01*
X165544999Y-77743124D01*
X165546389Y-77744329D01*
X165554072Y-77746000D01*
X166227885Y-77746000D01*
X166243124Y-77741525D01*
X166244329Y-77740135D01*
X166246000Y-77732452D01*
X166246000Y-77727885D01*
X166754000Y-77727885D01*
X166758475Y-77743124D01*
X166759865Y-77744329D01*
X166767548Y-77746000D01*
X167441361Y-77746000D01*
X167456600Y-77741525D01*
X167457805Y-77740135D01*
X167459476Y-77732452D01*
X167459476Y-76615489D01*
X167457448Y-76611297D01*
X167457420Y-76611199D01*
X167457487Y-76602042D01*
X167457104Y-76600272D01*
X167457105Y-76599859D01*
X167457513Y-76598483D01*
X167457539Y-76594847D01*
X167457116Y-76591888D01*
X167457121Y-76588236D01*
X167441145Y-76507310D01*
X167439338Y-76501323D01*
X167436316Y-76495662D01*
X167390084Y-76426506D01*
X167372779Y-76409238D01*
X167308308Y-76366339D01*
X167295950Y-76361386D01*
X167294228Y-76360199D01*
X167294129Y-76360077D01*
X167290026Y-76358387D01*
X167212192Y-76342905D01*
X167199820Y-76342906D01*
X167191705Y-76340524D01*
X166772115Y-76340524D01*
X166756876Y-76344999D01*
X166755671Y-76346389D01*
X166754000Y-76354072D01*
X166754000Y-77727885D01*
X166246000Y-77727885D01*
X166246000Y-76374846D01*
X166242027Y-76361315D01*
X166232972Y-76360013D01*
X166224513Y-76363625D01*
X166223565Y-76363796D01*
X166221744Y-76363600D01*
X166219414Y-76364847D01*
X166217667Y-76365919D01*
X166217356Y-76366218D01*
X166216594Y-76366645D01*
X166216418Y-76366685D01*
X166215367Y-76367330D01*
X166189504Y-76381803D01*
X166177029Y-76392477D01*
X166165269Y-76401401D01*
X166152316Y-76410084D01*
X166132073Y-76430415D01*
X166128298Y-76433915D01*
X166122279Y-76440186D01*
X166118839Y-76445581D01*
X166108409Y-76466055D01*
X166101104Y-76478561D01*
X166089493Y-76496047D01*
X166086457Y-76501765D01*
X166083688Y-76510913D01*
X166080348Y-76520528D01*
X166074954Y-76534242D01*
X166054626Y-76606605D01*
X166052119Y-76614517D01*
X165981653Y-76813890D01*
X165976136Y-76827069D01*
X165865210Y-77054845D01*
X165857506Y-77068449D01*
X165736667Y-77253962D01*
X165731069Y-77261874D01*
X165667615Y-77344605D01*
X165663216Y-77350022D01*
X165615052Y-77406093D01*
X165612378Y-77412017D01*
X165599224Y-77427330D01*
X165586649Y-77449594D01*
X165581941Y-77457274D01*
X165566014Y-77481286D01*
X165561163Y-77493304D01*
X165560787Y-77493842D01*
X165559111Y-77495184D01*
X165558576Y-77496628D01*
X165558670Y-77497302D01*
X165558658Y-77497732D01*
X165552277Y-77517416D01*
X165548963Y-77544805D01*
X165547428Y-77554383D01*
X165541745Y-77582797D01*
X165540524Y-77595128D01*
X165540524Y-77727885D01*
X162735726Y-77727885D01*
X162734233Y-77726768D01*
X162577803Y-77600526D01*
X162577799Y-77600523D01*
X162574376Y-77597761D01*
X162574101Y-77598102D01*
X162573003Y-77597382D01*
X162573357Y-77596940D01*
X162573337Y-77596924D01*
X162544705Y-77581832D01*
X162533596Y-77575227D01*
X162515530Y-77563190D01*
X162515526Y-77563188D01*
X162510374Y-77559755D01*
X162510248Y-77559703D01*
X162510021Y-77560254D01*
X162509230Y-77559833D01*
X162508521Y-77559622D01*
X162508739Y-77559085D01*
X162508670Y-77559057D01*
X162503091Y-77557968D01*
X162491980Y-77554042D01*
X162486789Y-77551306D01*
X162486720Y-77551285D01*
X162486556Y-77551823D01*
X162486005Y-77551596D01*
X162484937Y-77551391D01*
X162485113Y-77550801D01*
X162484982Y-77550762D01*
X162456473Y-77548193D01*
X162443681Y-77546373D01*
X162411099Y-77540014D01*
X162411073Y-77540014D01*
X162411073Y-77540599D01*
X162410871Y-77540579D01*
X162410871Y-77540014D01*
X160800222Y-77540014D01*
X160800016Y-77539973D01*
X160787841Y-77542394D01*
X160710358Y-77557801D01*
X160710356Y-77557802D01*
X160701087Y-77559645D01*
X160701059Y-77559576D01*
X160700775Y-77559693D01*
X160700745Y-77559713D01*
X160700714Y-77559719D01*
X160700615Y-77559760D01*
X160700628Y-77559791D01*
X160692766Y-77565042D01*
X160692765Y-77565042D01*
X160626233Y-77609474D01*
X160626231Y-77609476D01*
X160615869Y-77616396D01*
X160608961Y-77626767D01*
X160608960Y-77626768D01*
X160563174Y-77695505D01*
X160563171Y-77695510D01*
X160559741Y-77700660D01*
X160559583Y-77701043D01*
X160539973Y-77799984D01*
X160540014Y-77800190D01*
X160540014Y-77969500D01*
X160520012Y-78037621D01*
X160466356Y-78084114D01*
X160414014Y-78095500D01*
X159719739Y-78095500D01*
X159651618Y-78075498D01*
X159630644Y-78058595D01*
X158463858Y-76891808D01*
X158429832Y-76829496D01*
X158434897Y-76758680D01*
X158477444Y-76701845D01*
X158508722Y-76684732D01*
X158530291Y-76676646D01*
X158530297Y-76676643D01*
X158538699Y-76673493D01*
X158651474Y-76588974D01*
X158735993Y-76476199D01*
X158747472Y-76445581D01*
X158773989Y-76374846D01*
X158785464Y-76344236D01*
X158792000Y-76284070D01*
X158792000Y-75715930D01*
X158785464Y-75655764D01*
X158763700Y-75597709D01*
X158739144Y-75532205D01*
X158739143Y-75532202D01*
X158735993Y-75523801D01*
X158651474Y-75411026D01*
X158538699Y-75326507D01*
X158530298Y-75323357D01*
X158530295Y-75323356D01*
X158486270Y-75306852D01*
X158429506Y-75264210D01*
X158404806Y-75197648D01*
X158404500Y-75188870D01*
X158404500Y-74811130D01*
X158424502Y-74743009D01*
X158478158Y-74696516D01*
X158486270Y-74693148D01*
X158530295Y-74676644D01*
X158530298Y-74676643D01*
X158538699Y-74673493D01*
X158651474Y-74588974D01*
X158735993Y-74476199D01*
X158742363Y-74459209D01*
X158769356Y-74387203D01*
X158785464Y-74344236D01*
X158791563Y-74288091D01*
X158791631Y-74287467D01*
X158792000Y-74284070D01*
X158792000Y-73715930D01*
X158785464Y-73655764D01*
X158764642Y-73600221D01*
X158739144Y-73532205D01*
X158739143Y-73532202D01*
X158735993Y-73523801D01*
X158651474Y-73411026D01*
X158538699Y-73326507D01*
X158530298Y-73323357D01*
X158530295Y-73323356D01*
X158451887Y-73293963D01*
X158406736Y-73277036D01*
X158346570Y-73270500D01*
X157653430Y-73270500D01*
X157593264Y-73277036D01*
X157548113Y-73293963D01*
X157469705Y-73323356D01*
X157469702Y-73323357D01*
X157461301Y-73326507D01*
X157348526Y-73411026D01*
X157264007Y-73523801D01*
X157260857Y-73532202D01*
X157260856Y-73532205D01*
X157255482Y-73546541D01*
X157212840Y-73603306D01*
X157146278Y-73628005D01*
X157076929Y-73612797D01*
X157026811Y-73562511D01*
X157019518Y-73546541D01*
X157014144Y-73532205D01*
X157014143Y-73532202D01*
X157010993Y-73523801D01*
X156926474Y-73411026D01*
X156813699Y-73326507D01*
X156805298Y-73323357D01*
X156805295Y-73323356D01*
X156726887Y-73293963D01*
X156681736Y-73277036D01*
X156621570Y-73270500D01*
X155928430Y-73270500D01*
X155868264Y-73277036D01*
X155823113Y-73293963D01*
X155744705Y-73323356D01*
X155744702Y-73323357D01*
X155736301Y-73326507D01*
X155623526Y-73411026D01*
X155539007Y-73523801D01*
X155536453Y-73530614D01*
X155486802Y-73580154D01*
X155426539Y-73595500D01*
X155219740Y-73595500D01*
X155151619Y-73575498D01*
X155130645Y-73558595D01*
X154486015Y-72913965D01*
X154486011Y-72913962D01*
X154463223Y-72891174D01*
X154443344Y-72881045D01*
X154426489Y-72870716D01*
X154416453Y-72863425D01*
X154408429Y-72857595D01*
X154387204Y-72850699D01*
X154368938Y-72843133D01*
X154349055Y-72833002D01*
X154327013Y-72829511D01*
X154307787Y-72824895D01*
X154296000Y-72821065D01*
X154295998Y-72821065D01*
X154286566Y-72818000D01*
X153808421Y-72818000D01*
X153740300Y-72797998D01*
X153725909Y-72787225D01*
X153702535Y-72766971D01*
X153694852Y-72765300D01*
X151237316Y-72765300D01*
X151222077Y-72769775D01*
X151220872Y-72771165D01*
X151219201Y-72778848D01*
X151219201Y-72784128D01*
X151220409Y-72796388D01*
X151231515Y-72852231D01*
X151233125Y-72856117D01*
X151240713Y-72926707D01*
X151236603Y-72940704D01*
X151233466Y-72945399D01*
X151218700Y-73019633D01*
X151218701Y-73425366D01*
X151233466Y-73499601D01*
X151233732Y-73499999D01*
X151240436Y-73562374D01*
X151236459Y-73575920D01*
X151233466Y-73580399D01*
X151231045Y-73592568D01*
X151231045Y-73592569D01*
X151223997Y-73628005D01*
X151218700Y-73654633D01*
X148799083Y-73654633D01*
X148847578Y-73622480D01*
X148854892Y-73620103D01*
X148874113Y-73615489D01*
X148886362Y-73613549D01*
X148896155Y-73611998D01*
X148916039Y-73601866D01*
X148934305Y-73594301D01*
X148946096Y-73590470D01*
X148955529Y-73587405D01*
X148973589Y-73574284D01*
X148990446Y-73563954D01*
X148993547Y-73562374D01*
X149010323Y-73553826D01*
X149033111Y-73531038D01*
X149033115Y-73531035D01*
X149558535Y-73005615D01*
X149558538Y-73005611D01*
X149581326Y-72982823D01*
X149591457Y-72962940D01*
X149601787Y-72946083D01*
X149609076Y-72936050D01*
X149614904Y-72928029D01*
X149617969Y-72918597D01*
X149621801Y-72906805D01*
X149629365Y-72888543D01*
X149634995Y-72877494D01*
X149634996Y-72877490D01*
X149639498Y-72868655D01*
X149642988Y-72846617D01*
X149647605Y-72827386D01*
X149651435Y-72815599D01*
X149654500Y-72806166D01*
X149654500Y-71749633D01*
X151218700Y-71749633D01*
X151218701Y-72155366D01*
X151220144Y-72162621D01*
X151227678Y-72200498D01*
X151233466Y-72229601D01*
X151233976Y-72230364D01*
X151240713Y-72293039D01*
X151233125Y-72318881D01*
X151231516Y-72322766D01*
X151220407Y-72378615D01*
X151219200Y-72390870D01*
X151219200Y-72391585D01*
X151223675Y-72406824D01*
X151225065Y-72408029D01*
X151232748Y-72409700D01*
X153690284Y-72409700D01*
X153705524Y-72405225D01*
X153709629Y-72400488D01*
X153769355Y-72362104D01*
X153804853Y-72357000D01*
X155931814Y-72357000D01*
X155999935Y-72377002D01*
X156020909Y-72393905D01*
X156117039Y-72490035D01*
X156117043Y-72490038D01*
X156139831Y-72512826D01*
X156153934Y-72520012D01*
X156159708Y-72522954D01*
X156176565Y-72533284D01*
X156194625Y-72546405D01*
X156204058Y-72549470D01*
X156215849Y-72553301D01*
X156234115Y-72560866D01*
X156253999Y-72570998D01*
X156263792Y-72572549D01*
X156276041Y-72574489D01*
X156295267Y-72579105D01*
X156307054Y-72582935D01*
X156307056Y-72582935D01*
X156316488Y-72586000D01*
X160742133Y-72586000D01*
X160810254Y-72606002D01*
X160856747Y-72659658D01*
X160866851Y-72729932D01*
X160837357Y-72794512D01*
X160831234Y-72801089D01*
X160616296Y-73016027D01*
X160616121Y-73016144D01*
X160609231Y-73026457D01*
X160591393Y-73053158D01*
X160559986Y-73100168D01*
X160559951Y-73100153D01*
X160559833Y-73100437D01*
X160540023Y-73200101D01*
X160540014Y-73200101D01*
X160540014Y-73200149D01*
X160539972Y-73200360D01*
X160540014Y-73200570D01*
X160540014Y-75399778D01*
X160539973Y-75399984D01*
X160542394Y-75412159D01*
X160557338Y-75487311D01*
X160559645Y-75498913D01*
X160559576Y-75498941D01*
X160559693Y-75499225D01*
X160559713Y-75499255D01*
X160559719Y-75499286D01*
X160559760Y-75499385D01*
X160559791Y-75499372D01*
X160565042Y-75507234D01*
X160565042Y-75507235D01*
X160609474Y-75573767D01*
X160609476Y-75573769D01*
X160616396Y-75584131D01*
X160626767Y-75591039D01*
X160626768Y-75591040D01*
X160695505Y-75636826D01*
X160695510Y-75636829D01*
X160700660Y-75640259D01*
X160701043Y-75640417D01*
X160752850Y-75650685D01*
X160787829Y-75657618D01*
X160787830Y-75657618D01*
X160799984Y-75660027D01*
X160800190Y-75659986D01*
X161673831Y-75659986D01*
X161673831Y-75659439D01*
X161674036Y-75659420D01*
X161674036Y-75659986D01*
X161674099Y-75659986D01*
X161679990Y-75658851D01*
X161685957Y-75658282D01*
X161686035Y-75659103D01*
X161695342Y-75658526D01*
X161695312Y-75657591D01*
X161701491Y-75657390D01*
X161707674Y-75657797D01*
X161707849Y-75657774D01*
X161707772Y-75657186D01*
X161708057Y-75657177D01*
X161708462Y-75657081D01*
X161708542Y-75657682D01*
X161708684Y-75657663D01*
X161714583Y-75655636D01*
X161714594Y-75655633D01*
X161728990Y-75650685D01*
X161746112Y-75646118D01*
X161764582Y-75642561D01*
X161770470Y-75641427D01*
X161770500Y-75641415D01*
X161770289Y-75640887D01*
X161771501Y-75640531D01*
X161772885Y-75639795D01*
X161773114Y-75640352D01*
X161773182Y-75640324D01*
X161778335Y-75636896D01*
X161783802Y-75633989D01*
X161783872Y-75634121D01*
X161793462Y-75628524D01*
X161805249Y-75624473D01*
X161823433Y-75608348D01*
X161837245Y-75597712D01*
X161857483Y-75584251D01*
X161864401Y-75573945D01*
X161872304Y-75566075D01*
X161872164Y-75565946D01*
X161876369Y-75561406D01*
X161881001Y-75557299D01*
X161881045Y-75557241D01*
X161880565Y-75556877D01*
X161881772Y-75555574D01*
X161882499Y-75554370D01*
X161882950Y-75554704D01*
X161882970Y-75554677D01*
X161893354Y-75533103D01*
X161902268Y-75517529D01*
X161910457Y-75505328D01*
X161910457Y-75505327D01*
X161913909Y-75500185D01*
X161913964Y-75500053D01*
X161913415Y-75499824D01*
X161913687Y-75499317D01*
X161913817Y-75498888D01*
X161914354Y-75499110D01*
X161914420Y-75498950D01*
X161915618Y-75492939D01*
X161917396Y-75487064D01*
X161918212Y-75487311D01*
X161921009Y-75478945D01*
X161920275Y-75478680D01*
X161920936Y-75476850D01*
X161921575Y-75475761D01*
X161923396Y-75470686D01*
X161925247Y-75466840D01*
X161925251Y-75466824D01*
X161925252Y-75466824D01*
X161926614Y-75461716D01*
X161926617Y-75461708D01*
X161929804Y-75449757D01*
X161932312Y-75441498D01*
X161978249Y-75307001D01*
X162019195Y-75249002D01*
X162084998Y-75222346D01*
X162154766Y-75235498D01*
X162186581Y-75258631D01*
X162736485Y-75808535D01*
X162814071Y-75864905D01*
X162823504Y-75867970D01*
X162926500Y-75901435D01*
X162926501Y-75901435D01*
X162935934Y-75904500D01*
X163064066Y-75904500D01*
X163073498Y-75901435D01*
X163073500Y-75901435D01*
X163122029Y-75885667D01*
X163160965Y-75879500D01*
X166646080Y-75879500D01*
X166670028Y-75882049D01*
X166671693Y-75882128D01*
X166681876Y-75884320D01*
X166692217Y-75883096D01*
X166715223Y-75880373D01*
X166721154Y-75880023D01*
X166721146Y-75879928D01*
X166726324Y-75879500D01*
X166731524Y-75879500D01*
X166736653Y-75878646D01*
X166736656Y-75878646D01*
X166750565Y-75876331D01*
X166756443Y-75875494D01*
X166797001Y-75870694D01*
X166797002Y-75870694D01*
X166807341Y-75869470D01*
X166815593Y-75865507D01*
X166824626Y-75864004D01*
X166833795Y-75859057D01*
X166833797Y-75859056D01*
X166869732Y-75839666D01*
X166875025Y-75836969D01*
X166914082Y-75818215D01*
X166914086Y-75818212D01*
X166921232Y-75814781D01*
X166925508Y-75811186D01*
X166927431Y-75809263D01*
X166929363Y-75807491D01*
X166929442Y-75807448D01*
X166929555Y-75807572D01*
X166930095Y-75807096D01*
X166935814Y-75804010D01*
X166972417Y-75764413D01*
X166975846Y-75760848D01*
X169720289Y-73016405D01*
X169782601Y-72982379D01*
X169809384Y-72979500D01*
X169819500Y-72979500D01*
X169887621Y-72999502D01*
X169934114Y-73053158D01*
X169945500Y-73105500D01*
X169945500Y-73197756D01*
X169952202Y-73259448D01*
X169954974Y-73266841D01*
X169954974Y-73266843D01*
X169958795Y-73277036D01*
X170002929Y-73394764D01*
X170008309Y-73401943D01*
X170008311Y-73401946D01*
X170072377Y-73487428D01*
X170089596Y-73510404D01*
X170096776Y-73515785D01*
X170198054Y-73591689D01*
X170198057Y-73591691D01*
X170205236Y-73597071D01*
X170292752Y-73629879D01*
X170333157Y-73645026D01*
X170333159Y-73645026D01*
X170340552Y-73647798D01*
X170348402Y-73648651D01*
X170348403Y-73648651D01*
X170398847Y-73654131D01*
X170402244Y-73654500D01*
X171597756Y-73654500D01*
X171601153Y-73654131D01*
X171651597Y-73648651D01*
X171651598Y-73648651D01*
X171659448Y-73647798D01*
X171666841Y-73645026D01*
X171666843Y-73645026D01*
X171707248Y-73629879D01*
X171794764Y-73597071D01*
X171801943Y-73591691D01*
X171801946Y-73591689D01*
X171903224Y-73515785D01*
X171910404Y-73510404D01*
X171927623Y-73487428D01*
X171991689Y-73401946D01*
X171991691Y-73401943D01*
X171997071Y-73394764D01*
X172041205Y-73277036D01*
X172045026Y-73266843D01*
X172045026Y-73266841D01*
X172047798Y-73259448D01*
X172054500Y-73197756D01*
X172054500Y-72002244D01*
X172047798Y-71940552D01*
X171997071Y-71805236D01*
X171991691Y-71798057D01*
X171991689Y-71798054D01*
X171915785Y-71696776D01*
X171910404Y-71689596D01*
X171867410Y-71657374D01*
X171801946Y-71608311D01*
X171801943Y-71608309D01*
X171794764Y-71602929D01*
X171702891Y-71568488D01*
X171666843Y-71554974D01*
X171666841Y-71554974D01*
X171659448Y-71552202D01*
X171651598Y-71551349D01*
X171651597Y-71551349D01*
X171601153Y-71545869D01*
X171601152Y-71545869D01*
X171597756Y-71545500D01*
X170402244Y-71545500D01*
X170398848Y-71545869D01*
X170398847Y-71545869D01*
X170348403Y-71551349D01*
X170348402Y-71551349D01*
X170340552Y-71552202D01*
X170333159Y-71554974D01*
X170333157Y-71554974D01*
X170297109Y-71568488D01*
X170205236Y-71602929D01*
X170198057Y-71608309D01*
X170198054Y-71608311D01*
X170132590Y-71657374D01*
X170089596Y-71689596D01*
X170084215Y-71696776D01*
X170008311Y-71798054D01*
X170008309Y-71798057D01*
X170002929Y-71805236D01*
X169952202Y-71940552D01*
X169945500Y-72002244D01*
X169945500Y-72094500D01*
X169925498Y-72162621D01*
X169871842Y-72209114D01*
X169819500Y-72220500D01*
X169809384Y-72220500D01*
X169741263Y-72200498D01*
X169720289Y-72183595D01*
X166706478Y-69169784D01*
X166691336Y-69151036D01*
X166690221Y-69149811D01*
X166684571Y-69141060D01*
X166676393Y-69134613D01*
X166676391Y-69134611D01*
X166658200Y-69120271D01*
X166653759Y-69116325D01*
X166653697Y-69116398D01*
X166649733Y-69113039D01*
X166646056Y-69109362D01*
X166630308Y-69098108D01*
X166625638Y-69094602D01*
X166585353Y-69062844D01*
X166576719Y-69059812D01*
X166569266Y-69054486D01*
X166520150Y-69039797D01*
X166514508Y-69037964D01*
X166473633Y-69023610D01*
X166473632Y-69023610D01*
X166466149Y-69020982D01*
X166460584Y-69020500D01*
X166457876Y-69020500D01*
X166455242Y-69020386D01*
X166455144Y-69020357D01*
X166455151Y-69020193D01*
X166454447Y-69020149D01*
X166448222Y-69018287D01*
X166394365Y-69020403D01*
X166389418Y-69020500D01*
X164855740Y-69020500D01*
X164787619Y-69000498D01*
X164774368Y-68985206D01*
X169940501Y-68985206D01*
X169946443Y-69055963D01*
X169955205Y-69160300D01*
X169957806Y-69191278D01*
X170014807Y-69390066D01*
X170017625Y-69395548D01*
X170017626Y-69395552D01*
X170106514Y-69568509D01*
X170106517Y-69568513D01*
X170109334Y-69573995D01*
X170237786Y-69736061D01*
X170242479Y-69740055D01*
X170242480Y-69740056D01*
X170372628Y-69850820D01*
X170395271Y-69870091D01*
X170575789Y-69970980D01*
X170772466Y-70034884D01*
X170977809Y-70059370D01*
X170983944Y-70058898D01*
X170983946Y-70058898D01*
X171177856Y-70043977D01*
X171177860Y-70043976D01*
X171183998Y-70043504D01*
X171383178Y-69987892D01*
X171388682Y-69985112D01*
X171388684Y-69985111D01*
X171562262Y-69897431D01*
X171562264Y-69897430D01*
X171567763Y-69894652D01*
X171730722Y-69767334D01*
X171734748Y-69762670D01*
X171734751Y-69762667D01*
X171861819Y-69615457D01*
X171861820Y-69615455D01*
X171865848Y-69610789D01*
X171967995Y-69430979D01*
X172033270Y-69234753D01*
X172059189Y-69029586D01*
X172059602Y-69000000D01*
X172039422Y-68794189D01*
X171979651Y-68596217D01*
X171919120Y-68482374D01*
X171885459Y-68419067D01*
X171885457Y-68419064D01*
X171882565Y-68413625D01*
X171878674Y-68408855D01*
X171878672Y-68408851D01*
X171755758Y-68258143D01*
X171755755Y-68258140D01*
X171751863Y-68253368D01*
X171744966Y-68247662D01*
X171597271Y-68125478D01*
X171597266Y-68125475D01*
X171592522Y-68121550D01*
X171587103Y-68118620D01*
X171587100Y-68118618D01*
X171416032Y-68026122D01*
X171416027Y-68026120D01*
X171410612Y-68023192D01*
X171213063Y-67962040D01*
X171206938Y-67961396D01*
X171206937Y-67961396D01*
X171013526Y-67941068D01*
X171013524Y-67941068D01*
X171007397Y-67940424D01*
X170889512Y-67951152D01*
X170807591Y-67958607D01*
X170807590Y-67958607D01*
X170801450Y-67959166D01*
X170603066Y-68017554D01*
X170597601Y-68020411D01*
X170425261Y-68110508D01*
X170425257Y-68110511D01*
X170419801Y-68113363D01*
X170258635Y-68242943D01*
X170125708Y-68401360D01*
X170026082Y-68582578D01*
X169963553Y-68779696D01*
X169962867Y-68785813D01*
X169962866Y-68785817D01*
X169943668Y-68956971D01*
X169940501Y-68985206D01*
X164774368Y-68985206D01*
X164741126Y-68946842D01*
X164731022Y-68876568D01*
X164760516Y-68811988D01*
X164766645Y-68805405D01*
X164824313Y-68747737D01*
X164824316Y-68747733D01*
X164831326Y-68740723D01*
X164841459Y-68720836D01*
X164851791Y-68703977D01*
X164859073Y-68693955D01*
X164859074Y-68693953D01*
X164864904Y-68685929D01*
X164868945Y-68673493D01*
X164871801Y-68664704D01*
X164879367Y-68646437D01*
X164884996Y-68635390D01*
X164889498Y-68626555D01*
X164892990Y-68604507D01*
X164897606Y-68585282D01*
X164901433Y-68573502D01*
X164904499Y-68564066D01*
X164904499Y-68531840D01*
X164904500Y-68531834D01*
X164904500Y-68188840D01*
X165540524Y-68188840D01*
X165542905Y-68199788D01*
X165542904Y-68212159D01*
X165557998Y-68288067D01*
X165563305Y-68300596D01*
X165563512Y-68301755D01*
X165563470Y-68302142D01*
X165565458Y-68306956D01*
X165609835Y-68373405D01*
X165627129Y-68390678D01*
X165695698Y-68436353D01*
X165701296Y-68439335D01*
X165707284Y-68441144D01*
X165787829Y-68457108D01*
X165800139Y-68457103D01*
X165808233Y-68459476D01*
X166227885Y-68459476D01*
X166243124Y-68455001D01*
X166244329Y-68453611D01*
X166246000Y-68445928D01*
X166246000Y-68441361D01*
X166754000Y-68441361D01*
X166758475Y-68456600D01*
X166759865Y-68457805D01*
X166767548Y-68459476D01*
X167188840Y-68459476D01*
X167199788Y-68457095D01*
X167212159Y-68457096D01*
X167288067Y-68442002D01*
X167300596Y-68436695D01*
X167301755Y-68436488D01*
X167302142Y-68436530D01*
X167306956Y-68434542D01*
X167373405Y-68390165D01*
X167390678Y-68372871D01*
X167436353Y-68304302D01*
X167439335Y-68298704D01*
X167441144Y-68292716D01*
X167457108Y-68212171D01*
X167457103Y-68199861D01*
X167459476Y-68191767D01*
X167459476Y-67272115D01*
X167455001Y-67256876D01*
X167453611Y-67255671D01*
X167445928Y-67254000D01*
X166772115Y-67254000D01*
X166756876Y-67258475D01*
X166755671Y-67259865D01*
X166754000Y-67267548D01*
X166754000Y-68441361D01*
X166246000Y-68441361D01*
X166246000Y-67272115D01*
X166241525Y-67256876D01*
X166240135Y-67255671D01*
X166232452Y-67254000D01*
X165558639Y-67254000D01*
X165543400Y-67258475D01*
X165542195Y-67259865D01*
X165540524Y-67267548D01*
X165540524Y-68188840D01*
X164904500Y-68188840D01*
X164904500Y-66727885D01*
X165540524Y-66727885D01*
X165544999Y-66743124D01*
X165546389Y-66744329D01*
X165554072Y-66746000D01*
X166227885Y-66746000D01*
X166243124Y-66741525D01*
X166244329Y-66740135D01*
X166246000Y-66732452D01*
X166246000Y-66727885D01*
X166754000Y-66727885D01*
X166758475Y-66743124D01*
X166759865Y-66744329D01*
X166767548Y-66746000D01*
X167441361Y-66746000D01*
X167456600Y-66741525D01*
X167457805Y-66740135D01*
X167459476Y-66732452D01*
X167459476Y-65615489D01*
X167457448Y-65611297D01*
X167457420Y-65611199D01*
X167457487Y-65602042D01*
X167457104Y-65600272D01*
X167457105Y-65599859D01*
X167457513Y-65598483D01*
X167457539Y-65594847D01*
X167457116Y-65591888D01*
X167457121Y-65588236D01*
X167441145Y-65507310D01*
X167439338Y-65501323D01*
X167436316Y-65495662D01*
X167390084Y-65426506D01*
X167372779Y-65409238D01*
X167308308Y-65366339D01*
X167295950Y-65361386D01*
X167294228Y-65360199D01*
X167294129Y-65360077D01*
X167290026Y-65358387D01*
X167212192Y-65342905D01*
X167199820Y-65342906D01*
X167191705Y-65340524D01*
X166772115Y-65340524D01*
X166756876Y-65344999D01*
X166755671Y-65346389D01*
X166754000Y-65354072D01*
X166754000Y-66727885D01*
X166246000Y-66727885D01*
X166246000Y-65374846D01*
X166242027Y-65361315D01*
X166232972Y-65360013D01*
X166224513Y-65363625D01*
X166223565Y-65363796D01*
X166221744Y-65363600D01*
X166219414Y-65364847D01*
X166217667Y-65365919D01*
X166217356Y-65366218D01*
X166216594Y-65366645D01*
X166216418Y-65366685D01*
X166215367Y-65367330D01*
X166189504Y-65381803D01*
X166177029Y-65392477D01*
X166165269Y-65401401D01*
X166152316Y-65410084D01*
X166132073Y-65430415D01*
X166128298Y-65433915D01*
X166122279Y-65440186D01*
X166118839Y-65445581D01*
X166108409Y-65466055D01*
X166101104Y-65478561D01*
X166089493Y-65496047D01*
X166086457Y-65501765D01*
X166083688Y-65510913D01*
X166080348Y-65520528D01*
X166074954Y-65534242D01*
X166054626Y-65606605D01*
X166052119Y-65614517D01*
X165981653Y-65813890D01*
X165976136Y-65827069D01*
X165865210Y-66054845D01*
X165857506Y-66068449D01*
X165736667Y-66253962D01*
X165731069Y-66261874D01*
X165667615Y-66344605D01*
X165663216Y-66350022D01*
X165615052Y-66406093D01*
X165612378Y-66412017D01*
X165599224Y-66427330D01*
X165586649Y-66449594D01*
X165581941Y-66457274D01*
X165566014Y-66481286D01*
X165561163Y-66493304D01*
X165560787Y-66493842D01*
X165559111Y-66495184D01*
X165558576Y-66496628D01*
X165558670Y-66497302D01*
X165558658Y-66497732D01*
X165552277Y-66517416D01*
X165548963Y-66544805D01*
X165547428Y-66554383D01*
X165541745Y-66582797D01*
X165540524Y-66595128D01*
X165540524Y-66727885D01*
X164904500Y-66727885D01*
X164904500Y-64219741D01*
X164924502Y-64151620D01*
X164941404Y-64130646D01*
X165575158Y-63496891D01*
X165637471Y-63462866D01*
X165664254Y-63459986D01*
X167199778Y-63459986D01*
X167199984Y-63460027D01*
X167212159Y-63457606D01*
X167289642Y-63442199D01*
X167289644Y-63442198D01*
X167298913Y-63440355D01*
X167298941Y-63440424D01*
X167299225Y-63440307D01*
X167299255Y-63440287D01*
X167299286Y-63440281D01*
X167299385Y-63440240D01*
X167299372Y-63440209D01*
X167318275Y-63427585D01*
X167373767Y-63390526D01*
X167373769Y-63390524D01*
X167384131Y-63383604D01*
X167401081Y-63358158D01*
X167436826Y-63304495D01*
X167436829Y-63304490D01*
X167440259Y-63299340D01*
X167440417Y-63298957D01*
X167460027Y-63200016D01*
X167459986Y-63199810D01*
X167459986Y-62935964D01*
X169642112Y-62935964D01*
X169642312Y-62941292D01*
X169642312Y-62941294D01*
X169644464Y-62998599D01*
X169643705Y-62998628D01*
X169644034Y-63000016D01*
X169644340Y-62999989D01*
X169644374Y-63000377D01*
X169644465Y-63001838D01*
X169644523Y-63002085D01*
X169644648Y-63003507D01*
X169650736Y-63165669D01*
X169651831Y-63170888D01*
X169664628Y-63231879D01*
X169663861Y-63232040D01*
X169664841Y-63234316D01*
X169664937Y-63235408D01*
X169666361Y-63240722D01*
X169666464Y-63241307D01*
X169667635Y-63246210D01*
X169697939Y-63390637D01*
X169717887Y-63441150D01*
X169723975Y-63456566D01*
X169724724Y-63458541D01*
X169726097Y-63463663D01*
X169728422Y-63468649D01*
X169728423Y-63468651D01*
X169728947Y-63469775D01*
X169731934Y-63476717D01*
X169782372Y-63604436D01*
X169819273Y-63665246D01*
X169820811Y-63668126D01*
X169820890Y-63668080D01*
X169823639Y-63672841D01*
X169825965Y-63677829D01*
X169829122Y-63682337D01*
X169829124Y-63682341D01*
X169830674Y-63684555D01*
X169835181Y-63691462D01*
X169898623Y-63796011D01*
X169901621Y-63800952D01*
X169905116Y-63804979D01*
X169905117Y-63804981D01*
X169951993Y-63859000D01*
X169955555Y-63863563D01*
X169958347Y-63866890D01*
X169961505Y-63871401D01*
X169967791Y-63877687D01*
X169973861Y-63884201D01*
X169992153Y-63905280D01*
X170052276Y-63974566D01*
X170056407Y-63977953D01*
X170116309Y-64027070D01*
X170123574Y-64033652D01*
X170124706Y-64034602D01*
X170128599Y-64038495D01*
X170133103Y-64041649D01*
X170133108Y-64041653D01*
X170135936Y-64043633D01*
X170143554Y-64049410D01*
X170225901Y-64116931D01*
X170225907Y-64116935D01*
X170230029Y-64120315D01*
X170234668Y-64122955D01*
X170234667Y-64122955D01*
X170307355Y-64164331D01*
X170317296Y-64170622D01*
X170317660Y-64170877D01*
X170317667Y-64170881D01*
X170322171Y-64174035D01*
X170327155Y-64176359D01*
X170327160Y-64176362D01*
X170329875Y-64177628D01*
X170338952Y-64182318D01*
X170383061Y-64207426D01*
X170429798Y-64234030D01*
X170511980Y-64263861D01*
X170519498Y-64266590D01*
X170529753Y-64270833D01*
X170531348Y-64271577D01*
X170531350Y-64271578D01*
X170536337Y-64273903D01*
X170541653Y-64275327D01*
X170541655Y-64275328D01*
X170542719Y-64275613D01*
X170543702Y-64275876D01*
X170554081Y-64279143D01*
X170645871Y-64312461D01*
X170746443Y-64330648D01*
X170756616Y-64332926D01*
X170764592Y-64335063D01*
X170770990Y-64335623D01*
X170782412Y-64337152D01*
X170872069Y-64353364D01*
X170876208Y-64353559D01*
X170876215Y-64353560D01*
X170894670Y-64354430D01*
X170894677Y-64354430D01*
X170896158Y-64354500D01*
X171057712Y-64354500D01*
X171137444Y-64347735D01*
X171223733Y-64340413D01*
X171223737Y-64340412D01*
X171229044Y-64339962D01*
X171234199Y-64338624D01*
X171234205Y-64338623D01*
X171446368Y-64283556D01*
X171446367Y-64283556D01*
X171451539Y-64282214D01*
X171598412Y-64216052D01*
X171656262Y-64189993D01*
X171656265Y-64189992D01*
X171661123Y-64187803D01*
X171851803Y-64059430D01*
X171865122Y-64046725D01*
X171981260Y-63935934D01*
X172018128Y-63900764D01*
X172155342Y-63716342D01*
X172171504Y-63684555D01*
X172257102Y-63516194D01*
X172257102Y-63516193D01*
X172259520Y-63511438D01*
X172327685Y-63291911D01*
X172339865Y-63200016D01*
X172357188Y-63069319D01*
X172357188Y-63069316D01*
X172357888Y-63064036D01*
X172357320Y-63048895D01*
X172355536Y-63001401D01*
X172356295Y-63001372D01*
X172355966Y-62999984D01*
X172355660Y-63000011D01*
X172355626Y-62999623D01*
X172355535Y-62998162D01*
X172355477Y-62997915D01*
X172355352Y-62996493D01*
X172349264Y-62834331D01*
X172335372Y-62768121D01*
X172336139Y-62767960D01*
X172335159Y-62765684D01*
X172335063Y-62764592D01*
X172333639Y-62759278D01*
X172333536Y-62758693D01*
X172332362Y-62753778D01*
X172331195Y-62748213D01*
X172302061Y-62609363D01*
X172276025Y-62543434D01*
X172275276Y-62541459D01*
X172273903Y-62536337D01*
X172271053Y-62530225D01*
X172268066Y-62523283D01*
X172217628Y-62395564D01*
X172180727Y-62334754D01*
X172179189Y-62331874D01*
X172179110Y-62331920D01*
X172176361Y-62327159D01*
X172174035Y-62322171D01*
X172170876Y-62317659D01*
X172169326Y-62315445D01*
X172164819Y-62308538D01*
X172101147Y-62203609D01*
X172101145Y-62203606D01*
X172098379Y-62199048D01*
X172048007Y-62141000D01*
X172044445Y-62136437D01*
X172041653Y-62133110D01*
X172038495Y-62128599D01*
X172032209Y-62122313D01*
X172026139Y-62115799D01*
X171951224Y-62029467D01*
X171951222Y-62029465D01*
X171947724Y-62025434D01*
X171883692Y-61972930D01*
X171876426Y-61966348D01*
X171875294Y-61965398D01*
X171871401Y-61961505D01*
X171866897Y-61958351D01*
X171866892Y-61958347D01*
X171864064Y-61956367D01*
X171856446Y-61950590D01*
X171774099Y-61883069D01*
X171774093Y-61883065D01*
X171769971Y-61879685D01*
X171692645Y-61835669D01*
X171682704Y-61829378D01*
X171682340Y-61829123D01*
X171682333Y-61829119D01*
X171677829Y-61825965D01*
X171672845Y-61823641D01*
X171672840Y-61823638D01*
X171670125Y-61822372D01*
X171661048Y-61817682D01*
X171608603Y-61787829D01*
X171570202Y-61765970D01*
X171480502Y-61733410D01*
X171470247Y-61729167D01*
X171468652Y-61728423D01*
X171468650Y-61728422D01*
X171463663Y-61726097D01*
X171458347Y-61724673D01*
X171458345Y-61724672D01*
X171457281Y-61724387D01*
X171456298Y-61724124D01*
X171445919Y-61720857D01*
X171354129Y-61687539D01*
X171253557Y-61669352D01*
X171243384Y-61667074D01*
X171235408Y-61664937D01*
X171229010Y-61664377D01*
X171217588Y-61662848D01*
X171127931Y-61646636D01*
X171123792Y-61646441D01*
X171123785Y-61646440D01*
X171105330Y-61645570D01*
X171105323Y-61645570D01*
X171103842Y-61645500D01*
X170942288Y-61645500D01*
X170862556Y-61652265D01*
X170776267Y-61659587D01*
X170776263Y-61659588D01*
X170770956Y-61660038D01*
X170765801Y-61661376D01*
X170765795Y-61661377D01*
X170612642Y-61701128D01*
X170548461Y-61717786D01*
X170441497Y-61765970D01*
X170343738Y-61810007D01*
X170343735Y-61810008D01*
X170338877Y-61812197D01*
X170148197Y-61940570D01*
X170144340Y-61944249D01*
X170144338Y-61944251D01*
X170118404Y-61968991D01*
X169981872Y-62099236D01*
X169844658Y-62283658D01*
X169842242Y-62288409D01*
X169842240Y-62288413D01*
X169742898Y-62483806D01*
X169740480Y-62488562D01*
X169672315Y-62708089D01*
X169671614Y-62713378D01*
X169644086Y-62921073D01*
X169642112Y-62935964D01*
X167459986Y-62935964D01*
X167459986Y-61800578D01*
X167460027Y-61800373D01*
X167459986Y-61800165D01*
X167459986Y-61800099D01*
X167459973Y-61800099D01*
X167445969Y-61729167D01*
X167441616Y-61707116D01*
X167440417Y-61701043D01*
X167440259Y-61700660D01*
X167383516Y-61615782D01*
X167373141Y-61608878D01*
X167309658Y-61566635D01*
X167309656Y-61566634D01*
X167299372Y-61559791D01*
X167299385Y-61559760D01*
X167299286Y-61559719D01*
X167299255Y-61559713D01*
X167299225Y-61559693D01*
X167298941Y-61559576D01*
X167298913Y-61559645D01*
X167200016Y-61539973D01*
X167199810Y-61540014D01*
X164600222Y-61540014D01*
X164600016Y-61539973D01*
X164587841Y-61542394D01*
X164510358Y-61557801D01*
X164510356Y-61557802D01*
X164501087Y-61559645D01*
X164501059Y-61559576D01*
X164500775Y-61559693D01*
X164500745Y-61559713D01*
X164500714Y-61559719D01*
X164500615Y-61559760D01*
X164500628Y-61559791D01*
X164492766Y-61565042D01*
X164492765Y-61565042D01*
X164426233Y-61609474D01*
X164426231Y-61609476D01*
X164415869Y-61616396D01*
X164408961Y-61626767D01*
X164408960Y-61626768D01*
X164363174Y-61695505D01*
X164363171Y-61695510D01*
X164359741Y-61700660D01*
X164359583Y-61701043D01*
X164339973Y-61799984D01*
X164340014Y-61800190D01*
X164340014Y-62675846D01*
X164340610Y-62675846D01*
X164340630Y-62676046D01*
X164340014Y-62676046D01*
X164340014Y-62676099D01*
X164341244Y-62682220D01*
X164341244Y-62682225D01*
X164341991Y-62685941D01*
X164342479Y-62691214D01*
X164344049Y-62696188D01*
X164344147Y-62696679D01*
X164343578Y-62703089D01*
X164344447Y-62712482D01*
X164344309Y-62722544D01*
X164344218Y-62722560D01*
X164344246Y-62722714D01*
X164344304Y-62722859D01*
X164344302Y-62723022D01*
X164344331Y-62723179D01*
X164344426Y-62723161D01*
X164347942Y-62731898D01*
X164347943Y-62731901D01*
X164350138Y-62737353D01*
X164356783Y-62759585D01*
X164359691Y-62774067D01*
X164359287Y-62774232D01*
X164359309Y-62774286D01*
X164359919Y-62775201D01*
X164360139Y-62776296D01*
X164360157Y-62776339D01*
X164360564Y-62776169D01*
X164373583Y-62795693D01*
X164373998Y-62796638D01*
X164374448Y-62797757D01*
X164374736Y-62800701D01*
X164378521Y-62807877D01*
X164383267Y-62819670D01*
X164392153Y-62828621D01*
X164392156Y-62828626D01*
X164393837Y-62830319D01*
X164409248Y-62849185D01*
X164416839Y-62860570D01*
X164427313Y-62867511D01*
X164427911Y-62868107D01*
X164430150Y-62869945D01*
X164433815Y-62871820D01*
X164435152Y-62872706D01*
X164438811Y-62877051D01*
X164446461Y-62883327D01*
X164449155Y-62886041D01*
X164449157Y-62886042D01*
X164452395Y-62889304D01*
X164452059Y-62889789D01*
X164452098Y-62889816D01*
X164453504Y-62890422D01*
X164454597Y-62891523D01*
X164454646Y-62891556D01*
X164454981Y-62891059D01*
X164459511Y-62893012D01*
X164459513Y-62893013D01*
X164467156Y-62896307D01*
X164486880Y-62906982D01*
X164500993Y-62916334D01*
X164500971Y-62916387D01*
X164501119Y-62916448D01*
X164501184Y-62916461D01*
X164501237Y-62916496D01*
X164501381Y-62916555D01*
X164501402Y-62916504D01*
X164511415Y-62918475D01*
X164511655Y-62918550D01*
X164511846Y-62918560D01*
X164524161Y-62920985D01*
X164526855Y-62922042D01*
X164527421Y-62922286D01*
X164529637Y-62924127D01*
X164536955Y-62926396D01*
X164546097Y-62930337D01*
X164546149Y-62930348D01*
X164546277Y-62929743D01*
X164546705Y-62929879D01*
X164546587Y-62930440D01*
X164552160Y-62931613D01*
X164552162Y-62931614D01*
X164581132Y-62937713D01*
X164595470Y-62941628D01*
X164695337Y-62975338D01*
X164753483Y-63016076D01*
X164780374Y-63081783D01*
X164767472Y-63151597D01*
X164744136Y-63183815D01*
X164465084Y-63462866D01*
X164191465Y-63736485D01*
X164191452Y-63736499D01*
X164168674Y-63759277D01*
X164164171Y-63768115D01*
X164158546Y-63779154D01*
X164148216Y-63796011D01*
X164135095Y-63814071D01*
X164132030Y-63823504D01*
X164128199Y-63835295D01*
X164120634Y-63853561D01*
X164110502Y-63873445D01*
X164108951Y-63883238D01*
X164107011Y-63895487D01*
X164102395Y-63914713D01*
X164095500Y-63935934D01*
X164095500Y-68280260D01*
X164075498Y-68348381D01*
X164058595Y-68369356D01*
X163969354Y-68458596D01*
X163907042Y-68492621D01*
X163880259Y-68495500D01*
X163744919Y-68495500D01*
X163676798Y-68475498D01*
X163630305Y-68421842D01*
X163620201Y-68351568D01*
X163635749Y-68310931D01*
X163633917Y-68309955D01*
X163636825Y-68304495D01*
X163640259Y-68299340D01*
X163640417Y-68298957D01*
X163660027Y-68200016D01*
X163659986Y-68199810D01*
X163659986Y-67325171D01*
X163659457Y-67325171D01*
X163659438Y-67324966D01*
X163659986Y-67324966D01*
X163659986Y-67324901D01*
X163658887Y-67319098D01*
X163658336Y-67313229D01*
X163658682Y-67313197D01*
X163657696Y-67303975D01*
X163657577Y-67299312D01*
X163658027Y-67293137D01*
X163658005Y-67292960D01*
X163657417Y-67293033D01*
X163657407Y-67292635D01*
X163657282Y-67292091D01*
X163657886Y-67292014D01*
X163657868Y-67291873D01*
X163655868Y-67285946D01*
X163655866Y-67285939D01*
X163651233Y-67272211D01*
X163646818Y-67255366D01*
X163643116Y-67235821D01*
X163643115Y-67235818D01*
X163642017Y-67230019D01*
X163642006Y-67229991D01*
X163641494Y-67230192D01*
X163641151Y-67229004D01*
X163640278Y-67227349D01*
X163640854Y-67227115D01*
X163640826Y-67227046D01*
X163637356Y-67221806D01*
X163634421Y-67216240D01*
X163634572Y-67216160D01*
X163629128Y-67206717D01*
X163625139Y-67194896D01*
X163616909Y-67185519D01*
X163616907Y-67185516D01*
X163607943Y-67175303D01*
X163597589Y-67161758D01*
X163590959Y-67151747D01*
X163584051Y-67141316D01*
X163573656Y-67134355D01*
X163566985Y-67127650D01*
X163566953Y-67127684D01*
X163562435Y-67123456D01*
X163558350Y-67118802D01*
X163558290Y-67118756D01*
X163557923Y-67119234D01*
X163557359Y-67118706D01*
X163556914Y-67118431D01*
X163557264Y-67117970D01*
X163557239Y-67117951D01*
X163534061Y-67106523D01*
X163519677Y-67098210D01*
X163515853Y-67095650D01*
X163499923Y-67084983D01*
X163499793Y-67084929D01*
X163499565Y-67085478D01*
X163499125Y-67085243D01*
X163499333Y-67084739D01*
X163499171Y-67084672D01*
X163488527Y-67082461D01*
X163476662Y-67078223D01*
X163468610Y-67074254D01*
X163468616Y-67074232D01*
X163455601Y-67070661D01*
X163455596Y-67070659D01*
X163369418Y-67047017D01*
X163360618Y-67044253D01*
X163204999Y-66989034D01*
X163194075Y-66984571D01*
X163003707Y-66896187D01*
X162992748Y-66890429D01*
X162843168Y-66802193D01*
X162835467Y-66797265D01*
X162741644Y-66732312D01*
X162734233Y-66726768D01*
X162577803Y-66600526D01*
X162577799Y-66600523D01*
X162574376Y-66597761D01*
X162574101Y-66598102D01*
X162573003Y-66597382D01*
X162573357Y-66596940D01*
X162573337Y-66596924D01*
X162544705Y-66581832D01*
X162533596Y-66575227D01*
X162515530Y-66563190D01*
X162515526Y-66563188D01*
X162510374Y-66559755D01*
X162510248Y-66559703D01*
X162510021Y-66560254D01*
X162509230Y-66559833D01*
X162508521Y-66559622D01*
X162508739Y-66559085D01*
X162508670Y-66559057D01*
X162503091Y-66557968D01*
X162491980Y-66554042D01*
X162486789Y-66551306D01*
X162486720Y-66551285D01*
X162486556Y-66551823D01*
X162486005Y-66551596D01*
X162484937Y-66551391D01*
X162485113Y-66550801D01*
X162484982Y-66550762D01*
X162456473Y-66548193D01*
X162443681Y-66546373D01*
X162411099Y-66540014D01*
X162411073Y-66540014D01*
X162411073Y-66540599D01*
X162410871Y-66540579D01*
X162410871Y-66540014D01*
X160800222Y-66540014D01*
X160800016Y-66539973D01*
X160787841Y-66542394D01*
X160710358Y-66557801D01*
X160710356Y-66557802D01*
X160701087Y-66559645D01*
X160701059Y-66559576D01*
X160700775Y-66559693D01*
X160700745Y-66559713D01*
X160700714Y-66559719D01*
X160700615Y-66559760D01*
X160700628Y-66559791D01*
X160692766Y-66565042D01*
X160692765Y-66565042D01*
X160626233Y-66609474D01*
X160626231Y-66609476D01*
X160615869Y-66616396D01*
X160608961Y-66626767D01*
X160608960Y-66626768D01*
X160563174Y-66695505D01*
X160563171Y-66695510D01*
X160559741Y-66700660D01*
X160559583Y-66701043D01*
X160539973Y-66799984D01*
X160540014Y-66800190D01*
X160540014Y-67469500D01*
X160520012Y-67537621D01*
X160466356Y-67584114D01*
X160414014Y-67595500D01*
X158848461Y-67595500D01*
X158780340Y-67575498D01*
X158738576Y-67530690D01*
X158735993Y-67523801D01*
X158651474Y-67411026D01*
X158538699Y-67326507D01*
X158530298Y-67323357D01*
X158530295Y-67323356D01*
X158486270Y-67306852D01*
X158429506Y-67264210D01*
X158404806Y-67197648D01*
X158404500Y-67188870D01*
X158404500Y-66811130D01*
X158424502Y-66743009D01*
X158478158Y-66696516D01*
X158486270Y-66693148D01*
X158530295Y-66676644D01*
X158530298Y-66676643D01*
X158538699Y-66673493D01*
X158651474Y-66588974D01*
X158735993Y-66476199D01*
X158785464Y-66344236D01*
X158792000Y-66284070D01*
X158792000Y-65715930D01*
X158785464Y-65655764D01*
X158782692Y-65648369D01*
X158782690Y-65648362D01*
X158770392Y-65615558D01*
X158765209Y-65544751D01*
X158799130Y-65482382D01*
X158861386Y-65448253D01*
X158932210Y-65453200D01*
X158958376Y-65466564D01*
X158970720Y-65474812D01*
X158976023Y-65477090D01*
X158976026Y-65477092D01*
X159077127Y-65520528D01*
X159157228Y-65554942D01*
X159230244Y-65571464D01*
X159349579Y-65598467D01*
X159349584Y-65598468D01*
X159355216Y-65599742D01*
X159360987Y-65599969D01*
X159360989Y-65599969D01*
X159413751Y-65602042D01*
X159558053Y-65607712D01*
X159667189Y-65591888D01*
X159753231Y-65579413D01*
X159753236Y-65579412D01*
X159758945Y-65578584D01*
X159764409Y-65576729D01*
X159764414Y-65576728D01*
X159945693Y-65515192D01*
X159945698Y-65515190D01*
X159951165Y-65513334D01*
X160128276Y-65414147D01*
X160133162Y-65410084D01*
X160279913Y-65288031D01*
X160284345Y-65284345D01*
X160337537Y-65220389D01*
X160410453Y-65132718D01*
X160410455Y-65132715D01*
X160414147Y-65128276D01*
X160513334Y-64951165D01*
X160515190Y-64945698D01*
X160515192Y-64945693D01*
X160576728Y-64764414D01*
X160576729Y-64764409D01*
X160578584Y-64758945D01*
X160579671Y-64751450D01*
X160580026Y-64750674D01*
X160580762Y-64747610D01*
X160581364Y-64747754D01*
X160609239Y-64686903D01*
X160669010Y-64648589D01*
X160728864Y-64645931D01*
X160799984Y-64660027D01*
X160800190Y-64659986D01*
X161673831Y-64659986D01*
X161673831Y-64659439D01*
X161674036Y-64659420D01*
X161674036Y-64659986D01*
X161674099Y-64659986D01*
X161679990Y-64658851D01*
X161685957Y-64658282D01*
X161686035Y-64659103D01*
X161695342Y-64658526D01*
X161695312Y-64657591D01*
X161701491Y-64657390D01*
X161707674Y-64657797D01*
X161707849Y-64657774D01*
X161707772Y-64657186D01*
X161708057Y-64657177D01*
X161708462Y-64657081D01*
X161708542Y-64657682D01*
X161708684Y-64657663D01*
X161714583Y-64655636D01*
X161714594Y-64655633D01*
X161728990Y-64650685D01*
X161746112Y-64646118D01*
X161764582Y-64642561D01*
X161770470Y-64641427D01*
X161770500Y-64641415D01*
X161770289Y-64640887D01*
X161771501Y-64640531D01*
X161772885Y-64639795D01*
X161773114Y-64640352D01*
X161773182Y-64640324D01*
X161778335Y-64636896D01*
X161783802Y-64633989D01*
X161783872Y-64634121D01*
X161793462Y-64628524D01*
X161805249Y-64624473D01*
X161823433Y-64608348D01*
X161837245Y-64597712D01*
X161857483Y-64584251D01*
X161864401Y-64573945D01*
X161872304Y-64566075D01*
X161872164Y-64565946D01*
X161876369Y-64561406D01*
X161881001Y-64557299D01*
X161881045Y-64557241D01*
X161880565Y-64556877D01*
X161881772Y-64555574D01*
X161882499Y-64554370D01*
X161882950Y-64554704D01*
X161882970Y-64554677D01*
X161893354Y-64533103D01*
X161902268Y-64517529D01*
X161910457Y-64505328D01*
X161910457Y-64505327D01*
X161913909Y-64500185D01*
X161913964Y-64500053D01*
X161913415Y-64499824D01*
X161913687Y-64499317D01*
X161913817Y-64498888D01*
X161914354Y-64499110D01*
X161914420Y-64498950D01*
X161915618Y-64492939D01*
X161917396Y-64487064D01*
X161918212Y-64487311D01*
X161921009Y-64478945D01*
X161920275Y-64478680D01*
X161920936Y-64476850D01*
X161921575Y-64475761D01*
X161923396Y-64470686D01*
X161925247Y-64466840D01*
X161925251Y-64466824D01*
X161925252Y-64466824D01*
X161926614Y-64461716D01*
X161926617Y-64461708D01*
X161929804Y-64449757D01*
X161932312Y-64441498D01*
X162019326Y-64186736D01*
X162023541Y-64176022D01*
X162028770Y-64164331D01*
X162070777Y-64070399D01*
X162081364Y-64046725D01*
X162086357Y-64036766D01*
X162170796Y-63885446D01*
X162176584Y-63876064D01*
X162268143Y-63741222D01*
X162274331Y-63732872D01*
X162399381Y-63577917D01*
X162402239Y-63574376D01*
X162401878Y-63574085D01*
X162402595Y-63572985D01*
X162403060Y-63573357D01*
X162403076Y-63573337D01*
X162417114Y-63546398D01*
X162423994Y-63534765D01*
X162436110Y-63516580D01*
X162436110Y-63516579D01*
X162440177Y-63510476D01*
X162440199Y-63510485D01*
X162440228Y-63510415D01*
X162440232Y-63510393D01*
X162440245Y-63510374D01*
X162440297Y-63510248D01*
X162440264Y-63510234D01*
X162441593Y-63503552D01*
X162444321Y-63495715D01*
X162444304Y-63495616D01*
X162444304Y-63495520D01*
X162445178Y-63492545D01*
X162449165Y-63484893D01*
X162449255Y-63484920D01*
X162449293Y-63484792D01*
X162449309Y-63484616D01*
X162449393Y-63484455D01*
X162449413Y-63484387D01*
X162449333Y-63484363D01*
X162452120Y-63454142D01*
X162454005Y-63441164D01*
X162459986Y-63411099D01*
X162459986Y-63411071D01*
X162459379Y-63411071D01*
X162459398Y-63410873D01*
X162459986Y-63410873D01*
X162459986Y-61800578D01*
X162460027Y-61800373D01*
X162459986Y-61800165D01*
X162459986Y-61800099D01*
X162459973Y-61800099D01*
X162445969Y-61729167D01*
X162441616Y-61707116D01*
X162440417Y-61701043D01*
X162440259Y-61700660D01*
X162383516Y-61615782D01*
X162373141Y-61608878D01*
X162309658Y-61566635D01*
X162309656Y-61566634D01*
X162299372Y-61559791D01*
X162299385Y-61559760D01*
X162299286Y-61559719D01*
X162299255Y-61559713D01*
X162299225Y-61559693D01*
X162298941Y-61559576D01*
X162298913Y-61559645D01*
X162200016Y-61539973D01*
X162199810Y-61540014D01*
X161200222Y-61540014D01*
X161200016Y-61539973D01*
X161187841Y-61542394D01*
X161107875Y-61558295D01*
X161107873Y-61558296D01*
X161101087Y-61559645D01*
X161101059Y-61559576D01*
X161100775Y-61559693D01*
X161100746Y-61559713D01*
X161100714Y-61559719D01*
X161100615Y-61559760D01*
X161100628Y-61559791D01*
X161094363Y-61563985D01*
X161094361Y-61563986D01*
X161027300Y-61608878D01*
X161016181Y-61616321D01*
X161016092Y-61616232D01*
X161015642Y-61616682D01*
X161015473Y-61616795D01*
X161015363Y-61616961D01*
X160616296Y-62016027D01*
X160616121Y-62016144D01*
X160559986Y-62100168D01*
X160559951Y-62100153D01*
X160559833Y-62100437D01*
X160540023Y-62200101D01*
X160540014Y-62200101D01*
X160540014Y-62200149D01*
X160539972Y-62200360D01*
X160540014Y-62200570D01*
X160540014Y-62569500D01*
X160520012Y-62637621D01*
X160466356Y-62684114D01*
X160414014Y-62695500D01*
X160335934Y-62695500D01*
X160326501Y-62698565D01*
X160314714Y-62702395D01*
X160295483Y-62707012D01*
X160289363Y-62707981D01*
X160283244Y-62708950D01*
X160283243Y-62708950D01*
X160273445Y-62710502D01*
X160264610Y-62715004D01*
X160264606Y-62715005D01*
X160253557Y-62720635D01*
X160235295Y-62728199D01*
X160223503Y-62732031D01*
X160223501Y-62732032D01*
X160214071Y-62735096D01*
X160196084Y-62748164D01*
X160196017Y-62748213D01*
X160179160Y-62758543D01*
X160159277Y-62768674D01*
X160136489Y-62791462D01*
X160136485Y-62791465D01*
X159569792Y-63358158D01*
X159507480Y-63392184D01*
X159479048Y-63395052D01*
X159464519Y-63394862D01*
X159412971Y-63394187D01*
X159407274Y-63395166D01*
X159407273Y-63395166D01*
X159218607Y-63427585D01*
X159212910Y-63428564D01*
X159022463Y-63498824D01*
X158848010Y-63602612D01*
X158843670Y-63606418D01*
X158843666Y-63606421D01*
X158773358Y-63668080D01*
X158695392Y-63736455D01*
X158569720Y-63895869D01*
X158567031Y-63900980D01*
X158567029Y-63900983D01*
X158543422Y-63945853D01*
X158475203Y-64075515D01*
X158415007Y-64269378D01*
X158391148Y-64470964D01*
X158399455Y-64597709D01*
X158403540Y-64660027D01*
X158404424Y-64673522D01*
X158405845Y-64679118D01*
X158405846Y-64679123D01*
X158426119Y-64758945D01*
X158454392Y-64870269D01*
X158456809Y-64875512D01*
X158494010Y-64956208D01*
X158539377Y-65054616D01*
X158542710Y-65059332D01*
X158564651Y-65090378D01*
X158587632Y-65157552D01*
X158570647Y-65226487D01*
X158519090Y-65275297D01*
X158449329Y-65288484D01*
X158417527Y-65281081D01*
X158414137Y-65279810D01*
X158414133Y-65279809D01*
X158406736Y-65277036D01*
X158346570Y-65270500D01*
X157653430Y-65270500D01*
X157593264Y-65277036D01*
X157563935Y-65288031D01*
X157469705Y-65323356D01*
X157469702Y-65323357D01*
X157461301Y-65326507D01*
X157348526Y-65411026D01*
X157264007Y-65523801D01*
X157260857Y-65532202D01*
X157260856Y-65532205D01*
X157255482Y-65546541D01*
X157212840Y-65603306D01*
X157146278Y-65628005D01*
X157076929Y-65612797D01*
X157026811Y-65562511D01*
X157019518Y-65546541D01*
X157014144Y-65532205D01*
X157014143Y-65532202D01*
X157010993Y-65523801D01*
X156926474Y-65411026D01*
X156813699Y-65326507D01*
X156805298Y-65323357D01*
X156805295Y-65323356D01*
X156711065Y-65288031D01*
X156681736Y-65277036D01*
X156621570Y-65270500D01*
X155928430Y-65270500D01*
X155868264Y-65277036D01*
X155838935Y-65288031D01*
X155744705Y-65323356D01*
X155744702Y-65323357D01*
X155736301Y-65326507D01*
X155623526Y-65411026D01*
X155539007Y-65523801D01*
X155535857Y-65532202D01*
X155535856Y-65532205D01*
X155518159Y-65579413D01*
X155489536Y-65655764D01*
X155483000Y-65715930D01*
X155483000Y-65892761D01*
X155462998Y-65960882D01*
X155446095Y-65981856D01*
X153726855Y-67701095D01*
X153664543Y-67735121D01*
X153637760Y-67738000D01*
X153603905Y-67738000D01*
X153560196Y-67729306D01*
X153553701Y-67724966D01*
X153541532Y-67722545D01*
X153541531Y-67722545D01*
X153485535Y-67711407D01*
X153479467Y-67710200D01*
X152463965Y-67710200D01*
X151448134Y-67710201D01*
X151412382Y-67717312D01*
X151386074Y-67722544D01*
X151386072Y-67722545D01*
X151373899Y-67724966D01*
X151363579Y-67731861D01*
X151363578Y-67731862D01*
X151358701Y-67735121D01*
X151289716Y-67781216D01*
X151233466Y-67865399D01*
X151218700Y-67939633D01*
X151218701Y-68345366D01*
X151233466Y-68419601D01*
X151233732Y-68419999D01*
X151240436Y-68482374D01*
X151236459Y-68495920D01*
X151233466Y-68500399D01*
X151231045Y-68512568D01*
X151231045Y-68512569D01*
X151227213Y-68531834D01*
X151218700Y-68574633D01*
X151218701Y-68980366D01*
X151223196Y-69002965D01*
X151231006Y-69042231D01*
X151233466Y-69054601D01*
X151233976Y-69055364D01*
X151240713Y-69118039D01*
X151233125Y-69143881D01*
X151231516Y-69147766D01*
X151220407Y-69203615D01*
X151219200Y-69215870D01*
X151219200Y-69216585D01*
X151223675Y-69231824D01*
X151225065Y-69233029D01*
X151232748Y-69234700D01*
X153690284Y-69234700D01*
X153705524Y-69230225D01*
X153709629Y-69225488D01*
X153769355Y-69187104D01*
X153804853Y-69182000D01*
X154286566Y-69182000D01*
X154295998Y-69178935D01*
X154296000Y-69178935D01*
X154307787Y-69175105D01*
X154327013Y-69170489D01*
X154339262Y-69168549D01*
X154349055Y-69166998D01*
X154368939Y-69156866D01*
X154387205Y-69149301D01*
X154398996Y-69145470D01*
X154408429Y-69142405D01*
X154426489Y-69129284D01*
X154443346Y-69118954D01*
X154447756Y-69116707D01*
X154463223Y-69108826D01*
X154486011Y-69086038D01*
X154486015Y-69086035D01*
X155130645Y-68441405D01*
X155192957Y-68407379D01*
X155219740Y-68404500D01*
X155426539Y-68404500D01*
X155494660Y-68424502D01*
X155536424Y-68469310D01*
X155539007Y-68476199D01*
X155623526Y-68588974D01*
X155736301Y-68673493D01*
X155744703Y-68676643D01*
X155744707Y-68676645D01*
X155780317Y-68689994D01*
X155837082Y-68732635D01*
X155861782Y-68799196D01*
X155846575Y-68868545D01*
X155825183Y-68897071D01*
X155116159Y-69606095D01*
X155053847Y-69640121D01*
X155027064Y-69643000D01*
X153808421Y-69643000D01*
X153740300Y-69622998D01*
X153725909Y-69612225D01*
X153702535Y-69591971D01*
X153694852Y-69590300D01*
X151237316Y-69590300D01*
X151222077Y-69594775D01*
X151220872Y-69596165D01*
X151219201Y-69603848D01*
X151219201Y-69609128D01*
X151220409Y-69621388D01*
X151231515Y-69677231D01*
X151233125Y-69681117D01*
X151240713Y-69751707D01*
X151236603Y-69765704D01*
X151233466Y-69770399D01*
X151218700Y-69844633D01*
X151218701Y-70250366D01*
X151233466Y-70324601D01*
X151233732Y-70324999D01*
X151240436Y-70387374D01*
X151236459Y-70400920D01*
X151233466Y-70405399D01*
X151218700Y-70479633D01*
X151218701Y-70885366D01*
X151233466Y-70959601D01*
X151233732Y-70959999D01*
X151240436Y-71022374D01*
X151236459Y-71035920D01*
X151233466Y-71040399D01*
X151218700Y-71114633D01*
X151218701Y-71520366D01*
X151233466Y-71594601D01*
X151233732Y-71594999D01*
X151240436Y-71657374D01*
X151236459Y-71670920D01*
X151233466Y-71675399D01*
X151231045Y-71687568D01*
X151231045Y-71687569D01*
X151220116Y-71742514D01*
X151218700Y-71749633D01*
X149654500Y-71749633D01*
X149654500Y-70406634D01*
X149647605Y-70385414D01*
X149642988Y-70366182D01*
X149641050Y-70353944D01*
X149641050Y-70353943D01*
X149639498Y-70344145D01*
X149634996Y-70335310D01*
X149634995Y-70335306D01*
X149629365Y-70324257D01*
X149621801Y-70305995D01*
X149617969Y-70294203D01*
X149617968Y-70294201D01*
X149614904Y-70284771D01*
X149601787Y-70266717D01*
X149591457Y-70249860D01*
X149588561Y-70244177D01*
X149581326Y-70229977D01*
X149558538Y-70207189D01*
X149558535Y-70207185D01*
X149090315Y-69738965D01*
X149090311Y-69738962D01*
X149067523Y-69716174D01*
X149047644Y-69706045D01*
X149030789Y-69695716D01*
X149020753Y-69688425D01*
X149012729Y-69682595D01*
X148991504Y-69675699D01*
X148973238Y-69668133D01*
X148953355Y-69658002D01*
X148931313Y-69654511D01*
X148912087Y-69649895D01*
X148900300Y-69646065D01*
X148900298Y-69646065D01*
X148890866Y-69643000D01*
X148885370Y-69643000D01*
X148823436Y-69613639D01*
X148785909Y-69553371D01*
X148781300Y-69519603D01*
X148781299Y-69215823D01*
X148781299Y-69209634D01*
X148769909Y-69152366D01*
X148768956Y-69147574D01*
X148768955Y-69147571D01*
X148766534Y-69135399D01*
X148766024Y-69134636D01*
X148759287Y-69071961D01*
X148766875Y-69046119D01*
X148768484Y-69042234D01*
X148779593Y-68986385D01*
X148780800Y-68974130D01*
X148780800Y-68973415D01*
X148776325Y-68958176D01*
X148774935Y-68956971D01*
X148767252Y-68955300D01*
X146309716Y-68955300D01*
X146294477Y-68959775D01*
X146293272Y-68961165D01*
X146291601Y-68968848D01*
X146291601Y-68974128D01*
X146292809Y-68986388D01*
X146303915Y-69042231D01*
X146305525Y-69046117D01*
X146313113Y-69116707D01*
X146309003Y-69130704D01*
X146305866Y-69135399D01*
X146291100Y-69209633D01*
X146291101Y-69615366D01*
X146305866Y-69689601D01*
X146306132Y-69689999D01*
X146312836Y-69752374D01*
X146308859Y-69765920D01*
X146305866Y-69770399D01*
X146291100Y-69844633D01*
X146291101Y-70043977D01*
X146291101Y-70170546D01*
X146271099Y-70238666D01*
X146217444Y-70285159D01*
X146204039Y-70290379D01*
X146200742Y-70291450D01*
X146190945Y-70293002D01*
X146182105Y-70297506D01*
X146182106Y-70297506D01*
X146171068Y-70303130D01*
X146152800Y-70310697D01*
X146141006Y-70314529D01*
X146141001Y-70314531D01*
X146131572Y-70317595D01*
X146123552Y-70323422D01*
X146123550Y-70323423D01*
X146113517Y-70330713D01*
X146096658Y-70341044D01*
X146076777Y-70351174D01*
X146053986Y-70373965D01*
X144269595Y-72158355D01*
X144207283Y-72192381D01*
X144136468Y-72187316D01*
X144079632Y-72144769D01*
X144054821Y-72078249D01*
X144054500Y-72069260D01*
X144054500Y-72002244D01*
X144047798Y-71940552D01*
X143997071Y-71805236D01*
X143991691Y-71798057D01*
X143991689Y-71798054D01*
X143915785Y-71696776D01*
X143910404Y-71689596D01*
X143867410Y-71657374D01*
X143801946Y-71608311D01*
X143801943Y-71608309D01*
X143794764Y-71602929D01*
X143702891Y-71568488D01*
X143666843Y-71554974D01*
X143666841Y-71554974D01*
X143659448Y-71552202D01*
X143651598Y-71551349D01*
X143651597Y-71551349D01*
X143601153Y-71545869D01*
X143601152Y-71545869D01*
X143597756Y-71545500D01*
X142402244Y-71545500D01*
X142398848Y-71545869D01*
X142398847Y-71545869D01*
X142348403Y-71551349D01*
X142348402Y-71551349D01*
X142340552Y-71552202D01*
X142333159Y-71554974D01*
X142333157Y-71554974D01*
X142297109Y-71568488D01*
X142205236Y-71602929D01*
X142198057Y-71608309D01*
X142198054Y-71608311D01*
X142132590Y-71657374D01*
X142089596Y-71689596D01*
X142084215Y-71696776D01*
X142008311Y-71798054D01*
X142008309Y-71798057D01*
X142002929Y-71805236D01*
X141952202Y-71940552D01*
X141945500Y-72002244D01*
X141945500Y-73197756D01*
X140254500Y-73197756D01*
X140254500Y-69902938D01*
X142461892Y-69902938D01*
X142466801Y-69909496D01*
X142570612Y-69967514D01*
X142581851Y-69972424D01*
X142766715Y-70032490D01*
X142778689Y-70035123D01*
X142971708Y-70058139D01*
X142983957Y-70058396D01*
X143177769Y-70043483D01*
X143189849Y-70041352D01*
X143377061Y-69989081D01*
X143388494Y-69984647D01*
X143529749Y-69913294D01*
X143540033Y-69903649D01*
X143537795Y-69897005D01*
X143012812Y-69372022D01*
X142998868Y-69364408D01*
X142997035Y-69364539D01*
X142990420Y-69368790D01*
X142468652Y-69890558D01*
X142461892Y-69902938D01*
X140254500Y-69902938D01*
X140254500Y-68991357D01*
X141941519Y-68991357D01*
X141957783Y-69185049D01*
X141959997Y-69197108D01*
X142013576Y-69383961D01*
X142018089Y-69395358D01*
X142086984Y-69529414D01*
X142096701Y-69539632D01*
X142103502Y-69537288D01*
X142627978Y-69012812D01*
X142634356Y-69001132D01*
X143364408Y-69001132D01*
X143364539Y-69002965D01*
X143368790Y-69009580D01*
X143890401Y-69531191D01*
X143902781Y-69537951D01*
X143909515Y-69532910D01*
X143964490Y-69436138D01*
X143969483Y-69424922D01*
X144030834Y-69240494D01*
X144033554Y-69228523D01*
X144058244Y-69033075D01*
X144058736Y-69026048D01*
X144059051Y-69003523D01*
X144058756Y-68996494D01*
X144039531Y-68800419D01*
X144037148Y-68788384D01*
X143980968Y-68602308D01*
X143976294Y-68590967D01*
X143971305Y-68581585D01*
X146291600Y-68581585D01*
X146296075Y-68596824D01*
X146297465Y-68598029D01*
X146305148Y-68599700D01*
X147340285Y-68599700D01*
X147355524Y-68595225D01*
X147356729Y-68593835D01*
X147358400Y-68586152D01*
X147358400Y-68581585D01*
X147714000Y-68581585D01*
X147718475Y-68596824D01*
X147719865Y-68598029D01*
X147727548Y-68599700D01*
X148762684Y-68599700D01*
X148777923Y-68595225D01*
X148779128Y-68593835D01*
X148780799Y-68586152D01*
X148780799Y-68580872D01*
X148779591Y-68568612D01*
X148768484Y-68512764D01*
X148766599Y-68508214D01*
X148759012Y-68437624D01*
X148766601Y-68411781D01*
X148768484Y-68407236D01*
X148779593Y-68351385D01*
X148780800Y-68339130D01*
X148780800Y-68338415D01*
X148776325Y-68323176D01*
X148774935Y-68321971D01*
X148767252Y-68320300D01*
X147732115Y-68320300D01*
X147716876Y-68324775D01*
X147715671Y-68326165D01*
X147714000Y-68333848D01*
X147714000Y-68581585D01*
X147358400Y-68581585D01*
X147358400Y-68338415D01*
X147353925Y-68323176D01*
X147352535Y-68321971D01*
X147344852Y-68320300D01*
X146309716Y-68320300D01*
X146294477Y-68324775D01*
X146293272Y-68326165D01*
X146291601Y-68333848D01*
X146291601Y-68339128D01*
X146292809Y-68351388D01*
X146303916Y-68407233D01*
X146305800Y-68411782D01*
X146313389Y-68482372D01*
X146305800Y-68508216D01*
X146303916Y-68512764D01*
X146292807Y-68568615D01*
X146291600Y-68580870D01*
X146291600Y-68581585D01*
X143971305Y-68581585D01*
X143912577Y-68471133D01*
X143902717Y-68461052D01*
X143895589Y-68463621D01*
X143372022Y-68987188D01*
X143364408Y-69001132D01*
X142634356Y-69001132D01*
X142635592Y-68998868D01*
X142635461Y-68997035D01*
X142631210Y-68990420D01*
X142109247Y-68468457D01*
X142096867Y-68461697D01*
X142090479Y-68466479D01*
X142029510Y-68577381D01*
X142024682Y-68588645D01*
X141965906Y-68773931D01*
X141963358Y-68785920D01*
X141941690Y-68979088D01*
X141941519Y-68991357D01*
X140254500Y-68991357D01*
X140254500Y-68097012D01*
X142460730Y-68097012D01*
X142463183Y-68103973D01*
X142987188Y-68627978D01*
X143001132Y-68635592D01*
X143002965Y-68635461D01*
X143009580Y-68631210D01*
X143531777Y-68109013D01*
X143538537Y-68096633D01*
X143533878Y-68090410D01*
X143415836Y-68026585D01*
X143404531Y-68021833D01*
X143218849Y-67964354D01*
X143206836Y-67961888D01*
X143061237Y-67946585D01*
X146291600Y-67946585D01*
X146296075Y-67961824D01*
X146297465Y-67963029D01*
X146305148Y-67964700D01*
X147340285Y-67964700D01*
X147355524Y-67960225D01*
X147356729Y-67958835D01*
X147358400Y-67951152D01*
X147358400Y-67946585D01*
X147714000Y-67946585D01*
X147718475Y-67961824D01*
X147719865Y-67963029D01*
X147727548Y-67964700D01*
X148762684Y-67964700D01*
X148777923Y-67960225D01*
X148779128Y-67958835D01*
X148780799Y-67951152D01*
X148780799Y-67945872D01*
X148779591Y-67933612D01*
X148768485Y-67877769D01*
X148759167Y-67855273D01*
X148716817Y-67791892D01*
X148699608Y-67774683D01*
X148636225Y-67732332D01*
X148613734Y-67723016D01*
X148557885Y-67711907D01*
X148545630Y-67710700D01*
X147732115Y-67710700D01*
X147716876Y-67715175D01*
X147715671Y-67716565D01*
X147714000Y-67724248D01*
X147714000Y-67946585D01*
X147358400Y-67946585D01*
X147358400Y-67728816D01*
X147353925Y-67713577D01*
X147352535Y-67712372D01*
X147344852Y-67710701D01*
X146526772Y-67710701D01*
X146514512Y-67711909D01*
X146458669Y-67723015D01*
X146436173Y-67732333D01*
X146372792Y-67774683D01*
X146355583Y-67791892D01*
X146313232Y-67855275D01*
X146303916Y-67877766D01*
X146292807Y-67933615D01*
X146291600Y-67945870D01*
X146291600Y-67946585D01*
X143061237Y-67946585D01*
X143013522Y-67941570D01*
X143001254Y-67941485D01*
X142807683Y-67959101D01*
X142795634Y-67961399D01*
X142609163Y-68016281D01*
X142597795Y-68020874D01*
X142470879Y-68087224D01*
X142460730Y-68097012D01*
X140254500Y-68097012D01*
X140254500Y-62935964D01*
X141642112Y-62935964D01*
X141642312Y-62941292D01*
X141642312Y-62941294D01*
X141644464Y-62998599D01*
X141643705Y-62998628D01*
X141644034Y-63000016D01*
X141644340Y-62999989D01*
X141644374Y-63000377D01*
X141644465Y-63001838D01*
X141644523Y-63002085D01*
X141644648Y-63003507D01*
X141650736Y-63165669D01*
X141651831Y-63170888D01*
X141664628Y-63231879D01*
X141663861Y-63232040D01*
X141664841Y-63234316D01*
X141664937Y-63235408D01*
X141666361Y-63240722D01*
X141666464Y-63241307D01*
X141667635Y-63246210D01*
X141697939Y-63390637D01*
X141717887Y-63441150D01*
X141723975Y-63456566D01*
X141724724Y-63458541D01*
X141726097Y-63463663D01*
X141728422Y-63468649D01*
X141728423Y-63468651D01*
X141728947Y-63469775D01*
X141731934Y-63476717D01*
X141782372Y-63604436D01*
X141819273Y-63665246D01*
X141820811Y-63668126D01*
X141820890Y-63668080D01*
X141823639Y-63672841D01*
X141825965Y-63677829D01*
X141829122Y-63682337D01*
X141829124Y-63682341D01*
X141830674Y-63684555D01*
X141835181Y-63691462D01*
X141898623Y-63796011D01*
X141901621Y-63800952D01*
X141905116Y-63804979D01*
X141905117Y-63804981D01*
X141951993Y-63859000D01*
X141955555Y-63863563D01*
X141958347Y-63866890D01*
X141961505Y-63871401D01*
X141967791Y-63877687D01*
X141973861Y-63884201D01*
X141992153Y-63905280D01*
X142052276Y-63974566D01*
X142056407Y-63977953D01*
X142116309Y-64027070D01*
X142123574Y-64033652D01*
X142124706Y-64034602D01*
X142128599Y-64038495D01*
X142133103Y-64041649D01*
X142133108Y-64041653D01*
X142135936Y-64043633D01*
X142143554Y-64049410D01*
X142225901Y-64116931D01*
X142225907Y-64116935D01*
X142230029Y-64120315D01*
X142234668Y-64122955D01*
X142234667Y-64122955D01*
X142307355Y-64164331D01*
X142317296Y-64170622D01*
X142317660Y-64170877D01*
X142317667Y-64170881D01*
X142322171Y-64174035D01*
X142327155Y-64176359D01*
X142327160Y-64176362D01*
X142329875Y-64177628D01*
X142338952Y-64182318D01*
X142383061Y-64207426D01*
X142429798Y-64234030D01*
X142511980Y-64263861D01*
X142519498Y-64266590D01*
X142529753Y-64270833D01*
X142531348Y-64271577D01*
X142531350Y-64271578D01*
X142536337Y-64273903D01*
X142541653Y-64275327D01*
X142541655Y-64275328D01*
X142542719Y-64275613D01*
X142543702Y-64275876D01*
X142554081Y-64279143D01*
X142645871Y-64312461D01*
X142746443Y-64330648D01*
X142756616Y-64332926D01*
X142764592Y-64335063D01*
X142770990Y-64335623D01*
X142782412Y-64337152D01*
X142872069Y-64353364D01*
X142876208Y-64353559D01*
X142876215Y-64353560D01*
X142894670Y-64354430D01*
X142894677Y-64354430D01*
X142896158Y-64354500D01*
X143057712Y-64354500D01*
X143137444Y-64347735D01*
X143223733Y-64340413D01*
X143223737Y-64340412D01*
X143229044Y-64339962D01*
X143234199Y-64338624D01*
X143234205Y-64338623D01*
X143446368Y-64283556D01*
X143446367Y-64283556D01*
X143451539Y-64282214D01*
X143598412Y-64216052D01*
X143656262Y-64189993D01*
X143656265Y-64189992D01*
X143661123Y-64187803D01*
X143851803Y-64059430D01*
X143865122Y-64046725D01*
X143981260Y-63935934D01*
X144018128Y-63900764D01*
X144155342Y-63716342D01*
X144171504Y-63684555D01*
X144257102Y-63516194D01*
X144257102Y-63516193D01*
X144259520Y-63511438D01*
X144327685Y-63291911D01*
X144339865Y-63200016D01*
X144357188Y-63069319D01*
X144357188Y-63069316D01*
X144357888Y-63064036D01*
X144357320Y-63048895D01*
X144355536Y-63001401D01*
X144356295Y-63001372D01*
X144355966Y-62999984D01*
X144355660Y-63000011D01*
X144355626Y-62999623D01*
X144355535Y-62998162D01*
X144355477Y-62997915D01*
X144355352Y-62996493D01*
X144349264Y-62834331D01*
X144335372Y-62768121D01*
X144336139Y-62767960D01*
X144335159Y-62765684D01*
X144335063Y-62764592D01*
X144333639Y-62759278D01*
X144333536Y-62758693D01*
X144332362Y-62753778D01*
X144331195Y-62748213D01*
X144302061Y-62609363D01*
X144276025Y-62543434D01*
X144275276Y-62541459D01*
X144273903Y-62536337D01*
X144271053Y-62530225D01*
X144268066Y-62523283D01*
X144217628Y-62395564D01*
X144180727Y-62334754D01*
X144179189Y-62331874D01*
X144179110Y-62331920D01*
X144176361Y-62327159D01*
X144174035Y-62322171D01*
X144170876Y-62317659D01*
X144169326Y-62315445D01*
X144164819Y-62308538D01*
X144101147Y-62203609D01*
X144101145Y-62203606D01*
X144098379Y-62199048D01*
X144048007Y-62141000D01*
X144044445Y-62136437D01*
X144041653Y-62133110D01*
X144038495Y-62128599D01*
X144032209Y-62122313D01*
X144026139Y-62115799D01*
X143951224Y-62029467D01*
X143951222Y-62029465D01*
X143947724Y-62025434D01*
X143883692Y-61972930D01*
X143876426Y-61966348D01*
X143875294Y-61965398D01*
X143871401Y-61961505D01*
X143866897Y-61958351D01*
X143866892Y-61958347D01*
X143864064Y-61956367D01*
X143856446Y-61950590D01*
X143774099Y-61883069D01*
X143774093Y-61883065D01*
X143769971Y-61879685D01*
X143692645Y-61835669D01*
X143682704Y-61829378D01*
X143682340Y-61829123D01*
X143682333Y-61829119D01*
X143677829Y-61825965D01*
X143672845Y-61823641D01*
X143672840Y-61823638D01*
X143670125Y-61822372D01*
X143661048Y-61817682D01*
X143608603Y-61787829D01*
X143570202Y-61765970D01*
X143480502Y-61733410D01*
X143470247Y-61729167D01*
X143468652Y-61728423D01*
X143468650Y-61728422D01*
X143463663Y-61726097D01*
X143458347Y-61724673D01*
X143458345Y-61724672D01*
X143457281Y-61724387D01*
X143456298Y-61724124D01*
X143445919Y-61720857D01*
X143354129Y-61687539D01*
X143253557Y-61669352D01*
X143243384Y-61667074D01*
X143235408Y-61664937D01*
X143229010Y-61664377D01*
X143217588Y-61662848D01*
X143127931Y-61646636D01*
X143123792Y-61646441D01*
X143123785Y-61646440D01*
X143105330Y-61645570D01*
X143105323Y-61645570D01*
X143103842Y-61645500D01*
X142942288Y-61645500D01*
X142862556Y-61652265D01*
X142776267Y-61659587D01*
X142776263Y-61659588D01*
X142770956Y-61660038D01*
X142765801Y-61661376D01*
X142765795Y-61661377D01*
X142612642Y-61701128D01*
X142548461Y-61717786D01*
X142441497Y-61765970D01*
X142343738Y-61810007D01*
X142343735Y-61810008D01*
X142338877Y-61812197D01*
X142148197Y-61940570D01*
X142144340Y-61944249D01*
X142144338Y-61944251D01*
X142118404Y-61968991D01*
X141981872Y-62099236D01*
X141844658Y-62283658D01*
X141842242Y-62288409D01*
X141842240Y-62288413D01*
X141742898Y-62483806D01*
X141740480Y-62488562D01*
X141672315Y-62708089D01*
X141671614Y-62713378D01*
X141644086Y-62921073D01*
X141642112Y-62935964D01*
X140254500Y-62935964D01*
X140254500Y-62037476D01*
X140256921Y-62012894D01*
X140257065Y-62012170D01*
X140259486Y-62000000D01*
X140257065Y-61987828D01*
X140257065Y-61975421D01*
X140257705Y-61975421D01*
X140257029Y-61964639D01*
X140257254Y-61961505D01*
X140271624Y-61760580D01*
X140274182Y-61742786D01*
X140323290Y-61517040D01*
X140328355Y-61499791D01*
X140348923Y-61444644D01*
X140409090Y-61283330D01*
X140416556Y-61266983D01*
X140527275Y-61064218D01*
X140536994Y-61049095D01*
X140675441Y-60864152D01*
X140687214Y-60850566D01*
X140850566Y-60687214D01*
X140864152Y-60675441D01*
X141049095Y-60536994D01*
X141064218Y-60527275D01*
X141266983Y-60416556D01*
X141283330Y-60409090D01*
X141444644Y-60348923D01*
X141499791Y-60328355D01*
X141517040Y-60323290D01*
X141742786Y-60274182D01*
X141760580Y-60271624D01*
X141780752Y-60270181D01*
X141964642Y-60257029D01*
X141975421Y-60257705D01*
X141975421Y-60257065D01*
X141987828Y-60257065D01*
X142000000Y-60259486D01*
X142012897Y-60256921D01*
X142037476Y-60254500D01*
X171962524Y-60254500D01*
X171987103Y-60256921D01*
G37*
G04 #@! TD.AperFunction*
M02*
