G04 #@! TF.GenerationSoftware,KiCad,Pcbnew,(6.0.7-1)-1*
G04 #@! TF.CreationDate,2024-08-15T11:28:19+03:00*
G04 #@! TF.ProjectId,Induction,496e6475-6374-4696-9f6e-2e6b69636164,rev?*
G04 #@! TF.SameCoordinates,Original*
G04 #@! TF.FileFunction,Legend,Bot*
G04 #@! TF.FilePolarity,Positive*
%FSLAX46Y46*%
G04 Gerber Fmt 4.6, Leading zero omitted, Abs format (unit mm)*
G04 Created by KiCad (PCBNEW (6.0.7-1)-1) date 2024-08-15 11:28:19*
%MOMM*%
%LPD*%
G01*
G04 APERTURE LIST*
G04 Aperture macros list*
%AMRoundRect*
0 Rectangle with rounded corners*
0 $1 Rounding radius*
0 $2 $3 $4 $5 $6 $7 $8 $9 X,Y pos of 4 corners*
0 Add a 4 corners polygon primitive as box body*
4,1,4,$2,$3,$4,$5,$6,$7,$8,$9,$2,$3,0*
0 Add four circle primitives for the rounded corners*
1,1,$1+$1,$2,$3*
1,1,$1+$1,$4,$5*
1,1,$1+$1,$6,$7*
1,1,$1+$1,$8,$9*
0 Add four rect primitives between the rounded corners*
20,1,$1+$1,$2,$3,$4,$5,0*
20,1,$1+$1,$4,$5,$6,$7,0*
20,1,$1+$1,$6,$7,$8,$9,0*
20,1,$1+$1,$8,$9,$2,$3,0*%
G04 Aperture macros list end*
%ADD10C,0.150000*%
%ADD11C,2.200000*%
%ADD12RoundRect,0.250000X0.550000X-0.550000X0.550000X0.550000X-0.550000X0.550000X-0.550000X-0.550000X0*%
%ADD13C,1.600000*%
G04 APERTURE END LIST*
D10*
X167212023Y-77823904D02*
X167212023Y-77023904D01*
X167021547Y-77023904D01*
X166907261Y-77062000D01*
X166831071Y-77138190D01*
X166792976Y-77214380D01*
X166754880Y-77366761D01*
X166754880Y-77481047D01*
X166792976Y-77633428D01*
X166831071Y-77709619D01*
X166907261Y-77785809D01*
X167021547Y-77823904D01*
X167212023Y-77823904D01*
X166107261Y-77785809D02*
X166183452Y-77823904D01*
X166335833Y-77823904D01*
X166412023Y-77785809D01*
X166450119Y-77709619D01*
X166450119Y-77404857D01*
X166412023Y-77328666D01*
X166335833Y-77290571D01*
X166183452Y-77290571D01*
X166107261Y-77328666D01*
X166069166Y-77404857D01*
X166069166Y-77481047D01*
X166450119Y-77557238D01*
X165764404Y-77785809D02*
X165688214Y-77823904D01*
X165535833Y-77823904D01*
X165459642Y-77785809D01*
X165421547Y-77709619D01*
X165421547Y-77671523D01*
X165459642Y-77595333D01*
X165535833Y-77557238D01*
X165650119Y-77557238D01*
X165726309Y-77519142D01*
X165764404Y-77442952D01*
X165764404Y-77404857D01*
X165726309Y-77328666D01*
X165650119Y-77290571D01*
X165535833Y-77290571D01*
X165459642Y-77328666D01*
X165078690Y-77823904D02*
X165078690Y-77290571D01*
X165078690Y-77023904D02*
X165116785Y-77062000D01*
X165078690Y-77100095D01*
X165040595Y-77062000D01*
X165078690Y-77023904D01*
X165078690Y-77100095D01*
X164354880Y-77290571D02*
X164354880Y-77938190D01*
X164392976Y-78014380D01*
X164431071Y-78052476D01*
X164507261Y-78090571D01*
X164621547Y-78090571D01*
X164697738Y-78052476D01*
X164354880Y-77785809D02*
X164431071Y-77823904D01*
X164583452Y-77823904D01*
X164659642Y-77785809D01*
X164697738Y-77747714D01*
X164735833Y-77671523D01*
X164735833Y-77442952D01*
X164697738Y-77366761D01*
X164659642Y-77328666D01*
X164583452Y-77290571D01*
X164431071Y-77290571D01*
X164354880Y-77328666D01*
X163973928Y-77290571D02*
X163973928Y-77823904D01*
X163973928Y-77366761D02*
X163935833Y-77328666D01*
X163859642Y-77290571D01*
X163745357Y-77290571D01*
X163669166Y-77328666D01*
X163631071Y-77404857D01*
X163631071Y-77823904D01*
X162945357Y-77785809D02*
X163021547Y-77823904D01*
X163173928Y-77823904D01*
X163250119Y-77785809D01*
X163288214Y-77709619D01*
X163288214Y-77404857D01*
X163250119Y-77328666D01*
X163173928Y-77290571D01*
X163021547Y-77290571D01*
X162945357Y-77328666D01*
X162907261Y-77404857D01*
X162907261Y-77481047D01*
X163288214Y-77557238D01*
X162221547Y-77823904D02*
X162221547Y-77023904D01*
X162221547Y-77785809D02*
X162297738Y-77823904D01*
X162450119Y-77823904D01*
X162526309Y-77785809D01*
X162564404Y-77747714D01*
X162602500Y-77671523D01*
X162602500Y-77442952D01*
X162564404Y-77366761D01*
X162526309Y-77328666D01*
X162450119Y-77290571D01*
X162297738Y-77290571D01*
X162221547Y-77328666D01*
X161231071Y-77823904D02*
X161231071Y-77023904D01*
X161231071Y-77328666D02*
X161154880Y-77290571D01*
X161002500Y-77290571D01*
X160926309Y-77328666D01*
X160888214Y-77366761D01*
X160850119Y-77442952D01*
X160850119Y-77671523D01*
X160888214Y-77747714D01*
X160926309Y-77785809D01*
X161002500Y-77823904D01*
X161154880Y-77823904D01*
X161231071Y-77785809D01*
X160583452Y-77290571D02*
X160392976Y-77823904D01*
X160202500Y-77290571D02*
X160392976Y-77823904D01*
X160469166Y-78014380D01*
X160507261Y-78052476D01*
X160583452Y-78090571D01*
X159288214Y-77823904D02*
X159288214Y-77023904D01*
X159097738Y-77023904D01*
X158983452Y-77062000D01*
X158907261Y-77138190D01*
X158869166Y-77214380D01*
X158831071Y-77366761D01*
X158831071Y-77481047D01*
X158869166Y-77633428D01*
X158907261Y-77709619D01*
X158983452Y-77785809D01*
X159097738Y-77823904D01*
X159288214Y-77823904D01*
X158145357Y-77290571D02*
X158145357Y-77823904D01*
X158488214Y-77290571D02*
X158488214Y-77709619D01*
X158450119Y-77785809D01*
X158373928Y-77823904D01*
X158259642Y-77823904D01*
X158183452Y-77785809D01*
X158145357Y-77747714D01*
X157840595Y-77290571D02*
X157650119Y-77823904D01*
X157459642Y-77290571D02*
X157650119Y-77823904D01*
X157726309Y-78014380D01*
X157764404Y-78052476D01*
X157840595Y-78090571D01*
X156659642Y-77023904D02*
X156202500Y-77023904D01*
X156431071Y-77823904D02*
X156431071Y-77023904D01*
X155821547Y-77823904D02*
X155897738Y-77785809D01*
X155935833Y-77747714D01*
X155973928Y-77671523D01*
X155973928Y-77442952D01*
X155935833Y-77366761D01*
X155897738Y-77328666D01*
X155821547Y-77290571D01*
X155707261Y-77290571D01*
X155631071Y-77328666D01*
X155592976Y-77366761D01*
X155554880Y-77442952D01*
X155554880Y-77671523D01*
X155592976Y-77747714D01*
X155631071Y-77785809D01*
X155707261Y-77823904D01*
X155821547Y-77823904D01*
X167250119Y-79073809D02*
X167135833Y-79111904D01*
X166945357Y-79111904D01*
X166869166Y-79073809D01*
X166831071Y-79035714D01*
X166792976Y-78959523D01*
X166792976Y-78883333D01*
X166831071Y-78807142D01*
X166869166Y-78769047D01*
X166945357Y-78730952D01*
X167097738Y-78692857D01*
X167173928Y-78654761D01*
X167212023Y-78616666D01*
X167250119Y-78540476D01*
X167250119Y-78464285D01*
X167212023Y-78388095D01*
X167173928Y-78350000D01*
X167097738Y-78311904D01*
X166907261Y-78311904D01*
X166792976Y-78350000D01*
X166107261Y-79111904D02*
X166107261Y-78692857D01*
X166145357Y-78616666D01*
X166221547Y-78578571D01*
X166373928Y-78578571D01*
X166450119Y-78616666D01*
X166107261Y-79073809D02*
X166183452Y-79111904D01*
X166373928Y-79111904D01*
X166450119Y-79073809D01*
X166488214Y-78997619D01*
X166488214Y-78921428D01*
X166450119Y-78845238D01*
X166373928Y-78807142D01*
X166183452Y-78807142D01*
X166107261Y-78769047D01*
X165802500Y-78578571D02*
X165612023Y-79111904D01*
X165421547Y-78578571D01*
X165002500Y-79111904D02*
X165078690Y-79073809D01*
X165116785Y-79035714D01*
X165154880Y-78959523D01*
X165154880Y-78730952D01*
X165116785Y-78654761D01*
X165078690Y-78616666D01*
X165002500Y-78578571D01*
X164888214Y-78578571D01*
X164812023Y-78616666D01*
X164773928Y-78654761D01*
X164735833Y-78730952D01*
X164735833Y-78959523D01*
X164773928Y-79035714D01*
X164812023Y-79073809D01*
X164888214Y-79111904D01*
X165002500Y-79111904D01*
X164469166Y-79111904D02*
X164050119Y-78578571D01*
X164469166Y-78578571D02*
X164050119Y-79111904D01*
X162869166Y-78692857D02*
X162754880Y-78730952D01*
X162716785Y-78769047D01*
X162678690Y-78845238D01*
X162678690Y-78959523D01*
X162716785Y-79035714D01*
X162754880Y-79073809D01*
X162831071Y-79111904D01*
X163135833Y-79111904D01*
X163135833Y-78311904D01*
X162869166Y-78311904D01*
X162792976Y-78350000D01*
X162754880Y-78388095D01*
X162716785Y-78464285D01*
X162716785Y-78540476D01*
X162754880Y-78616666D01*
X162792976Y-78654761D01*
X162869166Y-78692857D01*
X163135833Y-78692857D01*
X161992976Y-79111904D02*
X161992976Y-78692857D01*
X162031071Y-78616666D01*
X162107261Y-78578571D01*
X162259642Y-78578571D01*
X162335833Y-78616666D01*
X161992976Y-79073809D02*
X162069166Y-79111904D01*
X162259642Y-79111904D01*
X162335833Y-79073809D01*
X162373928Y-78997619D01*
X162373928Y-78921428D01*
X162335833Y-78845238D01*
X162259642Y-78807142D01*
X162069166Y-78807142D01*
X161992976Y-78769047D01*
X161726309Y-78578571D02*
X161421547Y-78578571D01*
X161612023Y-78311904D02*
X161612023Y-78997619D01*
X161573928Y-79073809D01*
X161497738Y-79111904D01*
X161421547Y-79111904D01*
X161269166Y-78578571D02*
X160964404Y-78578571D01*
X161154880Y-78311904D02*
X161154880Y-78997619D01*
X161116785Y-79073809D01*
X161040595Y-79111904D01*
X160964404Y-79111904D01*
X160392976Y-79073809D02*
X160469166Y-79111904D01*
X160621547Y-79111904D01*
X160697738Y-79073809D01*
X160735833Y-78997619D01*
X160735833Y-78692857D01*
X160697738Y-78616666D01*
X160621547Y-78578571D01*
X160469166Y-78578571D01*
X160392976Y-78616666D01*
X160354880Y-78692857D01*
X160354880Y-78769047D01*
X160735833Y-78845238D01*
X160012023Y-79111904D02*
X160012023Y-78578571D01*
X160012023Y-78730952D02*
X159973928Y-78654761D01*
X159935833Y-78616666D01*
X159859642Y-78578571D01*
X159783452Y-78578571D01*
X159592976Y-78578571D02*
X159402500Y-79111904D01*
X159212023Y-78578571D02*
X159402500Y-79111904D01*
X159478690Y-79302380D01*
X159516785Y-79340476D01*
X159592976Y-79378571D01*
X158031071Y-78692857D02*
X157916785Y-78730952D01*
X157878690Y-78769047D01*
X157840595Y-78845238D01*
X157840595Y-78959523D01*
X157878690Y-79035714D01*
X157916785Y-79073809D01*
X157992976Y-79111904D01*
X158297738Y-79111904D01*
X158297738Y-78311904D01*
X158031071Y-78311904D01*
X157954880Y-78350000D01*
X157916785Y-78388095D01*
X157878690Y-78464285D01*
X157878690Y-78540476D01*
X157916785Y-78616666D01*
X157954880Y-78654761D01*
X158031071Y-78692857D01*
X158297738Y-78692857D01*
X157383452Y-79111904D02*
X157459642Y-79073809D01*
X157497738Y-79035714D01*
X157535833Y-78959523D01*
X157535833Y-78730952D01*
X157497738Y-78654761D01*
X157459642Y-78616666D01*
X157383452Y-78578571D01*
X157269166Y-78578571D01*
X157192976Y-78616666D01*
X157154880Y-78654761D01*
X157116785Y-78730952D01*
X157116785Y-78959523D01*
X157154880Y-79035714D01*
X157192976Y-79073809D01*
X157269166Y-79111904D01*
X157383452Y-79111904D01*
X156659642Y-79111904D02*
X156735833Y-79073809D01*
X156773928Y-79035714D01*
X156812023Y-78959523D01*
X156812023Y-78730952D01*
X156773928Y-78654761D01*
X156735833Y-78616666D01*
X156659642Y-78578571D01*
X156545357Y-78578571D01*
X156469166Y-78616666D01*
X156431071Y-78654761D01*
X156392976Y-78730952D01*
X156392976Y-78959523D01*
X156431071Y-79035714D01*
X156469166Y-79073809D01*
X156545357Y-79111904D01*
X156659642Y-79111904D01*
X156088214Y-79073809D02*
X156012023Y-79111904D01*
X155859642Y-79111904D01*
X155783452Y-79073809D01*
X155745357Y-78997619D01*
X155745357Y-78959523D01*
X155783452Y-78883333D01*
X155859642Y-78845238D01*
X155973928Y-78845238D01*
X156050119Y-78807142D01*
X156088214Y-78730952D01*
X156088214Y-78692857D01*
X156050119Y-78616666D01*
X155973928Y-78578571D01*
X155859642Y-78578571D01*
X155783452Y-78616666D01*
X155516785Y-78578571D02*
X155212023Y-78578571D01*
X155402500Y-78311904D02*
X155402500Y-78997619D01*
X155364404Y-79073809D01*
X155288214Y-79111904D01*
X155212023Y-79111904D01*
X154640595Y-79073809D02*
X154716785Y-79111904D01*
X154869166Y-79111904D01*
X154945357Y-79073809D01*
X154983452Y-78997619D01*
X154983452Y-78692857D01*
X154945357Y-78616666D01*
X154869166Y-78578571D01*
X154716785Y-78578571D01*
X154640595Y-78616666D01*
X154602500Y-78692857D01*
X154602500Y-78769047D01*
X154983452Y-78845238D01*
X154259642Y-79111904D02*
X154259642Y-78578571D01*
X154259642Y-78730952D02*
X154221547Y-78654761D01*
X154183452Y-78616666D01*
X154107261Y-78578571D01*
X154031071Y-78578571D01*
X153154880Y-78807142D02*
X152545357Y-78807142D01*
X151554880Y-79111904D02*
X151554880Y-78311904D01*
X151173928Y-78578571D02*
X151173928Y-79111904D01*
X151173928Y-78654761D02*
X151135833Y-78616666D01*
X151059642Y-78578571D01*
X150945357Y-78578571D01*
X150869166Y-78616666D01*
X150831071Y-78692857D01*
X150831071Y-79111904D01*
X150107261Y-79111904D02*
X150107261Y-78311904D01*
X150107261Y-79073809D02*
X150183452Y-79111904D01*
X150335833Y-79111904D01*
X150412023Y-79073809D01*
X150450119Y-79035714D01*
X150488214Y-78959523D01*
X150488214Y-78730952D01*
X150450119Y-78654761D01*
X150412023Y-78616666D01*
X150335833Y-78578571D01*
X150183452Y-78578571D01*
X150107261Y-78616666D01*
X149383452Y-78578571D02*
X149383452Y-79111904D01*
X149726309Y-78578571D02*
X149726309Y-78997619D01*
X149688214Y-79073809D01*
X149612023Y-79111904D01*
X149497738Y-79111904D01*
X149421547Y-79073809D01*
X149383452Y-79035714D01*
X148659642Y-79073809D02*
X148735833Y-79111904D01*
X148888214Y-79111904D01*
X148964404Y-79073809D01*
X149002500Y-79035714D01*
X149040595Y-78959523D01*
X149040595Y-78730952D01*
X149002500Y-78654761D01*
X148964404Y-78616666D01*
X148888214Y-78578571D01*
X148735833Y-78578571D01*
X148659642Y-78616666D01*
X148431071Y-78578571D02*
X148126309Y-78578571D01*
X148316785Y-78311904D02*
X148316785Y-78997619D01*
X148278690Y-79073809D01*
X148202500Y-79111904D01*
X148126309Y-79111904D01*
X147859642Y-79111904D02*
X147859642Y-78578571D01*
X147859642Y-78311904D02*
X147897738Y-78350000D01*
X147859642Y-78388095D01*
X147821547Y-78350000D01*
X147859642Y-78311904D01*
X147859642Y-78388095D01*
X147364404Y-79111904D02*
X147440595Y-79073809D01*
X147478690Y-79035714D01*
X147516785Y-78959523D01*
X147516785Y-78730952D01*
X147478690Y-78654761D01*
X147440595Y-78616666D01*
X147364404Y-78578571D01*
X147250119Y-78578571D01*
X147173928Y-78616666D01*
X147135833Y-78654761D01*
X147097738Y-78730952D01*
X147097738Y-78959523D01*
X147135833Y-79035714D01*
X147173928Y-79073809D01*
X147250119Y-79111904D01*
X147364404Y-79111904D01*
X146754880Y-78578571D02*
X146754880Y-79111904D01*
X146754880Y-78654761D02*
X146716785Y-78616666D01*
X146640595Y-78578571D01*
X146526309Y-78578571D01*
X146450119Y-78616666D01*
X146412023Y-78692857D01*
X146412023Y-79111904D01*
X167250119Y-80171333D02*
X166869166Y-80171333D01*
X167326309Y-80399904D02*
X167059642Y-79599904D01*
X166792976Y-80399904D01*
X166183452Y-80399904D02*
X166183452Y-79980857D01*
X166221547Y-79904666D01*
X166297738Y-79866571D01*
X166450119Y-79866571D01*
X166526309Y-79904666D01*
X166183452Y-80361809D02*
X166259642Y-80399904D01*
X166450119Y-80399904D01*
X166526309Y-80361809D01*
X166564404Y-80285619D01*
X166564404Y-80209428D01*
X166526309Y-80133238D01*
X166450119Y-80095142D01*
X166259642Y-80095142D01*
X166183452Y-80057047D01*
X165688214Y-80399904D02*
X165764404Y-80361809D01*
X165802500Y-80285619D01*
X165802500Y-79599904D01*
X165497738Y-79866571D02*
X165192976Y-79866571D01*
X165383452Y-79599904D02*
X165383452Y-80285619D01*
X165345357Y-80361809D01*
X165269166Y-80399904D01*
X165192976Y-80399904D01*
X164812023Y-80399904D02*
X164888214Y-80361809D01*
X164926309Y-80323714D01*
X164964404Y-80247523D01*
X164964404Y-80018952D01*
X164926309Y-79942761D01*
X164888214Y-79904666D01*
X164812023Y-79866571D01*
X164697738Y-79866571D01*
X164621547Y-79904666D01*
X164583452Y-79942761D01*
X164545357Y-80018952D01*
X164545357Y-80247523D01*
X164583452Y-80323714D01*
X164621547Y-80361809D01*
X164697738Y-80399904D01*
X164812023Y-80399904D01*
X163592976Y-79599904D02*
X163592976Y-80247523D01*
X163554880Y-80323714D01*
X163516785Y-80361809D01*
X163440595Y-80399904D01*
X163288214Y-80399904D01*
X163212023Y-80361809D01*
X163173928Y-80323714D01*
X163135833Y-80247523D01*
X163135833Y-79599904D01*
X162754880Y-79866571D02*
X162754880Y-80399904D01*
X162754880Y-79942761D02*
X162716785Y-79904666D01*
X162640595Y-79866571D01*
X162526309Y-79866571D01*
X162450119Y-79904666D01*
X162412023Y-79980857D01*
X162412023Y-80399904D01*
X162031071Y-80399904D02*
X162031071Y-79866571D01*
X162031071Y-79599904D02*
X162069166Y-79638000D01*
X162031071Y-79676095D01*
X161992976Y-79638000D01*
X162031071Y-79599904D01*
X162031071Y-79676095D01*
X161726309Y-79866571D02*
X161535833Y-80399904D01*
X161345357Y-79866571D01*
X160735833Y-80361809D02*
X160812023Y-80399904D01*
X160964404Y-80399904D01*
X161040595Y-80361809D01*
X161078690Y-80285619D01*
X161078690Y-79980857D01*
X161040595Y-79904666D01*
X160964404Y-79866571D01*
X160812023Y-79866571D01*
X160735833Y-79904666D01*
X160697738Y-79980857D01*
X160697738Y-80057047D01*
X161078690Y-80133238D01*
X160354880Y-80399904D02*
X160354880Y-79866571D01*
X160354880Y-80018952D02*
X160316785Y-79942761D01*
X160278690Y-79904666D01*
X160202500Y-79866571D01*
X160126309Y-79866571D01*
X159897738Y-80361809D02*
X159821547Y-80399904D01*
X159669166Y-80399904D01*
X159592976Y-80361809D01*
X159554880Y-80285619D01*
X159554880Y-80247523D01*
X159592976Y-80171333D01*
X159669166Y-80133238D01*
X159783452Y-80133238D01*
X159859642Y-80095142D01*
X159897738Y-80018952D01*
X159897738Y-79980857D01*
X159859642Y-79904666D01*
X159783452Y-79866571D01*
X159669166Y-79866571D01*
X159592976Y-79904666D01*
X159212023Y-80399904D02*
X159212023Y-79866571D01*
X159212023Y-79599904D02*
X159250119Y-79638000D01*
X159212023Y-79676095D01*
X159173928Y-79638000D01*
X159212023Y-79599904D01*
X159212023Y-79676095D01*
X158945357Y-79866571D02*
X158640595Y-79866571D01*
X158831071Y-79599904D02*
X158831071Y-80285619D01*
X158792976Y-80361809D01*
X158716785Y-80399904D01*
X158640595Y-80399904D01*
X158450119Y-79866571D02*
X158259642Y-80399904D01*
X158069166Y-79866571D02*
X158259642Y-80399904D01*
X158335833Y-80590380D01*
X158373928Y-80628476D01*
X158450119Y-80666571D01*
X157154880Y-80095142D02*
X156545357Y-80095142D01*
X155554880Y-80399904D02*
X155554880Y-79599904D01*
X155250119Y-79599904D01*
X155173928Y-79638000D01*
X155135833Y-79676095D01*
X155097738Y-79752285D01*
X155097738Y-79866571D01*
X155135833Y-79942761D01*
X155173928Y-79980857D01*
X155250119Y-80018952D01*
X155554880Y-80018952D01*
X154754880Y-80399904D02*
X154754880Y-79866571D01*
X154754880Y-80018952D02*
X154716785Y-79942761D01*
X154678690Y-79904666D01*
X154602500Y-79866571D01*
X154526309Y-79866571D01*
X154145357Y-80399904D02*
X154221547Y-80361809D01*
X154259642Y-80323714D01*
X154297738Y-80247523D01*
X154297738Y-80018952D01*
X154259642Y-79942761D01*
X154221547Y-79904666D01*
X154145357Y-79866571D01*
X154031071Y-79866571D01*
X153954880Y-79904666D01*
X153916785Y-79942761D01*
X153878690Y-80018952D01*
X153878690Y-80247523D01*
X153916785Y-80323714D01*
X153954880Y-80361809D01*
X154031071Y-80399904D01*
X154145357Y-80399904D01*
X153650119Y-79866571D02*
X153345357Y-79866571D01*
X153535833Y-79599904D02*
X153535833Y-80285619D01*
X153497738Y-80361809D01*
X153421547Y-80399904D01*
X153345357Y-80399904D01*
X152964404Y-80399904D02*
X153040595Y-80361809D01*
X153078690Y-80323714D01*
X153116785Y-80247523D01*
X153116785Y-80018952D01*
X153078690Y-79942761D01*
X153040595Y-79904666D01*
X152964404Y-79866571D01*
X152850119Y-79866571D01*
X152773928Y-79904666D01*
X152735833Y-79942761D01*
X152697738Y-80018952D01*
X152697738Y-80247523D01*
X152735833Y-80323714D01*
X152773928Y-80361809D01*
X152850119Y-80399904D01*
X152964404Y-80399904D01*
X152354880Y-79866571D02*
X152354880Y-80666571D01*
X152354880Y-79904666D02*
X152278690Y-79866571D01*
X152126309Y-79866571D01*
X152050119Y-79904666D01*
X152012023Y-79942761D01*
X151973928Y-80018952D01*
X151973928Y-80247523D01*
X152012023Y-80323714D01*
X152050119Y-80361809D01*
X152126309Y-80399904D01*
X152278690Y-80399904D01*
X152354880Y-80361809D01*
X151288214Y-80399904D02*
X151288214Y-79980857D01*
X151326309Y-79904666D01*
X151402500Y-79866571D01*
X151554880Y-79866571D01*
X151631071Y-79904666D01*
X151288214Y-80361809D02*
X151364404Y-80399904D01*
X151554880Y-80399904D01*
X151631071Y-80361809D01*
X151669166Y-80285619D01*
X151669166Y-80209428D01*
X151631071Y-80133238D01*
X151554880Y-80095142D01*
X151364404Y-80095142D01*
X151288214Y-80057047D01*
X150907261Y-79866571D02*
X150907261Y-80552285D01*
X150945357Y-80628476D01*
X151021547Y-80666571D01*
X151059642Y-80666571D01*
X150907261Y-79599904D02*
X150945357Y-79638000D01*
X150907261Y-79676095D01*
X150869166Y-79638000D01*
X150907261Y-79599904D01*
X150907261Y-79676095D01*
X150183452Y-80399904D02*
X150183452Y-79980857D01*
X150221547Y-79904666D01*
X150297738Y-79866571D01*
X150450119Y-79866571D01*
X150526309Y-79904666D01*
X150183452Y-80361809D02*
X150259642Y-80399904D01*
X150450119Y-80399904D01*
X150526309Y-80361809D01*
X150564404Y-80285619D01*
X150564404Y-80209428D01*
X150526309Y-80133238D01*
X150450119Y-80095142D01*
X150259642Y-80095142D01*
X150183452Y-80057047D01*
X149231071Y-79676095D02*
X149192976Y-79638000D01*
X149116785Y-79599904D01*
X148926309Y-79599904D01*
X148850119Y-79638000D01*
X148812023Y-79676095D01*
X148773928Y-79752285D01*
X148773928Y-79828476D01*
X148812023Y-79942761D01*
X149269166Y-80399904D01*
X148773928Y-80399904D01*
X148088214Y-79866571D02*
X148088214Y-80399904D01*
X148278690Y-79561809D02*
X148469166Y-80133238D01*
X147973928Y-80133238D01*
X147631071Y-79599904D02*
X147707261Y-79752285D01*
%LPC*%
D11*
X171000000Y-63000000D03*
X171000000Y-63000000D03*
X143000000Y-63000000D03*
X143000000Y-63000000D03*
D12*
X171000000Y-72600000D03*
D13*
X171000000Y-69000000D03*
D11*
X143000000Y-79000000D03*
X143000000Y-79000000D03*
X171000000Y-79000000D03*
X171000000Y-79000000D03*
D12*
X143000000Y-72600000D03*
D13*
X143000000Y-69000000D03*
M02*
