G04 #@! TF.GenerationSoftware,KiCad,Pcbnew,(6.0.7-1)-1*
G04 #@! TF.CreationDate,2024-08-15T11:28:19+03:00*
G04 #@! TF.ProjectId,Induction,496e6475-6374-4696-9f6e-2e6b69636164,rev?*
G04 #@! TF.SameCoordinates,Original*
G04 #@! TF.FileFunction,Soldermask,Top*
G04 #@! TF.FilePolarity,Negative*
%FSLAX46Y46*%
G04 Gerber Fmt 4.6, Leading zero omitted, Abs format (unit mm)*
G04 Created by KiCad (PCBNEW (6.0.7-1)-1) date 2024-08-15 11:28:19*
%MOMM*%
%LPD*%
G01*
G04 APERTURE LIST*
G04 Aperture macros list*
%AMRoundRect*
0 Rectangle with rounded corners*
0 $1 Rounding radius*
0 $2 $3 $4 $5 $6 $7 $8 $9 X,Y pos of 4 corners*
0 Add a 4 corners polygon primitive as box body*
4,1,4,$2,$3,$4,$5,$6,$7,$8,$9,$2,$3,0*
0 Add four circle primitives for the rounded corners*
1,1,$1+$1,$2,$3*
1,1,$1+$1,$4,$5*
1,1,$1+$1,$6,$7*
1,1,$1+$1,$8,$9*
0 Add four rect primitives between the rounded corners*
20,1,$1+$1,$2,$3,$4,$5,0*
20,1,$1+$1,$4,$5,$6,$7,0*
20,1,$1+$1,$6,$7,$8,$9,0*
20,1,$1+$1,$8,$9,$2,$3,0*%
%AMFreePoly0*
4,1,62,0.738890,1.394795,0.739244,1.394649,0.787242,1.353781,0.794649,1.339244,0.794795,1.338890,0.802500,1.300000,0.802500,-0.311000,0.796852,-0.339407,0.798320,-0.339837,0.798274,-0.339994,0.795792,-0.344739,0.794742,-0.350018,0.794677,-0.350175,0.793255,-0.349586,0.779765,-0.375372,0.644426,-0.543074,0.539316,-0.697872,0.442715,-0.870991,0.374484,-1.023564,0.280132,-1.299808,
0.273039,-1.326409,0.267203,-1.338265,0.268785,-1.338913,0.268735,-1.339035,0.264177,-1.344413,0.255418,-1.362206,0.255339,-1.362309,0.251502,-1.359366,0.251122,-1.359814,0.254970,-1.362791,0.254929,-1.362844,0.239833,-1.373132,0.227974,-1.387123,0.213800,-1.394418,0.213738,-1.394444,0.212587,-1.391700,0.211995,-1.392104,0.213075,-1.394719,0.212954,-1.394769,0.206084,-1.396132,
0.202836,-1.398346,0.187477,-1.401572,0.187347,-1.401589,0.187125,-1.399895,0.174000,-1.402500,-0.700000,-1.402500,-0.738890,-1.394795,-0.739244,-1.394649,-0.787242,-1.353781,-0.794649,-1.339244,-0.794795,-1.338890,-0.802500,-1.300000,-0.802501,0.900000,-0.794702,0.939117,-0.794555,0.939471,-0.772479,0.972479,-0.372479,1.372479,-0.339244,1.394649,-0.338890,1.394795,-0.300000,1.402500,
0.700000,1.402500,0.738890,1.394795,0.738890,1.394795,$1*%
G04 Aperture macros list end*
%ADD10C,0.001000*%
%ADD11RoundRect,0.237500X0.300000X0.237500X-0.300000X0.237500X-0.300000X-0.237500X0.300000X-0.237500X0*%
%ADD12C,2.200000*%
%ADD13R,1.981200X0.355600*%
%ADD14RoundRect,0.155000X-0.212500X-0.155000X0.212500X-0.155000X0.212500X0.155000X-0.212500X0.155000X0*%
%ADD15RoundRect,0.250000X0.550000X-0.550000X0.550000X0.550000X-0.550000X0.550000X-0.550000X-0.550000X0*%
%ADD16C,1.600000*%
%ADD17FreePoly0,0.000000*%
G04 APERTURE END LIST*
G36*
X162300000Y-74450000D02*
G01*
X162188000Y-74582000D01*
X162050000Y-74777000D01*
X161979000Y-74895000D01*
X161908000Y-75039000D01*
X161818000Y-75266000D01*
X161785000Y-75373000D01*
X161760000Y-75470000D01*
X161754000Y-75500000D01*
X160700000Y-75500000D01*
X160700000Y-73100000D01*
X161100000Y-72700000D01*
X162300000Y-72700000D01*
X162300000Y-74450000D01*
G37*
D10*
X162300000Y-74450000D02*
X162188000Y-74582000D01*
X162050000Y-74777000D01*
X161979000Y-74895000D01*
X161908000Y-75039000D01*
X161818000Y-75266000D01*
X161785000Y-75373000D01*
X161760000Y-75470000D01*
X161754000Y-75500000D01*
X160700000Y-75500000D01*
X160700000Y-73100000D01*
X161100000Y-72700000D01*
X162300000Y-72700000D01*
X162300000Y-74450000D01*
G36*
X167300000Y-79300000D02*
G01*
X165700000Y-79300000D01*
X165700000Y-77550000D01*
X165710000Y-77540000D01*
X165805000Y-77427000D01*
X165889000Y-77314000D01*
X165969000Y-77186000D01*
X166041000Y-77065000D01*
X166121000Y-76894000D01*
X166177000Y-76746000D01*
X166209000Y-76648000D01*
X166246000Y-76500000D01*
X167300000Y-76500000D01*
X167300000Y-79300000D01*
G37*
X167300000Y-79300000D02*
X165700000Y-79300000D01*
X165700000Y-77550000D01*
X165710000Y-77540000D01*
X165805000Y-77427000D01*
X165889000Y-77314000D01*
X165969000Y-77186000D01*
X166041000Y-77065000D01*
X166121000Y-76894000D01*
X166177000Y-76746000D01*
X166209000Y-76648000D01*
X166246000Y-76500000D01*
X167300000Y-76500000D01*
X167300000Y-79300000D01*
G36*
X167300000Y-74300000D02*
G01*
X165550000Y-74300000D01*
X165505000Y-74258000D01*
X165390000Y-74164000D01*
X165337000Y-74125000D01*
X165238000Y-74060000D01*
X165107000Y-73981000D01*
X165022000Y-73937000D01*
X164773000Y-73833000D01*
X164663000Y-73795000D01*
X164500000Y-73755000D01*
X164500000Y-72700000D01*
X167300000Y-72700000D01*
X167300000Y-74300000D01*
G37*
X167300000Y-74300000D02*
X165550000Y-74300000D01*
X165505000Y-74258000D01*
X165390000Y-74164000D01*
X165337000Y-74125000D01*
X165238000Y-74060000D01*
X165107000Y-73981000D01*
X165022000Y-73937000D01*
X164773000Y-73833000D01*
X164663000Y-73795000D01*
X164500000Y-73755000D01*
X164500000Y-72700000D01*
X167300000Y-72700000D01*
X167300000Y-74300000D01*
G36*
X162493000Y-77738000D02*
G01*
X162560000Y-77795000D01*
X162744000Y-77929000D01*
X162885000Y-78015000D01*
X163019000Y-78081000D01*
X163123000Y-78128000D01*
X163295000Y-78191000D01*
X163370000Y-78214000D01*
X163500000Y-78246000D01*
X163500000Y-79300000D01*
X160700000Y-79300000D01*
X160700000Y-77700000D01*
X162450000Y-77700000D01*
X162493000Y-77738000D01*
G37*
X162493000Y-77738000D02*
X162560000Y-77795000D01*
X162744000Y-77929000D01*
X162885000Y-78015000D01*
X163019000Y-78081000D01*
X163123000Y-78128000D01*
X163295000Y-78191000D01*
X163370000Y-78214000D01*
X163500000Y-78246000D01*
X163500000Y-79300000D01*
X160700000Y-79300000D01*
X160700000Y-77700000D01*
X162450000Y-77700000D01*
X162493000Y-77738000D01*
G36*
X167300000Y-68300000D02*
G01*
X165700000Y-68300000D01*
X165700000Y-66550000D01*
X165710000Y-66540000D01*
X165805000Y-66427000D01*
X165889000Y-66314000D01*
X165969000Y-66186000D01*
X166041000Y-66065000D01*
X166121000Y-65894000D01*
X166177000Y-65746000D01*
X166209000Y-65648000D01*
X166246000Y-65500000D01*
X167300000Y-65500000D01*
X167300000Y-68300000D01*
G37*
X167300000Y-68300000D02*
X165700000Y-68300000D01*
X165700000Y-66550000D01*
X165710000Y-66540000D01*
X165805000Y-66427000D01*
X165889000Y-66314000D01*
X165969000Y-66186000D01*
X166041000Y-66065000D01*
X166121000Y-65894000D01*
X166177000Y-65746000D01*
X166209000Y-65648000D01*
X166246000Y-65500000D01*
X167300000Y-65500000D01*
X167300000Y-68300000D01*
G36*
X162300000Y-63450000D02*
G01*
X162188000Y-63582000D01*
X162050000Y-63777000D01*
X161979000Y-63895000D01*
X161908000Y-64039000D01*
X161818000Y-64266000D01*
X161785000Y-64373000D01*
X161760000Y-64470000D01*
X161754000Y-64500000D01*
X160700000Y-64500000D01*
X160700000Y-62100000D01*
X161100000Y-61700000D01*
X162300000Y-61700000D01*
X162300000Y-63450000D01*
G37*
X162300000Y-63450000D02*
X162188000Y-63582000D01*
X162050000Y-63777000D01*
X161979000Y-63895000D01*
X161908000Y-64039000D01*
X161818000Y-64266000D01*
X161785000Y-64373000D01*
X161760000Y-64470000D01*
X161754000Y-64500000D01*
X160700000Y-64500000D01*
X160700000Y-62100000D01*
X161100000Y-61700000D01*
X162300000Y-61700000D01*
X162300000Y-63450000D01*
G36*
X167300000Y-63300000D02*
G01*
X165550000Y-63300000D01*
X165505000Y-63258000D01*
X165390000Y-63164000D01*
X165337000Y-63125000D01*
X165238000Y-63060000D01*
X165107000Y-62981000D01*
X165022000Y-62937000D01*
X164773000Y-62833000D01*
X164663000Y-62795000D01*
X164500000Y-62755000D01*
X164500000Y-61700000D01*
X167300000Y-61700000D01*
X167300000Y-63300000D01*
G37*
X167300000Y-63300000D02*
X165550000Y-63300000D01*
X165505000Y-63258000D01*
X165390000Y-63164000D01*
X165337000Y-63125000D01*
X165238000Y-63060000D01*
X165107000Y-62981000D01*
X165022000Y-62937000D01*
X164773000Y-62833000D01*
X164663000Y-62795000D01*
X164500000Y-62755000D01*
X164500000Y-61700000D01*
X167300000Y-61700000D01*
X167300000Y-63300000D01*
G36*
X162493000Y-66738000D02*
G01*
X162560000Y-66795000D01*
X162744000Y-66929000D01*
X162885000Y-67015000D01*
X163019000Y-67081000D01*
X163123000Y-67128000D01*
X163295000Y-67191000D01*
X163370000Y-67214000D01*
X163500000Y-67246000D01*
X163500000Y-68300000D01*
X160700000Y-68300000D01*
X160700000Y-66700000D01*
X162450000Y-66700000D01*
X162493000Y-66738000D01*
G37*
X162493000Y-66738000D02*
X162560000Y-66795000D01*
X162744000Y-66929000D01*
X162885000Y-67015000D01*
X163019000Y-67081000D01*
X163123000Y-67128000D01*
X163295000Y-67191000D01*
X163370000Y-67214000D01*
X163500000Y-67246000D01*
X163500000Y-68300000D01*
X160700000Y-68300000D01*
X160700000Y-66700000D01*
X162450000Y-66700000D01*
X162493000Y-66738000D01*
D11*
X158000000Y-66000000D03*
X156275000Y-66000000D03*
D12*
X171000000Y-63000000D03*
X171000000Y-63000000D03*
D11*
X158000000Y-68000000D03*
X156275000Y-68000000D03*
X158000000Y-76000000D03*
X156275000Y-76000000D03*
D13*
X147536200Y-68142500D03*
X147536200Y-68777500D03*
X147536200Y-69412500D03*
X147536200Y-70047500D03*
X147536200Y-70682500D03*
X147536200Y-71317500D03*
X147536200Y-71952500D03*
X147536200Y-72587500D03*
X147536200Y-73222500D03*
X147536200Y-73857500D03*
X152463800Y-73857500D03*
X152463800Y-73222500D03*
X152463800Y-72587500D03*
X152463800Y-71952500D03*
X152463800Y-71317500D03*
X152463800Y-70682500D03*
X152463800Y-70047500D03*
X152463800Y-69412500D03*
X152463800Y-68777500D03*
X152463800Y-68142500D03*
D12*
X143000000Y-63000000D03*
X143000000Y-63000000D03*
D14*
X142432500Y-75500000D03*
X143567500Y-75500000D03*
D15*
X171000000Y-72600000D03*
D16*
X171000000Y-69000000D03*
D11*
X158000000Y-74000000D03*
X156275000Y-74000000D03*
D12*
X143000000Y-79000000D03*
X143000000Y-79000000D03*
X171000000Y-79000000D03*
X171000000Y-79000000D03*
D17*
X161500000Y-74100000D03*
D15*
X143000000Y-72600000D03*
D16*
X143000000Y-69000000D03*
D17*
X161500000Y-63100000D03*
M02*
