G04 #@! TF.GenerationSoftware,KiCad,Pcbnew,(6.0.7-1)-1*
G04 #@! TF.CreationDate,2024-08-15T11:28:19+03:00*
G04 #@! TF.ProjectId,Induction,496e6475-6374-4696-9f6e-2e6b69636164,rev?*
G04 #@! TF.SameCoordinates,Original*
G04 #@! TF.FileFunction,Copper,L2,Bot*
G04 #@! TF.FilePolarity,Positive*
%FSLAX46Y46*%
G04 Gerber Fmt 4.6, Leading zero omitted, Abs format (unit mm)*
G04 Created by KiCad (PCBNEW (6.0.7-1)-1) date 2024-08-15 11:28:19*
%MOMM*%
%LPD*%
G01*
G04 APERTURE LIST*
G04 Aperture macros list*
%AMRoundRect*
0 Rectangle with rounded corners*
0 $1 Rounding radius*
0 $2 $3 $4 $5 $6 $7 $8 $9 X,Y pos of 4 corners*
0 Add a 4 corners polygon primitive as box body*
4,1,4,$2,$3,$4,$5,$6,$7,$8,$9,$2,$3,0*
0 Add four circle primitives for the rounded corners*
1,1,$1+$1,$2,$3*
1,1,$1+$1,$4,$5*
1,1,$1+$1,$6,$7*
1,1,$1+$1,$8,$9*
0 Add four rect primitives between the rounded corners*
20,1,$1+$1,$2,$3,$4,$5,0*
20,1,$1+$1,$4,$5,$6,$7,0*
20,1,$1+$1,$6,$7,$8,$9,0*
20,1,$1+$1,$8,$9,$2,$3,0*%
G04 Aperture macros list end*
G04 #@! TA.AperFunction,ComponentPad*
%ADD10RoundRect,0.250000X0.550000X-0.550000X0.550000X0.550000X-0.550000X0.550000X-0.550000X-0.550000X0*%
G04 #@! TD*
G04 #@! TA.AperFunction,ComponentPad*
%ADD11C,1.600000*%
G04 #@! TD*
G04 #@! TA.AperFunction,ViaPad*
%ADD12C,1.700000*%
G04 #@! TD*
G04 #@! TA.AperFunction,Conductor*
%ADD13C,0.300000*%
G04 #@! TD*
G04 APERTURE END LIST*
D10*
X171000000Y-72600000D03*
D11*
X171000000Y-69000000D03*
D10*
X143000000Y-72600000D03*
D11*
X143000000Y-69000000D03*
D12*
X159500000Y-64500000D03*
X159200000Y-70700000D03*
D13*
X159500000Y-70400000D02*
X159200000Y-70700000D01*
X159500000Y-69000000D02*
X159500000Y-70400000D01*
X159500000Y-69000000D02*
X159500000Y-64500000D01*
X159500000Y-69000000D02*
X171000000Y-69000000D01*
G04 #@! TA.AperFunction,Conductor*
G36*
X171987103Y-60256921D02*
G01*
X172000000Y-60259486D01*
X172012172Y-60257065D01*
X172024579Y-60257065D01*
X172024579Y-60257705D01*
X172035358Y-60257029D01*
X172219248Y-60270181D01*
X172239420Y-60271624D01*
X172257214Y-60274182D01*
X172482960Y-60323290D01*
X172500209Y-60328355D01*
X172555356Y-60348923D01*
X172716670Y-60409090D01*
X172733017Y-60416556D01*
X172935782Y-60527275D01*
X172950905Y-60536994D01*
X173135848Y-60675441D01*
X173149434Y-60687214D01*
X173312786Y-60850566D01*
X173324559Y-60864152D01*
X173463006Y-61049095D01*
X173472725Y-61064218D01*
X173583444Y-61266983D01*
X173590910Y-61283330D01*
X173651077Y-61444644D01*
X173671645Y-61499791D01*
X173676710Y-61517040D01*
X173725818Y-61742786D01*
X173728376Y-61760580D01*
X173742747Y-61961505D01*
X173742971Y-61964639D01*
X173742295Y-61975421D01*
X173742935Y-61975421D01*
X173742935Y-61987828D01*
X173740514Y-62000000D01*
X173742935Y-62012170D01*
X173743079Y-62012894D01*
X173745500Y-62037476D01*
X173745500Y-79962524D01*
X173743079Y-79987103D01*
X173740514Y-80000000D01*
X173742935Y-80012172D01*
X173742935Y-80024579D01*
X173742295Y-80024579D01*
X173742971Y-80035358D01*
X173732641Y-80179788D01*
X173728376Y-80239420D01*
X173725818Y-80257214D01*
X173676710Y-80482960D01*
X173671645Y-80500209D01*
X173590910Y-80716670D01*
X173583444Y-80733017D01*
X173472725Y-80935782D01*
X173463006Y-80950905D01*
X173324559Y-81135848D01*
X173312786Y-81149434D01*
X173149434Y-81312786D01*
X173135848Y-81324559D01*
X172950905Y-81463006D01*
X172935782Y-81472725D01*
X172733017Y-81583444D01*
X172716670Y-81590910D01*
X172555356Y-81651077D01*
X172500209Y-81671645D01*
X172482960Y-81676710D01*
X172257214Y-81725818D01*
X172239420Y-81728376D01*
X172219248Y-81729819D01*
X172035358Y-81742971D01*
X172024579Y-81742295D01*
X172024579Y-81742935D01*
X172012172Y-81742935D01*
X172000000Y-81740514D01*
X171987103Y-81743079D01*
X171962524Y-81745500D01*
X142037476Y-81745500D01*
X142012897Y-81743079D01*
X142000000Y-81740514D01*
X141987828Y-81742935D01*
X141975421Y-81742935D01*
X141975421Y-81742295D01*
X141964642Y-81742971D01*
X141780752Y-81729819D01*
X141760580Y-81728376D01*
X141742786Y-81725818D01*
X141517040Y-81676710D01*
X141499791Y-81671645D01*
X141444644Y-81651077D01*
X141283330Y-81590910D01*
X141266983Y-81583444D01*
X141064218Y-81472725D01*
X141049095Y-81463006D01*
X140864152Y-81324559D01*
X140850566Y-81312786D01*
X140687214Y-81149434D01*
X140675441Y-81135848D01*
X140536994Y-80950905D01*
X140527275Y-80935782D01*
X140416556Y-80733017D01*
X140409090Y-80716670D01*
X140328355Y-80500209D01*
X140323290Y-80482960D01*
X140274182Y-80257214D01*
X140271624Y-80239420D01*
X140267359Y-80179788D01*
X140257029Y-80035358D01*
X140257705Y-80024579D01*
X140257065Y-80024579D01*
X140257065Y-80012172D01*
X140259486Y-80000000D01*
X140256921Y-79987103D01*
X140254500Y-79962524D01*
X140254500Y-78935964D01*
X141642112Y-78935964D01*
X141642312Y-78941292D01*
X141642312Y-78941294D01*
X141644464Y-78998599D01*
X141643705Y-78998628D01*
X141644034Y-79000016D01*
X141644340Y-78999989D01*
X141644374Y-79000377D01*
X141644465Y-79001838D01*
X141644523Y-79002085D01*
X141644648Y-79003507D01*
X141650736Y-79165669D01*
X141651831Y-79170888D01*
X141664628Y-79231879D01*
X141663861Y-79232040D01*
X141664841Y-79234316D01*
X141664937Y-79235408D01*
X141666361Y-79240722D01*
X141666464Y-79241307D01*
X141667635Y-79246210D01*
X141697939Y-79390637D01*
X141723365Y-79455021D01*
X141723975Y-79456566D01*
X141724724Y-79458541D01*
X141726097Y-79463663D01*
X141728422Y-79468649D01*
X141728423Y-79468651D01*
X141728947Y-79469775D01*
X141731934Y-79476717D01*
X141782372Y-79604436D01*
X141819273Y-79665246D01*
X141820811Y-79668126D01*
X141820890Y-79668080D01*
X141823639Y-79672841D01*
X141825965Y-79677829D01*
X141829122Y-79682337D01*
X141829124Y-79682341D01*
X141830674Y-79684555D01*
X141835181Y-79691462D01*
X141850279Y-79716342D01*
X141901621Y-79800952D01*
X141905116Y-79804979D01*
X141905117Y-79804981D01*
X141951993Y-79859000D01*
X141955555Y-79863563D01*
X141958347Y-79866890D01*
X141961505Y-79871401D01*
X141967791Y-79877687D01*
X141973861Y-79884201D01*
X142052276Y-79974566D01*
X142056407Y-79977953D01*
X142116309Y-80027070D01*
X142123574Y-80033652D01*
X142124706Y-80034602D01*
X142128599Y-80038495D01*
X142133103Y-80041649D01*
X142133108Y-80041653D01*
X142135936Y-80043633D01*
X142143554Y-80049410D01*
X142225901Y-80116931D01*
X142225907Y-80116935D01*
X142230029Y-80120315D01*
X142234668Y-80122955D01*
X142234667Y-80122955D01*
X142307355Y-80164331D01*
X142317296Y-80170622D01*
X142317660Y-80170877D01*
X142317667Y-80170881D01*
X142322171Y-80174035D01*
X142327155Y-80176359D01*
X142327160Y-80176362D01*
X142329875Y-80177628D01*
X142338952Y-80182318D01*
X142383061Y-80207426D01*
X142429798Y-80234030D01*
X142493668Y-80257214D01*
X142519498Y-80266590D01*
X142529753Y-80270833D01*
X142531348Y-80271577D01*
X142531350Y-80271578D01*
X142536337Y-80273903D01*
X142541653Y-80275327D01*
X142541655Y-80275328D01*
X142542719Y-80275613D01*
X142543702Y-80275876D01*
X142554081Y-80279143D01*
X142645871Y-80312461D01*
X142746443Y-80330648D01*
X142756616Y-80332926D01*
X142764592Y-80335063D01*
X142770990Y-80335623D01*
X142782412Y-80337152D01*
X142872069Y-80353364D01*
X142876208Y-80353559D01*
X142876215Y-80353560D01*
X142894670Y-80354430D01*
X142894677Y-80354430D01*
X142896158Y-80354500D01*
X143057712Y-80354500D01*
X143137444Y-80347735D01*
X143223733Y-80340413D01*
X143223737Y-80340412D01*
X143229044Y-80339962D01*
X143234199Y-80338624D01*
X143234205Y-80338623D01*
X143446368Y-80283556D01*
X143446367Y-80283556D01*
X143451539Y-80282214D01*
X143598412Y-80216052D01*
X143656262Y-80189993D01*
X143656265Y-80189992D01*
X143661123Y-80187803D01*
X143851803Y-80059430D01*
X143878826Y-80033652D01*
X144014271Y-79904443D01*
X144018128Y-79900764D01*
X144155342Y-79716342D01*
X144171504Y-79684555D01*
X144257102Y-79516194D01*
X144257102Y-79516193D01*
X144259520Y-79511438D01*
X144327685Y-79291911D01*
X144357888Y-79064036D01*
X144355536Y-79001401D01*
X144356295Y-79001372D01*
X144355966Y-78999984D01*
X144355660Y-79000011D01*
X144355626Y-78999623D01*
X144355535Y-78998162D01*
X144355477Y-78997915D01*
X144355352Y-78996493D01*
X144353080Y-78935964D01*
X169642112Y-78935964D01*
X169642312Y-78941292D01*
X169642312Y-78941294D01*
X169644464Y-78998599D01*
X169643705Y-78998628D01*
X169644034Y-79000016D01*
X169644340Y-78999989D01*
X169644374Y-79000377D01*
X169644465Y-79001838D01*
X169644523Y-79002085D01*
X169644648Y-79003507D01*
X169650736Y-79165669D01*
X169651831Y-79170888D01*
X169664628Y-79231879D01*
X169663861Y-79232040D01*
X169664841Y-79234316D01*
X169664937Y-79235408D01*
X169666361Y-79240722D01*
X169666464Y-79241307D01*
X169667635Y-79246210D01*
X169697939Y-79390637D01*
X169723365Y-79455021D01*
X169723975Y-79456566D01*
X169724724Y-79458541D01*
X169726097Y-79463663D01*
X169728422Y-79468649D01*
X169728423Y-79468651D01*
X169728947Y-79469775D01*
X169731934Y-79476717D01*
X169782372Y-79604436D01*
X169819273Y-79665246D01*
X169820811Y-79668126D01*
X169820890Y-79668080D01*
X169823639Y-79672841D01*
X169825965Y-79677829D01*
X169829122Y-79682337D01*
X169829124Y-79682341D01*
X169830674Y-79684555D01*
X169835181Y-79691462D01*
X169850279Y-79716342D01*
X169901621Y-79800952D01*
X169905116Y-79804979D01*
X169905117Y-79804981D01*
X169951993Y-79859000D01*
X169955555Y-79863563D01*
X169958347Y-79866890D01*
X169961505Y-79871401D01*
X169967791Y-79877687D01*
X169973861Y-79884201D01*
X170052276Y-79974566D01*
X170056407Y-79977953D01*
X170116309Y-80027070D01*
X170123574Y-80033652D01*
X170124706Y-80034602D01*
X170128599Y-80038495D01*
X170133103Y-80041649D01*
X170133108Y-80041653D01*
X170135936Y-80043633D01*
X170143554Y-80049410D01*
X170225901Y-80116931D01*
X170225907Y-80116935D01*
X170230029Y-80120315D01*
X170234668Y-80122955D01*
X170234667Y-80122955D01*
X170307355Y-80164331D01*
X170317296Y-80170622D01*
X170317660Y-80170877D01*
X170317667Y-80170881D01*
X170322171Y-80174035D01*
X170327155Y-80176359D01*
X170327160Y-80176362D01*
X170329875Y-80177628D01*
X170338952Y-80182318D01*
X170383061Y-80207426D01*
X170429798Y-80234030D01*
X170493668Y-80257214D01*
X170519498Y-80266590D01*
X170529753Y-80270833D01*
X170531348Y-80271577D01*
X170531350Y-80271578D01*
X170536337Y-80273903D01*
X170541653Y-80275327D01*
X170541655Y-80275328D01*
X170542719Y-80275613D01*
X170543702Y-80275876D01*
X170554081Y-80279143D01*
X170645871Y-80312461D01*
X170746443Y-80330648D01*
X170756616Y-80332926D01*
X170764592Y-80335063D01*
X170770990Y-80335623D01*
X170782412Y-80337152D01*
X170872069Y-80353364D01*
X170876208Y-80353559D01*
X170876215Y-80353560D01*
X170894670Y-80354430D01*
X170894677Y-80354430D01*
X170896158Y-80354500D01*
X171057712Y-80354500D01*
X171137444Y-80347735D01*
X171223733Y-80340413D01*
X171223737Y-80340412D01*
X171229044Y-80339962D01*
X171234199Y-80338624D01*
X171234205Y-80338623D01*
X171446368Y-80283556D01*
X171446367Y-80283556D01*
X171451539Y-80282214D01*
X171598412Y-80216052D01*
X171656262Y-80189993D01*
X171656265Y-80189992D01*
X171661123Y-80187803D01*
X171851803Y-80059430D01*
X171878826Y-80033652D01*
X172014271Y-79904443D01*
X172018128Y-79900764D01*
X172155342Y-79716342D01*
X172171504Y-79684555D01*
X172257102Y-79516194D01*
X172257102Y-79516193D01*
X172259520Y-79511438D01*
X172327685Y-79291911D01*
X172357888Y-79064036D01*
X172355536Y-79001401D01*
X172356295Y-79001372D01*
X172355966Y-78999984D01*
X172355660Y-79000011D01*
X172355626Y-78999623D01*
X172355535Y-78998162D01*
X172355477Y-78997915D01*
X172355352Y-78996493D01*
X172349264Y-78834331D01*
X172335372Y-78768121D01*
X172336139Y-78767960D01*
X172335159Y-78765684D01*
X172335063Y-78764592D01*
X172333639Y-78759278D01*
X172333536Y-78758693D01*
X172332362Y-78753778D01*
X172323886Y-78713378D01*
X172302061Y-78609363D01*
X172276025Y-78543434D01*
X172275276Y-78541459D01*
X172273903Y-78536337D01*
X172271053Y-78530225D01*
X172268066Y-78523283D01*
X172217628Y-78395564D01*
X172180727Y-78334754D01*
X172179189Y-78331874D01*
X172179110Y-78331920D01*
X172176361Y-78327159D01*
X172174035Y-78322171D01*
X172170876Y-78317659D01*
X172169326Y-78315445D01*
X172164819Y-78308538D01*
X172101147Y-78203609D01*
X172101145Y-78203606D01*
X172098379Y-78199048D01*
X172048007Y-78141000D01*
X172044445Y-78136437D01*
X172041653Y-78133110D01*
X172038495Y-78128599D01*
X172032209Y-78122313D01*
X172026139Y-78115799D01*
X171951224Y-78029467D01*
X171951222Y-78029465D01*
X171947724Y-78025434D01*
X171883692Y-77972930D01*
X171876426Y-77966348D01*
X171875294Y-77965398D01*
X171871401Y-77961505D01*
X171866897Y-77958351D01*
X171866892Y-77958347D01*
X171864064Y-77956367D01*
X171856446Y-77950590D01*
X171774099Y-77883069D01*
X171774093Y-77883065D01*
X171769971Y-77879685D01*
X171692645Y-77835669D01*
X171682704Y-77829378D01*
X171682340Y-77829123D01*
X171682333Y-77829119D01*
X171677829Y-77825965D01*
X171672845Y-77823641D01*
X171672840Y-77823638D01*
X171670125Y-77822372D01*
X171661048Y-77817682D01*
X171616939Y-77792574D01*
X171570202Y-77765970D01*
X171480502Y-77733410D01*
X171470247Y-77729167D01*
X171468652Y-77728423D01*
X171468650Y-77728422D01*
X171463663Y-77726097D01*
X171458347Y-77724673D01*
X171458345Y-77724672D01*
X171457281Y-77724387D01*
X171456298Y-77724124D01*
X171445919Y-77720857D01*
X171354129Y-77687539D01*
X171253557Y-77669352D01*
X171243384Y-77667074D01*
X171235408Y-77664937D01*
X171229010Y-77664377D01*
X171217588Y-77662848D01*
X171127931Y-77646636D01*
X171123792Y-77646441D01*
X171123785Y-77646440D01*
X171105330Y-77645570D01*
X171105323Y-77645570D01*
X171103842Y-77645500D01*
X170942288Y-77645500D01*
X170862556Y-77652265D01*
X170776267Y-77659587D01*
X170776263Y-77659588D01*
X170770956Y-77660038D01*
X170765801Y-77661376D01*
X170765795Y-77661377D01*
X170593058Y-77706211D01*
X170548461Y-77717786D01*
X170441497Y-77765970D01*
X170343738Y-77810007D01*
X170343735Y-77810008D01*
X170338877Y-77812197D01*
X170148197Y-77940570D01*
X170144340Y-77944249D01*
X170144338Y-77944251D01*
X170118404Y-77968991D01*
X169981872Y-78099236D01*
X169844658Y-78283658D01*
X169842242Y-78288409D01*
X169842240Y-78288413D01*
X169742898Y-78483806D01*
X169740480Y-78488562D01*
X169672315Y-78708089D01*
X169642112Y-78935964D01*
X144353080Y-78935964D01*
X144349264Y-78834331D01*
X144335372Y-78768121D01*
X144336139Y-78767960D01*
X144335159Y-78765684D01*
X144335063Y-78764592D01*
X144333639Y-78759278D01*
X144333536Y-78758693D01*
X144332362Y-78753778D01*
X144323886Y-78713378D01*
X144302061Y-78609363D01*
X144276025Y-78543434D01*
X144275276Y-78541459D01*
X144273903Y-78536337D01*
X144271053Y-78530225D01*
X144268066Y-78523283D01*
X144217628Y-78395564D01*
X144180727Y-78334754D01*
X144179189Y-78331874D01*
X144179110Y-78331920D01*
X144176361Y-78327159D01*
X144174035Y-78322171D01*
X144170876Y-78317659D01*
X144169326Y-78315445D01*
X144164819Y-78308538D01*
X144101147Y-78203609D01*
X144101145Y-78203606D01*
X144098379Y-78199048D01*
X144048007Y-78141000D01*
X144044445Y-78136437D01*
X144041653Y-78133110D01*
X144038495Y-78128599D01*
X144032209Y-78122313D01*
X144026139Y-78115799D01*
X143951224Y-78029467D01*
X143951222Y-78029465D01*
X143947724Y-78025434D01*
X143883692Y-77972930D01*
X143876426Y-77966348D01*
X143875294Y-77965398D01*
X143871401Y-77961505D01*
X143866897Y-77958351D01*
X143866892Y-77958347D01*
X143864064Y-77956367D01*
X143856446Y-77950590D01*
X143774099Y-77883069D01*
X143774093Y-77883065D01*
X143769971Y-77879685D01*
X143692645Y-77835669D01*
X143682704Y-77829378D01*
X143682340Y-77829123D01*
X143682333Y-77829119D01*
X143677829Y-77825965D01*
X143672845Y-77823641D01*
X143672840Y-77823638D01*
X143670125Y-77822372D01*
X143661048Y-77817682D01*
X143616939Y-77792574D01*
X143570202Y-77765970D01*
X143480502Y-77733410D01*
X143470247Y-77729167D01*
X143468652Y-77728423D01*
X143468650Y-77728422D01*
X143463663Y-77726097D01*
X143458347Y-77724673D01*
X143458345Y-77724672D01*
X143457281Y-77724387D01*
X143456298Y-77724124D01*
X143445919Y-77720857D01*
X143354129Y-77687539D01*
X143253557Y-77669352D01*
X143243384Y-77667074D01*
X143235408Y-77664937D01*
X143229010Y-77664377D01*
X143217588Y-77662848D01*
X143127931Y-77646636D01*
X143123792Y-77646441D01*
X143123785Y-77646440D01*
X143105330Y-77645570D01*
X143105323Y-77645570D01*
X143103842Y-77645500D01*
X142942288Y-77645500D01*
X142862556Y-77652265D01*
X142776267Y-77659587D01*
X142776263Y-77659588D01*
X142770956Y-77660038D01*
X142765801Y-77661376D01*
X142765795Y-77661377D01*
X142593058Y-77706211D01*
X142548461Y-77717786D01*
X142441497Y-77765970D01*
X142343738Y-77810007D01*
X142343735Y-77810008D01*
X142338877Y-77812197D01*
X142148197Y-77940570D01*
X142144340Y-77944249D01*
X142144338Y-77944251D01*
X142118404Y-77968991D01*
X141981872Y-78099236D01*
X141844658Y-78283658D01*
X141842242Y-78288409D01*
X141842240Y-78288413D01*
X141742898Y-78483806D01*
X141740480Y-78488562D01*
X141672315Y-78708089D01*
X141642112Y-78935964D01*
X140254500Y-78935964D01*
X140254500Y-73197756D01*
X141945500Y-73197756D01*
X141952202Y-73259448D01*
X142002929Y-73394764D01*
X142008309Y-73401943D01*
X142008311Y-73401946D01*
X142074287Y-73489977D01*
X142089596Y-73510404D01*
X142096776Y-73515785D01*
X142198054Y-73591689D01*
X142198057Y-73591691D01*
X142205236Y-73597071D01*
X142294954Y-73630704D01*
X142333157Y-73645026D01*
X142333159Y-73645026D01*
X142340552Y-73647798D01*
X142348402Y-73648651D01*
X142348403Y-73648651D01*
X142398847Y-73654131D01*
X142402244Y-73654500D01*
X143597756Y-73654500D01*
X143601153Y-73654131D01*
X143651597Y-73648651D01*
X143651598Y-73648651D01*
X143659448Y-73647798D01*
X143666841Y-73645026D01*
X143666843Y-73645026D01*
X143705046Y-73630704D01*
X143794764Y-73597071D01*
X143801943Y-73591691D01*
X143801946Y-73591689D01*
X143903224Y-73515785D01*
X143910404Y-73510404D01*
X143925713Y-73489977D01*
X143991689Y-73401946D01*
X143991691Y-73401943D01*
X143997071Y-73394764D01*
X144047798Y-73259448D01*
X144054500Y-73197756D01*
X169945500Y-73197756D01*
X169952202Y-73259448D01*
X170002929Y-73394764D01*
X170008309Y-73401943D01*
X170008311Y-73401946D01*
X170074287Y-73489977D01*
X170089596Y-73510404D01*
X170096776Y-73515785D01*
X170198054Y-73591689D01*
X170198057Y-73591691D01*
X170205236Y-73597071D01*
X170294954Y-73630704D01*
X170333157Y-73645026D01*
X170333159Y-73645026D01*
X170340552Y-73647798D01*
X170348402Y-73648651D01*
X170348403Y-73648651D01*
X170398847Y-73654131D01*
X170402244Y-73654500D01*
X171597756Y-73654500D01*
X171601153Y-73654131D01*
X171651597Y-73648651D01*
X171651598Y-73648651D01*
X171659448Y-73647798D01*
X171666841Y-73645026D01*
X171666843Y-73645026D01*
X171705046Y-73630704D01*
X171794764Y-73597071D01*
X171801943Y-73591691D01*
X171801946Y-73591689D01*
X171903224Y-73515785D01*
X171910404Y-73510404D01*
X171925713Y-73489977D01*
X171991689Y-73401946D01*
X171991691Y-73401943D01*
X171997071Y-73394764D01*
X172047798Y-73259448D01*
X172054500Y-73197756D01*
X172054500Y-72002244D01*
X172047798Y-71940552D01*
X171997071Y-71805236D01*
X171991691Y-71798057D01*
X171991689Y-71798054D01*
X171915785Y-71696776D01*
X171910404Y-71689596D01*
X171813502Y-71616972D01*
X171801946Y-71608311D01*
X171801943Y-71608309D01*
X171794764Y-71602929D01*
X171674920Y-71558002D01*
X171666843Y-71554974D01*
X171666841Y-71554974D01*
X171659448Y-71552202D01*
X171651598Y-71551349D01*
X171651597Y-71551349D01*
X171601153Y-71545869D01*
X171601152Y-71545869D01*
X171597756Y-71545500D01*
X170402244Y-71545500D01*
X170398848Y-71545869D01*
X170398847Y-71545869D01*
X170348403Y-71551349D01*
X170348402Y-71551349D01*
X170340552Y-71552202D01*
X170333159Y-71554974D01*
X170333157Y-71554974D01*
X170325080Y-71558002D01*
X170205236Y-71602929D01*
X170198057Y-71608309D01*
X170198054Y-71608311D01*
X170186498Y-71616972D01*
X170089596Y-71689596D01*
X170084215Y-71696776D01*
X170008311Y-71798054D01*
X170008309Y-71798057D01*
X170002929Y-71805236D01*
X169952202Y-71940552D01*
X169945500Y-72002244D01*
X169945500Y-73197756D01*
X144054500Y-73197756D01*
X144054500Y-72002244D01*
X144047798Y-71940552D01*
X143997071Y-71805236D01*
X143991691Y-71798057D01*
X143991689Y-71798054D01*
X143915785Y-71696776D01*
X143910404Y-71689596D01*
X143813502Y-71616972D01*
X143801946Y-71608311D01*
X143801943Y-71608309D01*
X143794764Y-71602929D01*
X143674920Y-71558002D01*
X143666843Y-71554974D01*
X143666841Y-71554974D01*
X143659448Y-71552202D01*
X143651598Y-71551349D01*
X143651597Y-71551349D01*
X143601153Y-71545869D01*
X143601152Y-71545869D01*
X143597756Y-71545500D01*
X142402244Y-71545500D01*
X142398848Y-71545869D01*
X142398847Y-71545869D01*
X142348403Y-71551349D01*
X142348402Y-71551349D01*
X142340552Y-71552202D01*
X142333159Y-71554974D01*
X142333157Y-71554974D01*
X142325080Y-71558002D01*
X142205236Y-71602929D01*
X142198057Y-71608309D01*
X142198054Y-71608311D01*
X142186498Y-71616972D01*
X142089596Y-71689596D01*
X142084215Y-71696776D01*
X142008311Y-71798054D01*
X142008309Y-71798057D01*
X142002929Y-71805236D01*
X141952202Y-71940552D01*
X141945500Y-72002244D01*
X141945500Y-73197756D01*
X140254500Y-73197756D01*
X140254500Y-70670964D01*
X158091148Y-70670964D01*
X158104424Y-70873522D01*
X158105845Y-70879118D01*
X158105846Y-70879123D01*
X158126119Y-70958945D01*
X158154392Y-71070269D01*
X158156809Y-71075512D01*
X158194010Y-71156208D01*
X158239377Y-71254616D01*
X158356533Y-71420389D01*
X158501938Y-71562035D01*
X158670720Y-71674812D01*
X158676023Y-71677090D01*
X158676026Y-71677092D01*
X158764707Y-71715192D01*
X158857228Y-71754942D01*
X158930244Y-71771464D01*
X159049579Y-71798467D01*
X159049584Y-71798468D01*
X159055216Y-71799742D01*
X159060987Y-71799969D01*
X159060989Y-71799969D01*
X159120756Y-71802317D01*
X159258053Y-71807712D01*
X159358499Y-71793148D01*
X159453231Y-71779413D01*
X159453236Y-71779412D01*
X159458945Y-71778584D01*
X159464409Y-71776729D01*
X159464414Y-71776728D01*
X159645693Y-71715192D01*
X159645698Y-71715190D01*
X159651165Y-71713334D01*
X159680732Y-71696776D01*
X159725683Y-71671602D01*
X159828276Y-71614147D01*
X159841765Y-71602929D01*
X159979913Y-71488031D01*
X159984345Y-71484345D01*
X160114147Y-71328276D01*
X160213334Y-71151165D01*
X160215190Y-71145698D01*
X160215192Y-71145693D01*
X160276728Y-70964414D01*
X160276729Y-70964409D01*
X160278584Y-70958945D01*
X160279412Y-70953236D01*
X160279413Y-70953231D01*
X160307179Y-70761727D01*
X160307712Y-70758053D01*
X160309232Y-70700000D01*
X160290658Y-70497859D01*
X160289090Y-70492299D01*
X160237125Y-70308046D01*
X160237124Y-70308044D01*
X160235557Y-70302487D01*
X160224978Y-70281033D01*
X160148331Y-70125609D01*
X160145776Y-70120428D01*
X160024320Y-69957779D01*
X159959036Y-69897431D01*
X159944971Y-69884429D01*
X159908526Y-69823501D01*
X159904500Y-69791905D01*
X159904500Y-69530500D01*
X159924502Y-69462379D01*
X159978158Y-69415886D01*
X160030500Y-69404500D01*
X169945315Y-69404500D01*
X170013436Y-69424502D01*
X170057380Y-69472904D01*
X170109334Y-69573995D01*
X170113163Y-69578826D01*
X170134389Y-69605607D01*
X170237786Y-69736061D01*
X170242479Y-69740055D01*
X170242480Y-69740056D01*
X170303403Y-69791905D01*
X170395271Y-69870091D01*
X170575789Y-69970980D01*
X170772466Y-70034884D01*
X170977809Y-70059370D01*
X170983944Y-70058898D01*
X170983946Y-70058898D01*
X171177856Y-70043977D01*
X171177860Y-70043976D01*
X171183998Y-70043504D01*
X171383178Y-69987892D01*
X171388682Y-69985112D01*
X171388684Y-69985111D01*
X171562262Y-69897431D01*
X171562264Y-69897430D01*
X171567763Y-69894652D01*
X171730722Y-69767334D01*
X171734748Y-69762670D01*
X171734751Y-69762667D01*
X171861819Y-69615457D01*
X171861820Y-69615455D01*
X171865848Y-69610789D01*
X171944177Y-69472906D01*
X171964950Y-69436340D01*
X171964952Y-69436336D01*
X171967995Y-69430979D01*
X172033270Y-69234753D01*
X172059189Y-69029586D01*
X172059602Y-69000000D01*
X172039422Y-68794189D01*
X171979651Y-68596217D01*
X171910668Y-68466479D01*
X171885459Y-68419067D01*
X171885457Y-68419064D01*
X171882565Y-68413625D01*
X171878674Y-68408855D01*
X171878672Y-68408851D01*
X171755758Y-68258143D01*
X171755755Y-68258140D01*
X171751863Y-68253368D01*
X171744966Y-68247662D01*
X171597271Y-68125478D01*
X171597266Y-68125475D01*
X171592522Y-68121550D01*
X171587103Y-68118620D01*
X171587100Y-68118618D01*
X171416032Y-68026122D01*
X171416027Y-68026120D01*
X171410612Y-68023192D01*
X171213063Y-67962040D01*
X171206938Y-67961396D01*
X171206937Y-67961396D01*
X171013526Y-67941068D01*
X171013524Y-67941068D01*
X171007397Y-67940424D01*
X170881229Y-67951906D01*
X170807591Y-67958607D01*
X170807590Y-67958607D01*
X170801450Y-67959166D01*
X170603066Y-68017554D01*
X170597601Y-68020411D01*
X170425261Y-68110508D01*
X170425257Y-68110511D01*
X170419801Y-68113363D01*
X170258635Y-68242943D01*
X170125708Y-68401360D01*
X170054875Y-68530204D01*
X170004532Y-68580260D01*
X169944463Y-68595500D01*
X160030500Y-68595500D01*
X159962379Y-68575498D01*
X159915886Y-68521842D01*
X159904500Y-68469500D01*
X159904500Y-65613317D01*
X159924502Y-65545196D01*
X159968934Y-65503383D01*
X160025683Y-65471602D01*
X160128276Y-65414147D01*
X160190934Y-65362035D01*
X160279913Y-65288031D01*
X160284345Y-65284345D01*
X160414147Y-65128276D01*
X160513334Y-64951165D01*
X160515190Y-64945698D01*
X160515192Y-64945693D01*
X160576728Y-64764414D01*
X160576729Y-64764409D01*
X160578584Y-64758945D01*
X160579412Y-64753236D01*
X160579413Y-64753231D01*
X160607179Y-64561727D01*
X160607712Y-64558053D01*
X160609232Y-64500000D01*
X160594128Y-64335621D01*
X160591187Y-64303613D01*
X160591186Y-64303610D01*
X160590658Y-64297859D01*
X160584304Y-64275328D01*
X160537125Y-64108046D01*
X160537124Y-64108044D01*
X160535557Y-64102487D01*
X160524978Y-64081033D01*
X160448331Y-63925609D01*
X160445776Y-63920428D01*
X160433840Y-63904443D01*
X160327777Y-63762409D01*
X160324320Y-63757779D01*
X160175258Y-63619987D01*
X160170375Y-63616906D01*
X160170371Y-63616903D01*
X160008464Y-63514748D01*
X160003581Y-63511667D01*
X159815039Y-63436446D01*
X159809379Y-63435320D01*
X159809375Y-63435319D01*
X159621613Y-63397971D01*
X159621610Y-63397971D01*
X159615946Y-63396844D01*
X159610171Y-63396768D01*
X159610167Y-63396768D01*
X159508793Y-63395441D01*
X159412971Y-63394187D01*
X159407274Y-63395166D01*
X159407273Y-63395166D01*
X159218607Y-63427585D01*
X159212910Y-63428564D01*
X159022463Y-63498824D01*
X158848010Y-63602612D01*
X158843670Y-63606418D01*
X158843666Y-63606421D01*
X158773358Y-63668080D01*
X158695392Y-63736455D01*
X158569720Y-63895869D01*
X158567031Y-63900980D01*
X158567029Y-63900983D01*
X158554073Y-63925609D01*
X158475203Y-64075515D01*
X158415007Y-64269378D01*
X158391148Y-64470964D01*
X158404424Y-64673522D01*
X158405845Y-64679118D01*
X158405846Y-64679123D01*
X158426119Y-64758945D01*
X158454392Y-64870269D01*
X158456809Y-64875512D01*
X158494010Y-64956208D01*
X158539377Y-65054616D01*
X158656533Y-65220389D01*
X158801938Y-65362035D01*
X158970720Y-65474812D01*
X158976023Y-65477090D01*
X158976026Y-65477092D01*
X159019238Y-65495657D01*
X159073931Y-65540925D01*
X159095500Y-65611425D01*
X159095500Y-68958248D01*
X159093949Y-68977958D01*
X159090458Y-69000000D01*
X159092009Y-69009792D01*
X159093949Y-69022041D01*
X159095500Y-69041752D01*
X159095500Y-69490993D01*
X159075498Y-69559114D01*
X159021842Y-69605607D01*
X158990839Y-69615173D01*
X158918606Y-69627585D01*
X158918604Y-69627586D01*
X158912910Y-69628564D01*
X158722463Y-69698824D01*
X158548010Y-69802612D01*
X158543670Y-69806418D01*
X158543666Y-69806421D01*
X158432800Y-69903649D01*
X158395392Y-69936455D01*
X158269720Y-70095869D01*
X158267031Y-70100980D01*
X158267029Y-70100983D01*
X158254073Y-70125609D01*
X158175203Y-70275515D01*
X158115007Y-70469378D01*
X158091148Y-70670964D01*
X140254500Y-70670964D01*
X140254500Y-69902938D01*
X142461892Y-69902938D01*
X142466801Y-69909496D01*
X142570612Y-69967514D01*
X142581851Y-69972424D01*
X142766715Y-70032490D01*
X142778689Y-70035123D01*
X142971708Y-70058139D01*
X142983957Y-70058396D01*
X143177769Y-70043483D01*
X143189849Y-70041352D01*
X143377061Y-69989081D01*
X143388494Y-69984647D01*
X143529749Y-69913294D01*
X143540033Y-69903649D01*
X143537795Y-69897005D01*
X143012812Y-69372022D01*
X142998868Y-69364408D01*
X142997035Y-69364539D01*
X142990420Y-69368790D01*
X142468652Y-69890558D01*
X142461892Y-69902938D01*
X140254500Y-69902938D01*
X140254500Y-68991357D01*
X141941519Y-68991357D01*
X141957783Y-69185049D01*
X141959997Y-69197108D01*
X142013576Y-69383961D01*
X142018089Y-69395358D01*
X142086984Y-69529414D01*
X142096701Y-69539632D01*
X142103502Y-69537288D01*
X142627978Y-69012812D01*
X142634356Y-69001132D01*
X143364408Y-69001132D01*
X143364539Y-69002965D01*
X143368790Y-69009580D01*
X143890401Y-69531191D01*
X143902781Y-69537951D01*
X143909515Y-69532910D01*
X143964490Y-69436138D01*
X143969483Y-69424922D01*
X144030834Y-69240494D01*
X144033554Y-69228523D01*
X144058244Y-69033075D01*
X144058736Y-69026048D01*
X144059051Y-69003523D01*
X144058756Y-68996494D01*
X144039531Y-68800419D01*
X144037148Y-68788384D01*
X143980968Y-68602308D01*
X143976294Y-68590967D01*
X143912577Y-68471133D01*
X143902717Y-68461052D01*
X143895589Y-68463621D01*
X143372022Y-68987188D01*
X143364408Y-69001132D01*
X142634356Y-69001132D01*
X142635592Y-68998868D01*
X142635461Y-68997035D01*
X142631210Y-68990420D01*
X142109247Y-68468457D01*
X142096867Y-68461697D01*
X142090479Y-68466479D01*
X142029510Y-68577381D01*
X142024682Y-68588645D01*
X141965906Y-68773931D01*
X141963358Y-68785920D01*
X141941690Y-68979088D01*
X141941519Y-68991357D01*
X140254500Y-68991357D01*
X140254500Y-68097012D01*
X142460730Y-68097012D01*
X142463183Y-68103973D01*
X142987188Y-68627978D01*
X143001132Y-68635592D01*
X143002965Y-68635461D01*
X143009580Y-68631210D01*
X143531777Y-68109013D01*
X143538537Y-68096633D01*
X143533878Y-68090410D01*
X143415836Y-68026585D01*
X143404531Y-68021833D01*
X143218849Y-67964354D01*
X143206836Y-67961888D01*
X143013522Y-67941570D01*
X143001254Y-67941485D01*
X142807683Y-67959101D01*
X142795634Y-67961399D01*
X142609163Y-68016281D01*
X142597795Y-68020874D01*
X142470879Y-68087224D01*
X142460730Y-68097012D01*
X140254500Y-68097012D01*
X140254500Y-62935964D01*
X141642112Y-62935964D01*
X141642312Y-62941292D01*
X141642312Y-62941294D01*
X141644464Y-62998599D01*
X141643705Y-62998628D01*
X141644034Y-63000016D01*
X141644340Y-62999989D01*
X141644374Y-63000377D01*
X141644465Y-63001838D01*
X141644523Y-63002085D01*
X141644648Y-63003507D01*
X141650736Y-63165669D01*
X141651831Y-63170888D01*
X141664628Y-63231879D01*
X141663861Y-63232040D01*
X141664841Y-63234316D01*
X141664937Y-63235408D01*
X141666361Y-63240722D01*
X141666464Y-63241307D01*
X141667635Y-63246210D01*
X141697939Y-63390637D01*
X141716875Y-63438586D01*
X141723975Y-63456566D01*
X141724724Y-63458541D01*
X141726097Y-63463663D01*
X141728422Y-63468649D01*
X141728423Y-63468651D01*
X141728947Y-63469775D01*
X141731934Y-63476717D01*
X141782372Y-63604436D01*
X141819273Y-63665246D01*
X141820811Y-63668126D01*
X141820890Y-63668080D01*
X141823639Y-63672841D01*
X141825965Y-63677829D01*
X141829122Y-63682337D01*
X141829124Y-63682341D01*
X141830674Y-63684555D01*
X141835181Y-63691462D01*
X141878233Y-63762409D01*
X141901621Y-63800952D01*
X141905116Y-63804979D01*
X141905117Y-63804981D01*
X141951993Y-63859000D01*
X141955555Y-63863563D01*
X141958347Y-63866890D01*
X141961505Y-63871401D01*
X141967791Y-63877687D01*
X141973861Y-63884201D01*
X142052276Y-63974566D01*
X142056407Y-63977953D01*
X142116309Y-64027070D01*
X142123574Y-64033652D01*
X142124706Y-64034602D01*
X142128599Y-64038495D01*
X142133103Y-64041649D01*
X142133108Y-64041653D01*
X142135936Y-64043633D01*
X142143554Y-64049410D01*
X142225901Y-64116931D01*
X142225907Y-64116935D01*
X142230029Y-64120315D01*
X142234668Y-64122955D01*
X142234667Y-64122955D01*
X142307355Y-64164331D01*
X142317296Y-64170622D01*
X142317660Y-64170877D01*
X142317667Y-64170881D01*
X142322171Y-64174035D01*
X142327155Y-64176359D01*
X142327160Y-64176362D01*
X142329875Y-64177628D01*
X142338952Y-64182318D01*
X142383061Y-64207426D01*
X142429798Y-64234030D01*
X142511980Y-64263861D01*
X142519498Y-64266590D01*
X142529753Y-64270833D01*
X142531348Y-64271577D01*
X142531350Y-64271578D01*
X142536337Y-64273903D01*
X142541653Y-64275327D01*
X142541655Y-64275328D01*
X142542719Y-64275613D01*
X142543702Y-64275876D01*
X142554081Y-64279143D01*
X142645871Y-64312461D01*
X142746443Y-64330648D01*
X142756616Y-64332926D01*
X142764592Y-64335063D01*
X142770990Y-64335623D01*
X142782412Y-64337152D01*
X142872069Y-64353364D01*
X142876208Y-64353559D01*
X142876215Y-64353560D01*
X142894670Y-64354430D01*
X142894677Y-64354430D01*
X142896158Y-64354500D01*
X143057712Y-64354500D01*
X143137444Y-64347735D01*
X143223733Y-64340413D01*
X143223737Y-64340412D01*
X143229044Y-64339962D01*
X143234199Y-64338624D01*
X143234205Y-64338623D01*
X143446368Y-64283556D01*
X143446367Y-64283556D01*
X143451539Y-64282214D01*
X143598412Y-64216052D01*
X143656262Y-64189993D01*
X143656265Y-64189992D01*
X143661123Y-64187803D01*
X143851803Y-64059430D01*
X143878826Y-64033652D01*
X143944991Y-63970533D01*
X144018128Y-63900764D01*
X144155342Y-63716342D01*
X144171504Y-63684555D01*
X144257102Y-63516194D01*
X144257102Y-63516193D01*
X144259520Y-63511438D01*
X144327685Y-63291911D01*
X144357888Y-63064036D01*
X144355536Y-63001401D01*
X144356295Y-63001372D01*
X144355966Y-62999984D01*
X144355660Y-63000011D01*
X144355626Y-62999623D01*
X144355535Y-62998162D01*
X144355477Y-62997915D01*
X144355352Y-62996493D01*
X144353080Y-62935964D01*
X169642112Y-62935964D01*
X169642312Y-62941292D01*
X169642312Y-62941294D01*
X169644464Y-62998599D01*
X169643705Y-62998628D01*
X169644034Y-63000016D01*
X169644340Y-62999989D01*
X169644374Y-63000377D01*
X169644465Y-63001838D01*
X169644523Y-63002085D01*
X169644648Y-63003507D01*
X169650736Y-63165669D01*
X169651831Y-63170888D01*
X169664628Y-63231879D01*
X169663861Y-63232040D01*
X169664841Y-63234316D01*
X169664937Y-63235408D01*
X169666361Y-63240722D01*
X169666464Y-63241307D01*
X169667635Y-63246210D01*
X169697939Y-63390637D01*
X169716875Y-63438586D01*
X169723975Y-63456566D01*
X169724724Y-63458541D01*
X169726097Y-63463663D01*
X169728422Y-63468649D01*
X169728423Y-63468651D01*
X169728947Y-63469775D01*
X169731934Y-63476717D01*
X169782372Y-63604436D01*
X169819273Y-63665246D01*
X169820811Y-63668126D01*
X169820890Y-63668080D01*
X169823639Y-63672841D01*
X169825965Y-63677829D01*
X169829122Y-63682337D01*
X169829124Y-63682341D01*
X169830674Y-63684555D01*
X169835181Y-63691462D01*
X169878233Y-63762409D01*
X169901621Y-63800952D01*
X169905116Y-63804979D01*
X169905117Y-63804981D01*
X169951993Y-63859000D01*
X169955555Y-63863563D01*
X169958347Y-63866890D01*
X169961505Y-63871401D01*
X169967791Y-63877687D01*
X169973861Y-63884201D01*
X170052276Y-63974566D01*
X170056407Y-63977953D01*
X170116309Y-64027070D01*
X170123574Y-64033652D01*
X170124706Y-64034602D01*
X170128599Y-64038495D01*
X170133103Y-64041649D01*
X170133108Y-64041653D01*
X170135936Y-64043633D01*
X170143554Y-64049410D01*
X170225901Y-64116931D01*
X170225907Y-64116935D01*
X170230029Y-64120315D01*
X170234668Y-64122955D01*
X170234667Y-64122955D01*
X170307355Y-64164331D01*
X170317296Y-64170622D01*
X170317660Y-64170877D01*
X170317667Y-64170881D01*
X170322171Y-64174035D01*
X170327155Y-64176359D01*
X170327160Y-64176362D01*
X170329875Y-64177628D01*
X170338952Y-64182318D01*
X170383061Y-64207426D01*
X170429798Y-64234030D01*
X170511980Y-64263861D01*
X170519498Y-64266590D01*
X170529753Y-64270833D01*
X170531348Y-64271577D01*
X170531350Y-64271578D01*
X170536337Y-64273903D01*
X170541653Y-64275327D01*
X170541655Y-64275328D01*
X170542719Y-64275613D01*
X170543702Y-64275876D01*
X170554081Y-64279143D01*
X170645871Y-64312461D01*
X170746443Y-64330648D01*
X170756616Y-64332926D01*
X170764592Y-64335063D01*
X170770990Y-64335623D01*
X170782412Y-64337152D01*
X170872069Y-64353364D01*
X170876208Y-64353559D01*
X170876215Y-64353560D01*
X170894670Y-64354430D01*
X170894677Y-64354430D01*
X170896158Y-64354500D01*
X171057712Y-64354500D01*
X171137444Y-64347735D01*
X171223733Y-64340413D01*
X171223737Y-64340412D01*
X171229044Y-64339962D01*
X171234199Y-64338624D01*
X171234205Y-64338623D01*
X171446368Y-64283556D01*
X171446367Y-64283556D01*
X171451539Y-64282214D01*
X171598412Y-64216052D01*
X171656262Y-64189993D01*
X171656265Y-64189992D01*
X171661123Y-64187803D01*
X171851803Y-64059430D01*
X171878826Y-64033652D01*
X171944991Y-63970533D01*
X172018128Y-63900764D01*
X172155342Y-63716342D01*
X172171504Y-63684555D01*
X172257102Y-63516194D01*
X172257102Y-63516193D01*
X172259520Y-63511438D01*
X172327685Y-63291911D01*
X172357888Y-63064036D01*
X172355536Y-63001401D01*
X172356295Y-63001372D01*
X172355966Y-62999984D01*
X172355660Y-63000011D01*
X172355626Y-62999623D01*
X172355535Y-62998162D01*
X172355477Y-62997915D01*
X172355352Y-62996493D01*
X172349264Y-62834331D01*
X172335372Y-62768121D01*
X172336139Y-62767960D01*
X172335159Y-62765684D01*
X172335063Y-62764592D01*
X172333639Y-62759278D01*
X172333536Y-62758693D01*
X172332362Y-62753778D01*
X172323886Y-62713378D01*
X172302061Y-62609363D01*
X172276025Y-62543434D01*
X172275276Y-62541459D01*
X172273903Y-62536337D01*
X172271053Y-62530225D01*
X172268066Y-62523283D01*
X172217628Y-62395564D01*
X172180727Y-62334754D01*
X172179189Y-62331874D01*
X172179110Y-62331920D01*
X172176361Y-62327159D01*
X172174035Y-62322171D01*
X172170876Y-62317659D01*
X172169326Y-62315445D01*
X172164819Y-62308538D01*
X172101147Y-62203609D01*
X172101145Y-62203606D01*
X172098379Y-62199048D01*
X172048007Y-62141000D01*
X172044445Y-62136437D01*
X172041653Y-62133110D01*
X172038495Y-62128599D01*
X172032209Y-62122313D01*
X172026139Y-62115799D01*
X171951224Y-62029467D01*
X171951222Y-62029465D01*
X171947724Y-62025434D01*
X171883692Y-61972930D01*
X171876426Y-61966348D01*
X171875294Y-61965398D01*
X171871401Y-61961505D01*
X171866897Y-61958351D01*
X171866892Y-61958347D01*
X171864064Y-61956367D01*
X171856446Y-61950590D01*
X171774099Y-61883069D01*
X171774093Y-61883065D01*
X171769971Y-61879685D01*
X171692645Y-61835669D01*
X171682704Y-61829378D01*
X171682340Y-61829123D01*
X171682333Y-61829119D01*
X171677829Y-61825965D01*
X171672845Y-61823641D01*
X171672840Y-61823638D01*
X171670125Y-61822372D01*
X171661048Y-61817682D01*
X171616939Y-61792574D01*
X171570202Y-61765970D01*
X171480502Y-61733410D01*
X171470247Y-61729167D01*
X171468652Y-61728423D01*
X171468650Y-61728422D01*
X171463663Y-61726097D01*
X171458347Y-61724673D01*
X171458345Y-61724672D01*
X171457281Y-61724387D01*
X171456298Y-61724124D01*
X171445919Y-61720857D01*
X171354129Y-61687539D01*
X171253557Y-61669352D01*
X171243384Y-61667074D01*
X171235408Y-61664937D01*
X171229010Y-61664377D01*
X171217588Y-61662848D01*
X171127931Y-61646636D01*
X171123792Y-61646441D01*
X171123785Y-61646440D01*
X171105330Y-61645570D01*
X171105323Y-61645570D01*
X171103842Y-61645500D01*
X170942288Y-61645500D01*
X170862556Y-61652265D01*
X170776267Y-61659587D01*
X170776263Y-61659588D01*
X170770956Y-61660038D01*
X170765801Y-61661376D01*
X170765795Y-61661377D01*
X170593058Y-61706211D01*
X170548461Y-61717786D01*
X170441497Y-61765970D01*
X170343738Y-61810007D01*
X170343735Y-61810008D01*
X170338877Y-61812197D01*
X170148197Y-61940570D01*
X170144340Y-61944249D01*
X170144338Y-61944251D01*
X170118404Y-61968991D01*
X169981872Y-62099236D01*
X169844658Y-62283658D01*
X169842242Y-62288409D01*
X169842240Y-62288413D01*
X169742898Y-62483806D01*
X169740480Y-62488562D01*
X169672315Y-62708089D01*
X169642112Y-62935964D01*
X144353080Y-62935964D01*
X144349264Y-62834331D01*
X144335372Y-62768121D01*
X144336139Y-62767960D01*
X144335159Y-62765684D01*
X144335063Y-62764592D01*
X144333639Y-62759278D01*
X144333536Y-62758693D01*
X144332362Y-62753778D01*
X144323886Y-62713378D01*
X144302061Y-62609363D01*
X144276025Y-62543434D01*
X144275276Y-62541459D01*
X144273903Y-62536337D01*
X144271053Y-62530225D01*
X144268066Y-62523283D01*
X144217628Y-62395564D01*
X144180727Y-62334754D01*
X144179189Y-62331874D01*
X144179110Y-62331920D01*
X144176361Y-62327159D01*
X144174035Y-62322171D01*
X144170876Y-62317659D01*
X144169326Y-62315445D01*
X144164819Y-62308538D01*
X144101147Y-62203609D01*
X144101145Y-62203606D01*
X144098379Y-62199048D01*
X144048007Y-62141000D01*
X144044445Y-62136437D01*
X144041653Y-62133110D01*
X144038495Y-62128599D01*
X144032209Y-62122313D01*
X144026139Y-62115799D01*
X143951224Y-62029467D01*
X143951222Y-62029465D01*
X143947724Y-62025434D01*
X143883692Y-61972930D01*
X143876426Y-61966348D01*
X143875294Y-61965398D01*
X143871401Y-61961505D01*
X143866897Y-61958351D01*
X143866892Y-61958347D01*
X143864064Y-61956367D01*
X143856446Y-61950590D01*
X143774099Y-61883069D01*
X143774093Y-61883065D01*
X143769971Y-61879685D01*
X143692645Y-61835669D01*
X143682704Y-61829378D01*
X143682340Y-61829123D01*
X143682333Y-61829119D01*
X143677829Y-61825965D01*
X143672845Y-61823641D01*
X143672840Y-61823638D01*
X143670125Y-61822372D01*
X143661048Y-61817682D01*
X143616939Y-61792574D01*
X143570202Y-61765970D01*
X143480502Y-61733410D01*
X143470247Y-61729167D01*
X143468652Y-61728423D01*
X143468650Y-61728422D01*
X143463663Y-61726097D01*
X143458347Y-61724673D01*
X143458345Y-61724672D01*
X143457281Y-61724387D01*
X143456298Y-61724124D01*
X143445919Y-61720857D01*
X143354129Y-61687539D01*
X143253557Y-61669352D01*
X143243384Y-61667074D01*
X143235408Y-61664937D01*
X143229010Y-61664377D01*
X143217588Y-61662848D01*
X143127931Y-61646636D01*
X143123792Y-61646441D01*
X143123785Y-61646440D01*
X143105330Y-61645570D01*
X143105323Y-61645570D01*
X143103842Y-61645500D01*
X142942288Y-61645500D01*
X142862556Y-61652265D01*
X142776267Y-61659587D01*
X142776263Y-61659588D01*
X142770956Y-61660038D01*
X142765801Y-61661376D01*
X142765795Y-61661377D01*
X142593058Y-61706211D01*
X142548461Y-61717786D01*
X142441497Y-61765970D01*
X142343738Y-61810007D01*
X142343735Y-61810008D01*
X142338877Y-61812197D01*
X142148197Y-61940570D01*
X142144340Y-61944249D01*
X142144338Y-61944251D01*
X142118404Y-61968991D01*
X141981872Y-62099236D01*
X141844658Y-62283658D01*
X141842242Y-62288409D01*
X141842240Y-62288413D01*
X141742898Y-62483806D01*
X141740480Y-62488562D01*
X141672315Y-62708089D01*
X141642112Y-62935964D01*
X140254500Y-62935964D01*
X140254500Y-62037476D01*
X140256921Y-62012894D01*
X140257065Y-62012170D01*
X140259486Y-62000000D01*
X140257065Y-61987828D01*
X140257065Y-61975421D01*
X140257705Y-61975421D01*
X140257029Y-61964639D01*
X140257254Y-61961505D01*
X140271624Y-61760580D01*
X140274182Y-61742786D01*
X140323290Y-61517040D01*
X140328355Y-61499791D01*
X140348923Y-61444644D01*
X140409090Y-61283330D01*
X140416556Y-61266983D01*
X140527275Y-61064218D01*
X140536994Y-61049095D01*
X140675441Y-60864152D01*
X140687214Y-60850566D01*
X140850566Y-60687214D01*
X140864152Y-60675441D01*
X141049095Y-60536994D01*
X141064218Y-60527275D01*
X141266983Y-60416556D01*
X141283330Y-60409090D01*
X141444644Y-60348923D01*
X141499791Y-60328355D01*
X141517040Y-60323290D01*
X141742786Y-60274182D01*
X141760580Y-60271624D01*
X141780752Y-60270181D01*
X141964642Y-60257029D01*
X141975421Y-60257705D01*
X141975421Y-60257065D01*
X141987828Y-60257065D01*
X142000000Y-60259486D01*
X142012897Y-60256921D01*
X142037476Y-60254500D01*
X171962524Y-60254500D01*
X171987103Y-60256921D01*
G37*
G04 #@! TD.AperFunction*
M02*
