                                                                        S      1
,,17Hshellnothreads v2,17Hshellnothreads v2,7Hunknown,7Hunknown,32,38,7,G      1
99,15,,1.,2,2HMM,1,0.08,15H20240829.144041,0.01,10000.,7Hunknown,7HunknoG      2
wn,11,0,15H20240821.122707;                                             G      3
     186       1                                                00000000D      1
     186             -59       1       0                               0D      2
     514       2                                                00010000D      3
     514                       1       1                               0D      4
     510       3                                                00010000D      5
     510             -59       1       1                               0D      6
     510       4                                                00010000D      7
     510             -59       1       1                               0D      8
     510       5                                                00010000D      9
     510             -59       1       1                               0D     10
     510       6                                                00010000D     11
     510             -59       1       1                               0D     12
     510       7                                                00010000D     13
     510             -59       1       1                               0D     14
     508       8                                                00010000D     15
     508                       1       1                               0D     16
     508       9                                                00010000D     17
     508                       1       1                               0D     18
     508      10                                                00010000D     19
     508                       2       1                               0D     20
     508      12                                                00010000D     21
     508                       1       1                               0D     22
     508      13                                                00010000D     23
     508                       1       1                               0D     24
     508      14                                                00010000D     25
     508                       1       1                               0D     26
     126      15                                                00010000D     27
     126       0              13       0                               0D     28
     126      28                                                00010000D     29
     126       0               4       0                               0D     30
     126      32                                                00010000D     31
     126       0              11       0                               0D     32
     126      43                                                00010000D     33
     126       0               7       0                               0D     34
     126      50                                                00010000D     35
     126       0               8       0                               0D     36
     126      58                                                00010000D     37
     126       0               4       0                               0D     38
     126      62                                                00010000D     39
     126       0               7       0                               0D     40
     126      69                                                00010000D     41
     126       0               9       0                               0D     42
     128      78                                                00010000D     43
     128       0     -59      19       0                               0D     44
     128      97                                                00010000D     45
     128       0     -59       4       0                               0D     46
     128     101                                                00010000D     47
     128       0     -59      17       0                               0D     48
     128     118                                                00010000D     49
     128       0     -59       4       0                               0D     50
     128     122                                                00010000D     51
     128       0     -59       4       0                               0D     52
     502     126                                                00010000D     53
     502                       3       1                               0D     54
     504     129                                                00010001D     55
     504                       2       1                               0D     56
     406     131                                                00000000D     57
     406                       1      15                               0D     58
     314     132                                                00000200D     59
     314                       2       0                               0D     60
186,3,1,0,0,1,57;                                                      1P      1
514,5,5,1,7,1,9,1,11,1,13,1;                                           3P      2
510,43,1,1,15;                                                         5P      3
510,45,1,1,17;                                                         7P      4
510,47,1,1,19;                                                         9P      5
510,49,1,1,21;                                                        11P      6
510,51,2,1,23,25;                                                     13P      7
508,4,0,55,1,1,0,0,55,2,1,0,0,55,3,0,0,0,55,2,0,0;                    15P      8
508,1,0,55,1,0,0;                                                     17P      9
508,6,0,55,4,0,0,0,55,5,0,0,0,55,6,1,0,0,55,7,0,0,0,55,8,0,0,0,       19P     10
55,6,0,0;                                                             19P     11
508,2,0,55,7,1,0,0,55,8,1,0;                                          21P     12
508,2,0,55,4,1,0,0,55,5,1,0;                                          23P     13
508,1,0,55,3,1,0;                                                     25P     14
126,8,2,0,1,0,0,-3.14159265358979,-3.14159265358979,                  27P     15
-3.14159265358979,-1.5707963267949,-1.5707963267949,0.,0.,            27P     16
1.5707963267949,1.5707963267949,3.14159265358979,                     27P     17
3.14159265358979,3.14159265358979,1.,0.707106781186548,1.,            27P     18
0.707106781186548,1.,0.707106781186548,1.,0.707106781186548,1.,       27P     19
-4.75,0.999999999999996,-8.03751834520023D-16,-4.75,                  27P     20
0.999999999999995,-4.75,2.90853614797496D-16,0.999999999999995,       27P     21
-4.75,4.75,0.999999999999995,-4.75,4.75,0.999999999999996,            27P     22
-2.22044604925031D-16,4.75,0.999999999999998,4.75,                    27P     23
2.90853614797496D-16,0.999999999999998,4.75,-4.75,                    27P     24
0.999999999999998,4.75,-4.75,0.999999999999996,                       27P     25
3.59662624669962D-16,-3.14159265358979,3.14159265358979,0.,0.,        27P     26
0.;                                                                   27P     27
126,1,1,0,0,1,0,-8.52173913043478,-8.52173913043478,                  29P     28
8.69565217391304,8.69565217391304,1.,1.,-4.75,1.00000000000001,       29P     29
-2.22044604925032D-16,-4.75,100.,-2.22044604925031D-14,               29P     30
-8.52173913043478,8.69565217391304,0.,0.,0.;                          29P     31
126,8,2,0,1,0,0,-3.14159265358979,-3.14159265358979,                  31P     32
-3.14159265358979,-1.5707963267949,-1.5707963267949,0.,0.,            31P     33
1.5707963267949,1.5707963267949,3.14159265358979,                     31P     34
3.14159265358979,3.14159265358979,1.,0.707106781186548,1.,            31P     35
0.707106781186548,1.,0.707106781186548,1.,0.707106781186548,1.,       31P     36
-4.75,100.,-2.27861677220981D-14,-4.75,100.,-4.75000000000002,        31P     37
2.90853614797496D-16,100.,-4.75000000000002,4.75,100.,                31P     38
-4.75000000000002,4.75,100.,-2.22044604925031D-14,4.75,100.,          31P     39
4.74999999999998,2.90853614797496D-16,100.,4.74999999999998,          31P     40
-4.75,100.,4.74999999999998,-4.75,100.,-2.16227532629081D-14,         31P     41
-3.14159265358979,3.14159265358979,0.,0.,0.;                          31P     42
126,4,2,0,0,0,0,0.,0.,0.,1.5707963267949,1.5707963267949,             33P     43
3.14159265358979,3.14159265358979,3.14159265358979,1.,                33P     44
0.707106781186548,1.,0.707106781186548,1.,5.75,100.,                  33P     45
-2.22044604925031D-14,5.75,100.,-5.75000000000002,                    33P     46
3.52085954754864D-16,100.,-5.75000000000002,-5.75,100.,               33P     47
-5.75000000000002,-5.75,100.,-2.29086324020129D-14,0.,                33P     48
3.14159265358979,0.,0.,0.;                                            33P     49
126,4,2,0,0,0,0,3.14159265358979,3.14159265358979,                    35P     50
3.14159265358979,4.71238898038469,4.71238898038469,                   35P     51
6.28318530717959,6.28318530717959,6.28318530717959,1.,                35P     52
0.707106781186548,1.,0.707106781186547,1.,-5.75,100.,                 35P     53
-2.29086324020129D-14,-5.75,100.,5.74999999999998,                    35P     54
-1.05625786426459D-15,100.,5.74999999999998,5.75,100.,                35P     55
5.74999999999998,5.75,100.,-2.07961166734837D-14,                     35P     56
3.14159265358979,6.28318530717959,0.,0.,0.;                           35P     57
126,1,1,0,0,1,0,-8.69565217391304,-8.69565217391304,                  37P     58
8.69565217391304,8.69565217391304,1.,1.,-5.75,100.,                   37P     59
-2.22044604925031D-14,-5.75,0.,0.,-8.69565217391304,                  37P     60
8.69565217391304,0.,0.,0.;                                            37P     61
126,4,2,0,0,0,0,0.,0.,0.,1.5707963267949,1.5707963267949,             39P     62
3.14159265358979,3.14159265358979,3.14159265358979,1.,                39P     63
0.707106781186548,1.,0.707106781186548,1.,5.75,0.,0.,5.75,            39P     64
1.27675647831893D-15,5.75,3.52085954754864D-16,                       39P     65
1.27675647831893D-15,5.75,-5.75,1.27675647831893D-15,5.75,-5.75,      39P     66
1.56357573446392D-31,7.04171909509728D-16,0.,3.14159265358979,        39P     67
0.,0.,0.;                                                             39P     68
126,4,2,0,0,0,0,3.14159265358979,3.14159265358979,                    41P     69
3.14159265358979,4.71238898038469,4.71238898038469,                   41P     70
6.28318530717959,6.28318530717959,6.28318530717959,1.,                41P     71
0.707106781186548,1.,0.707106781186547,1.,-5.75,                      41P     72
1.56357573446392D-31,7.04171909509728D-16,-5.75,                      41P     73
-1.27675647831893D-15,-5.75,-1.05625786426459D-15,                    41P     74
-1.27675647831893D-15,-5.75,5.75,-1.27675647831893D-15,-5.75,         41P     75
5.75,-3.12715146892785D-31,-1.40834381901946D-15,                     41P     76
3.14159265358979,6.28318530717959,0.,0.,0.;                           41P     77
128,1,8,1,2,0,1,0,0,1,-8.52173913043478,-8.52173913043478,            43P     78
8.69565217391304,8.69565217391304,-3.14159265358979,                  43P     79
-3.14159265358979,-3.14159265358979,-1.5707963267949,                 43P     80
-1.5707963267949,0.,0.,1.5707963267949,1.5707963267949,               43P     81
3.14159265358979,3.14159265358979,3.14159265358979,1.,1.,             43P     82
0.707106781186548,0.707106781186548,1.,1.,0.707106781186548,          43P     83
0.707106781186548,1.,1.,0.707106781186548,0.707106781186548,1.,       43P     84
1.,0.707106781186548,0.707106781186548,1.,1.,-4.75,                   43P     85
1.00000000000001,-2.22044604925032D-16,-4.75,100.,                    43P     86
-2.22044604925031D-14,-4.75,1.00000000000001,4.75,-4.75,100.,         43P     87
4.74999999999998,0.,1.00000000000001,4.75,0.,100.,                    43P     88
4.74999999999998,4.75,1.00000000000001,4.75,4.75,100.,                43P     89
4.74999999999998,4.75,1.00000000000001,-2.22044604925032D-16,         43P     90
4.75,100.,-2.22044604925031D-14,4.75,1.,-4.75,4.75,100.,              43P     91
-4.75000000000002,0.,1.,-4.75,0.,100.,-4.75000000000002,-4.75,        43P     92
1.,-4.75,-4.75,100.,-4.75000000000002,-4.75,1.00000000000001,         43P     93
-2.22044604925032D-16,-4.75,100.,-2.22044604925031D-14,               43P     94
-8.52173913043478,8.69565217391304,-3.14159265358979,                 43P     95
3.14159265358979;                                                     43P     96
128,1,1,1,1,0,0,1,0,0,-0.476,-0.476,0.476,0.476,-0.476,-0.476,        45P     97
0.476,0.476,1.,1.,1.,1.,-4.76,1.,4.76,4.76,1.,4.76,-4.76,             45P     98
0.999999999999999,-4.76,4.76,0.999999999999999,-4.76,-0.476,          45P     99
0.476,-0.476,0.476;                                                   45P    100
128,1,8,1,2,0,1,0,0,1,-8.69565217391304,-8.69565217391304,            47P    101
8.69565217391304,8.69565217391304,-3.14159265358979,                  47P    102
-3.14159265358979,-3.14159265358979,-1.5707963267949,                 47P    103
-1.5707963267949,0.,0.,1.5707963267949,1.5707963267949,               47P    104
3.14159265358979,3.14159265358979,3.14159265358979,1.,1.,             47P    105
0.707106781186548,0.707106781186548,1.,1.,0.707106781186548,          47P    106
0.707106781186548,1.,1.,0.707106781186548,0.707106781186548,1.,       47P    107
1.,0.707106781186548,0.707106781186548,1.,1.,-5.75,100.,              47P    108
-2.22044604925031D-14,-5.75,0.,0.,-5.75,100.,5.74999999999998,        47P    109
-5.75,1.27675647831893D-15,5.75,0.,100.,5.74999999999998,0.,          47P    110
1.27675647831893D-15,5.75,5.75,100.,5.74999999999998,5.75,            47P    111
1.27675647831893D-15,5.75,5.75,100.,-2.22044604925031D-14,5.75,       47P    112
0.,0.,5.75,100.,-5.75000000000002,5.75,-1.27675647831893D-15,         47P    113
-5.75,0.,100.,-5.75000000000002,0.,-1.27675647831893D-15,-5.75,       47P    114
-5.75,100.,-5.75000000000002,-5.75,-1.27675647831893D-15,-5.75,       47P    115
-5.75,100.,-2.22044604925031D-14,-5.75,0.,0.,-8.69565217391304,       47P    116
8.69565217391304,-3.14159265358979,3.14159265358979;                  47P    117
128,1,1,1,1,0,0,1,0,0,-0.576,-0.576,0.576,0.576,-0.576,-0.576,        49P    118
0.576,0.576,1.,1.,1.,1.,5.76,1.27897692436818D-15,5.76,-5.76,         49P    119
1.27897692436818D-15,5.76,5.76,-1.27897692436818D-15,-5.76,           49P    120
-5.76,-1.27897692436818D-15,-5.76,-0.576,0.576,-0.576,0.576;          49P    121
128,1,1,1,1,0,0,1,0,0,-0.576,-0.576,0.576,0.576,-0.576,-0.576,        51P    122
0.576,0.576,1.,1.,1.,1.,-5.76,100.,5.75999999999998,5.76,100.,        51P    123
5.75999999999998,-5.76,100.,-5.76000000000002,5.76,100.,              51P    124
-5.76000000000002,-0.576,0.576,-0.576,0.576;                          51P    125
502,6,-4.75,0.999999999999996,3.59662624669962D-16,-4.75,100.,        53P    126
-2.27861677220981D-14,5.75,100.,-2.22044604925031D-14,-5.75,          53P    127
100.,-2.22044604925031D-14,-5.75,0.,0.,5.75,0.,0.;                    53P    128
504,8,27,53,1,53,1,29,53,1,53,2,31,53,2,53,2,33,53,3,53,4,35,53,      55P    129
4,53,3,37,53,4,53,5,39,53,6,53,5,41,53,5,53,6;                        55P    130
406,1,5HBody1;                                                        57P    131
314,62.7450980392157,62.7450980392157,62.7450980392157,13HSteel       59P    132
- Satin;                                                              59P    133
S      1G      3D     60P    133                                        T      1
