G04 #@! TF.GenerationSoftware,KiCad,Pcbnew,(6.0.7-1)-1*
G04 #@! TF.CreationDate,2024-08-15T11:21:40+03:00*
G04 #@! TF.ProjectId,Ideal_Diode,49646561-6c5f-4446-996f-64652e6b6963,rev?*
G04 #@! TF.SameCoordinates,Original*
G04 #@! TF.FileFunction,Copper,L1,Top*
G04 #@! TF.FilePolarity,Positive*
%FSLAX46Y46*%
G04 Gerber Fmt 4.6, Leading zero omitted, Abs format (unit mm)*
G04 Created by KiCad (PCBNEW (6.0.7-1)-1) date 2024-08-15 11:21:40*
%MOMM*%
%LPD*%
G01*
G04 APERTURE LIST*
G04 Aperture macros list*
%AMRoundRect*
0 Rectangle with rounded corners*
0 $1 Rounding radius*
0 $2 $3 $4 $5 $6 $7 $8 $9 X,Y pos of 4 corners*
0 Add a 4 corners polygon primitive as box body*
4,1,4,$2,$3,$4,$5,$6,$7,$8,$9,$2,$3,0*
0 Add four circle primitives for the rounded corners*
1,1,$1+$1,$2,$3*
1,1,$1+$1,$4,$5*
1,1,$1+$1,$6,$7*
1,1,$1+$1,$8,$9*
0 Add four rect primitives between the rounded corners*
20,1,$1+$1,$2,$3,$4,$5,0*
20,1,$1+$1,$4,$5,$6,$7,0*
20,1,$1+$1,$6,$7,$8,$9,0*
20,1,$1+$1,$8,$9,$2,$3,0*%
G04 Aperture macros list end*
G04 #@! TA.AperFunction,SMDPad,CuDef*
%ADD10RoundRect,0.200000X-0.200000X-0.275000X0.200000X-0.275000X0.200000X0.275000X-0.200000X0.275000X0*%
G04 #@! TD*
G04 #@! TA.AperFunction,ComponentPad*
%ADD11RoundRect,0.250000X0.550000X-0.550000X0.550000X0.550000X-0.550000X0.550000X-0.550000X-0.550000X0*%
G04 #@! TD*
G04 #@! TA.AperFunction,ComponentPad*
%ADD12C,1.600000*%
G04 #@! TD*
G04 #@! TA.AperFunction,SMDPad,CuDef*
%ADD13R,0.228600X0.711200*%
G04 #@! TD*
G04 #@! TA.AperFunction,SMDPad,CuDef*
%ADD14RoundRect,0.140000X-0.170000X0.140000X-0.170000X-0.140000X0.170000X-0.140000X0.170000X0.140000X0*%
G04 #@! TD*
G04 #@! TA.AperFunction,SMDPad,CuDef*
%ADD15RoundRect,0.140000X0.170000X-0.140000X0.170000X0.140000X-0.170000X0.140000X-0.170000X-0.140000X0*%
G04 #@! TD*
G04 #@! TA.AperFunction,SMDPad,CuDef*
%ADD16RoundRect,0.140000X-0.140000X-0.170000X0.140000X-0.170000X0.140000X0.170000X-0.140000X0.170000X0*%
G04 #@! TD*
G04 #@! TA.AperFunction,Conductor*
%ADD17C,0.200000*%
G04 #@! TD*
G04 #@! TA.AperFunction,Conductor*
%ADD18C,0.300000*%
G04 #@! TD*
G04 APERTURE END LIST*
D10*
X153425000Y-94750000D03*
X155075000Y-94750000D03*
X156675000Y-98000000D03*
X158325000Y-98000000D03*
D11*
X161200000Y-96500000D03*
D12*
X161200000Y-92900000D03*
D13*
X158250189Y-93949900D03*
X157750063Y-93949900D03*
X157249937Y-93949900D03*
X156749811Y-93949900D03*
X156749811Y-95550100D03*
X157249937Y-95550100D03*
X157750063Y-95550100D03*
X158250189Y-95550100D03*
D14*
X154250000Y-92250000D03*
X154250000Y-93210000D03*
D11*
X150500000Y-101500000D03*
D12*
X150500000Y-97900000D03*
X150500000Y-94300000D03*
X150500000Y-90700000D03*
D15*
X154250000Y-97230000D03*
X154250000Y-96270000D03*
D16*
X157020000Y-99500000D03*
X157980000Y-99500000D03*
D17*
X151700000Y-94300000D02*
X152790000Y-93210000D01*
X150500000Y-94300000D02*
X151700000Y-94300000D01*
D18*
X154160000Y-93300000D02*
X154250000Y-93210000D01*
D17*
X154250000Y-93210000D02*
X157179811Y-93210000D01*
X157249937Y-93280126D02*
X157249937Y-93949900D01*
X152790000Y-93210000D02*
X154250000Y-93210000D01*
X157179811Y-93210000D02*
X157249937Y-93280126D01*
X152100000Y-97900000D02*
X153730000Y-96270000D01*
X154250000Y-96270000D02*
X157199811Y-96270000D01*
X150500000Y-97900000D02*
X152100000Y-97900000D01*
X157249937Y-96219874D02*
X157249937Y-95550100D01*
X157199811Y-96270000D02*
X157249937Y-96219874D01*
X153730000Y-96270000D02*
X154250000Y-96270000D01*
X157750063Y-94880326D02*
X157750063Y-93949900D01*
X156675000Y-98000000D02*
X157750063Y-96924937D01*
X159544500Y-94844500D02*
X157785889Y-94844500D01*
X161200000Y-96500000D02*
X159544500Y-94844500D01*
X157785889Y-94844500D02*
X157750063Y-94880326D01*
X157750063Y-96924937D02*
X157750063Y-95550100D01*
X157750063Y-94880326D02*
X157750063Y-95550100D01*
X157020000Y-98345000D02*
X156675000Y-98000000D01*
X157020000Y-99500000D02*
X157020000Y-98345000D01*
X155650000Y-94750000D02*
X156450100Y-93949900D01*
X156450100Y-93949900D02*
X156749811Y-93949900D01*
X155075000Y-94750000D02*
X155650000Y-94750000D01*
X158250189Y-97925189D02*
X158250189Y-95550100D01*
X158325000Y-98000000D02*
X158250189Y-97925189D01*
G04 #@! TA.AperFunction,Conductor*
G36*
X156165360Y-86259814D02*
G01*
X156471035Y-86295542D01*
X156482364Y-86297540D01*
X156585668Y-86322024D01*
X156781800Y-86368509D01*
X156792829Y-86371810D01*
X156966011Y-86434843D01*
X157082026Y-86477068D01*
X157092585Y-86481623D01*
X157160836Y-86515900D01*
X157367603Y-86619742D01*
X157377564Y-86625493D01*
X157579935Y-86758595D01*
X157634681Y-86794602D01*
X157643915Y-86801477D01*
X157879657Y-86999288D01*
X157888031Y-87007188D01*
X158099218Y-87231033D01*
X158106618Y-87239852D01*
X158290386Y-87486695D01*
X158296713Y-87496314D01*
X158450588Y-87762834D01*
X158455754Y-87773122D01*
X158577640Y-88055685D01*
X158581578Y-88066503D01*
X158661515Y-88333506D01*
X158669842Y-88361321D01*
X158672495Y-88372516D01*
X158699699Y-88526795D01*
X158725934Y-88675585D01*
X158727270Y-88687019D01*
X158743634Y-88967967D01*
X158742417Y-88985558D01*
X158742417Y-88990435D01*
X158740514Y-89000000D01*
X158760266Y-89099301D01*
X158816516Y-89183484D01*
X158900699Y-89239734D01*
X158910262Y-89241636D01*
X158910264Y-89241637D01*
X158990438Y-89257584D01*
X159000000Y-89259486D01*
X159009562Y-89257584D01*
X159015505Y-89256402D01*
X159034818Y-89254500D01*
X161965182Y-89254500D01*
X161984495Y-89256402D01*
X161990436Y-89257584D01*
X161990438Y-89257584D01*
X162000000Y-89259486D01*
X162009564Y-89257583D01*
X162019314Y-89257583D01*
X162019314Y-89257713D01*
X162031609Y-89256987D01*
X162117918Y-89263780D01*
X162187071Y-89269223D01*
X162202414Y-89271653D01*
X162377306Y-89313641D01*
X162392080Y-89318442D01*
X162558249Y-89387271D01*
X162572085Y-89394320D01*
X162725449Y-89488301D01*
X162738007Y-89497426D01*
X162867491Y-89608016D01*
X162874777Y-89614239D01*
X162885759Y-89625221D01*
X162961863Y-89714326D01*
X163002574Y-89761992D01*
X163011699Y-89774551D01*
X163105680Y-89927915D01*
X163112729Y-89941751D01*
X163181558Y-90107920D01*
X163186359Y-90122694D01*
X163228347Y-90297586D01*
X163230777Y-90312929D01*
X163243013Y-90468388D01*
X163242287Y-90480686D01*
X163242417Y-90480686D01*
X163242417Y-90490436D01*
X163240514Y-90500000D01*
X163242416Y-90509562D01*
X163242416Y-90509564D01*
X163243598Y-90515505D01*
X163245500Y-90534818D01*
X163245500Y-101465182D01*
X163243598Y-101484495D01*
X163240514Y-101500000D01*
X163242417Y-101509564D01*
X163242417Y-101519314D01*
X163242287Y-101519314D01*
X163243013Y-101531612D01*
X163230777Y-101687071D01*
X163228347Y-101702414D01*
X163186359Y-101877306D01*
X163181558Y-101892080D01*
X163112729Y-102058249D01*
X163105680Y-102072085D01*
X163011699Y-102225449D01*
X163002574Y-102238007D01*
X162924959Y-102328883D01*
X162885761Y-102374777D01*
X162874779Y-102385759D01*
X162743845Y-102497589D01*
X162738008Y-102502574D01*
X162725449Y-102511699D01*
X162572085Y-102605680D01*
X162558249Y-102612729D01*
X162392080Y-102681558D01*
X162377306Y-102686359D01*
X162202414Y-102728347D01*
X162187071Y-102730777D01*
X162117918Y-102736220D01*
X162031609Y-102743013D01*
X162019314Y-102742287D01*
X162019314Y-102742417D01*
X162009564Y-102742417D01*
X162000000Y-102740514D01*
X161990438Y-102742416D01*
X161990436Y-102742416D01*
X161984495Y-102743598D01*
X161965182Y-102745500D01*
X159034818Y-102745500D01*
X159015505Y-102743598D01*
X159009562Y-102742416D01*
X159000000Y-102740514D01*
X158990438Y-102742416D01*
X158910264Y-102758363D01*
X158910262Y-102758364D01*
X158900699Y-102760266D01*
X158816516Y-102816516D01*
X158760266Y-102900699D01*
X158740514Y-103000000D01*
X158742417Y-103009565D01*
X158742417Y-103014442D01*
X158743634Y-103032033D01*
X158727270Y-103312981D01*
X158725934Y-103324415D01*
X158676560Y-103604436D01*
X158672497Y-103627476D01*
X158669844Y-103638671D01*
X158622334Y-103797365D01*
X158581578Y-103933497D01*
X158577640Y-103944315D01*
X158455754Y-104226878D01*
X158450588Y-104237166D01*
X158296713Y-104503686D01*
X158290386Y-104513305D01*
X158106618Y-104760148D01*
X158099218Y-104768967D01*
X157888031Y-104992812D01*
X157879657Y-105000712D01*
X157643915Y-105198523D01*
X157634683Y-105205397D01*
X157377564Y-105374507D01*
X157367604Y-105380257D01*
X157092585Y-105518377D01*
X157082026Y-105522932D01*
X156966011Y-105565157D01*
X156792829Y-105628190D01*
X156781800Y-105631491D01*
X156585668Y-105677976D01*
X156482364Y-105702460D01*
X156471035Y-105704458D01*
X156165361Y-105740186D01*
X156153868Y-105740855D01*
X155846132Y-105740855D01*
X155834639Y-105740186D01*
X155528965Y-105704458D01*
X155517636Y-105702460D01*
X155414332Y-105677976D01*
X155218200Y-105631491D01*
X155207171Y-105628190D01*
X155033989Y-105565157D01*
X154917974Y-105522932D01*
X154907415Y-105518377D01*
X154632396Y-105380257D01*
X154622436Y-105374507D01*
X154365317Y-105205397D01*
X154356085Y-105198523D01*
X154120343Y-105000712D01*
X154111969Y-104992812D01*
X153900782Y-104768967D01*
X153893382Y-104760148D01*
X153709614Y-104513305D01*
X153703287Y-104503686D01*
X153549412Y-104237166D01*
X153544246Y-104226878D01*
X153422360Y-103944315D01*
X153418422Y-103933497D01*
X153377666Y-103797365D01*
X153330156Y-103638671D01*
X153327503Y-103627476D01*
X153323441Y-103604436D01*
X153274066Y-103324415D01*
X153272730Y-103312981D01*
X153256366Y-103032033D01*
X153257583Y-103014442D01*
X153257583Y-103009565D01*
X153259486Y-103000000D01*
X153246749Y-102935964D01*
X154642112Y-102935964D01*
X154642269Y-102940149D01*
X154642269Y-102940152D01*
X154644464Y-102998599D01*
X154644060Y-102998614D01*
X154644303Y-102999983D01*
X154644339Y-102999980D01*
X154644341Y-103000000D01*
X154644648Y-103003507D01*
X154644718Y-103005374D01*
X154644718Y-103005619D01*
X154644741Y-103005972D01*
X154650736Y-103165669D01*
X154651596Y-103169769D01*
X154651597Y-103169775D01*
X154664628Y-103231879D01*
X154664165Y-103231976D01*
X154664790Y-103233724D01*
X154664937Y-103235408D01*
X154666054Y-103239576D01*
X154666054Y-103239577D01*
X154666225Y-103240216D01*
X154667486Y-103245501D01*
X154676353Y-103287761D01*
X154697939Y-103390637D01*
X154720721Y-103448326D01*
X154722699Y-103453335D01*
X154723646Y-103455831D01*
X154724980Y-103459494D01*
X154726097Y-103463663D01*
X154727922Y-103467576D01*
X154727924Y-103467582D01*
X154729287Y-103470505D01*
X154731642Y-103475979D01*
X154758740Y-103544595D01*
X154782372Y-103604436D01*
X154784542Y-103608012D01*
X154784544Y-103608016D01*
X154820030Y-103666494D01*
X154822213Y-103670579D01*
X154824142Y-103673919D01*
X154825965Y-103677829D01*
X154828442Y-103681367D01*
X154828443Y-103681368D01*
X154831184Y-103685283D01*
X154834724Y-103690709D01*
X154850279Y-103716342D01*
X154901621Y-103800952D01*
X154904371Y-103804121D01*
X154952913Y-103860060D01*
X154958676Y-103867442D01*
X154959022Y-103867854D01*
X154961505Y-103871401D01*
X154968476Y-103878372D01*
X154973244Y-103883490D01*
X155052276Y-103974566D01*
X155055519Y-103977225D01*
X155055521Y-103977227D01*
X155117331Y-104027908D01*
X155124563Y-104034459D01*
X155128599Y-104038495D01*
X155132135Y-104040971D01*
X155136772Y-104044218D01*
X155142759Y-104048758D01*
X155230029Y-104120315D01*
X155308466Y-104164963D01*
X155316271Y-104169903D01*
X155322171Y-104174035D01*
X155326086Y-104175860D01*
X155326090Y-104175863D01*
X155330869Y-104178091D01*
X155338003Y-104181778D01*
X155429798Y-104234030D01*
X155520610Y-104266994D01*
X155528666Y-104270327D01*
X155532411Y-104272073D01*
X155532417Y-104272075D01*
X155536337Y-104273903D01*
X155540512Y-104275022D01*
X155540516Y-104275023D01*
X155544842Y-104276182D01*
X155552996Y-104278749D01*
X155641925Y-104311029D01*
X155641929Y-104311030D01*
X155645871Y-104312461D01*
X155747541Y-104330846D01*
X155755531Y-104332635D01*
X155764592Y-104335063D01*
X155772235Y-104335732D01*
X155781194Y-104336931D01*
X155872069Y-104353364D01*
X155891041Y-104354259D01*
X155895011Y-104354446D01*
X155895015Y-104354446D01*
X155896158Y-104354500D01*
X156057712Y-104354500D01*
X156059795Y-104354323D01*
X156059801Y-104354323D01*
X156224873Y-104340316D01*
X156224874Y-104340316D01*
X156229044Y-104339962D01*
X156233094Y-104338911D01*
X156233099Y-104338910D01*
X156447483Y-104283267D01*
X156447486Y-104283266D01*
X156451539Y-104282214D01*
X156467503Y-104275023D01*
X156500359Y-104260222D01*
X156661123Y-104187803D01*
X156851803Y-104059430D01*
X156871153Y-104040971D01*
X157015094Y-103903659D01*
X157015098Y-103903654D01*
X157018128Y-103900764D01*
X157030980Y-103883491D01*
X157080277Y-103817233D01*
X157155342Y-103716342D01*
X157174923Y-103677829D01*
X157257623Y-103515170D01*
X157257625Y-103515166D01*
X157259520Y-103511438D01*
X157327685Y-103291911D01*
X157343873Y-103169775D01*
X157357338Y-103068188D01*
X157357338Y-103068184D01*
X157357888Y-103064036D01*
X157356212Y-103019389D01*
X157355536Y-103001401D01*
X157355940Y-103001386D01*
X157355697Y-103000017D01*
X157355661Y-103000020D01*
X157355625Y-102999615D01*
X157355352Y-102996493D01*
X157355282Y-102994626D01*
X157355282Y-102994381D01*
X157355259Y-102994021D01*
X157349264Y-102834331D01*
X157348404Y-102830231D01*
X157348403Y-102830225D01*
X157335372Y-102768121D01*
X157335835Y-102768024D01*
X157335210Y-102766276D01*
X157335063Y-102764592D01*
X157333775Y-102759784D01*
X157332514Y-102754499D01*
X157302923Y-102613471D01*
X157302923Y-102613470D01*
X157302061Y-102609363D01*
X157277301Y-102546665D01*
X157276354Y-102544169D01*
X157275020Y-102540506D01*
X157273903Y-102536337D01*
X157272078Y-102532424D01*
X157272076Y-102532418D01*
X157270713Y-102529495D01*
X157268358Y-102524021D01*
X157219165Y-102399457D01*
X157217628Y-102395564D01*
X157211680Y-102385761D01*
X157179970Y-102333506D01*
X157177787Y-102329421D01*
X157175858Y-102326081D01*
X157174035Y-102322171D01*
X157171557Y-102318632D01*
X157168816Y-102314717D01*
X157165276Y-102309291D01*
X157100556Y-102202635D01*
X157100554Y-102202632D01*
X157098379Y-102199048D01*
X157047087Y-102139940D01*
X157041324Y-102132558D01*
X157040978Y-102132146D01*
X157038495Y-102128599D01*
X157031524Y-102121628D01*
X157026755Y-102116509D01*
X156950473Y-102028602D01*
X156947724Y-102025434D01*
X156882669Y-101972092D01*
X156875437Y-101965541D01*
X156871401Y-101961505D01*
X156863228Y-101955782D01*
X156857241Y-101951242D01*
X156773216Y-101882346D01*
X156769971Y-101879685D01*
X156691534Y-101835037D01*
X156683725Y-101830094D01*
X156677829Y-101825965D01*
X156673914Y-101824140D01*
X156673910Y-101824137D01*
X156669131Y-101821909D01*
X156661996Y-101818222D01*
X156573849Y-101768046D01*
X156570202Y-101765970D01*
X156479390Y-101733006D01*
X156471334Y-101729673D01*
X156467589Y-101727927D01*
X156467583Y-101727925D01*
X156463663Y-101726097D01*
X156459488Y-101724978D01*
X156459484Y-101724977D01*
X156455158Y-101723818D01*
X156447004Y-101721251D01*
X156358075Y-101688971D01*
X156358071Y-101688970D01*
X156354129Y-101687539D01*
X156252459Y-101669154D01*
X156244469Y-101667365D01*
X156235408Y-101664937D01*
X156227765Y-101664268D01*
X156218806Y-101663069D01*
X156127931Y-101646636D01*
X156108959Y-101645741D01*
X156104989Y-101645554D01*
X156104985Y-101645554D01*
X156103842Y-101645500D01*
X155942288Y-101645500D01*
X155940205Y-101645677D01*
X155940199Y-101645677D01*
X155775127Y-101659684D01*
X155775126Y-101659684D01*
X155770956Y-101660038D01*
X155766906Y-101661089D01*
X155766901Y-101661090D01*
X155552517Y-101716733D01*
X155552514Y-101716734D01*
X155548461Y-101717786D01*
X155544639Y-101719507D01*
X155544638Y-101719508D01*
X155499641Y-101739778D01*
X155338877Y-101812197D01*
X155148197Y-101940570D01*
X155145156Y-101943471D01*
X154984906Y-102096341D01*
X154984902Y-102096346D01*
X154981872Y-102099236D01*
X154979370Y-102102599D01*
X154979369Y-102102600D01*
X154967051Y-102119156D01*
X154844658Y-102283658D01*
X154842756Y-102287399D01*
X154757728Y-102454638D01*
X154740480Y-102488562D01*
X154672315Y-102708089D01*
X154671765Y-102712239D01*
X154655583Y-102834331D01*
X154642112Y-102935964D01*
X153246749Y-102935964D01*
X153239734Y-102900699D01*
X153183484Y-102816516D01*
X153099301Y-102760266D01*
X153089738Y-102758364D01*
X153089736Y-102758363D01*
X153009562Y-102742416D01*
X153000000Y-102740514D01*
X152990438Y-102742416D01*
X152984495Y-102743598D01*
X152965182Y-102745500D01*
X150034818Y-102745500D01*
X150015505Y-102743598D01*
X150009564Y-102742416D01*
X150009562Y-102742416D01*
X150000000Y-102740514D01*
X149990436Y-102742417D01*
X149980686Y-102742417D01*
X149980686Y-102742287D01*
X149968391Y-102743013D01*
X149882082Y-102736220D01*
X149812929Y-102730777D01*
X149797586Y-102728347D01*
X149622694Y-102686359D01*
X149607920Y-102681558D01*
X149441751Y-102612729D01*
X149427915Y-102605680D01*
X149274551Y-102511699D01*
X149261992Y-102502574D01*
X149256155Y-102497589D01*
X149125221Y-102385759D01*
X149114239Y-102374777D01*
X149075042Y-102328883D01*
X148997426Y-102238007D01*
X148988301Y-102225449D01*
X148912310Y-102101443D01*
X149500001Y-102101443D01*
X149500220Y-102106086D01*
X149502411Y-102129269D01*
X149504976Y-102140965D01*
X149545362Y-102255966D01*
X149552209Y-102268899D01*
X149623808Y-102365835D01*
X149634165Y-102376192D01*
X149731101Y-102447791D01*
X149744034Y-102454638D01*
X149859031Y-102495022D01*
X149870734Y-102497590D01*
X149893918Y-102499782D01*
X149898554Y-102500000D01*
X150230320Y-102500000D01*
X150243005Y-102495878D01*
X150246000Y-102491757D01*
X150246000Y-102484319D01*
X150754000Y-102484319D01*
X150758122Y-102497004D01*
X150762243Y-102499999D01*
X151101443Y-102499999D01*
X151106086Y-102499780D01*
X151129269Y-102497589D01*
X151140965Y-102495024D01*
X151255966Y-102454638D01*
X151268899Y-102447791D01*
X151365835Y-102376192D01*
X151376192Y-102365835D01*
X151447791Y-102268899D01*
X151454638Y-102255966D01*
X151495022Y-102140969D01*
X151497590Y-102129266D01*
X151499782Y-102106082D01*
X151500000Y-102101446D01*
X151500000Y-101769680D01*
X151495878Y-101756995D01*
X151491757Y-101754000D01*
X150769680Y-101754000D01*
X150756995Y-101758122D01*
X150754000Y-101762243D01*
X150754000Y-102484319D01*
X150246000Y-102484319D01*
X150246000Y-101769680D01*
X150241878Y-101756995D01*
X150237757Y-101754000D01*
X149515681Y-101754000D01*
X149502996Y-101758122D01*
X149500001Y-101762243D01*
X149500001Y-102101443D01*
X148912310Y-102101443D01*
X148894320Y-102072085D01*
X148887271Y-102058249D01*
X148818442Y-101892080D01*
X148813641Y-101877306D01*
X148771653Y-101702414D01*
X148769223Y-101687071D01*
X148756987Y-101531612D01*
X148757713Y-101519314D01*
X148757583Y-101519314D01*
X148757583Y-101509564D01*
X148759486Y-101500000D01*
X148756402Y-101484495D01*
X148754500Y-101465182D01*
X148754500Y-101230320D01*
X149500000Y-101230320D01*
X149504122Y-101243005D01*
X149508243Y-101246000D01*
X150230320Y-101246000D01*
X150243005Y-101241878D01*
X150246000Y-101237757D01*
X150246000Y-101230320D01*
X150754000Y-101230320D01*
X150758122Y-101243005D01*
X150762243Y-101246000D01*
X151484319Y-101246000D01*
X151497004Y-101241878D01*
X151499999Y-101237757D01*
X151499999Y-100898557D01*
X151499780Y-100893914D01*
X151497589Y-100870731D01*
X151495024Y-100859035D01*
X151454638Y-100744034D01*
X151447791Y-100731101D01*
X151376192Y-100634165D01*
X151365835Y-100623808D01*
X151268899Y-100552209D01*
X151255966Y-100545362D01*
X151140969Y-100504978D01*
X151129266Y-100502410D01*
X151106082Y-100500218D01*
X151101446Y-100500000D01*
X150769680Y-100500000D01*
X150756995Y-100504122D01*
X150754000Y-100508243D01*
X150754000Y-101230320D01*
X150246000Y-101230320D01*
X150246000Y-100515681D01*
X150241878Y-100502996D01*
X150237757Y-100500001D01*
X149898557Y-100500001D01*
X149893914Y-100500220D01*
X149870731Y-100502411D01*
X149859035Y-100504976D01*
X149744034Y-100545362D01*
X149731101Y-100552209D01*
X149634165Y-100623808D01*
X149623808Y-100634165D01*
X149552209Y-100731101D01*
X149545362Y-100744034D01*
X149504978Y-100859031D01*
X149502410Y-100870734D01*
X149500218Y-100893918D01*
X149500000Y-100898554D01*
X149500000Y-101230320D01*
X148754500Y-101230320D01*
X148754500Y-97885206D01*
X149440501Y-97885206D01*
X149457806Y-98091278D01*
X149459139Y-98095926D01*
X149459139Y-98095927D01*
X149504609Y-98254500D01*
X149514807Y-98290066D01*
X149517022Y-98294376D01*
X149548239Y-98355117D01*
X149609334Y-98473995D01*
X149737786Y-98636061D01*
X149741466Y-98639193D01*
X149741468Y-98639195D01*
X149785668Y-98676812D01*
X149895271Y-98770091D01*
X150075789Y-98870980D01*
X150080387Y-98872474D01*
X150267861Y-98933388D01*
X150267863Y-98933389D01*
X150272466Y-98934884D01*
X150477809Y-98959370D01*
X150482631Y-98958999D01*
X150482633Y-98958999D01*
X150679170Y-98943876D01*
X150679175Y-98943875D01*
X150683998Y-98943504D01*
X150883178Y-98887892D01*
X150887491Y-98885713D01*
X150887497Y-98885711D01*
X151063442Y-98796835D01*
X151063444Y-98796833D01*
X151067763Y-98794652D01*
X151230722Y-98667334D01*
X151365848Y-98510789D01*
X151450412Y-98361930D01*
X151465606Y-98335185D01*
X151465607Y-98335182D01*
X151467995Y-98330979D01*
X151470897Y-98322255D01*
X151507203Y-98273006D01*
X151564837Y-98254500D01*
X152051620Y-98254500D01*
X152072448Y-98256716D01*
X152083070Y-98259003D01*
X152115319Y-98255186D01*
X152121429Y-98254826D01*
X152125373Y-98254500D01*
X152129451Y-98254500D01*
X152133474Y-98253830D01*
X152133478Y-98253830D01*
X152140266Y-98252700D01*
X152147672Y-98251467D01*
X152152270Y-98250812D01*
X152170109Y-98248701D01*
X152192144Y-98246093D01*
X152192145Y-98246093D01*
X152200270Y-98245131D01*
X152207232Y-98241788D01*
X152208793Y-98241294D01*
X152216417Y-98240025D01*
X152223615Y-98236141D01*
X152223621Y-98236139D01*
X152258960Y-98217070D01*
X152263066Y-98214977D01*
X152306658Y-98194045D01*
X152310650Y-98190689D01*
X152312153Y-98189186D01*
X152313384Y-98188057D01*
X152314544Y-98187078D01*
X152320280Y-98183983D01*
X152354712Y-98146735D01*
X152357405Y-98143934D01*
X152974746Y-97526593D01*
X153006949Y-97494390D01*
X153762856Y-97494390D01*
X153793531Y-97560174D01*
X153803315Y-97574147D01*
X153875853Y-97646685D01*
X153889826Y-97656469D01*
X153983776Y-97700278D01*
X153986388Y-97701040D01*
X153993569Y-97699708D01*
X153994805Y-97698406D01*
X153996000Y-97693126D01*
X153996000Y-97688506D01*
X154504000Y-97688506D01*
X154508122Y-97701191D01*
X154509545Y-97702225D01*
X154516224Y-97700278D01*
X154610174Y-97656469D01*
X154624147Y-97646685D01*
X154696685Y-97574147D01*
X154706469Y-97560174D01*
X154735362Y-97498212D01*
X154736750Y-97486904D01*
X154730523Y-97484000D01*
X154519680Y-97484000D01*
X154506995Y-97488122D01*
X154504000Y-97492243D01*
X154504000Y-97688506D01*
X153996000Y-97688506D01*
X153996000Y-97499680D01*
X153991878Y-97486995D01*
X153987757Y-97484000D01*
X153773691Y-97484000D01*
X153762856Y-97487521D01*
X153762856Y-97494390D01*
X153006949Y-97494390D01*
X153592838Y-96908500D01*
X153647355Y-96880723D01*
X153707787Y-96890294D01*
X153751052Y-96933559D01*
X153756195Y-96962729D01*
X153761486Y-96972274D01*
X153769477Y-96976000D01*
X154726309Y-96976000D01*
X154737144Y-96972479D01*
X154737144Y-96965610D01*
X154706469Y-96899826D01*
X154696685Y-96885853D01*
X154669373Y-96858541D01*
X154641596Y-96804024D01*
X154651167Y-96743592D01*
X154669373Y-96718533D01*
X154734410Y-96653496D01*
X154788927Y-96625719D01*
X154804414Y-96624500D01*
X157151431Y-96624500D01*
X157172259Y-96626716D01*
X157182881Y-96629003D01*
X157215130Y-96625186D01*
X157221240Y-96624826D01*
X157225184Y-96624500D01*
X157229262Y-96624500D01*
X157233285Y-96623830D01*
X157233289Y-96623830D01*
X157240077Y-96622700D01*
X157247483Y-96621467D01*
X157252091Y-96620811D01*
X157284929Y-96616925D01*
X157344938Y-96628863D01*
X157386470Y-96673793D01*
X157395563Y-96715239D01*
X157395563Y-96737090D01*
X157376656Y-96795281D01*
X157366567Y-96807093D01*
X156932158Y-97241503D01*
X156877641Y-97269281D01*
X156862154Y-97270500D01*
X156446615Y-97270501D01*
X156420686Y-97270501D01*
X156418369Y-97270720D01*
X156418368Y-97270720D01*
X156394883Y-97272939D01*
X156394882Y-97272939D01*
X156388873Y-97273507D01*
X156286093Y-97309601D01*
X156274635Y-97313625D01*
X156259924Y-97318791D01*
X156253973Y-97323186D01*
X156253970Y-97323188D01*
X156155947Y-97395590D01*
X156149990Y-97399990D01*
X156145590Y-97405947D01*
X156073188Y-97503970D01*
X156073186Y-97503973D01*
X156068791Y-97509924D01*
X156066339Y-97516906D01*
X156025507Y-97633179D01*
X156023507Y-97638873D01*
X156022940Y-97644875D01*
X156022939Y-97644878D01*
X156021931Y-97655547D01*
X156020500Y-97670685D01*
X156020501Y-98329314D01*
X156023507Y-98361127D01*
X156068791Y-98490076D01*
X156073186Y-98496027D01*
X156073188Y-98496030D01*
X156145590Y-98594053D01*
X156149990Y-98600010D01*
X156155947Y-98604410D01*
X156253970Y-98676812D01*
X156253973Y-98676814D01*
X156259924Y-98681209D01*
X156266906Y-98683661D01*
X156383183Y-98724495D01*
X156383185Y-98724495D01*
X156388873Y-98726493D01*
X156394875Y-98727060D01*
X156394878Y-98727061D01*
X156405547Y-98728069D01*
X156420685Y-98729500D01*
X156566500Y-98729500D01*
X156624691Y-98748407D01*
X156660655Y-98797907D01*
X156665500Y-98828500D01*
X156665500Y-98945586D01*
X156646593Y-99003777D01*
X156636504Y-99015590D01*
X156556865Y-99095229D01*
X156553330Y-99102166D01*
X156553329Y-99102168D01*
X156503668Y-99199633D01*
X156500132Y-99206573D01*
X156498913Y-99214267D01*
X156498913Y-99214268D01*
X156493887Y-99246000D01*
X156485500Y-99298955D01*
X156485501Y-99701044D01*
X156486110Y-99704887D01*
X156486110Y-99704892D01*
X156495824Y-99766224D01*
X156500132Y-99793427D01*
X156503668Y-99800366D01*
X156534142Y-99860174D01*
X156556865Y-99904771D01*
X156645229Y-99993135D01*
X156652166Y-99996670D01*
X156652168Y-99996671D01*
X156749633Y-100046332D01*
X156756573Y-100049868D01*
X156764267Y-100051087D01*
X156764268Y-100051087D01*
X156845109Y-100063891D01*
X156845111Y-100063891D01*
X156848955Y-100064500D01*
X157019978Y-100064500D01*
X157191044Y-100064499D01*
X157194887Y-100063890D01*
X157194892Y-100063890D01*
X157275733Y-100051087D01*
X157275736Y-100051086D01*
X157283427Y-100049868D01*
X157339099Y-100021502D01*
X157387832Y-99996671D01*
X157387834Y-99996670D01*
X157394771Y-99993135D01*
X157468533Y-99919373D01*
X157523050Y-99891596D01*
X157583482Y-99901167D01*
X157608541Y-99919373D01*
X157635853Y-99946685D01*
X157649826Y-99956469D01*
X157711788Y-99985362D01*
X157723096Y-99986750D01*
X157726000Y-99980523D01*
X157726000Y-99976309D01*
X158234000Y-99976309D01*
X158237521Y-99987144D01*
X158244390Y-99987144D01*
X158310174Y-99956469D01*
X158324147Y-99946685D01*
X158396685Y-99874147D01*
X158406469Y-99860174D01*
X158450278Y-99766224D01*
X158451040Y-99763612D01*
X158449708Y-99756431D01*
X158448406Y-99755195D01*
X158443126Y-99754000D01*
X158249680Y-99754000D01*
X158236995Y-99758122D01*
X158234000Y-99762243D01*
X158234000Y-99976309D01*
X157726000Y-99976309D01*
X157726000Y-99230320D01*
X158234000Y-99230320D01*
X158238122Y-99243005D01*
X158242243Y-99246000D01*
X158438506Y-99246000D01*
X158451191Y-99241878D01*
X158452225Y-99240455D01*
X158450278Y-99233776D01*
X158406469Y-99139826D01*
X158396685Y-99125853D01*
X158324147Y-99053315D01*
X158310174Y-99043531D01*
X158248212Y-99014638D01*
X158236904Y-99013250D01*
X158234000Y-99019477D01*
X158234000Y-99230320D01*
X157726000Y-99230320D01*
X157726000Y-99023691D01*
X157722479Y-99012856D01*
X157715610Y-99012856D01*
X157649826Y-99043531D01*
X157635853Y-99053315D01*
X157608541Y-99080627D01*
X157554024Y-99108404D01*
X157493592Y-99098833D01*
X157468533Y-99080627D01*
X157403496Y-99015590D01*
X157375719Y-98961073D01*
X157374500Y-98945586D01*
X157374500Y-98393380D01*
X157376716Y-98372552D01*
X157379003Y-98361930D01*
X157375186Y-98329681D01*
X157374826Y-98323571D01*
X157374500Y-98319627D01*
X157374500Y-98315549D01*
X157371467Y-98297328D01*
X157370811Y-98292722D01*
X157369946Y-98285408D01*
X157366820Y-98259003D01*
X157366093Y-98252856D01*
X157366093Y-98252855D01*
X157365131Y-98244730D01*
X157361788Y-98237768D01*
X157361294Y-98236206D01*
X157360025Y-98228583D01*
X157341374Y-98194017D01*
X157329500Y-98147006D01*
X157329499Y-97887848D01*
X157348406Y-97829658D01*
X157358495Y-97817844D01*
X157501496Y-97674843D01*
X157556013Y-97647066D01*
X157616445Y-97656637D01*
X157659710Y-97699902D01*
X157670500Y-97744847D01*
X157670501Y-98329314D01*
X157673507Y-98361127D01*
X157718791Y-98490076D01*
X157723186Y-98496027D01*
X157723188Y-98496030D01*
X157795590Y-98594053D01*
X157799990Y-98600010D01*
X157805947Y-98604410D01*
X157903970Y-98676812D01*
X157903973Y-98676814D01*
X157909924Y-98681209D01*
X157916906Y-98683661D01*
X158033183Y-98724495D01*
X158033185Y-98724495D01*
X158038873Y-98726493D01*
X158044875Y-98727060D01*
X158044878Y-98727061D01*
X158055547Y-98728069D01*
X158070685Y-98729500D01*
X158324836Y-98729500D01*
X158579314Y-98729499D01*
X158581632Y-98729280D01*
X158605117Y-98727061D01*
X158605118Y-98727061D01*
X158611127Y-98726493D01*
X158740076Y-98681209D01*
X158746027Y-98676814D01*
X158746030Y-98676812D01*
X158844053Y-98604410D01*
X158850010Y-98600010D01*
X158854410Y-98594053D01*
X158926812Y-98496030D01*
X158926814Y-98496027D01*
X158931209Y-98490076D01*
X158938370Y-98469685D01*
X158974495Y-98366817D01*
X158974495Y-98366815D01*
X158976493Y-98361127D01*
X158979500Y-98329315D01*
X158979499Y-97670686D01*
X158976493Y-97638873D01*
X158931209Y-97509924D01*
X158926814Y-97503973D01*
X158926812Y-97503970D01*
X158854410Y-97405947D01*
X158850010Y-97399990D01*
X158844053Y-97395590D01*
X158746030Y-97323188D01*
X158746027Y-97323186D01*
X158740076Y-97318791D01*
X158725366Y-97313625D01*
X158670886Y-97294493D01*
X158622247Y-97257372D01*
X158604689Y-97201085D01*
X158604689Y-96012410D01*
X158606591Y-95993096D01*
X158609333Y-95979311D01*
X158618989Y-95930767D01*
X158618988Y-95298000D01*
X158637895Y-95239809D01*
X158687395Y-95203845D01*
X158717988Y-95199000D01*
X159356653Y-95199000D01*
X159414844Y-95217907D01*
X159426657Y-95227996D01*
X160116504Y-95917843D01*
X160144281Y-95972360D01*
X160145500Y-95987847D01*
X160145500Y-97097756D01*
X160152202Y-97159448D01*
X160202929Y-97294764D01*
X160289596Y-97410404D01*
X160405236Y-97497071D01*
X160411838Y-97499546D01*
X160422428Y-97503516D01*
X160540552Y-97547798D01*
X160602244Y-97554500D01*
X161797756Y-97554500D01*
X161859448Y-97547798D01*
X161977572Y-97503516D01*
X161988162Y-97499546D01*
X161994764Y-97497071D01*
X162110404Y-97410404D01*
X162197071Y-97294764D01*
X162247798Y-97159448D01*
X162254500Y-97097756D01*
X162254500Y-95902244D01*
X162247798Y-95840552D01*
X162197071Y-95705236D01*
X162110404Y-95589596D01*
X161994764Y-95502929D01*
X161859448Y-95452202D01*
X161797756Y-95445500D01*
X160687847Y-95445500D01*
X160629656Y-95426593D01*
X160617843Y-95416504D01*
X159829380Y-94628042D01*
X159816215Y-94611740D01*
X159814764Y-94609493D01*
X159810325Y-94602618D01*
X159794917Y-94590471D01*
X159784823Y-94582514D01*
X159780230Y-94578433D01*
X159777226Y-94575888D01*
X159774344Y-94573006D01*
X159770298Y-94570115D01*
X159759333Y-94562278D01*
X159755606Y-94559480D01*
X159724073Y-94534622D01*
X159724069Y-94534620D01*
X159717643Y-94529554D01*
X159710354Y-94526995D01*
X159708903Y-94526241D01*
X159702615Y-94521747D01*
X159656302Y-94507897D01*
X159651863Y-94506454D01*
X159622095Y-94496000D01*
X159606292Y-94490450D01*
X159601096Y-94490000D01*
X159598953Y-94490000D01*
X159597328Y-94489930D01*
X159595791Y-94489800D01*
X159589545Y-94487932D01*
X159581370Y-94488253D01*
X159581368Y-94488253D01*
X159538841Y-94489924D01*
X159534955Y-94490000D01*
X158652340Y-94490000D01*
X158594149Y-94471093D01*
X158558185Y-94421593D01*
X158555242Y-94371686D01*
X158563541Y-94329962D01*
X158564489Y-94320340D01*
X158564489Y-94079880D01*
X158560367Y-94067195D01*
X158556246Y-94064200D01*
X158234889Y-94064200D01*
X158176698Y-94045293D01*
X158140734Y-93995793D01*
X158135889Y-93965200D01*
X158135889Y-93819920D01*
X158364489Y-93819920D01*
X158368611Y-93832605D01*
X158372732Y-93835600D01*
X158548809Y-93835600D01*
X158561494Y-93831478D01*
X158564489Y-93827357D01*
X158564489Y-93763348D01*
X160701134Y-93763348D01*
X160708363Y-93770860D01*
X160793488Y-93818435D01*
X160802316Y-93822292D01*
X160979627Y-93879904D01*
X160989027Y-93881971D01*
X161174155Y-93904046D01*
X161183781Y-93904248D01*
X161369659Y-93889945D01*
X161379153Y-93888271D01*
X161558713Y-93838136D01*
X161567693Y-93834654D01*
X161691726Y-93772000D01*
X161699765Y-93764017D01*
X161694573Y-93753783D01*
X161211086Y-93270296D01*
X161199203Y-93264242D01*
X161194172Y-93265038D01*
X160706611Y-93752599D01*
X160701134Y-93763348D01*
X158564489Y-93763348D01*
X158564489Y-93579460D01*
X158563541Y-93569838D01*
X158554787Y-93525826D01*
X158547468Y-93508158D01*
X158514100Y-93458218D01*
X158500571Y-93444689D01*
X158450631Y-93411321D01*
X158432963Y-93404002D01*
X158388951Y-93395248D01*
X158379974Y-93394364D01*
X158367484Y-93398422D01*
X158364489Y-93402543D01*
X158364489Y-93819920D01*
X158135889Y-93819920D01*
X158135889Y-93409980D01*
X158131767Y-93397295D01*
X158127646Y-93394300D01*
X158121049Y-93394300D01*
X158111420Y-93395248D01*
X158084698Y-93400564D01*
X158023937Y-93393374D01*
X158010381Y-93385782D01*
X157963664Y-93354566D01*
X157954101Y-93352664D01*
X157954099Y-93352663D01*
X157923182Y-93346514D01*
X157889430Y-93339800D01*
X157875439Y-93339800D01*
X157702621Y-93339801D01*
X157644431Y-93320894D01*
X157608467Y-93271394D01*
X157604437Y-93251348D01*
X157604437Y-93250675D01*
X157601404Y-93232454D01*
X157600748Y-93227848D01*
X157596030Y-93187982D01*
X157596030Y-93187981D01*
X157595068Y-93179856D01*
X157591725Y-93172894D01*
X157591231Y-93171333D01*
X157589962Y-93163709D01*
X157586078Y-93156511D01*
X157586076Y-93156505D01*
X157567007Y-93121166D01*
X157564914Y-93117060D01*
X157543982Y-93073468D01*
X157540626Y-93069476D01*
X157539123Y-93067973D01*
X157537993Y-93066741D01*
X157537015Y-93065583D01*
X157533920Y-93059846D01*
X157496668Y-93025410D01*
X157493868Y-93022718D01*
X157464695Y-92993546D01*
X157451527Y-92977241D01*
X157450077Y-92974995D01*
X157450075Y-92974992D01*
X157445636Y-92968118D01*
X157420134Y-92948014D01*
X157415541Y-92943933D01*
X157412537Y-92941388D01*
X157409655Y-92938506D01*
X157405609Y-92935615D01*
X157394644Y-92927778D01*
X157390917Y-92924980D01*
X157359384Y-92900122D01*
X157359380Y-92900120D01*
X157352954Y-92895054D01*
X157345665Y-92892495D01*
X157344214Y-92891741D01*
X157342883Y-92890790D01*
X160195664Y-92890790D01*
X160211264Y-93076574D01*
X160213002Y-93086042D01*
X160264388Y-93265248D01*
X160267939Y-93274216D01*
X160328202Y-93391476D01*
X160336330Y-93399547D01*
X160346393Y-93394397D01*
X160829704Y-92911086D01*
X160834946Y-92900797D01*
X161564242Y-92900797D01*
X161565038Y-92905828D01*
X162052520Y-93393310D01*
X162063375Y-93398841D01*
X162070783Y-93391762D01*
X162115577Y-93312911D01*
X162119493Y-93304116D01*
X162178341Y-93127212D01*
X162180475Y-93117818D01*
X162204099Y-92930810D01*
X162204486Y-92925283D01*
X162204800Y-92902759D01*
X162204570Y-92897261D01*
X162186174Y-92709636D01*
X162184305Y-92700198D01*
X162130418Y-92521718D01*
X162126748Y-92512814D01*
X162071503Y-92408912D01*
X162063086Y-92400784D01*
X162053368Y-92405842D01*
X161570296Y-92888914D01*
X161564242Y-92900797D01*
X160834946Y-92900797D01*
X160835758Y-92899203D01*
X160834962Y-92894172D01*
X160347285Y-92406495D01*
X160336643Y-92401073D01*
X160329029Y-92408452D01*
X160278752Y-92499905D01*
X160274952Y-92508769D01*
X160218583Y-92686467D01*
X160216579Y-92695895D01*
X160195798Y-92881162D01*
X160195664Y-92890790D01*
X157342883Y-92890790D01*
X157337926Y-92887247D01*
X157291613Y-92873397D01*
X157287174Y-92871954D01*
X157275226Y-92867758D01*
X157241603Y-92855950D01*
X157236407Y-92855500D01*
X157234264Y-92855500D01*
X157232639Y-92855430D01*
X157231102Y-92855300D01*
X157224856Y-92853432D01*
X157216681Y-92853753D01*
X157216679Y-92853753D01*
X157174152Y-92855424D01*
X157170266Y-92855500D01*
X154804414Y-92855500D01*
X154746223Y-92836593D01*
X154734410Y-92826504D01*
X154669373Y-92761467D01*
X154641596Y-92706950D01*
X154651167Y-92646518D01*
X154669373Y-92621459D01*
X154696685Y-92594147D01*
X154706469Y-92580174D01*
X154735362Y-92518212D01*
X154736750Y-92506904D01*
X154730523Y-92504000D01*
X153773691Y-92504000D01*
X153762856Y-92507521D01*
X153762856Y-92514390D01*
X153793531Y-92580174D01*
X153803315Y-92594147D01*
X153830627Y-92621459D01*
X153858404Y-92675976D01*
X153848833Y-92736408D01*
X153830627Y-92761467D01*
X153765590Y-92826504D01*
X153711073Y-92854281D01*
X153695586Y-92855500D01*
X152838380Y-92855500D01*
X152817552Y-92853284D01*
X152806930Y-92850997D01*
X152774682Y-92854814D01*
X152768571Y-92855174D01*
X152764627Y-92855500D01*
X152760549Y-92855500D01*
X152756526Y-92856170D01*
X152756522Y-92856170D01*
X152749734Y-92857300D01*
X152742328Y-92858533D01*
X152737730Y-92859188D01*
X152719891Y-92861299D01*
X152697856Y-92863907D01*
X152697855Y-92863907D01*
X152689730Y-92864869D01*
X152682768Y-92868212D01*
X152681206Y-92868706D01*
X152673583Y-92869975D01*
X152631028Y-92892937D01*
X152626902Y-92895038D01*
X152583343Y-92915955D01*
X152579350Y-92919311D01*
X152577840Y-92920821D01*
X152576615Y-92921944D01*
X152575456Y-92922922D01*
X152569720Y-92926017D01*
X152564168Y-92932023D01*
X152535289Y-92963264D01*
X152532595Y-92966066D01*
X152053973Y-93444689D01*
X151616882Y-93881780D01*
X151562365Y-93909557D01*
X151501933Y-93899986D01*
X151459466Y-93858254D01*
X151384838Y-93717899D01*
X151384836Y-93717895D01*
X151382565Y-93713625D01*
X151369540Y-93697654D01*
X151254924Y-93557121D01*
X151254923Y-93557120D01*
X151251863Y-93553368D01*
X151136846Y-93458218D01*
X151096249Y-93424633D01*
X151096247Y-93424632D01*
X151092522Y-93421550D01*
X150965118Y-93352663D01*
X150914866Y-93325492D01*
X150914865Y-93325492D01*
X150910612Y-93323192D01*
X150826181Y-93297056D01*
X150717684Y-93263470D01*
X150717680Y-93263469D01*
X150713063Y-93262040D01*
X150708256Y-93261535D01*
X150708252Y-93261534D01*
X150512213Y-93240930D01*
X150512211Y-93240930D01*
X150507397Y-93240424D01*
X150446925Y-93245927D01*
X150306269Y-93258727D01*
X150306264Y-93258728D01*
X150301450Y-93259166D01*
X150263634Y-93270296D01*
X150107713Y-93316186D01*
X150107710Y-93316187D01*
X150103066Y-93317554D01*
X149919801Y-93413363D01*
X149758635Y-93542943D01*
X149746738Y-93557121D01*
X149628817Y-93697654D01*
X149628814Y-93697658D01*
X149625708Y-93701360D01*
X149526082Y-93882578D01*
X149463553Y-94079696D01*
X149462365Y-94090286D01*
X149442554Y-94266906D01*
X149440501Y-94285206D01*
X149444310Y-94330567D01*
X149456886Y-94480320D01*
X149457806Y-94491278D01*
X149459139Y-94495926D01*
X149459139Y-94495927D01*
X149505899Y-94658999D01*
X149514807Y-94690066D01*
X149517022Y-94694376D01*
X149537995Y-94735185D01*
X149609334Y-94873995D01*
X149737786Y-95036061D01*
X149741466Y-95039193D01*
X149741468Y-95039195D01*
X149818927Y-95105117D01*
X149895271Y-95170091D01*
X150075789Y-95270980D01*
X150080387Y-95272474D01*
X150267861Y-95333388D01*
X150267863Y-95333389D01*
X150272466Y-95334884D01*
X150477809Y-95359370D01*
X150482631Y-95358999D01*
X150482633Y-95358999D01*
X150679170Y-95343876D01*
X150679175Y-95343875D01*
X150683998Y-95343504D01*
X150883178Y-95287892D01*
X150887491Y-95285713D01*
X150887497Y-95285711D01*
X151063442Y-95196835D01*
X151063444Y-95196833D01*
X151067763Y-95194652D01*
X151230722Y-95067334D01*
X151243453Y-95052585D01*
X152825001Y-95052585D01*
X152825611Y-95060329D01*
X152838616Y-95142449D01*
X152843373Y-95157091D01*
X152893823Y-95256106D01*
X152902865Y-95268551D01*
X152981449Y-95347135D01*
X152993894Y-95356177D01*
X153092913Y-95406629D01*
X153107546Y-95411384D01*
X153155512Y-95418980D01*
X153168687Y-95416893D01*
X153169463Y-95416118D01*
X153171000Y-95409714D01*
X153171000Y-95405753D01*
X153679000Y-95405753D01*
X153683122Y-95418438D01*
X153684010Y-95419083D01*
X153690574Y-95419600D01*
X153742454Y-95411384D01*
X153757087Y-95406629D01*
X153856106Y-95356177D01*
X153868551Y-95347135D01*
X153947135Y-95268551D01*
X153956177Y-95256106D01*
X154006629Y-95157088D01*
X154011384Y-95142453D01*
X154024391Y-95060327D01*
X154025000Y-95052588D01*
X154025000Y-95019680D01*
X154020878Y-95006995D01*
X154016757Y-95004000D01*
X153694680Y-95004000D01*
X153681995Y-95008122D01*
X153679000Y-95012243D01*
X153679000Y-95405753D01*
X153171000Y-95405753D01*
X153171000Y-95019680D01*
X153166878Y-95006995D01*
X153162757Y-95004000D01*
X152840681Y-95004000D01*
X152827996Y-95008122D01*
X152825001Y-95012243D01*
X152825001Y-95052585D01*
X151243453Y-95052585D01*
X151365848Y-94910789D01*
X151467995Y-94730979D01*
X151470897Y-94722255D01*
X151507203Y-94673006D01*
X151564837Y-94654500D01*
X151651620Y-94654500D01*
X151672448Y-94656716D01*
X151683070Y-94659003D01*
X151715319Y-94655186D01*
X151721429Y-94654826D01*
X151725373Y-94654500D01*
X151729451Y-94654500D01*
X151733474Y-94653830D01*
X151733478Y-94653830D01*
X151740266Y-94652700D01*
X151747672Y-94651467D01*
X151752270Y-94650812D01*
X151770109Y-94648701D01*
X151792144Y-94646093D01*
X151792145Y-94646093D01*
X151800270Y-94645131D01*
X151807232Y-94641788D01*
X151808793Y-94641294D01*
X151816417Y-94640025D01*
X151823615Y-94636141D01*
X151823621Y-94636139D01*
X151858960Y-94617070D01*
X151863066Y-94614977D01*
X151906658Y-94594045D01*
X151910650Y-94590689D01*
X151912153Y-94589186D01*
X151913384Y-94588057D01*
X151914544Y-94587078D01*
X151920280Y-94583983D01*
X151954712Y-94546735D01*
X151957405Y-94543934D01*
X152021019Y-94480320D01*
X152825000Y-94480320D01*
X152829122Y-94493005D01*
X152833243Y-94496000D01*
X153155320Y-94496000D01*
X153168005Y-94491878D01*
X153171000Y-94487757D01*
X153171000Y-94480320D01*
X153679000Y-94480320D01*
X153683122Y-94493005D01*
X153687243Y-94496000D01*
X154009319Y-94496000D01*
X154022004Y-94491878D01*
X154024999Y-94487757D01*
X154024999Y-94447415D01*
X154024389Y-94439671D01*
X154011384Y-94357551D01*
X154006627Y-94342909D01*
X153956177Y-94243894D01*
X153947135Y-94231449D01*
X153868551Y-94152865D01*
X153856106Y-94143823D01*
X153757087Y-94093371D01*
X153742454Y-94088616D01*
X153694488Y-94081020D01*
X153681313Y-94083107D01*
X153680537Y-94083882D01*
X153679000Y-94090286D01*
X153679000Y-94480320D01*
X153171000Y-94480320D01*
X153171000Y-94094247D01*
X153166878Y-94081562D01*
X153165990Y-94080917D01*
X153159426Y-94080400D01*
X153107546Y-94088616D01*
X153092913Y-94093371D01*
X152993894Y-94143823D01*
X152981449Y-94152865D01*
X152902865Y-94231449D01*
X152893823Y-94243894D01*
X152843371Y-94342912D01*
X152838616Y-94357547D01*
X152825609Y-94439673D01*
X152825000Y-94447412D01*
X152825000Y-94480320D01*
X152021019Y-94480320D01*
X152907843Y-93593496D01*
X152962360Y-93565719D01*
X152977847Y-93564500D01*
X153695586Y-93564500D01*
X153753777Y-93583407D01*
X153765590Y-93593496D01*
X153845229Y-93673135D01*
X153852166Y-93676670D01*
X153852168Y-93676671D01*
X153949633Y-93726332D01*
X153956573Y-93729868D01*
X153964267Y-93731087D01*
X153964268Y-93731087D01*
X154045109Y-93743891D01*
X154045111Y-93743891D01*
X154048955Y-93744500D01*
X154249974Y-93744500D01*
X154451044Y-93744499D01*
X154454887Y-93743890D01*
X154454892Y-93743890D01*
X154535733Y-93731087D01*
X154535736Y-93731086D01*
X154543427Y-93729868D01*
X154613639Y-93694093D01*
X154647832Y-93676671D01*
X154647834Y-93676670D01*
X154654771Y-93673135D01*
X154734410Y-93593496D01*
X154788927Y-93565719D01*
X154804414Y-93564500D01*
X156095153Y-93564500D01*
X156153344Y-93583407D01*
X156189308Y-93632907D01*
X156189308Y-93694093D01*
X156165157Y-93733504D01*
X155743566Y-94155095D01*
X155689049Y-94182872D01*
X155628617Y-94173301D01*
X155604038Y-94155444D01*
X155600010Y-94149990D01*
X155591661Y-94143823D01*
X155496030Y-94073188D01*
X155496027Y-94073186D01*
X155490076Y-94068791D01*
X155423164Y-94045293D01*
X155366817Y-94025505D01*
X155366815Y-94025505D01*
X155361127Y-94023507D01*
X155355125Y-94022940D01*
X155355122Y-94022939D01*
X155344453Y-94021931D01*
X155329315Y-94020500D01*
X155075164Y-94020500D01*
X154820686Y-94020501D01*
X154818369Y-94020720D01*
X154818368Y-94020720D01*
X154794883Y-94022939D01*
X154794882Y-94022939D01*
X154788873Y-94023507D01*
X154659924Y-94068791D01*
X154653973Y-94073186D01*
X154653970Y-94073188D01*
X154558339Y-94143823D01*
X154549990Y-94149990D01*
X154545590Y-94155947D01*
X154473188Y-94253970D01*
X154473186Y-94253973D01*
X154468791Y-94259924D01*
X154466339Y-94266906D01*
X154434507Y-94357551D01*
X154423507Y-94388873D01*
X154420500Y-94420685D01*
X154420501Y-95079314D01*
X154420720Y-95081631D01*
X154420720Y-95081632D01*
X154421996Y-95095131D01*
X154423507Y-95111127D01*
X154468791Y-95240076D01*
X154473186Y-95246027D01*
X154473188Y-95246030D01*
X154545459Y-95343876D01*
X154549990Y-95350010D01*
X154555947Y-95354410D01*
X154653970Y-95426812D01*
X154653973Y-95426814D01*
X154659924Y-95431209D01*
X154666906Y-95433661D01*
X154783183Y-95474495D01*
X154783185Y-95474495D01*
X154788873Y-95476493D01*
X154794875Y-95477060D01*
X154794878Y-95477061D01*
X154805547Y-95478069D01*
X154820685Y-95479500D01*
X155074836Y-95479500D01*
X155329314Y-95479499D01*
X155331632Y-95479280D01*
X155355117Y-95477061D01*
X155355118Y-95477061D01*
X155361127Y-95476493D01*
X155490076Y-95431209D01*
X155496027Y-95426814D01*
X155496030Y-95426812D01*
X155505090Y-95420120D01*
X156435511Y-95420120D01*
X156439633Y-95432805D01*
X156443754Y-95435800D01*
X156619831Y-95435800D01*
X156632516Y-95431678D01*
X156635511Y-95427557D01*
X156635511Y-95010180D01*
X156631389Y-94997495D01*
X156627268Y-94994500D01*
X156620671Y-94994500D01*
X156611049Y-94995448D01*
X156567037Y-95004202D01*
X156549369Y-95011521D01*
X156499429Y-95044889D01*
X156485900Y-95058418D01*
X156452532Y-95108358D01*
X156445213Y-95126026D01*
X156436459Y-95170038D01*
X156435511Y-95179660D01*
X156435511Y-95420120D01*
X155505090Y-95420120D01*
X155594053Y-95354410D01*
X155600010Y-95350010D01*
X155604541Y-95343876D01*
X155676812Y-95246030D01*
X155676814Y-95246027D01*
X155681209Y-95240076D01*
X155683661Y-95233094D01*
X155683664Y-95233089D01*
X155714118Y-95146370D01*
X155751238Y-95097731D01*
X155766436Y-95090062D01*
X155766417Y-95090026D01*
X155808960Y-95067070D01*
X155813066Y-95064977D01*
X155856658Y-95044045D01*
X155860650Y-95040689D01*
X155862153Y-95039186D01*
X155863384Y-95038057D01*
X155864544Y-95037078D01*
X155870280Y-95033983D01*
X155904712Y-94996735D01*
X155907405Y-94993934D01*
X156370795Y-94530544D01*
X156425312Y-94502767D01*
X156485744Y-94512338D01*
X156495798Y-94518231D01*
X156536210Y-94545234D01*
X156545773Y-94547136D01*
X156545775Y-94547137D01*
X156576692Y-94553286D01*
X156610444Y-94560000D01*
X156749782Y-94560000D01*
X156889177Y-94559999D01*
X156893943Y-94559051D01*
X156893944Y-94559051D01*
X156953847Y-94547137D01*
X156953850Y-94547136D01*
X156963412Y-94545234D01*
X156966096Y-94543441D01*
X157022986Y-94538965D01*
X157030709Y-94541474D01*
X157036336Y-94545234D01*
X157110570Y-94560000D01*
X157124444Y-94560000D01*
X157296563Y-94559999D01*
X157354753Y-94578906D01*
X157390717Y-94628406D01*
X157395563Y-94658999D01*
X157395563Y-94823401D01*
X157395167Y-94829689D01*
X157393495Y-94835281D01*
X157393816Y-94843455D01*
X157392790Y-94851577D01*
X157389601Y-94851174D01*
X157376958Y-94896002D01*
X157328908Y-94933881D01*
X157294644Y-94940000D01*
X157124183Y-94940001D01*
X157110571Y-94940001D01*
X157105805Y-94940949D01*
X157105804Y-94940949D01*
X157104316Y-94941245D01*
X157036336Y-94954766D01*
X157028229Y-94960183D01*
X156989619Y-94985982D01*
X156930731Y-95002591D01*
X156915302Y-95000764D01*
X156888580Y-94995448D01*
X156879596Y-94994564D01*
X156867106Y-94998622D01*
X156864111Y-95002743D01*
X156864111Y-95565400D01*
X156845204Y-95623591D01*
X156795704Y-95659555D01*
X156765111Y-95664400D01*
X156451191Y-95664400D01*
X156438506Y-95668522D01*
X156435511Y-95672643D01*
X156435511Y-95816500D01*
X156416604Y-95874691D01*
X156367104Y-95910655D01*
X156336511Y-95915500D01*
X154804414Y-95915500D01*
X154746223Y-95896593D01*
X154734410Y-95886504D01*
X154654771Y-95806865D01*
X154647834Y-95803330D01*
X154647832Y-95803329D01*
X154550367Y-95753668D01*
X154550366Y-95753668D01*
X154543427Y-95750132D01*
X154535733Y-95748913D01*
X154535732Y-95748913D01*
X154454891Y-95736109D01*
X154454889Y-95736109D01*
X154451045Y-95735500D01*
X154250026Y-95735500D01*
X154048956Y-95735501D01*
X154045113Y-95736110D01*
X154045108Y-95736110D01*
X153964267Y-95748913D01*
X153964264Y-95748914D01*
X153956573Y-95750132D01*
X153900901Y-95778499D01*
X153852168Y-95803329D01*
X153852166Y-95803330D01*
X153845229Y-95806865D01*
X153765143Y-95886951D01*
X153710626Y-95914728D01*
X153704214Y-95915500D01*
X153700549Y-95915500D01*
X153682328Y-95918533D01*
X153677730Y-95919188D01*
X153659891Y-95921299D01*
X153637856Y-95923907D01*
X153637855Y-95923907D01*
X153629730Y-95924869D01*
X153622768Y-95928212D01*
X153621207Y-95928706D01*
X153613583Y-95929975D01*
X153606385Y-95933859D01*
X153606379Y-95933861D01*
X153571040Y-95952930D01*
X153566934Y-95955023D01*
X153523342Y-95975955D01*
X153519350Y-95979311D01*
X153517847Y-95980814D01*
X153516616Y-95981943D01*
X153515456Y-95982922D01*
X153509720Y-95986017D01*
X153504168Y-95992023D01*
X153475289Y-96023264D01*
X153472595Y-96026066D01*
X152720564Y-96778098D01*
X151982158Y-97516504D01*
X151927641Y-97544281D01*
X151912154Y-97545500D01*
X151565341Y-97545500D01*
X151507150Y-97526593D01*
X151477929Y-97492978D01*
X151384838Y-97317899D01*
X151384836Y-97317895D01*
X151382565Y-97313625D01*
X151369540Y-97297654D01*
X151254924Y-97157121D01*
X151254923Y-97157120D01*
X151251863Y-97153368D01*
X151092522Y-97021550D01*
X150979686Y-96960540D01*
X150914866Y-96925492D01*
X150914865Y-96925492D01*
X150910612Y-96923192D01*
X150835129Y-96899826D01*
X150717684Y-96863470D01*
X150717680Y-96863469D01*
X150713063Y-96862040D01*
X150708256Y-96861535D01*
X150708252Y-96861534D01*
X150512213Y-96840930D01*
X150512211Y-96840930D01*
X150507397Y-96840424D01*
X150446925Y-96845927D01*
X150306269Y-96858727D01*
X150306264Y-96858728D01*
X150301450Y-96859166D01*
X150228206Y-96880723D01*
X150107713Y-96916186D01*
X150107710Y-96916187D01*
X150103066Y-96917554D01*
X149919801Y-97013363D01*
X149758635Y-97142943D01*
X149746738Y-97157121D01*
X149628817Y-97297654D01*
X149628814Y-97297658D01*
X149625708Y-97301360D01*
X149526082Y-97482578D01*
X149463553Y-97679696D01*
X149461159Y-97701040D01*
X149444805Y-97846840D01*
X149440501Y-97885206D01*
X148754500Y-97885206D01*
X148754500Y-92036642D01*
X160700637Y-92036642D01*
X160705741Y-92046531D01*
X161188914Y-92529704D01*
X161200797Y-92535758D01*
X161205828Y-92534962D01*
X161693657Y-92047133D01*
X161699024Y-92036599D01*
X161691496Y-92028885D01*
X161593645Y-91975976D01*
X161584774Y-91972247D01*
X161406673Y-91917116D01*
X161397239Y-91915179D01*
X161211831Y-91895691D01*
X161202193Y-91895624D01*
X161016532Y-91912520D01*
X161007066Y-91914326D01*
X160828220Y-91966965D01*
X160819296Y-91970570D01*
X160708739Y-92028368D01*
X160700637Y-92036642D01*
X148754500Y-92036642D01*
X148754500Y-91993096D01*
X153763250Y-91993096D01*
X153769477Y-91996000D01*
X153980320Y-91996000D01*
X153993005Y-91991878D01*
X153996000Y-91987757D01*
X153996000Y-91980320D01*
X154504000Y-91980320D01*
X154508122Y-91993005D01*
X154512243Y-91996000D01*
X154726309Y-91996000D01*
X154737144Y-91992479D01*
X154737144Y-91985610D01*
X154706469Y-91919826D01*
X154696685Y-91905853D01*
X154624147Y-91833315D01*
X154610174Y-91823531D01*
X154516224Y-91779722D01*
X154513612Y-91778960D01*
X154506431Y-91780292D01*
X154505195Y-91781594D01*
X154504000Y-91786874D01*
X154504000Y-91980320D01*
X153996000Y-91980320D01*
X153996000Y-91791494D01*
X153991878Y-91778809D01*
X153990455Y-91777775D01*
X153983776Y-91779722D01*
X153889826Y-91823531D01*
X153875853Y-91833315D01*
X153803315Y-91905853D01*
X153793531Y-91919826D01*
X153764638Y-91981788D01*
X153763250Y-91993096D01*
X148754500Y-91993096D01*
X148754500Y-91563348D01*
X150001134Y-91563348D01*
X150008363Y-91570860D01*
X150093488Y-91618435D01*
X150102316Y-91622292D01*
X150279627Y-91679904D01*
X150289027Y-91681971D01*
X150474155Y-91704046D01*
X150483781Y-91704248D01*
X150669659Y-91689945D01*
X150679153Y-91688271D01*
X150858713Y-91638136D01*
X150867693Y-91634654D01*
X150991726Y-91572000D01*
X150999765Y-91564017D01*
X150994573Y-91553783D01*
X150511086Y-91070296D01*
X150499203Y-91064242D01*
X150494172Y-91065038D01*
X150006611Y-91552599D01*
X150001134Y-91563348D01*
X148754500Y-91563348D01*
X148754500Y-90690790D01*
X149495664Y-90690790D01*
X149511264Y-90876574D01*
X149513002Y-90886042D01*
X149564388Y-91065248D01*
X149567939Y-91074216D01*
X149628202Y-91191476D01*
X149636330Y-91199547D01*
X149646393Y-91194397D01*
X150129704Y-90711086D01*
X150134946Y-90700797D01*
X150864242Y-90700797D01*
X150865038Y-90705828D01*
X151352520Y-91193310D01*
X151363375Y-91198841D01*
X151370783Y-91191762D01*
X151415577Y-91112911D01*
X151419493Y-91104116D01*
X151478341Y-90927212D01*
X151480475Y-90917818D01*
X151504099Y-90730810D01*
X151504486Y-90725283D01*
X151504800Y-90702759D01*
X151504570Y-90697261D01*
X151486174Y-90509636D01*
X151484305Y-90500198D01*
X151430418Y-90321718D01*
X151426748Y-90312814D01*
X151371503Y-90208912D01*
X151363086Y-90200784D01*
X151353368Y-90205842D01*
X150870296Y-90688914D01*
X150864242Y-90700797D01*
X150134946Y-90700797D01*
X150135758Y-90699203D01*
X150134962Y-90694172D01*
X149647285Y-90206495D01*
X149636643Y-90201073D01*
X149629029Y-90208452D01*
X149578752Y-90299905D01*
X149574952Y-90308769D01*
X149518583Y-90486467D01*
X149516579Y-90495895D01*
X149495798Y-90681162D01*
X149495664Y-90690790D01*
X148754500Y-90690790D01*
X148754500Y-90534818D01*
X148756402Y-90515505D01*
X148757584Y-90509564D01*
X148757584Y-90509562D01*
X148759486Y-90500000D01*
X148757583Y-90490436D01*
X148757583Y-90480686D01*
X148757713Y-90480686D01*
X148756987Y-90468388D01*
X148769223Y-90312929D01*
X148771653Y-90297586D01*
X148813641Y-90122694D01*
X148818442Y-90107920D01*
X148887271Y-89941751D01*
X148894320Y-89927915D01*
X148950252Y-89836642D01*
X150000637Y-89836642D01*
X150005741Y-89846531D01*
X150488914Y-90329704D01*
X150500797Y-90335758D01*
X150505828Y-90334962D01*
X150993657Y-89847133D01*
X150999024Y-89836599D01*
X150991496Y-89828885D01*
X150893645Y-89775976D01*
X150884774Y-89772247D01*
X150706673Y-89717116D01*
X150697239Y-89715179D01*
X150511831Y-89695691D01*
X150502193Y-89695624D01*
X150316532Y-89712520D01*
X150307066Y-89714326D01*
X150128220Y-89766965D01*
X150119296Y-89770570D01*
X150008739Y-89828368D01*
X150000637Y-89836642D01*
X148950252Y-89836642D01*
X148988301Y-89774551D01*
X148997426Y-89761992D01*
X149038137Y-89714326D01*
X149114241Y-89625221D01*
X149125223Y-89614239D01*
X149132510Y-89608016D01*
X149261993Y-89497426D01*
X149274551Y-89488301D01*
X149427915Y-89394320D01*
X149441751Y-89387271D01*
X149607920Y-89318442D01*
X149622694Y-89313641D01*
X149797586Y-89271653D01*
X149812929Y-89269223D01*
X149882082Y-89263780D01*
X149968391Y-89256987D01*
X149980686Y-89257713D01*
X149980686Y-89257583D01*
X149990436Y-89257583D01*
X150000000Y-89259486D01*
X150009562Y-89257584D01*
X150009564Y-89257584D01*
X150015505Y-89256402D01*
X150034818Y-89254500D01*
X152965182Y-89254500D01*
X152984496Y-89256402D01*
X153000000Y-89259486D01*
X153009562Y-89257584D01*
X153089736Y-89241637D01*
X153089738Y-89241636D01*
X153099301Y-89239734D01*
X153183484Y-89183484D01*
X153239734Y-89099301D01*
X153259486Y-89000000D01*
X153257583Y-88990435D01*
X153257583Y-88985558D01*
X153256366Y-88967967D01*
X153258230Y-88935964D01*
X154642112Y-88935964D01*
X154642269Y-88940149D01*
X154642269Y-88940152D01*
X154644464Y-88998599D01*
X154644060Y-88998614D01*
X154644303Y-88999983D01*
X154644339Y-88999980D01*
X154644341Y-89000000D01*
X154644648Y-89003507D01*
X154644718Y-89005374D01*
X154644718Y-89005619D01*
X154644741Y-89005972D01*
X154650736Y-89165669D01*
X154651596Y-89169769D01*
X154651597Y-89169775D01*
X154664628Y-89231879D01*
X154664165Y-89231976D01*
X154664790Y-89233724D01*
X154664937Y-89235408D01*
X154666054Y-89239576D01*
X154666054Y-89239577D01*
X154666225Y-89240216D01*
X154667486Y-89245501D01*
X154682165Y-89315459D01*
X154697939Y-89390637D01*
X154720721Y-89448326D01*
X154722699Y-89453335D01*
X154723646Y-89455831D01*
X154724980Y-89459494D01*
X154726097Y-89463663D01*
X154727922Y-89467576D01*
X154727924Y-89467582D01*
X154729287Y-89470505D01*
X154731642Y-89475979D01*
X154758740Y-89544595D01*
X154782372Y-89604436D01*
X154784542Y-89608012D01*
X154784544Y-89608016D01*
X154820030Y-89666494D01*
X154822213Y-89670579D01*
X154824142Y-89673919D01*
X154825965Y-89677829D01*
X154828442Y-89681367D01*
X154828443Y-89681368D01*
X154831184Y-89685283D01*
X154834724Y-89690709D01*
X154885607Y-89774561D01*
X154901621Y-89800952D01*
X154904371Y-89804121D01*
X154952913Y-89860060D01*
X154958676Y-89867442D01*
X154959022Y-89867854D01*
X154961505Y-89871401D01*
X154968476Y-89878372D01*
X154973244Y-89883490D01*
X155052276Y-89974566D01*
X155055519Y-89977225D01*
X155055521Y-89977227D01*
X155117331Y-90027908D01*
X155124563Y-90034459D01*
X155128599Y-90038495D01*
X155132135Y-90040971D01*
X155136772Y-90044218D01*
X155142759Y-90048758D01*
X155230029Y-90120315D01*
X155308466Y-90164963D01*
X155316271Y-90169903D01*
X155322171Y-90174035D01*
X155326086Y-90175860D01*
X155326090Y-90175863D01*
X155330869Y-90178091D01*
X155338003Y-90181778D01*
X155429798Y-90234030D01*
X155520610Y-90266994D01*
X155528666Y-90270327D01*
X155532411Y-90272073D01*
X155532417Y-90272075D01*
X155536337Y-90273903D01*
X155540512Y-90275022D01*
X155540516Y-90275023D01*
X155544842Y-90276182D01*
X155552996Y-90278749D01*
X155641925Y-90311029D01*
X155641929Y-90311030D01*
X155645871Y-90312461D01*
X155747541Y-90330846D01*
X155755531Y-90332635D01*
X155764592Y-90335063D01*
X155772235Y-90335732D01*
X155781194Y-90336931D01*
X155872069Y-90353364D01*
X155891041Y-90354259D01*
X155895011Y-90354446D01*
X155895015Y-90354446D01*
X155896158Y-90354500D01*
X156057712Y-90354500D01*
X156059795Y-90354323D01*
X156059801Y-90354323D01*
X156224873Y-90340316D01*
X156224874Y-90340316D01*
X156229044Y-90339962D01*
X156233094Y-90338911D01*
X156233099Y-90338910D01*
X156447483Y-90283267D01*
X156447486Y-90283266D01*
X156451539Y-90282214D01*
X156467503Y-90275023D01*
X156500359Y-90260222D01*
X156661123Y-90187803D01*
X156851803Y-90059430D01*
X156937974Y-89977227D01*
X157015094Y-89903659D01*
X157015098Y-89903654D01*
X157018128Y-89900764D01*
X157030980Y-89883491D01*
X157080277Y-89817233D01*
X157155342Y-89716342D01*
X157174923Y-89677829D01*
X157257623Y-89515170D01*
X157257625Y-89515166D01*
X157259520Y-89511438D01*
X157327685Y-89291911D01*
X157343873Y-89169775D01*
X157357338Y-89068188D01*
X157357338Y-89068184D01*
X157357888Y-89064036D01*
X157355843Y-89009563D01*
X157355536Y-89001401D01*
X157355940Y-89001386D01*
X157355697Y-89000017D01*
X157355661Y-89000020D01*
X157355625Y-88999615D01*
X157355352Y-88996493D01*
X157355282Y-88994626D01*
X157355282Y-88994381D01*
X157355259Y-88994021D01*
X157353237Y-88940152D01*
X157349264Y-88834331D01*
X157348404Y-88830231D01*
X157348403Y-88830225D01*
X157335372Y-88768121D01*
X157335835Y-88768024D01*
X157335210Y-88766276D01*
X157335063Y-88764592D01*
X157333775Y-88759784D01*
X157332514Y-88754499D01*
X157302923Y-88613471D01*
X157302923Y-88613470D01*
X157302061Y-88609363D01*
X157277301Y-88546665D01*
X157276354Y-88544169D01*
X157275020Y-88540506D01*
X157273903Y-88536337D01*
X157272078Y-88532424D01*
X157272076Y-88532418D01*
X157270713Y-88529495D01*
X157268358Y-88524021D01*
X157219165Y-88399457D01*
X157217628Y-88395564D01*
X157179968Y-88333502D01*
X157177787Y-88329421D01*
X157175858Y-88326081D01*
X157174035Y-88322171D01*
X157171557Y-88318632D01*
X157168816Y-88314717D01*
X157165276Y-88309291D01*
X157100556Y-88202635D01*
X157100554Y-88202632D01*
X157098379Y-88199048D01*
X157047087Y-88139940D01*
X157041324Y-88132558D01*
X157040978Y-88132146D01*
X157038495Y-88128599D01*
X157031524Y-88121628D01*
X157026755Y-88116509D01*
X156978573Y-88060984D01*
X156947724Y-88025434D01*
X156882669Y-87972092D01*
X156875437Y-87965541D01*
X156871401Y-87961505D01*
X156863228Y-87955782D01*
X156857241Y-87951242D01*
X156773216Y-87882346D01*
X156769971Y-87879685D01*
X156691534Y-87835037D01*
X156683725Y-87830094D01*
X156677829Y-87825965D01*
X156673914Y-87824140D01*
X156673910Y-87824137D01*
X156669131Y-87821909D01*
X156661996Y-87818222D01*
X156573849Y-87768046D01*
X156570202Y-87765970D01*
X156479390Y-87733006D01*
X156471334Y-87729673D01*
X156467589Y-87727927D01*
X156467583Y-87727925D01*
X156463663Y-87726097D01*
X156459488Y-87724978D01*
X156459484Y-87724977D01*
X156455158Y-87723818D01*
X156447004Y-87721251D01*
X156358075Y-87688971D01*
X156358071Y-87688970D01*
X156354129Y-87687539D01*
X156252459Y-87669154D01*
X156244469Y-87667365D01*
X156235408Y-87664937D01*
X156227765Y-87664268D01*
X156218806Y-87663069D01*
X156127931Y-87646636D01*
X156108959Y-87645741D01*
X156104989Y-87645554D01*
X156104985Y-87645554D01*
X156103842Y-87645500D01*
X155942288Y-87645500D01*
X155940205Y-87645677D01*
X155940199Y-87645677D01*
X155775127Y-87659684D01*
X155775126Y-87659684D01*
X155770956Y-87660038D01*
X155766906Y-87661089D01*
X155766901Y-87661090D01*
X155552517Y-87716733D01*
X155552514Y-87716734D01*
X155548461Y-87717786D01*
X155544639Y-87719507D01*
X155544638Y-87719508D01*
X155499641Y-87739778D01*
X155338877Y-87812197D01*
X155148197Y-87940570D01*
X155145156Y-87943471D01*
X154984906Y-88096341D01*
X154984902Y-88096346D01*
X154981872Y-88099236D01*
X154979370Y-88102599D01*
X154979369Y-88102600D01*
X154967051Y-88119156D01*
X154844658Y-88283658D01*
X154842756Y-88287399D01*
X154789583Y-88391984D01*
X154740480Y-88488562D01*
X154672315Y-88708089D01*
X154671765Y-88712239D01*
X154655583Y-88834331D01*
X154642112Y-88935964D01*
X153258230Y-88935964D01*
X153272730Y-88687019D01*
X153274066Y-88675585D01*
X153300301Y-88526795D01*
X153327505Y-88372516D01*
X153330158Y-88361321D01*
X153338486Y-88333506D01*
X153418422Y-88066503D01*
X153422360Y-88055685D01*
X153544246Y-87773122D01*
X153549412Y-87762834D01*
X153703287Y-87496314D01*
X153709614Y-87486695D01*
X153893382Y-87239852D01*
X153900782Y-87231033D01*
X154111969Y-87007188D01*
X154120343Y-86999288D01*
X154356085Y-86801477D01*
X154365319Y-86794602D01*
X154420065Y-86758595D01*
X154622436Y-86625493D01*
X154632397Y-86619742D01*
X154839164Y-86515900D01*
X154907415Y-86481623D01*
X154917974Y-86477068D01*
X155033989Y-86434843D01*
X155207171Y-86371810D01*
X155218200Y-86368509D01*
X155414332Y-86322024D01*
X155517636Y-86297540D01*
X155528965Y-86295542D01*
X155834640Y-86259814D01*
X155846132Y-86259145D01*
X156153868Y-86259145D01*
X156165360Y-86259814D01*
G37*
G04 #@! TD.AperFunction*
M02*
