G04 #@! TF.GenerationSoftware,KiCad,Pcbnew,(6.0.7-1)-1*
G04 #@! TF.CreationDate,2024-08-15T11:21:40+03:00*
G04 #@! TF.ProjectId,Ideal_Diode,49646561-6c5f-4446-996f-64652e6b6963,rev?*
G04 #@! TF.SameCoordinates,Original*
G04 #@! TF.FileFunction,Copper,L2,Bot*
G04 #@! TF.FilePolarity,Positive*
%FSLAX46Y46*%
G04 Gerber Fmt 4.6, Leading zero omitted, Abs format (unit mm)*
G04 Created by KiCad (PCBNEW (6.0.7-1)-1) date 2024-08-15 11:21:40*
%MOMM*%
%LPD*%
G01*
G04 APERTURE LIST*
G04 Aperture macros list*
%AMRoundRect*
0 Rectangle with rounded corners*
0 $1 Rounding radius*
0 $2 $3 $4 $5 $6 $7 $8 $9 X,Y pos of 4 corners*
0 Add a 4 corners polygon primitive as box body*
4,1,4,$2,$3,$4,$5,$6,$7,$8,$9,$2,$3,0*
0 Add four circle primitives for the rounded corners*
1,1,$1+$1,$2,$3*
1,1,$1+$1,$4,$5*
1,1,$1+$1,$6,$7*
1,1,$1+$1,$8,$9*
0 Add four rect primitives between the rounded corners*
20,1,$1+$1,$2,$3,$4,$5,0*
20,1,$1+$1,$4,$5,$6,$7,0*
20,1,$1+$1,$6,$7,$8,$9,0*
20,1,$1+$1,$8,$9,$2,$3,0*%
G04 Aperture macros list end*
G04 #@! TA.AperFunction,ComponentPad*
%ADD10RoundRect,0.250000X0.550000X-0.550000X0.550000X0.550000X-0.550000X0.550000X-0.550000X-0.550000X0*%
G04 #@! TD*
G04 #@! TA.AperFunction,ComponentPad*
%ADD11C,1.600000*%
G04 #@! TD*
G04 APERTURE END LIST*
D10*
X161200000Y-96500000D03*
D11*
X161200000Y-92900000D03*
D10*
X150500000Y-101500000D03*
D11*
X150500000Y-97900000D03*
X150500000Y-94300000D03*
X150500000Y-90700000D03*
G04 #@! TA.AperFunction,Conductor*
G36*
X156165360Y-86259814D02*
G01*
X156471035Y-86295542D01*
X156482364Y-86297540D01*
X156585668Y-86322024D01*
X156781800Y-86368509D01*
X156792829Y-86371810D01*
X156966011Y-86434843D01*
X157082026Y-86477068D01*
X157092585Y-86481623D01*
X157160836Y-86515900D01*
X157367603Y-86619742D01*
X157377564Y-86625493D01*
X157579935Y-86758595D01*
X157634681Y-86794602D01*
X157643915Y-86801477D01*
X157879657Y-86999288D01*
X157888031Y-87007188D01*
X158099218Y-87231033D01*
X158106618Y-87239852D01*
X158290386Y-87486695D01*
X158296713Y-87496314D01*
X158450588Y-87762834D01*
X158455754Y-87773122D01*
X158577640Y-88055685D01*
X158581578Y-88066503D01*
X158661515Y-88333506D01*
X158669842Y-88361321D01*
X158672495Y-88372516D01*
X158699699Y-88526795D01*
X158725934Y-88675585D01*
X158727270Y-88687019D01*
X158743634Y-88967967D01*
X158742417Y-88985558D01*
X158742417Y-88990435D01*
X158740514Y-89000000D01*
X158760266Y-89099301D01*
X158816516Y-89183484D01*
X158900699Y-89239734D01*
X158910262Y-89241636D01*
X158910264Y-89241637D01*
X158990438Y-89257584D01*
X159000000Y-89259486D01*
X159009562Y-89257584D01*
X159015505Y-89256402D01*
X159034818Y-89254500D01*
X161965182Y-89254500D01*
X161984495Y-89256402D01*
X161990436Y-89257584D01*
X161990438Y-89257584D01*
X162000000Y-89259486D01*
X162009564Y-89257583D01*
X162019314Y-89257583D01*
X162019314Y-89257713D01*
X162031609Y-89256987D01*
X162117918Y-89263780D01*
X162187071Y-89269223D01*
X162202414Y-89271653D01*
X162377306Y-89313641D01*
X162392080Y-89318442D01*
X162558249Y-89387271D01*
X162572085Y-89394320D01*
X162725449Y-89488301D01*
X162738007Y-89497426D01*
X162867491Y-89608016D01*
X162874777Y-89614239D01*
X162885759Y-89625221D01*
X162961863Y-89714326D01*
X163002574Y-89761992D01*
X163011699Y-89774551D01*
X163105680Y-89927915D01*
X163112729Y-89941751D01*
X163181558Y-90107920D01*
X163186359Y-90122694D01*
X163228347Y-90297586D01*
X163230777Y-90312929D01*
X163243013Y-90468388D01*
X163242287Y-90480686D01*
X163242417Y-90480686D01*
X163242417Y-90490436D01*
X163240514Y-90500000D01*
X163242416Y-90509562D01*
X163242416Y-90509564D01*
X163243598Y-90515505D01*
X163245500Y-90534818D01*
X163245500Y-101465182D01*
X163243598Y-101484495D01*
X163240514Y-101500000D01*
X163242417Y-101509564D01*
X163242417Y-101519314D01*
X163242287Y-101519314D01*
X163243013Y-101531612D01*
X163230777Y-101687071D01*
X163228347Y-101702414D01*
X163186359Y-101877306D01*
X163181558Y-101892080D01*
X163112729Y-102058249D01*
X163105680Y-102072085D01*
X163011699Y-102225449D01*
X163002574Y-102238007D01*
X162924959Y-102328883D01*
X162885761Y-102374777D01*
X162874779Y-102385759D01*
X162743845Y-102497589D01*
X162738008Y-102502574D01*
X162725449Y-102511699D01*
X162572085Y-102605680D01*
X162558249Y-102612729D01*
X162392080Y-102681558D01*
X162377306Y-102686359D01*
X162202414Y-102728347D01*
X162187071Y-102730777D01*
X162117918Y-102736220D01*
X162031609Y-102743013D01*
X162019314Y-102742287D01*
X162019314Y-102742417D01*
X162009564Y-102742417D01*
X162000000Y-102740514D01*
X161990438Y-102742416D01*
X161990436Y-102742416D01*
X161984495Y-102743598D01*
X161965182Y-102745500D01*
X159034818Y-102745500D01*
X159015505Y-102743598D01*
X159009562Y-102742416D01*
X159000000Y-102740514D01*
X158990438Y-102742416D01*
X158910264Y-102758363D01*
X158910262Y-102758364D01*
X158900699Y-102760266D01*
X158816516Y-102816516D01*
X158760266Y-102900699D01*
X158740514Y-103000000D01*
X158742417Y-103009565D01*
X158742417Y-103014442D01*
X158743634Y-103032033D01*
X158727270Y-103312981D01*
X158725934Y-103324415D01*
X158676560Y-103604436D01*
X158672497Y-103627476D01*
X158669844Y-103638671D01*
X158622334Y-103797365D01*
X158581578Y-103933497D01*
X158577640Y-103944315D01*
X158455754Y-104226878D01*
X158450588Y-104237166D01*
X158296713Y-104503686D01*
X158290386Y-104513305D01*
X158106618Y-104760148D01*
X158099218Y-104768967D01*
X157888031Y-104992812D01*
X157879657Y-105000712D01*
X157643915Y-105198523D01*
X157634683Y-105205397D01*
X157377564Y-105374507D01*
X157367604Y-105380257D01*
X157092585Y-105518377D01*
X157082026Y-105522932D01*
X156966011Y-105565157D01*
X156792829Y-105628190D01*
X156781800Y-105631491D01*
X156585668Y-105677976D01*
X156482364Y-105702460D01*
X156471035Y-105704458D01*
X156165361Y-105740186D01*
X156153868Y-105740855D01*
X155846132Y-105740855D01*
X155834639Y-105740186D01*
X155528965Y-105704458D01*
X155517636Y-105702460D01*
X155414332Y-105677976D01*
X155218200Y-105631491D01*
X155207171Y-105628190D01*
X155033989Y-105565157D01*
X154917974Y-105522932D01*
X154907415Y-105518377D01*
X154632396Y-105380257D01*
X154622436Y-105374507D01*
X154365317Y-105205397D01*
X154356085Y-105198523D01*
X154120343Y-105000712D01*
X154111969Y-104992812D01*
X153900782Y-104768967D01*
X153893382Y-104760148D01*
X153709614Y-104513305D01*
X153703287Y-104503686D01*
X153549412Y-104237166D01*
X153544246Y-104226878D01*
X153422360Y-103944315D01*
X153418422Y-103933497D01*
X153377666Y-103797365D01*
X153330156Y-103638671D01*
X153327503Y-103627476D01*
X153323441Y-103604436D01*
X153274066Y-103324415D01*
X153272730Y-103312981D01*
X153256366Y-103032033D01*
X153257583Y-103014442D01*
X153257583Y-103009565D01*
X153259486Y-103000000D01*
X153246749Y-102935964D01*
X154642112Y-102935964D01*
X154642269Y-102940149D01*
X154642269Y-102940152D01*
X154644464Y-102998599D01*
X154644060Y-102998614D01*
X154644303Y-102999983D01*
X154644339Y-102999980D01*
X154644341Y-103000000D01*
X154644648Y-103003507D01*
X154644718Y-103005374D01*
X154644718Y-103005619D01*
X154644741Y-103005972D01*
X154650736Y-103165669D01*
X154651596Y-103169769D01*
X154651597Y-103169775D01*
X154664628Y-103231879D01*
X154664165Y-103231976D01*
X154664790Y-103233724D01*
X154664937Y-103235408D01*
X154666054Y-103239576D01*
X154666054Y-103239577D01*
X154666225Y-103240216D01*
X154667486Y-103245501D01*
X154676353Y-103287761D01*
X154697939Y-103390637D01*
X154720721Y-103448326D01*
X154722699Y-103453335D01*
X154723646Y-103455831D01*
X154724980Y-103459494D01*
X154726097Y-103463663D01*
X154727922Y-103467576D01*
X154727924Y-103467582D01*
X154729287Y-103470505D01*
X154731642Y-103475979D01*
X154758740Y-103544595D01*
X154782372Y-103604436D01*
X154784542Y-103608012D01*
X154784544Y-103608016D01*
X154820030Y-103666494D01*
X154822213Y-103670579D01*
X154824142Y-103673919D01*
X154825965Y-103677829D01*
X154828442Y-103681367D01*
X154828443Y-103681368D01*
X154831184Y-103685283D01*
X154834724Y-103690709D01*
X154850279Y-103716342D01*
X154901621Y-103800952D01*
X154904371Y-103804121D01*
X154952913Y-103860060D01*
X154958676Y-103867442D01*
X154959022Y-103867854D01*
X154961505Y-103871401D01*
X154968476Y-103878372D01*
X154973244Y-103883490D01*
X155052276Y-103974566D01*
X155055519Y-103977225D01*
X155055521Y-103977227D01*
X155117331Y-104027908D01*
X155124563Y-104034459D01*
X155128599Y-104038495D01*
X155132135Y-104040971D01*
X155136772Y-104044218D01*
X155142759Y-104048758D01*
X155230029Y-104120315D01*
X155308466Y-104164963D01*
X155316271Y-104169903D01*
X155322171Y-104174035D01*
X155326086Y-104175860D01*
X155326090Y-104175863D01*
X155330869Y-104178091D01*
X155338003Y-104181778D01*
X155429798Y-104234030D01*
X155520610Y-104266994D01*
X155528666Y-104270327D01*
X155532411Y-104272073D01*
X155532417Y-104272075D01*
X155536337Y-104273903D01*
X155540512Y-104275022D01*
X155540516Y-104275023D01*
X155544842Y-104276182D01*
X155552996Y-104278749D01*
X155641925Y-104311029D01*
X155641929Y-104311030D01*
X155645871Y-104312461D01*
X155747541Y-104330846D01*
X155755531Y-104332635D01*
X155764592Y-104335063D01*
X155772235Y-104335732D01*
X155781194Y-104336931D01*
X155872069Y-104353364D01*
X155891041Y-104354259D01*
X155895011Y-104354446D01*
X155895015Y-104354446D01*
X155896158Y-104354500D01*
X156057712Y-104354500D01*
X156059795Y-104354323D01*
X156059801Y-104354323D01*
X156224873Y-104340316D01*
X156224874Y-104340316D01*
X156229044Y-104339962D01*
X156233094Y-104338911D01*
X156233099Y-104338910D01*
X156447483Y-104283267D01*
X156447486Y-104283266D01*
X156451539Y-104282214D01*
X156467503Y-104275023D01*
X156500359Y-104260222D01*
X156661123Y-104187803D01*
X156851803Y-104059430D01*
X156871153Y-104040971D01*
X157015094Y-103903659D01*
X157015098Y-103903654D01*
X157018128Y-103900764D01*
X157030980Y-103883491D01*
X157080277Y-103817233D01*
X157155342Y-103716342D01*
X157174923Y-103677829D01*
X157257623Y-103515170D01*
X157257625Y-103515166D01*
X157259520Y-103511438D01*
X157327685Y-103291911D01*
X157343873Y-103169775D01*
X157357338Y-103068188D01*
X157357338Y-103068184D01*
X157357888Y-103064036D01*
X157356212Y-103019389D01*
X157355536Y-103001401D01*
X157355940Y-103001386D01*
X157355697Y-103000017D01*
X157355661Y-103000020D01*
X157355625Y-102999615D01*
X157355352Y-102996493D01*
X157355282Y-102994626D01*
X157355282Y-102994381D01*
X157355259Y-102994021D01*
X157349264Y-102834331D01*
X157348404Y-102830231D01*
X157348403Y-102830225D01*
X157335372Y-102768121D01*
X157335835Y-102768024D01*
X157335210Y-102766276D01*
X157335063Y-102764592D01*
X157333775Y-102759784D01*
X157332514Y-102754499D01*
X157302923Y-102613471D01*
X157302923Y-102613470D01*
X157302061Y-102609363D01*
X157277301Y-102546665D01*
X157276354Y-102544169D01*
X157275020Y-102540506D01*
X157273903Y-102536337D01*
X157272078Y-102532424D01*
X157272076Y-102532418D01*
X157270713Y-102529495D01*
X157268358Y-102524021D01*
X157219165Y-102399457D01*
X157217628Y-102395564D01*
X157211680Y-102385761D01*
X157179970Y-102333506D01*
X157177787Y-102329421D01*
X157175858Y-102326081D01*
X157174035Y-102322171D01*
X157171557Y-102318632D01*
X157168816Y-102314717D01*
X157165276Y-102309291D01*
X157100556Y-102202635D01*
X157100554Y-102202632D01*
X157098379Y-102199048D01*
X157047087Y-102139940D01*
X157041324Y-102132558D01*
X157040978Y-102132146D01*
X157038495Y-102128599D01*
X157031524Y-102121628D01*
X157026755Y-102116509D01*
X156950473Y-102028602D01*
X156947724Y-102025434D01*
X156882669Y-101972092D01*
X156875437Y-101965541D01*
X156871401Y-101961505D01*
X156863228Y-101955782D01*
X156857241Y-101951242D01*
X156773216Y-101882346D01*
X156769971Y-101879685D01*
X156691534Y-101835037D01*
X156683725Y-101830094D01*
X156677829Y-101825965D01*
X156673914Y-101824140D01*
X156673910Y-101824137D01*
X156669131Y-101821909D01*
X156661996Y-101818222D01*
X156573849Y-101768046D01*
X156570202Y-101765970D01*
X156479390Y-101733006D01*
X156471334Y-101729673D01*
X156467589Y-101727927D01*
X156467583Y-101727925D01*
X156463663Y-101726097D01*
X156459488Y-101724978D01*
X156459484Y-101724977D01*
X156455158Y-101723818D01*
X156447004Y-101721251D01*
X156358075Y-101688971D01*
X156358071Y-101688970D01*
X156354129Y-101687539D01*
X156252459Y-101669154D01*
X156244469Y-101667365D01*
X156235408Y-101664937D01*
X156227765Y-101664268D01*
X156218806Y-101663069D01*
X156127931Y-101646636D01*
X156108959Y-101645741D01*
X156104989Y-101645554D01*
X156104985Y-101645554D01*
X156103842Y-101645500D01*
X155942288Y-101645500D01*
X155940205Y-101645677D01*
X155940199Y-101645677D01*
X155775127Y-101659684D01*
X155775126Y-101659684D01*
X155770956Y-101660038D01*
X155766906Y-101661089D01*
X155766901Y-101661090D01*
X155552517Y-101716733D01*
X155552514Y-101716734D01*
X155548461Y-101717786D01*
X155544639Y-101719507D01*
X155544638Y-101719508D01*
X155499641Y-101739778D01*
X155338877Y-101812197D01*
X155148197Y-101940570D01*
X155145156Y-101943471D01*
X154984906Y-102096341D01*
X154984902Y-102096346D01*
X154981872Y-102099236D01*
X154979370Y-102102599D01*
X154979369Y-102102600D01*
X154967051Y-102119156D01*
X154844658Y-102283658D01*
X154842756Y-102287399D01*
X154757728Y-102454638D01*
X154740480Y-102488562D01*
X154672315Y-102708089D01*
X154671765Y-102712239D01*
X154655583Y-102834331D01*
X154642112Y-102935964D01*
X153246749Y-102935964D01*
X153239734Y-102900699D01*
X153183484Y-102816516D01*
X153099301Y-102760266D01*
X153089738Y-102758364D01*
X153089736Y-102758363D01*
X153009562Y-102742416D01*
X153000000Y-102740514D01*
X152990438Y-102742416D01*
X152984495Y-102743598D01*
X152965182Y-102745500D01*
X150034818Y-102745500D01*
X150015505Y-102743598D01*
X150009564Y-102742416D01*
X150009562Y-102742416D01*
X150000000Y-102740514D01*
X149990436Y-102742417D01*
X149980686Y-102742417D01*
X149980686Y-102742287D01*
X149968391Y-102743013D01*
X149882082Y-102736220D01*
X149812929Y-102730777D01*
X149797586Y-102728347D01*
X149622694Y-102686359D01*
X149607920Y-102681558D01*
X149441751Y-102612729D01*
X149427915Y-102605680D01*
X149274551Y-102511699D01*
X149261992Y-102502574D01*
X149256155Y-102497589D01*
X149125221Y-102385759D01*
X149114239Y-102374777D01*
X149075042Y-102328883D01*
X148997426Y-102238007D01*
X148988301Y-102225449D01*
X148912310Y-102101443D01*
X149500001Y-102101443D01*
X149500220Y-102106086D01*
X149502411Y-102129269D01*
X149504976Y-102140965D01*
X149545362Y-102255966D01*
X149552209Y-102268899D01*
X149623808Y-102365835D01*
X149634165Y-102376192D01*
X149731101Y-102447791D01*
X149744034Y-102454638D01*
X149859031Y-102495022D01*
X149870734Y-102497590D01*
X149893918Y-102499782D01*
X149898554Y-102500000D01*
X150230320Y-102500000D01*
X150243005Y-102495878D01*
X150246000Y-102491757D01*
X150246000Y-102484319D01*
X150754000Y-102484319D01*
X150758122Y-102497004D01*
X150762243Y-102499999D01*
X151101443Y-102499999D01*
X151106086Y-102499780D01*
X151129269Y-102497589D01*
X151140965Y-102495024D01*
X151255966Y-102454638D01*
X151268899Y-102447791D01*
X151365835Y-102376192D01*
X151376192Y-102365835D01*
X151447791Y-102268899D01*
X151454638Y-102255966D01*
X151495022Y-102140969D01*
X151497590Y-102129266D01*
X151499782Y-102106082D01*
X151500000Y-102101446D01*
X151500000Y-101769680D01*
X151495878Y-101756995D01*
X151491757Y-101754000D01*
X150769680Y-101754000D01*
X150756995Y-101758122D01*
X150754000Y-101762243D01*
X150754000Y-102484319D01*
X150246000Y-102484319D01*
X150246000Y-101769680D01*
X150241878Y-101756995D01*
X150237757Y-101754000D01*
X149515681Y-101754000D01*
X149502996Y-101758122D01*
X149500001Y-101762243D01*
X149500001Y-102101443D01*
X148912310Y-102101443D01*
X148894320Y-102072085D01*
X148887271Y-102058249D01*
X148818442Y-101892080D01*
X148813641Y-101877306D01*
X148771653Y-101702414D01*
X148769223Y-101687071D01*
X148756987Y-101531612D01*
X148757713Y-101519314D01*
X148757583Y-101519314D01*
X148757583Y-101509564D01*
X148759486Y-101500000D01*
X148756402Y-101484495D01*
X148754500Y-101465182D01*
X148754500Y-101230320D01*
X149500000Y-101230320D01*
X149504122Y-101243005D01*
X149508243Y-101246000D01*
X150230320Y-101246000D01*
X150243005Y-101241878D01*
X150246000Y-101237757D01*
X150246000Y-101230320D01*
X150754000Y-101230320D01*
X150758122Y-101243005D01*
X150762243Y-101246000D01*
X151484319Y-101246000D01*
X151497004Y-101241878D01*
X151499999Y-101237757D01*
X151499999Y-100898557D01*
X151499780Y-100893914D01*
X151497589Y-100870731D01*
X151495024Y-100859035D01*
X151454638Y-100744034D01*
X151447791Y-100731101D01*
X151376192Y-100634165D01*
X151365835Y-100623808D01*
X151268899Y-100552209D01*
X151255966Y-100545362D01*
X151140969Y-100504978D01*
X151129266Y-100502410D01*
X151106082Y-100500218D01*
X151101446Y-100500000D01*
X150769680Y-100500000D01*
X150756995Y-100504122D01*
X150754000Y-100508243D01*
X150754000Y-101230320D01*
X150246000Y-101230320D01*
X150246000Y-100515681D01*
X150241878Y-100502996D01*
X150237757Y-100500001D01*
X149898557Y-100500001D01*
X149893914Y-100500220D01*
X149870731Y-100502411D01*
X149859035Y-100504976D01*
X149744034Y-100545362D01*
X149731101Y-100552209D01*
X149634165Y-100623808D01*
X149623808Y-100634165D01*
X149552209Y-100731101D01*
X149545362Y-100744034D01*
X149504978Y-100859031D01*
X149502410Y-100870734D01*
X149500218Y-100893918D01*
X149500000Y-100898554D01*
X149500000Y-101230320D01*
X148754500Y-101230320D01*
X148754500Y-97885206D01*
X149440501Y-97885206D01*
X149457806Y-98091278D01*
X149459139Y-98095926D01*
X149459139Y-98095927D01*
X149471589Y-98139344D01*
X149514807Y-98290066D01*
X149517022Y-98294376D01*
X149537995Y-98335185D01*
X149609334Y-98473995D01*
X149737786Y-98636061D01*
X149741466Y-98639193D01*
X149741468Y-98639195D01*
X149854802Y-98735649D01*
X149895271Y-98770091D01*
X150075789Y-98870980D01*
X150080387Y-98872474D01*
X150267861Y-98933388D01*
X150267863Y-98933389D01*
X150272466Y-98934884D01*
X150477809Y-98959370D01*
X150482631Y-98958999D01*
X150482633Y-98958999D01*
X150679170Y-98943876D01*
X150679175Y-98943875D01*
X150683998Y-98943504D01*
X150883178Y-98887892D01*
X150887491Y-98885713D01*
X150887497Y-98885711D01*
X151063442Y-98796835D01*
X151063444Y-98796833D01*
X151067763Y-98794652D01*
X151230722Y-98667334D01*
X151365848Y-98510789D01*
X151467995Y-98330979D01*
X151533270Y-98134753D01*
X151559189Y-97929586D01*
X151559602Y-97900000D01*
X151539422Y-97694189D01*
X151535047Y-97679696D01*
X151517466Y-97621465D01*
X151479651Y-97496217D01*
X151382565Y-97313625D01*
X151369540Y-97297654D01*
X151254924Y-97157121D01*
X151254923Y-97157120D01*
X151251863Y-97153368D01*
X151184639Y-97097756D01*
X160145500Y-97097756D01*
X160152202Y-97159448D01*
X160202929Y-97294764D01*
X160289596Y-97410404D01*
X160405236Y-97497071D01*
X160540552Y-97547798D01*
X160602244Y-97554500D01*
X161797756Y-97554500D01*
X161859448Y-97547798D01*
X161994764Y-97497071D01*
X162110404Y-97410404D01*
X162197071Y-97294764D01*
X162247798Y-97159448D01*
X162254500Y-97097756D01*
X162254500Y-95902244D01*
X162247798Y-95840552D01*
X162197071Y-95705236D01*
X162110404Y-95589596D01*
X161994764Y-95502929D01*
X161859448Y-95452202D01*
X161797756Y-95445500D01*
X160602244Y-95445500D01*
X160540552Y-95452202D01*
X160405236Y-95502929D01*
X160289596Y-95589596D01*
X160202929Y-95705236D01*
X160152202Y-95840552D01*
X160145500Y-95902244D01*
X160145500Y-97097756D01*
X151184639Y-97097756D01*
X151092522Y-97021550D01*
X150910612Y-96923192D01*
X150846032Y-96903201D01*
X150717684Y-96863470D01*
X150717680Y-96863469D01*
X150713063Y-96862040D01*
X150708256Y-96861535D01*
X150708252Y-96861534D01*
X150512213Y-96840930D01*
X150512211Y-96840930D01*
X150507397Y-96840424D01*
X150446925Y-96845927D01*
X150306269Y-96858727D01*
X150306264Y-96858728D01*
X150301450Y-96859166D01*
X150224815Y-96881721D01*
X150107713Y-96916186D01*
X150107710Y-96916187D01*
X150103066Y-96917554D01*
X149919801Y-97013363D01*
X149758635Y-97142943D01*
X149746738Y-97157121D01*
X149628817Y-97297654D01*
X149628814Y-97297658D01*
X149625708Y-97301360D01*
X149526082Y-97482578D01*
X149463553Y-97679696D01*
X149440501Y-97885206D01*
X148754500Y-97885206D01*
X148754500Y-94285206D01*
X149440501Y-94285206D01*
X149457806Y-94491278D01*
X149459139Y-94495926D01*
X149459139Y-94495927D01*
X149471589Y-94539344D01*
X149514807Y-94690066D01*
X149517022Y-94694376D01*
X149537995Y-94735185D01*
X149609334Y-94873995D01*
X149737786Y-95036061D01*
X149741466Y-95039193D01*
X149741468Y-95039195D01*
X149854802Y-95135649D01*
X149895271Y-95170091D01*
X150075789Y-95270980D01*
X150080387Y-95272474D01*
X150267861Y-95333388D01*
X150267863Y-95333389D01*
X150272466Y-95334884D01*
X150477809Y-95359370D01*
X150482631Y-95358999D01*
X150482633Y-95358999D01*
X150679170Y-95343876D01*
X150679175Y-95343875D01*
X150683998Y-95343504D01*
X150883178Y-95287892D01*
X150887491Y-95285713D01*
X150887497Y-95285711D01*
X151063442Y-95196835D01*
X151063444Y-95196833D01*
X151067763Y-95194652D01*
X151230722Y-95067334D01*
X151365848Y-94910789D01*
X151467995Y-94730979D01*
X151533270Y-94534753D01*
X151559189Y-94329586D01*
X151559602Y-94300000D01*
X151539422Y-94094189D01*
X151535047Y-94079696D01*
X151517466Y-94021465D01*
X151479651Y-93896217D01*
X151413604Y-93772000D01*
X151409004Y-93763348D01*
X160701134Y-93763348D01*
X160708363Y-93770860D01*
X160793488Y-93818435D01*
X160802316Y-93822292D01*
X160979627Y-93879904D01*
X160989027Y-93881971D01*
X161174155Y-93904046D01*
X161183781Y-93904248D01*
X161369659Y-93889945D01*
X161379153Y-93888271D01*
X161558713Y-93838136D01*
X161567693Y-93834654D01*
X161691726Y-93772000D01*
X161699765Y-93764017D01*
X161694573Y-93753783D01*
X161211086Y-93270296D01*
X161199203Y-93264242D01*
X161194172Y-93265038D01*
X160706611Y-93752599D01*
X160701134Y-93763348D01*
X151409004Y-93763348D01*
X151384838Y-93717899D01*
X151384836Y-93717895D01*
X151382565Y-93713625D01*
X151369540Y-93697654D01*
X151254924Y-93557121D01*
X151254923Y-93557120D01*
X151251863Y-93553368D01*
X151092522Y-93421550D01*
X150910612Y-93323192D01*
X150846032Y-93303201D01*
X150717684Y-93263470D01*
X150717680Y-93263469D01*
X150713063Y-93262040D01*
X150708256Y-93261535D01*
X150708252Y-93261534D01*
X150512213Y-93240930D01*
X150512211Y-93240930D01*
X150507397Y-93240424D01*
X150446925Y-93245927D01*
X150306269Y-93258727D01*
X150306264Y-93258728D01*
X150301450Y-93259166D01*
X150263634Y-93270296D01*
X150107713Y-93316186D01*
X150107710Y-93316187D01*
X150103066Y-93317554D01*
X149919801Y-93413363D01*
X149758635Y-93542943D01*
X149746738Y-93557121D01*
X149628817Y-93697654D01*
X149628814Y-93697658D01*
X149625708Y-93701360D01*
X149526082Y-93882578D01*
X149463553Y-94079696D01*
X149440501Y-94285206D01*
X148754500Y-94285206D01*
X148754500Y-92890790D01*
X160195664Y-92890790D01*
X160211264Y-93076574D01*
X160213002Y-93086042D01*
X160264388Y-93265248D01*
X160267939Y-93274216D01*
X160328202Y-93391476D01*
X160336330Y-93399547D01*
X160346393Y-93394397D01*
X160829704Y-92911086D01*
X160834946Y-92900797D01*
X161564242Y-92900797D01*
X161565038Y-92905828D01*
X162052520Y-93393310D01*
X162063375Y-93398841D01*
X162070783Y-93391762D01*
X162115577Y-93312911D01*
X162119493Y-93304116D01*
X162178341Y-93127212D01*
X162180475Y-93117818D01*
X162204099Y-92930810D01*
X162204486Y-92925283D01*
X162204800Y-92902759D01*
X162204570Y-92897261D01*
X162186174Y-92709636D01*
X162184305Y-92700198D01*
X162130418Y-92521718D01*
X162126748Y-92512814D01*
X162071503Y-92408912D01*
X162063086Y-92400784D01*
X162053368Y-92405842D01*
X161570296Y-92888914D01*
X161564242Y-92900797D01*
X160834946Y-92900797D01*
X160835758Y-92899203D01*
X160834962Y-92894172D01*
X160347285Y-92406495D01*
X160336643Y-92401073D01*
X160329029Y-92408452D01*
X160278752Y-92499905D01*
X160274952Y-92508769D01*
X160218583Y-92686467D01*
X160216579Y-92695895D01*
X160195798Y-92881162D01*
X160195664Y-92890790D01*
X148754500Y-92890790D01*
X148754500Y-92036642D01*
X160700637Y-92036642D01*
X160705741Y-92046531D01*
X161188914Y-92529704D01*
X161200797Y-92535758D01*
X161205828Y-92534962D01*
X161693657Y-92047133D01*
X161699024Y-92036599D01*
X161691496Y-92028885D01*
X161593645Y-91975976D01*
X161584774Y-91972247D01*
X161406673Y-91917116D01*
X161397239Y-91915179D01*
X161211831Y-91895691D01*
X161202193Y-91895624D01*
X161016532Y-91912520D01*
X161007066Y-91914326D01*
X160828220Y-91966965D01*
X160819296Y-91970570D01*
X160708739Y-92028368D01*
X160700637Y-92036642D01*
X148754500Y-92036642D01*
X148754500Y-91563348D01*
X150001134Y-91563348D01*
X150008363Y-91570860D01*
X150093488Y-91618435D01*
X150102316Y-91622292D01*
X150279627Y-91679904D01*
X150289027Y-91681971D01*
X150474155Y-91704046D01*
X150483781Y-91704248D01*
X150669659Y-91689945D01*
X150679153Y-91688271D01*
X150858713Y-91638136D01*
X150867693Y-91634654D01*
X150991726Y-91572000D01*
X150999765Y-91564017D01*
X150994573Y-91553783D01*
X150511086Y-91070296D01*
X150499203Y-91064242D01*
X150494172Y-91065038D01*
X150006611Y-91552599D01*
X150001134Y-91563348D01*
X148754500Y-91563348D01*
X148754500Y-90690790D01*
X149495664Y-90690790D01*
X149511264Y-90876574D01*
X149513002Y-90886042D01*
X149564388Y-91065248D01*
X149567939Y-91074216D01*
X149628202Y-91191476D01*
X149636330Y-91199547D01*
X149646393Y-91194397D01*
X150129704Y-90711086D01*
X150134946Y-90700797D01*
X150864242Y-90700797D01*
X150865038Y-90705828D01*
X151352520Y-91193310D01*
X151363375Y-91198841D01*
X151370783Y-91191762D01*
X151415577Y-91112911D01*
X151419493Y-91104116D01*
X151478341Y-90927212D01*
X151480475Y-90917818D01*
X151504099Y-90730810D01*
X151504486Y-90725283D01*
X151504800Y-90702759D01*
X151504570Y-90697261D01*
X151486174Y-90509636D01*
X151484305Y-90500198D01*
X151430418Y-90321718D01*
X151426748Y-90312814D01*
X151371503Y-90208912D01*
X151363086Y-90200784D01*
X151353368Y-90205842D01*
X150870296Y-90688914D01*
X150864242Y-90700797D01*
X150134946Y-90700797D01*
X150135758Y-90699203D01*
X150134962Y-90694172D01*
X149647285Y-90206495D01*
X149636643Y-90201073D01*
X149629029Y-90208452D01*
X149578752Y-90299905D01*
X149574952Y-90308769D01*
X149518583Y-90486467D01*
X149516579Y-90495895D01*
X149495798Y-90681162D01*
X149495664Y-90690790D01*
X148754500Y-90690790D01*
X148754500Y-90534818D01*
X148756402Y-90515505D01*
X148757584Y-90509564D01*
X148757584Y-90509562D01*
X148759486Y-90500000D01*
X148757583Y-90490436D01*
X148757583Y-90480686D01*
X148757713Y-90480686D01*
X148756987Y-90468388D01*
X148769223Y-90312929D01*
X148771653Y-90297586D01*
X148813641Y-90122694D01*
X148818442Y-90107920D01*
X148887271Y-89941751D01*
X148894320Y-89927915D01*
X148950252Y-89836642D01*
X150000637Y-89836642D01*
X150005741Y-89846531D01*
X150488914Y-90329704D01*
X150500797Y-90335758D01*
X150505828Y-90334962D01*
X150993657Y-89847133D01*
X150999024Y-89836599D01*
X150991496Y-89828885D01*
X150893645Y-89775976D01*
X150884774Y-89772247D01*
X150706673Y-89717116D01*
X150697239Y-89715179D01*
X150511831Y-89695691D01*
X150502193Y-89695624D01*
X150316532Y-89712520D01*
X150307066Y-89714326D01*
X150128220Y-89766965D01*
X150119296Y-89770570D01*
X150008739Y-89828368D01*
X150000637Y-89836642D01*
X148950252Y-89836642D01*
X148988301Y-89774551D01*
X148997426Y-89761992D01*
X149038137Y-89714326D01*
X149114241Y-89625221D01*
X149125223Y-89614239D01*
X149132510Y-89608016D01*
X149261993Y-89497426D01*
X149274551Y-89488301D01*
X149427915Y-89394320D01*
X149441751Y-89387271D01*
X149607920Y-89318442D01*
X149622694Y-89313641D01*
X149797586Y-89271653D01*
X149812929Y-89269223D01*
X149882082Y-89263780D01*
X149968391Y-89256987D01*
X149980686Y-89257713D01*
X149980686Y-89257583D01*
X149990436Y-89257583D01*
X150000000Y-89259486D01*
X150009562Y-89257584D01*
X150009564Y-89257584D01*
X150015505Y-89256402D01*
X150034818Y-89254500D01*
X152965182Y-89254500D01*
X152984496Y-89256402D01*
X153000000Y-89259486D01*
X153009562Y-89257584D01*
X153089736Y-89241637D01*
X153089738Y-89241636D01*
X153099301Y-89239734D01*
X153183484Y-89183484D01*
X153239734Y-89099301D01*
X153259486Y-89000000D01*
X153257583Y-88990435D01*
X153257583Y-88985558D01*
X153256366Y-88967967D01*
X153258230Y-88935964D01*
X154642112Y-88935964D01*
X154642269Y-88940149D01*
X154642269Y-88940152D01*
X154644464Y-88998599D01*
X154644060Y-88998614D01*
X154644303Y-88999983D01*
X154644339Y-88999980D01*
X154644341Y-89000000D01*
X154644648Y-89003507D01*
X154644718Y-89005374D01*
X154644718Y-89005619D01*
X154644741Y-89005972D01*
X154650736Y-89165669D01*
X154651596Y-89169769D01*
X154651597Y-89169775D01*
X154664628Y-89231879D01*
X154664165Y-89231976D01*
X154664790Y-89233724D01*
X154664937Y-89235408D01*
X154666054Y-89239576D01*
X154666054Y-89239577D01*
X154666225Y-89240216D01*
X154667486Y-89245501D01*
X154682165Y-89315459D01*
X154697939Y-89390637D01*
X154720721Y-89448326D01*
X154722699Y-89453335D01*
X154723646Y-89455831D01*
X154724980Y-89459494D01*
X154726097Y-89463663D01*
X154727922Y-89467576D01*
X154727924Y-89467582D01*
X154729287Y-89470505D01*
X154731642Y-89475979D01*
X154758740Y-89544595D01*
X154782372Y-89604436D01*
X154784542Y-89608012D01*
X154784544Y-89608016D01*
X154820030Y-89666494D01*
X154822213Y-89670579D01*
X154824142Y-89673919D01*
X154825965Y-89677829D01*
X154828442Y-89681367D01*
X154828443Y-89681368D01*
X154831184Y-89685283D01*
X154834724Y-89690709D01*
X154885607Y-89774561D01*
X154901621Y-89800952D01*
X154904371Y-89804121D01*
X154952913Y-89860060D01*
X154958676Y-89867442D01*
X154959022Y-89867854D01*
X154961505Y-89871401D01*
X154968476Y-89878372D01*
X154973244Y-89883490D01*
X155052276Y-89974566D01*
X155055519Y-89977225D01*
X155055521Y-89977227D01*
X155117331Y-90027908D01*
X155124563Y-90034459D01*
X155128599Y-90038495D01*
X155132135Y-90040971D01*
X155136772Y-90044218D01*
X155142759Y-90048758D01*
X155230029Y-90120315D01*
X155308466Y-90164963D01*
X155316271Y-90169903D01*
X155322171Y-90174035D01*
X155326086Y-90175860D01*
X155326090Y-90175863D01*
X155330869Y-90178091D01*
X155338003Y-90181778D01*
X155429798Y-90234030D01*
X155520610Y-90266994D01*
X155528666Y-90270327D01*
X155532411Y-90272073D01*
X155532417Y-90272075D01*
X155536337Y-90273903D01*
X155540512Y-90275022D01*
X155540516Y-90275023D01*
X155544842Y-90276182D01*
X155552996Y-90278749D01*
X155641925Y-90311029D01*
X155641929Y-90311030D01*
X155645871Y-90312461D01*
X155747541Y-90330846D01*
X155755531Y-90332635D01*
X155764592Y-90335063D01*
X155772235Y-90335732D01*
X155781194Y-90336931D01*
X155872069Y-90353364D01*
X155891041Y-90354259D01*
X155895011Y-90354446D01*
X155895015Y-90354446D01*
X155896158Y-90354500D01*
X156057712Y-90354500D01*
X156059795Y-90354323D01*
X156059801Y-90354323D01*
X156224873Y-90340316D01*
X156224874Y-90340316D01*
X156229044Y-90339962D01*
X156233094Y-90338911D01*
X156233099Y-90338910D01*
X156447483Y-90283267D01*
X156447486Y-90283266D01*
X156451539Y-90282214D01*
X156467503Y-90275023D01*
X156500359Y-90260222D01*
X156661123Y-90187803D01*
X156851803Y-90059430D01*
X156937974Y-89977227D01*
X157015094Y-89903659D01*
X157015098Y-89903654D01*
X157018128Y-89900764D01*
X157030980Y-89883491D01*
X157080277Y-89817233D01*
X157155342Y-89716342D01*
X157174923Y-89677829D01*
X157257623Y-89515170D01*
X157257625Y-89515166D01*
X157259520Y-89511438D01*
X157327685Y-89291911D01*
X157343873Y-89169775D01*
X157357338Y-89068188D01*
X157357338Y-89068184D01*
X157357888Y-89064036D01*
X157355843Y-89009563D01*
X157355536Y-89001401D01*
X157355940Y-89001386D01*
X157355697Y-89000017D01*
X157355661Y-89000020D01*
X157355625Y-88999615D01*
X157355352Y-88996493D01*
X157355282Y-88994626D01*
X157355282Y-88994381D01*
X157355259Y-88994021D01*
X157353237Y-88940152D01*
X157349264Y-88834331D01*
X157348404Y-88830231D01*
X157348403Y-88830225D01*
X157335372Y-88768121D01*
X157335835Y-88768024D01*
X157335210Y-88766276D01*
X157335063Y-88764592D01*
X157333775Y-88759784D01*
X157332514Y-88754499D01*
X157302923Y-88613471D01*
X157302923Y-88613470D01*
X157302061Y-88609363D01*
X157277301Y-88546665D01*
X157276354Y-88544169D01*
X157275020Y-88540506D01*
X157273903Y-88536337D01*
X157272078Y-88532424D01*
X157272076Y-88532418D01*
X157270713Y-88529495D01*
X157268358Y-88524021D01*
X157219165Y-88399457D01*
X157217628Y-88395564D01*
X157179968Y-88333502D01*
X157177787Y-88329421D01*
X157175858Y-88326081D01*
X157174035Y-88322171D01*
X157171557Y-88318632D01*
X157168816Y-88314717D01*
X157165276Y-88309291D01*
X157100556Y-88202635D01*
X157100554Y-88202632D01*
X157098379Y-88199048D01*
X157047087Y-88139940D01*
X157041324Y-88132558D01*
X157040978Y-88132146D01*
X157038495Y-88128599D01*
X157031524Y-88121628D01*
X157026755Y-88116509D01*
X156978573Y-88060984D01*
X156947724Y-88025434D01*
X156882669Y-87972092D01*
X156875437Y-87965541D01*
X156871401Y-87961505D01*
X156863228Y-87955782D01*
X156857241Y-87951242D01*
X156773216Y-87882346D01*
X156769971Y-87879685D01*
X156691534Y-87835037D01*
X156683725Y-87830094D01*
X156677829Y-87825965D01*
X156673914Y-87824140D01*
X156673910Y-87824137D01*
X156669131Y-87821909D01*
X156661996Y-87818222D01*
X156573849Y-87768046D01*
X156570202Y-87765970D01*
X156479390Y-87733006D01*
X156471334Y-87729673D01*
X156467589Y-87727927D01*
X156467583Y-87727925D01*
X156463663Y-87726097D01*
X156459488Y-87724978D01*
X156459484Y-87724977D01*
X156455158Y-87723818D01*
X156447004Y-87721251D01*
X156358075Y-87688971D01*
X156358071Y-87688970D01*
X156354129Y-87687539D01*
X156252459Y-87669154D01*
X156244469Y-87667365D01*
X156235408Y-87664937D01*
X156227765Y-87664268D01*
X156218806Y-87663069D01*
X156127931Y-87646636D01*
X156108959Y-87645741D01*
X156104989Y-87645554D01*
X156104985Y-87645554D01*
X156103842Y-87645500D01*
X155942288Y-87645500D01*
X155940205Y-87645677D01*
X155940199Y-87645677D01*
X155775127Y-87659684D01*
X155775126Y-87659684D01*
X155770956Y-87660038D01*
X155766906Y-87661089D01*
X155766901Y-87661090D01*
X155552517Y-87716733D01*
X155552514Y-87716734D01*
X155548461Y-87717786D01*
X155544639Y-87719507D01*
X155544638Y-87719508D01*
X155499641Y-87739778D01*
X155338877Y-87812197D01*
X155148197Y-87940570D01*
X155145156Y-87943471D01*
X154984906Y-88096341D01*
X154984902Y-88096346D01*
X154981872Y-88099236D01*
X154979370Y-88102599D01*
X154979369Y-88102600D01*
X154967051Y-88119156D01*
X154844658Y-88283658D01*
X154842756Y-88287399D01*
X154789583Y-88391984D01*
X154740480Y-88488562D01*
X154672315Y-88708089D01*
X154671765Y-88712239D01*
X154655583Y-88834331D01*
X154642112Y-88935964D01*
X153258230Y-88935964D01*
X153272730Y-88687019D01*
X153274066Y-88675585D01*
X153300301Y-88526795D01*
X153327505Y-88372516D01*
X153330158Y-88361321D01*
X153338486Y-88333506D01*
X153418422Y-88066503D01*
X153422360Y-88055685D01*
X153544246Y-87773122D01*
X153549412Y-87762834D01*
X153703287Y-87496314D01*
X153709614Y-87486695D01*
X153893382Y-87239852D01*
X153900782Y-87231033D01*
X154111969Y-87007188D01*
X154120343Y-86999288D01*
X154356085Y-86801477D01*
X154365319Y-86794602D01*
X154420065Y-86758595D01*
X154622436Y-86625493D01*
X154632397Y-86619742D01*
X154839164Y-86515900D01*
X154907415Y-86481623D01*
X154917974Y-86477068D01*
X155033989Y-86434843D01*
X155207171Y-86371810D01*
X155218200Y-86368509D01*
X155414332Y-86322024D01*
X155517636Y-86297540D01*
X155528965Y-86295542D01*
X155834640Y-86259814D01*
X155846132Y-86259145D01*
X156153868Y-86259145D01*
X156165360Y-86259814D01*
G37*
G04 #@! TD.AperFunction*
M02*
