G04 #@! TF.GenerationSoftware,KiCad,Pcbnew,(6.0.7-1)-1*
G04 #@! TF.CreationDate,2024-08-15T11:21:40+03:00*
G04 #@! TF.ProjectId,Ideal_Diode,49646561-6c5f-4446-996f-64652e6b6963,rev?*
G04 #@! TF.SameCoordinates,Original*
G04 #@! TF.FileFunction,Legend,Bot*
G04 #@! TF.FilePolarity,Positive*
%FSLAX46Y46*%
G04 Gerber Fmt 4.6, Leading zero omitted, Abs format (unit mm)*
G04 Created by KiCad (PCBNEW (6.0.7-1)-1) date 2024-08-15 11:21:40*
%MOMM*%
%LPD*%
G01*
G04 APERTURE LIST*
G04 Aperture macros list*
%AMRoundRect*
0 Rectangle with rounded corners*
0 $1 Rounding radius*
0 $2 $3 $4 $5 $6 $7 $8 $9 X,Y pos of 4 corners*
0 Add a 4 corners polygon primitive as box body*
4,1,4,$2,$3,$4,$5,$6,$7,$8,$9,$2,$3,0*
0 Add four circle primitives for the rounded corners*
1,1,$1+$1,$2,$3*
1,1,$1+$1,$4,$5*
1,1,$1+$1,$6,$7*
1,1,$1+$1,$8,$9*
0 Add four rect primitives between the rounded corners*
20,1,$1+$1,$2,$3,$4,$5,0*
20,1,$1+$1,$4,$5,$6,$7,0*
20,1,$1+$1,$6,$7,$8,$9,0*
20,1,$1+$1,$8,$9,$2,$3,0*%
G04 Aperture macros list end*
%ADD10C,0.125000*%
%ADD11RoundRect,0.250000X0.550000X-0.550000X0.550000X0.550000X-0.550000X0.550000X-0.550000X-0.550000X0*%
%ADD12C,1.600000*%
%ADD13C,2.200000*%
G04 APERTURE END LIST*
D10*
X162299702Y-98116190D02*
X162299702Y-97616190D01*
X162180654Y-97616190D01*
X162109226Y-97640000D01*
X162061607Y-97687619D01*
X162037797Y-97735238D01*
X162013988Y-97830476D01*
X162013988Y-97901904D01*
X162037797Y-97997142D01*
X162061607Y-98044761D01*
X162109226Y-98092380D01*
X162180654Y-98116190D01*
X162299702Y-98116190D01*
X161609226Y-98092380D02*
X161656845Y-98116190D01*
X161752083Y-98116190D01*
X161799702Y-98092380D01*
X161823511Y-98044761D01*
X161823511Y-97854285D01*
X161799702Y-97806666D01*
X161752083Y-97782857D01*
X161656845Y-97782857D01*
X161609226Y-97806666D01*
X161585416Y-97854285D01*
X161585416Y-97901904D01*
X161823511Y-97949523D01*
X161394940Y-98092380D02*
X161347321Y-98116190D01*
X161252083Y-98116190D01*
X161204464Y-98092380D01*
X161180654Y-98044761D01*
X161180654Y-98020952D01*
X161204464Y-97973333D01*
X161252083Y-97949523D01*
X161323511Y-97949523D01*
X161371130Y-97925714D01*
X161394940Y-97878095D01*
X161394940Y-97854285D01*
X161371130Y-97806666D01*
X161323511Y-97782857D01*
X161252083Y-97782857D01*
X161204464Y-97806666D01*
X160966369Y-98116190D02*
X160966369Y-97782857D01*
X160966369Y-97616190D02*
X160990178Y-97640000D01*
X160966369Y-97663809D01*
X160942559Y-97640000D01*
X160966369Y-97616190D01*
X160966369Y-97663809D01*
X160513988Y-97782857D02*
X160513988Y-98187619D01*
X160537797Y-98235238D01*
X160561607Y-98259047D01*
X160609226Y-98282857D01*
X160680654Y-98282857D01*
X160728273Y-98259047D01*
X160513988Y-98092380D02*
X160561607Y-98116190D01*
X160656845Y-98116190D01*
X160704464Y-98092380D01*
X160728273Y-98068571D01*
X160752083Y-98020952D01*
X160752083Y-97878095D01*
X160728273Y-97830476D01*
X160704464Y-97806666D01*
X160656845Y-97782857D01*
X160561607Y-97782857D01*
X160513988Y-97806666D01*
X160275892Y-97782857D02*
X160275892Y-98116190D01*
X160275892Y-97830476D02*
X160252083Y-97806666D01*
X160204464Y-97782857D01*
X160133035Y-97782857D01*
X160085416Y-97806666D01*
X160061607Y-97854285D01*
X160061607Y-98116190D01*
X159633035Y-98092380D02*
X159680654Y-98116190D01*
X159775892Y-98116190D01*
X159823511Y-98092380D01*
X159847321Y-98044761D01*
X159847321Y-97854285D01*
X159823511Y-97806666D01*
X159775892Y-97782857D01*
X159680654Y-97782857D01*
X159633035Y-97806666D01*
X159609226Y-97854285D01*
X159609226Y-97901904D01*
X159847321Y-97949523D01*
X159180654Y-98116190D02*
X159180654Y-97616190D01*
X159180654Y-98092380D02*
X159228273Y-98116190D01*
X159323511Y-98116190D01*
X159371130Y-98092380D01*
X159394940Y-98068571D01*
X159418750Y-98020952D01*
X159418750Y-97878095D01*
X159394940Y-97830476D01*
X159371130Y-97806666D01*
X159323511Y-97782857D01*
X159228273Y-97782857D01*
X159180654Y-97806666D01*
X158561607Y-98116190D02*
X158561607Y-97616190D01*
X158561607Y-97806666D02*
X158513988Y-97782857D01*
X158418750Y-97782857D01*
X158371130Y-97806666D01*
X158347321Y-97830476D01*
X158323511Y-97878095D01*
X158323511Y-98020952D01*
X158347321Y-98068571D01*
X158371130Y-98092380D01*
X158418750Y-98116190D01*
X158513988Y-98116190D01*
X158561607Y-98092380D01*
X158156845Y-97782857D02*
X158037797Y-98116190D01*
X157918750Y-97782857D02*
X158037797Y-98116190D01*
X158085416Y-98235238D01*
X158109226Y-98259047D01*
X158156845Y-98282857D01*
X162156845Y-98421190D02*
X162156845Y-98778333D01*
X162180654Y-98849761D01*
X162228273Y-98897380D01*
X162299702Y-98921190D01*
X162347321Y-98921190D01*
X161847321Y-98921190D02*
X161894940Y-98897380D01*
X161918750Y-98873571D01*
X161942559Y-98825952D01*
X161942559Y-98683095D01*
X161918750Y-98635476D01*
X161894940Y-98611666D01*
X161847321Y-98587857D01*
X161775892Y-98587857D01*
X161728273Y-98611666D01*
X161704464Y-98635476D01*
X161680654Y-98683095D01*
X161680654Y-98825952D01*
X161704464Y-98873571D01*
X161728273Y-98897380D01*
X161775892Y-98921190D01*
X161847321Y-98921190D01*
X161394940Y-98921190D02*
X161442559Y-98897380D01*
X161466369Y-98873571D01*
X161490178Y-98825952D01*
X161490178Y-98683095D01*
X161466369Y-98635476D01*
X161442559Y-98611666D01*
X161394940Y-98587857D01*
X161323511Y-98587857D01*
X161275892Y-98611666D01*
X161252083Y-98635476D01*
X161228273Y-98683095D01*
X161228273Y-98825952D01*
X161252083Y-98873571D01*
X161275892Y-98897380D01*
X161323511Y-98921190D01*
X161394940Y-98921190D01*
X161013988Y-98587857D02*
X161013988Y-98921190D01*
X161013988Y-98635476D02*
X160990178Y-98611666D01*
X160942559Y-98587857D01*
X160871130Y-98587857D01*
X160823511Y-98611666D01*
X160799702Y-98659285D01*
X160799702Y-98921190D01*
X160347321Y-98921190D02*
X160347321Y-98659285D01*
X160371130Y-98611666D01*
X160418750Y-98587857D01*
X160513988Y-98587857D01*
X160561607Y-98611666D01*
X160347321Y-98897380D02*
X160394940Y-98921190D01*
X160513988Y-98921190D01*
X160561607Y-98897380D01*
X160585416Y-98849761D01*
X160585416Y-98802142D01*
X160561607Y-98754523D01*
X160513988Y-98730714D01*
X160394940Y-98730714D01*
X160347321Y-98706904D01*
X159799702Y-98421190D02*
X159633035Y-98921190D01*
X159466369Y-98421190D01*
X159085416Y-98587857D02*
X159085416Y-98921190D01*
X159299702Y-98587857D02*
X159299702Y-98849761D01*
X159275892Y-98897380D01*
X159228273Y-98921190D01*
X159156845Y-98921190D01*
X159109226Y-98897380D01*
X159085416Y-98873571D01*
X158775892Y-98921190D02*
X158823511Y-98897380D01*
X158847321Y-98873571D01*
X158871130Y-98825952D01*
X158871130Y-98683095D01*
X158847321Y-98635476D01*
X158823511Y-98611666D01*
X158775892Y-98587857D01*
X158704464Y-98587857D01*
X158656845Y-98611666D01*
X158633035Y-98635476D01*
X158609226Y-98683095D01*
X158609226Y-98825952D01*
X158633035Y-98873571D01*
X158656845Y-98897380D01*
X158704464Y-98921190D01*
X158775892Y-98921190D01*
X158394940Y-98921190D02*
X158394940Y-98587857D01*
X158394940Y-98683095D02*
X158371130Y-98635476D01*
X158347321Y-98611666D01*
X158299702Y-98587857D01*
X158252083Y-98587857D01*
X158085416Y-98921190D02*
X158085416Y-98587857D01*
X158085416Y-98421190D02*
X158109226Y-98445000D01*
X158085416Y-98468809D01*
X158061607Y-98445000D01*
X158085416Y-98421190D01*
X158085416Y-98468809D01*
X157847321Y-98921190D02*
X157847321Y-98587857D01*
X157847321Y-98635476D02*
X157823511Y-98611666D01*
X157775892Y-98587857D01*
X157704464Y-98587857D01*
X157656845Y-98611666D01*
X157633035Y-98659285D01*
X157633035Y-98921190D01*
X157633035Y-98659285D02*
X157609226Y-98611666D01*
X157561607Y-98587857D01*
X157490178Y-98587857D01*
X157442559Y-98611666D01*
X157418750Y-98659285D01*
X157418750Y-98921190D01*
X156966369Y-98921190D02*
X156966369Y-98659285D01*
X156990178Y-98611666D01*
X157037797Y-98587857D01*
X157133035Y-98587857D01*
X157180654Y-98611666D01*
X156966369Y-98897380D02*
X157013988Y-98921190D01*
X157133035Y-98921190D01*
X157180654Y-98897380D01*
X157204464Y-98849761D01*
X157204464Y-98802142D01*
X157180654Y-98754523D01*
X157133035Y-98730714D01*
X157013988Y-98730714D01*
X156966369Y-98706904D01*
X156513988Y-98921190D02*
X156513988Y-98659285D01*
X156537797Y-98611666D01*
X156585416Y-98587857D01*
X156680654Y-98587857D01*
X156728273Y-98611666D01*
X156513988Y-98897380D02*
X156561607Y-98921190D01*
X156680654Y-98921190D01*
X156728273Y-98897380D01*
X156752083Y-98849761D01*
X156752083Y-98802142D01*
X156728273Y-98754523D01*
X156680654Y-98730714D01*
X156561607Y-98730714D01*
X156513988Y-98706904D01*
X155490178Y-98921190D02*
X155513988Y-98921190D01*
X155561607Y-98897380D01*
X155633035Y-98825952D01*
X155752083Y-98683095D01*
X155799702Y-98611666D01*
X155823511Y-98540238D01*
X155823511Y-98492619D01*
X155799702Y-98445000D01*
X155752083Y-98421190D01*
X155728273Y-98421190D01*
X155680654Y-98445000D01*
X155656845Y-98492619D01*
X155656845Y-98516428D01*
X155680654Y-98564047D01*
X155704464Y-98587857D01*
X155847321Y-98683095D01*
X155871130Y-98706904D01*
X155894940Y-98754523D01*
X155894940Y-98825952D01*
X155871130Y-98873571D01*
X155847321Y-98897380D01*
X155799702Y-98921190D01*
X155728273Y-98921190D01*
X155680654Y-98897380D01*
X155656845Y-98873571D01*
X155585416Y-98778333D01*
X155561607Y-98706904D01*
X155561607Y-98659285D01*
X154894940Y-98921190D02*
X154894940Y-98421190D01*
X154775892Y-98421190D01*
X154704464Y-98445000D01*
X154656845Y-98492619D01*
X154633035Y-98540238D01*
X154609226Y-98635476D01*
X154609226Y-98706904D01*
X154633035Y-98802142D01*
X154656845Y-98849761D01*
X154704464Y-98897380D01*
X154775892Y-98921190D01*
X154894940Y-98921190D01*
X154180654Y-98587857D02*
X154180654Y-98921190D01*
X154394940Y-98587857D02*
X154394940Y-98849761D01*
X154371130Y-98897380D01*
X154323511Y-98921190D01*
X154252083Y-98921190D01*
X154204464Y-98897380D01*
X154180654Y-98873571D01*
X153990178Y-98587857D02*
X153871130Y-98921190D01*
X153752083Y-98587857D02*
X153871130Y-98921190D01*
X153918750Y-99040238D01*
X153942559Y-99064047D01*
X153990178Y-99087857D01*
X153252083Y-98421190D02*
X152966369Y-98421190D01*
X153109226Y-98921190D02*
X153109226Y-98421190D01*
X152728273Y-98921190D02*
X152775892Y-98897380D01*
X152799702Y-98873571D01*
X152823511Y-98825952D01*
X152823511Y-98683095D01*
X152799702Y-98635476D01*
X152775892Y-98611666D01*
X152728273Y-98587857D01*
X152656845Y-98587857D01*
X152609226Y-98611666D01*
X152585416Y-98635476D01*
X152561607Y-98683095D01*
X152561607Y-98825952D01*
X152585416Y-98873571D01*
X152609226Y-98897380D01*
X152656845Y-98921190D01*
X152728273Y-98921190D01*
X162299702Y-99726190D02*
X162299702Y-99226190D01*
X162109226Y-99226190D01*
X162061607Y-99250000D01*
X162037797Y-99273809D01*
X162013988Y-99321428D01*
X162013988Y-99392857D01*
X162037797Y-99440476D01*
X162061607Y-99464285D01*
X162109226Y-99488095D01*
X162299702Y-99488095D01*
X161728273Y-99726190D02*
X161775892Y-99702380D01*
X161799702Y-99678571D01*
X161823511Y-99630952D01*
X161823511Y-99488095D01*
X161799702Y-99440476D01*
X161775892Y-99416666D01*
X161728273Y-99392857D01*
X161656845Y-99392857D01*
X161609226Y-99416666D01*
X161585416Y-99440476D01*
X161561607Y-99488095D01*
X161561607Y-99630952D01*
X161585416Y-99678571D01*
X161609226Y-99702380D01*
X161656845Y-99726190D01*
X161728273Y-99726190D01*
X161394940Y-99392857D02*
X161299702Y-99726190D01*
X161204464Y-99488095D01*
X161109226Y-99726190D01*
X161013988Y-99392857D01*
X160633035Y-99702380D02*
X160680654Y-99726190D01*
X160775892Y-99726190D01*
X160823511Y-99702380D01*
X160847321Y-99654761D01*
X160847321Y-99464285D01*
X160823511Y-99416666D01*
X160775892Y-99392857D01*
X160680654Y-99392857D01*
X160633035Y-99416666D01*
X160609226Y-99464285D01*
X160609226Y-99511904D01*
X160847321Y-99559523D01*
X160394940Y-99726190D02*
X160394940Y-99392857D01*
X160394940Y-99488095D02*
X160371130Y-99440476D01*
X160347321Y-99416666D01*
X160299702Y-99392857D01*
X160252083Y-99392857D01*
X159728273Y-99702380D02*
X159656845Y-99726190D01*
X159537797Y-99726190D01*
X159490178Y-99702380D01*
X159466369Y-99678571D01*
X159442559Y-99630952D01*
X159442559Y-99583333D01*
X159466369Y-99535714D01*
X159490178Y-99511904D01*
X159537797Y-99488095D01*
X159633035Y-99464285D01*
X159680654Y-99440476D01*
X159704464Y-99416666D01*
X159728273Y-99369047D01*
X159728273Y-99321428D01*
X159704464Y-99273809D01*
X159680654Y-99250000D01*
X159633035Y-99226190D01*
X159513988Y-99226190D01*
X159442559Y-99250000D01*
X159275892Y-99392857D02*
X159180654Y-99726190D01*
X159085416Y-99488095D01*
X158990178Y-99726190D01*
X158894940Y-99392857D01*
X158704464Y-99726190D02*
X158704464Y-99392857D01*
X158704464Y-99226190D02*
X158728273Y-99250000D01*
X158704464Y-99273809D01*
X158680654Y-99250000D01*
X158704464Y-99226190D01*
X158704464Y-99273809D01*
X158537797Y-99392857D02*
X158347321Y-99392857D01*
X158466369Y-99226190D02*
X158466369Y-99654761D01*
X158442559Y-99702380D01*
X158394940Y-99726190D01*
X158347321Y-99726190D01*
X157966369Y-99702380D02*
X158013988Y-99726190D01*
X158109226Y-99726190D01*
X158156845Y-99702380D01*
X158180654Y-99678571D01*
X158204464Y-99630952D01*
X158204464Y-99488095D01*
X158180654Y-99440476D01*
X158156845Y-99416666D01*
X158109226Y-99392857D01*
X158013988Y-99392857D01*
X157966369Y-99416666D01*
X157752083Y-99726190D02*
X157752083Y-99226190D01*
X157537797Y-99726190D02*
X157537797Y-99464285D01*
X157561607Y-99416666D01*
X157609226Y-99392857D01*
X157680654Y-99392857D01*
X157728273Y-99416666D01*
X157752083Y-99440476D01*
X162323511Y-100507380D02*
X162252083Y-100531190D01*
X162133035Y-100531190D01*
X162085416Y-100507380D01*
X162061607Y-100483571D01*
X162037797Y-100435952D01*
X162037797Y-100388333D01*
X162061607Y-100340714D01*
X162085416Y-100316904D01*
X162133035Y-100293095D01*
X162228273Y-100269285D01*
X162275892Y-100245476D01*
X162299702Y-100221666D01*
X162323511Y-100174047D01*
X162323511Y-100126428D01*
X162299702Y-100078809D01*
X162275892Y-100055000D01*
X162228273Y-100031190D01*
X162109226Y-100031190D01*
X162037797Y-100055000D01*
X161609226Y-100531190D02*
X161609226Y-100269285D01*
X161633035Y-100221666D01*
X161680654Y-100197857D01*
X161775892Y-100197857D01*
X161823511Y-100221666D01*
X161609226Y-100507380D02*
X161656845Y-100531190D01*
X161775892Y-100531190D01*
X161823511Y-100507380D01*
X161847321Y-100459761D01*
X161847321Y-100412142D01*
X161823511Y-100364523D01*
X161775892Y-100340714D01*
X161656845Y-100340714D01*
X161609226Y-100316904D01*
X161418750Y-100197857D02*
X161299702Y-100531190D01*
X161180654Y-100197857D01*
X160918750Y-100531190D02*
X160966369Y-100507380D01*
X160990178Y-100483571D01*
X161013988Y-100435952D01*
X161013988Y-100293095D01*
X160990178Y-100245476D01*
X160966369Y-100221666D01*
X160918750Y-100197857D01*
X160847321Y-100197857D01*
X160799702Y-100221666D01*
X160775892Y-100245476D01*
X160752083Y-100293095D01*
X160752083Y-100435952D01*
X160775892Y-100483571D01*
X160799702Y-100507380D01*
X160847321Y-100531190D01*
X160918750Y-100531190D01*
X160585416Y-100531190D02*
X160323511Y-100197857D01*
X160585416Y-100197857D02*
X160323511Y-100531190D01*
X159585416Y-100269285D02*
X159513988Y-100293095D01*
X159490178Y-100316904D01*
X159466369Y-100364523D01*
X159466369Y-100435952D01*
X159490178Y-100483571D01*
X159513988Y-100507380D01*
X159561607Y-100531190D01*
X159752083Y-100531190D01*
X159752083Y-100031190D01*
X159585416Y-100031190D01*
X159537797Y-100055000D01*
X159513988Y-100078809D01*
X159490178Y-100126428D01*
X159490178Y-100174047D01*
X159513988Y-100221666D01*
X159537797Y-100245476D01*
X159585416Y-100269285D01*
X159752083Y-100269285D01*
X159037797Y-100531190D02*
X159037797Y-100269285D01*
X159061607Y-100221666D01*
X159109226Y-100197857D01*
X159204464Y-100197857D01*
X159252083Y-100221666D01*
X159037797Y-100507380D02*
X159085416Y-100531190D01*
X159204464Y-100531190D01*
X159252083Y-100507380D01*
X159275892Y-100459761D01*
X159275892Y-100412142D01*
X159252083Y-100364523D01*
X159204464Y-100340714D01*
X159085416Y-100340714D01*
X159037797Y-100316904D01*
X158871130Y-100197857D02*
X158680654Y-100197857D01*
X158799702Y-100031190D02*
X158799702Y-100459761D01*
X158775892Y-100507380D01*
X158728273Y-100531190D01*
X158680654Y-100531190D01*
X158585416Y-100197857D02*
X158394940Y-100197857D01*
X158513988Y-100031190D02*
X158513988Y-100459761D01*
X158490178Y-100507380D01*
X158442559Y-100531190D01*
X158394940Y-100531190D01*
X158037797Y-100507380D02*
X158085416Y-100531190D01*
X158180654Y-100531190D01*
X158228273Y-100507380D01*
X158252083Y-100459761D01*
X158252083Y-100269285D01*
X158228273Y-100221666D01*
X158180654Y-100197857D01*
X158085416Y-100197857D01*
X158037797Y-100221666D01*
X158013988Y-100269285D01*
X158013988Y-100316904D01*
X158252083Y-100364523D01*
X157799702Y-100531190D02*
X157799702Y-100197857D01*
X157799702Y-100293095D02*
X157775892Y-100245476D01*
X157752083Y-100221666D01*
X157704464Y-100197857D01*
X157656845Y-100197857D01*
X157537797Y-100197857D02*
X157418750Y-100531190D01*
X157299702Y-100197857D02*
X157418750Y-100531190D01*
X157466369Y-100650238D01*
X157490178Y-100674047D01*
X157537797Y-100697857D01*
X162323511Y-101193333D02*
X162085416Y-101193333D01*
X162371130Y-101336190D02*
X162204464Y-100836190D01*
X162037797Y-101336190D01*
X161656845Y-101336190D02*
X161656845Y-101074285D01*
X161680654Y-101026666D01*
X161728273Y-101002857D01*
X161823511Y-101002857D01*
X161871130Y-101026666D01*
X161656845Y-101312380D02*
X161704464Y-101336190D01*
X161823511Y-101336190D01*
X161871130Y-101312380D01*
X161894940Y-101264761D01*
X161894940Y-101217142D01*
X161871130Y-101169523D01*
X161823511Y-101145714D01*
X161704464Y-101145714D01*
X161656845Y-101121904D01*
X161347321Y-101336190D02*
X161394940Y-101312380D01*
X161418750Y-101264761D01*
X161418750Y-100836190D01*
X161228273Y-101002857D02*
X161037797Y-101002857D01*
X161156845Y-100836190D02*
X161156845Y-101264761D01*
X161133035Y-101312380D01*
X161085416Y-101336190D01*
X161037797Y-101336190D01*
X160799702Y-101336190D02*
X160847321Y-101312380D01*
X160871130Y-101288571D01*
X160894940Y-101240952D01*
X160894940Y-101098095D01*
X160871130Y-101050476D01*
X160847321Y-101026666D01*
X160799702Y-101002857D01*
X160728273Y-101002857D01*
X160680654Y-101026666D01*
X160656845Y-101050476D01*
X160633035Y-101098095D01*
X160633035Y-101240952D01*
X160656845Y-101288571D01*
X160680654Y-101312380D01*
X160728273Y-101336190D01*
X160799702Y-101336190D01*
X160037797Y-100836190D02*
X160037797Y-101240952D01*
X160013988Y-101288571D01*
X159990178Y-101312380D01*
X159942559Y-101336190D01*
X159847321Y-101336190D01*
X159799702Y-101312380D01*
X159775892Y-101288571D01*
X159752083Y-101240952D01*
X159752083Y-100836190D01*
X159513988Y-101002857D02*
X159513988Y-101336190D01*
X159513988Y-101050476D02*
X159490178Y-101026666D01*
X159442559Y-101002857D01*
X159371130Y-101002857D01*
X159323511Y-101026666D01*
X159299702Y-101074285D01*
X159299702Y-101336190D01*
X159061607Y-101336190D02*
X159061607Y-101002857D01*
X159061607Y-100836190D02*
X159085416Y-100860000D01*
X159061607Y-100883809D01*
X159037797Y-100860000D01*
X159061607Y-100836190D01*
X159061607Y-100883809D01*
X158871130Y-101002857D02*
X158752083Y-101336190D01*
X158633035Y-101002857D01*
X158252083Y-101312380D02*
X158299702Y-101336190D01*
X158394940Y-101336190D01*
X158442559Y-101312380D01*
X158466369Y-101264761D01*
X158466369Y-101074285D01*
X158442559Y-101026666D01*
X158394940Y-101002857D01*
X158299702Y-101002857D01*
X158252083Y-101026666D01*
X158228273Y-101074285D01*
X158228273Y-101121904D01*
X158466369Y-101169523D01*
X158013988Y-101336190D02*
X158013988Y-101002857D01*
X158013988Y-101098095D02*
X157990178Y-101050476D01*
X157966369Y-101026666D01*
X157918750Y-101002857D01*
X157871130Y-101002857D01*
X157728273Y-101312380D02*
X157680654Y-101336190D01*
X157585416Y-101336190D01*
X157537797Y-101312380D01*
X157513988Y-101264761D01*
X157513988Y-101240952D01*
X157537797Y-101193333D01*
X157585416Y-101169523D01*
X157656845Y-101169523D01*
X157704464Y-101145714D01*
X157728273Y-101098095D01*
X157728273Y-101074285D01*
X157704464Y-101026666D01*
X157656845Y-101002857D01*
X157585416Y-101002857D01*
X157537797Y-101026666D01*
X157299702Y-101336190D02*
X157299702Y-101002857D01*
X157299702Y-100836190D02*
X157323511Y-100860000D01*
X157299702Y-100883809D01*
X157275892Y-100860000D01*
X157299702Y-100836190D01*
X157299702Y-100883809D01*
X157133035Y-101002857D02*
X156942559Y-101002857D01*
X157061607Y-100836190D02*
X157061607Y-101264761D01*
X157037797Y-101312380D01*
X156990178Y-101336190D01*
X156942559Y-101336190D01*
X156823511Y-101002857D02*
X156704464Y-101336190D01*
X156585416Y-101002857D02*
X156704464Y-101336190D01*
X156752083Y-101455238D01*
X156775892Y-101479047D01*
X156823511Y-101502857D01*
X156013988Y-101145714D02*
X155633035Y-101145714D01*
X155013988Y-101336190D02*
X155013988Y-100836190D01*
X154823511Y-100836190D01*
X154775892Y-100860000D01*
X154752083Y-100883809D01*
X154728273Y-100931428D01*
X154728273Y-101002857D01*
X154752083Y-101050476D01*
X154775892Y-101074285D01*
X154823511Y-101098095D01*
X155013988Y-101098095D01*
X154513988Y-101336190D02*
X154513988Y-101002857D01*
X154513988Y-101098095D02*
X154490178Y-101050476D01*
X154466369Y-101026666D01*
X154418750Y-101002857D01*
X154371130Y-101002857D01*
X154133035Y-101336190D02*
X154180654Y-101312380D01*
X154204464Y-101288571D01*
X154228273Y-101240952D01*
X154228273Y-101098095D01*
X154204464Y-101050476D01*
X154180654Y-101026666D01*
X154133035Y-101002857D01*
X154061607Y-101002857D01*
X154013988Y-101026666D01*
X153990178Y-101050476D01*
X153966369Y-101098095D01*
X153966369Y-101240952D01*
X153990178Y-101288571D01*
X154013988Y-101312380D01*
X154061607Y-101336190D01*
X154133035Y-101336190D01*
X153823511Y-101002857D02*
X153633035Y-101002857D01*
X153752083Y-100836190D02*
X153752083Y-101264761D01*
X153728273Y-101312380D01*
X153680654Y-101336190D01*
X153633035Y-101336190D01*
X153394940Y-101336190D02*
X153442559Y-101312380D01*
X153466369Y-101288571D01*
X153490178Y-101240952D01*
X153490178Y-101098095D01*
X153466369Y-101050476D01*
X153442559Y-101026666D01*
X153394940Y-101002857D01*
X153323511Y-101002857D01*
X153275892Y-101026666D01*
X153252083Y-101050476D01*
X153228273Y-101098095D01*
X153228273Y-101240952D01*
X153252083Y-101288571D01*
X153275892Y-101312380D01*
X153323511Y-101336190D01*
X153394940Y-101336190D01*
X153013988Y-101002857D02*
X153013988Y-101502857D01*
X153013988Y-101026666D02*
X152966369Y-101002857D01*
X152871130Y-101002857D01*
X152823511Y-101026666D01*
X152799702Y-101050476D01*
X152775892Y-101098095D01*
X152775892Y-101240952D01*
X152799702Y-101288571D01*
X152823511Y-101312380D01*
X152871130Y-101336190D01*
X152966369Y-101336190D01*
X153013988Y-101312380D01*
X152347321Y-101336190D02*
X152347321Y-101074285D01*
X152371130Y-101026666D01*
X152418750Y-101002857D01*
X152513988Y-101002857D01*
X152561607Y-101026666D01*
X152347321Y-101312380D02*
X152394940Y-101336190D01*
X152513988Y-101336190D01*
X152561607Y-101312380D01*
X152585416Y-101264761D01*
X152585416Y-101217142D01*
X152561607Y-101169523D01*
X152513988Y-101145714D01*
X152394940Y-101145714D01*
X152347321Y-101121904D01*
X152109226Y-101002857D02*
X152109226Y-101431428D01*
X152133035Y-101479047D01*
X152180654Y-101502857D01*
X152204464Y-101502857D01*
X152109226Y-100836190D02*
X152133035Y-100860000D01*
X152109226Y-100883809D01*
X152085416Y-100860000D01*
X152109226Y-100836190D01*
X152109226Y-100883809D01*
X151656845Y-101336190D02*
X151656845Y-101074285D01*
X151680654Y-101026666D01*
X151728273Y-101002857D01*
X151823511Y-101002857D01*
X151871130Y-101026666D01*
X151656845Y-101312380D02*
X151704464Y-101336190D01*
X151823511Y-101336190D01*
X151871130Y-101312380D01*
X151894940Y-101264761D01*
X151894940Y-101217142D01*
X151871130Y-101169523D01*
X151823511Y-101145714D01*
X151704464Y-101145714D01*
X151656845Y-101121904D01*
X151061607Y-100883809D02*
X151037797Y-100860000D01*
X150990178Y-100836190D01*
X150871130Y-100836190D01*
X150823511Y-100860000D01*
X150799702Y-100883809D01*
X150775892Y-100931428D01*
X150775892Y-100979047D01*
X150799702Y-101050476D01*
X151085416Y-101336190D01*
X150775892Y-101336190D01*
X150347321Y-101002857D02*
X150347321Y-101336190D01*
X150466369Y-100812380D02*
X150585416Y-101169523D01*
X150275892Y-101169523D01*
X150061607Y-100836190D02*
X150109226Y-100931428D01*
%LPC*%
D11*
X161200000Y-96500000D03*
D12*
X161200000Y-92900000D03*
D13*
X156000000Y-103000000D03*
X156000000Y-89000000D03*
D11*
X150500000Y-101500000D03*
D12*
X150500000Y-97900000D03*
X150500000Y-94300000D03*
X150500000Y-90700000D03*
M02*
