G04 #@! TF.GenerationSoftware,KiCad,Pcbnew,(6.0.7-1)-1*
G04 #@! TF.CreationDate,2024-08-15T11:21:40+03:00*
G04 #@! TF.ProjectId,Ideal_Diode,49646561-6c5f-4446-996f-64652e6b6963,rev?*
G04 #@! TF.SameCoordinates,Original*
G04 #@! TF.FileFunction,Legend,Top*
G04 #@! TF.FilePolarity,Positive*
%FSLAX46Y46*%
G04 Gerber Fmt 4.6, Leading zero omitted, Abs format (unit mm)*
G04 Created by KiCad (PCBNEW (6.0.7-1)-1) date 2024-08-15 11:21:40*
%MOMM*%
%LPD*%
G01*
G04 APERTURE LIST*
G04 Aperture macros list*
%AMRoundRect*
0 Rectangle with rounded corners*
0 $1 Rounding radius*
0 $2 $3 $4 $5 $6 $7 $8 $9 X,Y pos of 4 corners*
0 Add a 4 corners polygon primitive as box body*
4,1,4,$2,$3,$4,$5,$6,$7,$8,$9,$2,$3,0*
0 Add four circle primitives for the rounded corners*
1,1,$1+$1,$2,$3*
1,1,$1+$1,$4,$5*
1,1,$1+$1,$6,$7*
1,1,$1+$1,$8,$9*
0 Add four rect primitives between the rounded corners*
20,1,$1+$1,$2,$3,$4,$5,0*
20,1,$1+$1,$4,$5,$6,$7,0*
20,1,$1+$1,$6,$7,$8,$9,0*
20,1,$1+$1,$8,$9,$2,$3,0*%
G04 Aperture macros list end*
%ADD10C,0.150000*%
%ADD11C,0.125000*%
%ADD12C,0.120000*%
%ADD13C,0.152400*%
%ADD14RoundRect,0.200000X-0.200000X-0.275000X0.200000X-0.275000X0.200000X0.275000X-0.200000X0.275000X0*%
%ADD15RoundRect,0.250000X0.550000X-0.550000X0.550000X0.550000X-0.550000X0.550000X-0.550000X-0.550000X0*%
%ADD16C,1.600000*%
%ADD17R,0.228600X0.711200*%
%ADD18RoundRect,0.140000X-0.170000X0.140000X-0.170000X-0.140000X0.170000X-0.140000X0.170000X0.140000X0*%
%ADD19C,2.200000*%
%ADD20RoundRect,0.140000X0.170000X-0.140000X0.170000X0.140000X-0.170000X0.140000X-0.170000X-0.140000X0*%
%ADD21RoundRect,0.140000X-0.140000X-0.170000X0.140000X-0.170000X0.140000X0.170000X-0.140000X0.170000X0*%
G04 APERTURE END LIST*
D10*
X151795238Y-101457142D02*
X152404761Y-101457142D01*
D11*
X150000000Y-100026190D02*
X150000000Y-99526190D01*
X150238095Y-100026190D02*
X150238095Y-99526190D01*
X150523809Y-100026190D01*
X150523809Y-99526190D01*
X150738095Y-99573809D02*
X150761904Y-99550000D01*
X150809523Y-99526190D01*
X150928571Y-99526190D01*
X150976190Y-99550000D01*
X151000000Y-99573809D01*
X151023809Y-99621428D01*
X151023809Y-99669047D01*
X151000000Y-99740476D01*
X150714285Y-100026190D01*
X151023809Y-100026190D01*
D10*
X159195238Y-92857142D02*
X159804761Y-92857142D01*
X159195238Y-96507142D02*
X159804761Y-96507142D01*
X159500000Y-96811904D02*
X159500000Y-96202380D01*
D11*
X150000000Y-92726190D02*
X150000000Y-92226190D01*
X150238095Y-92726190D02*
X150238095Y-92226190D01*
X150523809Y-92726190D01*
X150523809Y-92226190D01*
X151023809Y-92726190D02*
X150738095Y-92726190D01*
X150880952Y-92726190D02*
X150880952Y-92226190D01*
X150833333Y-92297619D01*
X150785714Y-92345238D01*
X150738095Y-92369047D01*
X151695238Y-94257142D02*
X152304761Y-94257142D01*
X152000000Y-94561904D02*
X152000000Y-93952380D01*
D10*
X151695238Y-90657142D02*
X152304761Y-90657142D01*
X151795238Y-97857142D02*
X152404761Y-97857142D01*
X152100000Y-98161904D02*
X152100000Y-97552380D01*
D11*
X155416666Y-93626190D02*
X155250000Y-93388095D01*
X155130952Y-93626190D02*
X155130952Y-93126190D01*
X155321428Y-93126190D01*
X155369047Y-93150000D01*
X155392857Y-93173809D01*
X155416666Y-93221428D01*
X155416666Y-93292857D01*
X155392857Y-93340476D01*
X155369047Y-93364285D01*
X155321428Y-93388095D01*
X155130952Y-93388095D01*
X155892857Y-93626190D02*
X155607142Y-93626190D01*
X155750000Y-93626190D02*
X155750000Y-93126190D01*
X155702380Y-93197619D01*
X155654761Y-93245238D01*
X155607142Y-93269047D01*
X155266666Y-98226190D02*
X155100000Y-97988095D01*
X154980952Y-98226190D02*
X154980952Y-97726190D01*
X155171428Y-97726190D01*
X155219047Y-97750000D01*
X155242857Y-97773809D01*
X155266666Y-97821428D01*
X155266666Y-97892857D01*
X155242857Y-97940476D01*
X155219047Y-97964285D01*
X155171428Y-97988095D01*
X154980952Y-97988095D01*
X155457142Y-97773809D02*
X155480952Y-97750000D01*
X155528571Y-97726190D01*
X155647619Y-97726190D01*
X155695238Y-97750000D01*
X155719047Y-97773809D01*
X155742857Y-97821428D01*
X155742857Y-97869047D01*
X155719047Y-97940476D01*
X155433333Y-98226190D01*
X155742857Y-98226190D01*
X160700000Y-98126190D02*
X160795238Y-98126190D01*
X160842857Y-98150000D01*
X160890476Y-98197619D01*
X160914285Y-98292857D01*
X160914285Y-98459523D01*
X160890476Y-98554761D01*
X160842857Y-98602380D01*
X160795238Y-98626190D01*
X160700000Y-98626190D01*
X160652380Y-98602380D01*
X160604761Y-98554761D01*
X160580952Y-98459523D01*
X160580952Y-98292857D01*
X160604761Y-98197619D01*
X160652380Y-98150000D01*
X160700000Y-98126190D01*
X161128571Y-98126190D02*
X161128571Y-98530952D01*
X161152380Y-98578571D01*
X161176190Y-98602380D01*
X161223809Y-98626190D01*
X161319047Y-98626190D01*
X161366666Y-98602380D01*
X161390476Y-98578571D01*
X161414285Y-98530952D01*
X161414285Y-98126190D01*
X161580952Y-98126190D02*
X161866666Y-98126190D01*
X161723809Y-98626190D02*
X161723809Y-98126190D01*
D10*
X158047619Y-93988095D02*
X157238095Y-93988095D01*
X157142857Y-94035714D01*
X157095238Y-94083333D01*
X157047619Y-94178571D01*
X157047619Y-94369047D01*
X157095238Y-94464285D01*
X157142857Y-94511904D01*
X157238095Y-94559523D01*
X158047619Y-94559523D01*
X157047619Y-95559523D02*
X157047619Y-94988095D01*
X157047619Y-95273809D02*
X158047619Y-95273809D01*
X157904761Y-95178571D01*
X157809523Y-95083333D01*
X157761904Y-94988095D01*
D11*
X153228571Y-92813333D02*
X153252380Y-92837142D01*
X153276190Y-92908571D01*
X153276190Y-92956190D01*
X153252380Y-93027619D01*
X153204761Y-93075238D01*
X153157142Y-93099047D01*
X153061904Y-93122857D01*
X152990476Y-93122857D01*
X152895238Y-93099047D01*
X152847619Y-93075238D01*
X152800000Y-93027619D01*
X152776190Y-92956190D01*
X152776190Y-92908571D01*
X152800000Y-92837142D01*
X152823809Y-92813333D01*
X153276190Y-92337142D02*
X153276190Y-92622857D01*
X153276190Y-92480000D02*
X152776190Y-92480000D01*
X152847619Y-92527619D01*
X152895238Y-92575238D01*
X152919047Y-92622857D01*
X153268571Y-96833333D02*
X153292380Y-96857142D01*
X153316190Y-96928571D01*
X153316190Y-96976190D01*
X153292380Y-97047619D01*
X153244761Y-97095238D01*
X153197142Y-97119047D01*
X153101904Y-97142857D01*
X153030476Y-97142857D01*
X152935238Y-97119047D01*
X152887619Y-97095238D01*
X152840000Y-97047619D01*
X152816190Y-96976190D01*
X152816190Y-96928571D01*
X152840000Y-96857142D01*
X152863809Y-96833333D01*
X152863809Y-96642857D02*
X152840000Y-96619047D01*
X152816190Y-96571428D01*
X152816190Y-96452380D01*
X152840000Y-96404761D01*
X152863809Y-96380952D01*
X152911428Y-96357142D01*
X152959047Y-96357142D01*
X153030476Y-96380952D01*
X153316190Y-96666666D01*
X153316190Y-96357142D01*
X155666666Y-99678571D02*
X155642857Y-99702380D01*
X155571428Y-99726190D01*
X155523809Y-99726190D01*
X155452380Y-99702380D01*
X155404761Y-99654761D01*
X155380952Y-99607142D01*
X155357142Y-99511904D01*
X155357142Y-99440476D01*
X155380952Y-99345238D01*
X155404761Y-99297619D01*
X155452380Y-99250000D01*
X155523809Y-99226190D01*
X155571428Y-99226190D01*
X155642857Y-99250000D01*
X155666666Y-99273809D01*
X155833333Y-99226190D02*
X156142857Y-99226190D01*
X155976190Y-99416666D01*
X156047619Y-99416666D01*
X156095238Y-99440476D01*
X156119047Y-99464285D01*
X156142857Y-99511904D01*
X156142857Y-99630952D01*
X156119047Y-99678571D01*
X156095238Y-99702380D01*
X156047619Y-99726190D01*
X155904761Y-99726190D01*
X155857142Y-99702380D01*
X155833333Y-99678571D01*
D12*
X154012742Y-95272500D02*
X154487258Y-95272500D01*
X154012742Y-94227500D02*
X154487258Y-94227500D01*
X157262742Y-97477500D02*
X157737258Y-97477500D01*
X157262742Y-98522500D02*
X157737258Y-98522500D01*
D13*
X156268100Y-93975300D02*
X156268100Y-95524700D01*
X158731900Y-95524700D02*
X158731900Y-93975300D01*
X158351789Y-93043374D02*
G75*
G03*
X158351789Y-93043374I-101600J0D01*
G01*
D12*
X153890000Y-92622164D02*
X153890000Y-92837836D01*
X154610000Y-92622164D02*
X154610000Y-92837836D01*
X154610000Y-96857836D02*
X154610000Y-96642164D01*
X153890000Y-96857836D02*
X153890000Y-96642164D01*
X157392164Y-99860000D02*
X157607836Y-99860000D01*
X157392164Y-99140000D02*
X157607836Y-99140000D01*
%LPC*%
D14*
X153425000Y-94750000D03*
X155075000Y-94750000D03*
X156675000Y-98000000D03*
X158325000Y-98000000D03*
D15*
X161200000Y-96500000D03*
D16*
X161200000Y-92900000D03*
D17*
X158250189Y-93949900D03*
X157750063Y-93949900D03*
X157249937Y-93949900D03*
X156749811Y-93949900D03*
X156749811Y-95550100D03*
X157249937Y-95550100D03*
X157750063Y-95550100D03*
X158250189Y-95550100D03*
D18*
X154250000Y-92250000D03*
X154250000Y-93210000D03*
D19*
X156000000Y-103000000D03*
X156000000Y-89000000D03*
D15*
X150500000Y-101500000D03*
D16*
X150500000Y-97900000D03*
X150500000Y-94300000D03*
X150500000Y-90700000D03*
D20*
X154250000Y-97230000D03*
X154250000Y-96270000D03*
D21*
X157020000Y-99500000D03*
X157980000Y-99500000D03*
M02*
