G04 #@! TF.GenerationSoftware,KiCad,Pcbnew,(6.0.7-1)-1*
G04 #@! TF.CreationDate,2024-08-15T11:17:30+03:00*
G04 #@! TF.ProjectId,Induction_alt,496e6475-6374-4696-9f6e-5f616c742e6b,rev?*
G04 #@! TF.SameCoordinates,Original*
G04 #@! TF.FileFunction,Copper,L2,Bot*
G04 #@! TF.FilePolarity,Positive*
%FSLAX46Y46*%
G04 Gerber Fmt 4.6, Leading zero omitted, Abs format (unit mm)*
G04 Created by KiCad (PCBNEW (6.0.7-1)-1) date 2024-08-15 11:17:30*
%MOMM*%
%LPD*%
G01*
G04 APERTURE LIST*
G04 Aperture macros list*
%AMRoundRect*
0 Rectangle with rounded corners*
0 $1 Rounding radius*
0 $2 $3 $4 $5 $6 $7 $8 $9 X,Y pos of 4 corners*
0 Add a 4 corners polygon primitive as box body*
4,1,4,$2,$3,$4,$5,$6,$7,$8,$9,$2,$3,0*
0 Add four circle primitives for the rounded corners*
1,1,$1+$1,$2,$3*
1,1,$1+$1,$4,$5*
1,1,$1+$1,$6,$7*
1,1,$1+$1,$8,$9*
0 Add four rect primitives between the rounded corners*
20,1,$1+$1,$2,$3,$4,$5,0*
20,1,$1+$1,$4,$5,$6,$7,0*
20,1,$1+$1,$6,$7,$8,$9,0*
20,1,$1+$1,$8,$9,$2,$3,0*%
G04 Aperture macros list end*
G04 #@! TA.AperFunction,ComponentPad*
%ADD10RoundRect,0.250000X0.550000X-0.550000X0.550000X0.550000X-0.550000X0.550000X-0.550000X-0.550000X0*%
G04 #@! TD*
G04 #@! TA.AperFunction,ComponentPad*
%ADD11C,1.600000*%
G04 #@! TD*
G04 #@! TA.AperFunction,ComponentPad*
%ADD12RoundRect,0.250000X-0.550000X0.550000X-0.550000X-0.550000X0.550000X-0.550000X0.550000X0.550000X0*%
G04 #@! TD*
G04 APERTURE END LIST*
D10*
X162500000Y-92300000D03*
D11*
X162500000Y-88700000D03*
D12*
X175500000Y-88700000D03*
D11*
X175500000Y-92300000D03*
G04 #@! TA.AperFunction,Conductor*
G36*
X175970018Y-85924214D02*
G01*
X175984851Y-85926524D01*
X175984855Y-85926524D01*
X175993724Y-85927905D01*
X176008981Y-85925910D01*
X176034302Y-85925167D01*
X176203284Y-85937253D01*
X176221063Y-85939810D01*
X176411401Y-85981215D01*
X176428631Y-85986274D01*
X176611161Y-86054355D01*
X176627498Y-86061817D01*
X176798448Y-86155163D01*
X176813571Y-86164881D01*
X176969494Y-86281604D01*
X176969503Y-86281611D01*
X176983090Y-86293384D01*
X177120822Y-86431117D01*
X177132595Y-86444704D01*
X177249320Y-86600633D01*
X177259039Y-86615756D01*
X177352388Y-86786712D01*
X177359856Y-86803065D01*
X177427923Y-86985564D01*
X177432988Y-87002813D01*
X177474391Y-87193144D01*
X177476949Y-87210939D01*
X177488530Y-87372871D01*
X177487794Y-87390550D01*
X177487690Y-87399065D01*
X177486309Y-87407934D01*
X177487473Y-87416837D01*
X177487473Y-87416842D01*
X177490436Y-87439504D01*
X177491500Y-87455840D01*
X177491500Y-93950633D01*
X177490000Y-93970018D01*
X177487690Y-93984851D01*
X177487690Y-93984855D01*
X177486309Y-93993724D01*
X177488136Y-94007693D01*
X177488304Y-94008976D01*
X177489047Y-94034305D01*
X177476962Y-94203279D01*
X177474404Y-94221064D01*
X177456598Y-94302919D01*
X177433001Y-94411392D01*
X177427937Y-94428641D01*
X177359864Y-94611150D01*
X177352396Y-94627502D01*
X177259048Y-94798458D01*
X177249328Y-94813582D01*
X177132598Y-94969514D01*
X177120825Y-94983100D01*
X176983100Y-95120825D01*
X176969514Y-95132598D01*
X176813582Y-95249328D01*
X176798458Y-95259048D01*
X176627502Y-95352396D01*
X176611150Y-95359864D01*
X176428641Y-95427937D01*
X176411393Y-95433001D01*
X176221064Y-95474404D01*
X176203285Y-95476961D01*
X176041395Y-95488540D01*
X176023435Y-95487793D01*
X176015155Y-95487692D01*
X176006276Y-95486309D01*
X175974714Y-95490436D01*
X175958379Y-95491500D01*
X162049367Y-95491500D01*
X162029982Y-95490000D01*
X162015149Y-95487690D01*
X162015145Y-95487690D01*
X162006276Y-95486309D01*
X161991019Y-95488304D01*
X161965698Y-95489047D01*
X161796715Y-95476961D01*
X161778936Y-95474404D01*
X161588607Y-95433001D01*
X161571359Y-95427937D01*
X161388850Y-95359864D01*
X161372498Y-95352396D01*
X161201542Y-95259048D01*
X161186418Y-95249328D01*
X161030486Y-95132598D01*
X161016900Y-95120825D01*
X160879175Y-94983100D01*
X160867402Y-94969514D01*
X160750672Y-94813582D01*
X160740952Y-94798458D01*
X160647604Y-94627502D01*
X160640136Y-94611150D01*
X160572063Y-94428641D01*
X160566999Y-94411392D01*
X160543402Y-94302919D01*
X160525596Y-94221064D01*
X160523038Y-94203278D01*
X160511719Y-94045012D01*
X160512805Y-94022245D01*
X160512334Y-94022203D01*
X160512770Y-94017345D01*
X160513576Y-94012552D01*
X160513729Y-94000000D01*
X160509773Y-93972376D01*
X160508500Y-93954514D01*
X160508500Y-92900400D01*
X161191500Y-92900400D01*
X161202474Y-93006166D01*
X161258450Y-93173946D01*
X161351522Y-93324348D01*
X161476697Y-93449305D01*
X161482927Y-93453145D01*
X161482928Y-93453146D01*
X161620090Y-93537694D01*
X161627262Y-93542115D01*
X161707005Y-93568564D01*
X161788611Y-93595632D01*
X161788613Y-93595632D01*
X161795139Y-93597797D01*
X161801975Y-93598497D01*
X161801978Y-93598498D01*
X161845031Y-93602909D01*
X161899600Y-93608500D01*
X163100400Y-93608500D01*
X163103646Y-93608163D01*
X163103650Y-93608163D01*
X163199308Y-93598238D01*
X163199312Y-93598237D01*
X163206166Y-93597526D01*
X163212702Y-93595345D01*
X163212704Y-93595345D01*
X163344806Y-93551272D01*
X163373946Y-93541550D01*
X163524348Y-93448478D01*
X163586655Y-93386062D01*
X174778493Y-93386062D01*
X174787789Y-93398077D01*
X174838994Y-93433931D01*
X174848489Y-93439414D01*
X175045947Y-93531490D01*
X175056239Y-93535236D01*
X175266688Y-93591625D01*
X175277481Y-93593528D01*
X175494525Y-93612517D01*
X175505475Y-93612517D01*
X175722519Y-93593528D01*
X175733312Y-93591625D01*
X175943761Y-93535236D01*
X175954053Y-93531490D01*
X176151511Y-93439414D01*
X176161006Y-93433931D01*
X176213048Y-93397491D01*
X176221424Y-93387012D01*
X176214356Y-93373566D01*
X175512812Y-92672022D01*
X175498868Y-92664408D01*
X175497035Y-92664539D01*
X175490420Y-92668790D01*
X174784923Y-93374287D01*
X174778493Y-93386062D01*
X163586655Y-93386062D01*
X163649305Y-93323303D01*
X163742115Y-93172738D01*
X163792276Y-93021507D01*
X163795632Y-93011389D01*
X163795632Y-93011387D01*
X163797797Y-93004861D01*
X163808500Y-92900400D01*
X163808500Y-92305475D01*
X174187483Y-92305475D01*
X174206472Y-92522519D01*
X174208375Y-92533312D01*
X174264764Y-92743761D01*
X174268510Y-92754053D01*
X174360586Y-92951511D01*
X174366069Y-92961006D01*
X174402509Y-93013048D01*
X174412988Y-93021424D01*
X174426434Y-93014356D01*
X175127978Y-92312812D01*
X175134356Y-92301132D01*
X175864408Y-92301132D01*
X175864539Y-92302965D01*
X175868790Y-92309580D01*
X176574287Y-93015077D01*
X176586062Y-93021507D01*
X176598077Y-93012211D01*
X176633931Y-92961006D01*
X176639414Y-92951511D01*
X176731490Y-92754053D01*
X176735236Y-92743761D01*
X176791625Y-92533312D01*
X176793528Y-92522519D01*
X176812517Y-92305475D01*
X176812517Y-92294525D01*
X176793528Y-92077481D01*
X176791625Y-92066688D01*
X176735236Y-91856239D01*
X176731490Y-91845947D01*
X176639414Y-91648489D01*
X176633931Y-91638994D01*
X176597491Y-91586952D01*
X176587012Y-91578576D01*
X176573566Y-91585644D01*
X175872022Y-92287188D01*
X175864408Y-92301132D01*
X175134356Y-92301132D01*
X175135592Y-92298868D01*
X175135461Y-92297035D01*
X175131210Y-92290420D01*
X174425713Y-91584923D01*
X174413938Y-91578493D01*
X174401923Y-91587789D01*
X174366069Y-91638994D01*
X174360586Y-91648489D01*
X174268510Y-91845947D01*
X174264764Y-91856239D01*
X174208375Y-92066688D01*
X174206472Y-92077481D01*
X174187483Y-92294525D01*
X174187483Y-92305475D01*
X163808500Y-92305475D01*
X163808500Y-91699600D01*
X163797526Y-91593834D01*
X163741550Y-91426054D01*
X163648478Y-91275652D01*
X163585705Y-91212988D01*
X174778576Y-91212988D01*
X174785644Y-91226434D01*
X175487188Y-91927978D01*
X175501132Y-91935592D01*
X175502965Y-91935461D01*
X175509580Y-91931210D01*
X176215077Y-91225713D01*
X176221507Y-91213938D01*
X176212211Y-91201923D01*
X176161006Y-91166069D01*
X176151511Y-91160586D01*
X175954053Y-91068510D01*
X175943761Y-91064764D01*
X175733312Y-91008375D01*
X175722519Y-91006472D01*
X175505475Y-90987483D01*
X175494525Y-90987483D01*
X175277481Y-91006472D01*
X175266688Y-91008375D01*
X175056239Y-91064764D01*
X175045947Y-91068510D01*
X174848489Y-91160586D01*
X174838994Y-91166069D01*
X174786952Y-91202509D01*
X174778576Y-91212988D01*
X163585705Y-91212988D01*
X163523303Y-91150695D01*
X163383898Y-91064764D01*
X163378968Y-91061725D01*
X163378966Y-91061724D01*
X163372738Y-91057885D01*
X163292995Y-91031436D01*
X163211389Y-91004368D01*
X163211387Y-91004368D01*
X163204861Y-91002203D01*
X163198025Y-91001503D01*
X163198022Y-91001502D01*
X163154969Y-90997091D01*
X163100400Y-90991500D01*
X161899600Y-90991500D01*
X161896354Y-90991837D01*
X161896350Y-90991837D01*
X161800692Y-91001762D01*
X161800688Y-91001763D01*
X161793834Y-91002474D01*
X161787298Y-91004655D01*
X161787296Y-91004655D01*
X161655194Y-91048728D01*
X161626054Y-91058450D01*
X161475652Y-91151522D01*
X161350695Y-91276697D01*
X161257885Y-91427262D01*
X161255581Y-91434209D01*
X161207697Y-91578576D01*
X161202203Y-91595139D01*
X161191500Y-91699600D01*
X161191500Y-92900400D01*
X160508500Y-92900400D01*
X160508500Y-88700000D01*
X161186502Y-88700000D01*
X161206457Y-88928087D01*
X161265716Y-89149243D01*
X161268039Y-89154224D01*
X161268039Y-89154225D01*
X161360151Y-89351762D01*
X161360154Y-89351767D01*
X161362477Y-89356749D01*
X161493802Y-89544300D01*
X161655700Y-89706198D01*
X161660208Y-89709355D01*
X161660211Y-89709357D01*
X161738389Y-89764098D01*
X161843251Y-89837523D01*
X161848233Y-89839846D01*
X161848238Y-89839849D01*
X162045775Y-89931961D01*
X162050757Y-89934284D01*
X162056065Y-89935706D01*
X162056067Y-89935707D01*
X162266598Y-89992119D01*
X162266600Y-89992119D01*
X162271913Y-89993543D01*
X162500000Y-90013498D01*
X162728087Y-89993543D01*
X162733400Y-89992119D01*
X162733402Y-89992119D01*
X162943933Y-89935707D01*
X162943935Y-89935706D01*
X162949243Y-89934284D01*
X162954225Y-89931961D01*
X163151762Y-89839849D01*
X163151767Y-89839846D01*
X163156749Y-89837523D01*
X163261611Y-89764098D01*
X163339789Y-89709357D01*
X163339792Y-89709355D01*
X163344300Y-89706198D01*
X163506198Y-89544300D01*
X163637523Y-89356749D01*
X163639846Y-89351767D01*
X163639849Y-89351762D01*
X163663799Y-89300400D01*
X174191500Y-89300400D01*
X174191837Y-89303646D01*
X174191837Y-89303650D01*
X174197347Y-89356749D01*
X174202474Y-89406166D01*
X174258450Y-89573946D01*
X174351522Y-89724348D01*
X174476697Y-89849305D01*
X174482927Y-89853145D01*
X174482928Y-89853146D01*
X174620090Y-89937694D01*
X174627262Y-89942115D01*
X174707005Y-89968564D01*
X174788611Y-89995632D01*
X174788613Y-89995632D01*
X174795139Y-89997797D01*
X174801975Y-89998497D01*
X174801978Y-89998498D01*
X174845031Y-90002909D01*
X174899600Y-90008500D01*
X176100400Y-90008500D01*
X176103646Y-90008163D01*
X176103650Y-90008163D01*
X176199308Y-89998238D01*
X176199312Y-89998237D01*
X176206166Y-89997526D01*
X176212702Y-89995345D01*
X176212704Y-89995345D01*
X176344806Y-89951272D01*
X176373946Y-89941550D01*
X176524348Y-89848478D01*
X176649305Y-89723303D01*
X176653146Y-89717072D01*
X176738275Y-89578968D01*
X176738276Y-89578966D01*
X176742115Y-89572738D01*
X176797797Y-89404861D01*
X176808500Y-89300400D01*
X176808500Y-88099600D01*
X176803171Y-88048238D01*
X176798238Y-88000692D01*
X176798237Y-88000688D01*
X176797526Y-87993834D01*
X176741550Y-87826054D01*
X176648478Y-87675652D01*
X176523303Y-87550695D01*
X176389211Y-87468039D01*
X176378968Y-87461725D01*
X176378966Y-87461724D01*
X176372738Y-87457885D01*
X176259983Y-87420486D01*
X176211389Y-87404368D01*
X176211387Y-87404368D01*
X176204861Y-87402203D01*
X176198025Y-87401503D01*
X176198022Y-87401502D01*
X176154969Y-87397091D01*
X176100400Y-87391500D01*
X174899600Y-87391500D01*
X174896354Y-87391837D01*
X174896350Y-87391837D01*
X174800692Y-87401762D01*
X174800688Y-87401763D01*
X174793834Y-87402474D01*
X174787298Y-87404655D01*
X174787296Y-87404655D01*
X174721010Y-87426770D01*
X174626054Y-87458450D01*
X174475652Y-87551522D01*
X174350695Y-87676697D01*
X174346855Y-87682927D01*
X174346854Y-87682928D01*
X174342099Y-87690643D01*
X174257885Y-87827262D01*
X174202203Y-87995139D01*
X174191500Y-88099600D01*
X174191500Y-89300400D01*
X163663799Y-89300400D01*
X163731961Y-89154225D01*
X163731961Y-89154224D01*
X163734284Y-89149243D01*
X163793543Y-88928087D01*
X163813498Y-88700000D01*
X163793543Y-88471913D01*
X163734284Y-88250757D01*
X163662308Y-88096402D01*
X163639849Y-88048238D01*
X163639846Y-88048233D01*
X163637523Y-88043251D01*
X163506198Y-87855700D01*
X163344300Y-87693802D01*
X163339792Y-87690645D01*
X163339789Y-87690643D01*
X163261611Y-87635902D01*
X163156749Y-87562477D01*
X163151767Y-87560154D01*
X163151762Y-87560151D01*
X162954225Y-87468039D01*
X162954224Y-87468039D01*
X162949243Y-87465716D01*
X162943935Y-87464294D01*
X162943933Y-87464293D01*
X162733402Y-87407881D01*
X162733400Y-87407881D01*
X162728087Y-87406457D01*
X162500000Y-87386502D01*
X162271913Y-87406457D01*
X162266600Y-87407881D01*
X162266598Y-87407881D01*
X162056067Y-87464293D01*
X162056065Y-87464294D01*
X162050757Y-87465716D01*
X162045776Y-87468039D01*
X162045775Y-87468039D01*
X161848238Y-87560151D01*
X161848233Y-87560154D01*
X161843251Y-87562477D01*
X161738389Y-87635902D01*
X161660211Y-87690643D01*
X161660208Y-87690645D01*
X161655700Y-87693802D01*
X161493802Y-87855700D01*
X161362477Y-88043251D01*
X161360154Y-88048233D01*
X161360151Y-88048238D01*
X161337692Y-88096402D01*
X161265716Y-88250757D01*
X161206457Y-88471913D01*
X161186502Y-88700000D01*
X160508500Y-88700000D01*
X160508500Y-87463577D01*
X160510000Y-87444192D01*
X160512310Y-87429359D01*
X160512310Y-87429355D01*
X160513691Y-87420486D01*
X160511696Y-87405230D01*
X160510953Y-87379906D01*
X160523037Y-87210939D01*
X160525595Y-87193145D01*
X160566999Y-87002808D01*
X160572064Y-86985558D01*
X160640132Y-86803059D01*
X160647600Y-86786706D01*
X160689413Y-86710130D01*
X160740952Y-86615742D01*
X160750666Y-86600628D01*
X160867395Y-86444695D01*
X160879167Y-86431109D01*
X161016898Y-86293377D01*
X161030484Y-86281604D01*
X161186418Y-86164872D01*
X161201543Y-86155152D01*
X161372495Y-86061805D01*
X161388847Y-86054337D01*
X161499774Y-86012963D01*
X161571359Y-85986263D01*
X161588602Y-85981201D01*
X161778931Y-85939796D01*
X161796719Y-85937239D01*
X161958543Y-85925665D01*
X161976833Y-85926426D01*
X161984854Y-85926524D01*
X161993724Y-85927905D01*
X162002626Y-85926741D01*
X162002628Y-85926741D01*
X162018646Y-85924646D01*
X162025286Y-85923778D01*
X162041621Y-85922714D01*
X175950633Y-85922714D01*
X175970018Y-85924214D01*
G37*
G04 #@! TD.AperFunction*
M02*
