G04 #@! TF.GenerationSoftware,KiCad,Pcbnew,(6.0.7-1)-1*
G04 #@! TF.CreationDate,2024-08-15T11:17:30+03:00*
G04 #@! TF.ProjectId,Induction_alt,496e6475-6374-4696-9f6e-5f616c742e6b,rev?*
G04 #@! TF.SameCoordinates,Original*
G04 #@! TF.FileFunction,Legend,Bot*
G04 #@! TF.FilePolarity,Positive*
%FSLAX46Y46*%
G04 Gerber Fmt 4.6, Leading zero omitted, Abs format (unit mm)*
G04 Created by KiCad (PCBNEW (6.0.7-1)-1) date 2024-08-15 11:17:30*
%MOMM*%
%LPD*%
G01*
G04 APERTURE LIST*
G04 Aperture macros list*
%AMRoundRect*
0 Rectangle with rounded corners*
0 $1 Rounding radius*
0 $2 $3 $4 $5 $6 $7 $8 $9 X,Y pos of 4 corners*
0 Add a 4 corners polygon primitive as box body*
4,1,4,$2,$3,$4,$5,$6,$7,$8,$9,$2,$3,0*
0 Add four circle primitives for the rounded corners*
1,1,$1+$1,$2,$3*
1,1,$1+$1,$4,$5*
1,1,$1+$1,$6,$7*
1,1,$1+$1,$8,$9*
0 Add four rect primitives between the rounded corners*
20,1,$1+$1,$2,$3,$4,$5,0*
20,1,$1+$1,$4,$5,$6,$7,0*
20,1,$1+$1,$6,$7,$8,$9,0*
20,1,$1+$1,$8,$9,$2,$3,0*%
G04 Aperture macros list end*
%ADD10C,0.125000*%
%ADD11RoundRect,0.250000X0.550000X-0.550000X0.550000X0.550000X-0.550000X0.550000X-0.550000X-0.550000X0*%
%ADD12C,1.600000*%
%ADD13RoundRect,0.250000X-0.550000X0.550000X-0.550000X-0.550000X0.550000X-0.550000X0.550000X0.550000X0*%
G04 APERTURE END LIST*
D10*
X174299702Y-87718690D02*
X174299702Y-87218690D01*
X174180654Y-87218690D01*
X174109226Y-87242500D01*
X174061607Y-87290119D01*
X174037797Y-87337738D01*
X174013988Y-87432976D01*
X174013988Y-87504404D01*
X174037797Y-87599642D01*
X174061607Y-87647261D01*
X174109226Y-87694880D01*
X174180654Y-87718690D01*
X174299702Y-87718690D01*
X173609226Y-87694880D02*
X173656845Y-87718690D01*
X173752083Y-87718690D01*
X173799702Y-87694880D01*
X173823511Y-87647261D01*
X173823511Y-87456785D01*
X173799702Y-87409166D01*
X173752083Y-87385357D01*
X173656845Y-87385357D01*
X173609226Y-87409166D01*
X173585416Y-87456785D01*
X173585416Y-87504404D01*
X173823511Y-87552023D01*
X173299702Y-87718690D02*
X173347321Y-87694880D01*
X173371130Y-87647261D01*
X173371130Y-87218690D01*
X173037797Y-87718690D02*
X173085416Y-87694880D01*
X173109226Y-87671071D01*
X173133035Y-87623452D01*
X173133035Y-87480595D01*
X173109226Y-87432976D01*
X173085416Y-87409166D01*
X173037797Y-87385357D01*
X172966369Y-87385357D01*
X172918750Y-87409166D01*
X172894940Y-87432976D01*
X172871130Y-87480595D01*
X172871130Y-87623452D01*
X172894940Y-87671071D01*
X172918750Y-87694880D01*
X172966369Y-87718690D01*
X173037797Y-87718690D01*
X172656845Y-87385357D02*
X172656845Y-87718690D01*
X172656845Y-87432976D02*
X172633035Y-87409166D01*
X172585416Y-87385357D01*
X172513988Y-87385357D01*
X172466369Y-87409166D01*
X172442559Y-87456785D01*
X172442559Y-87718690D01*
X171894940Y-87218690D02*
X171728273Y-87718690D01*
X171561607Y-87218690D01*
X171323511Y-87718690D02*
X171371130Y-87694880D01*
X171394940Y-87671071D01*
X171418750Y-87623452D01*
X171418750Y-87480595D01*
X171394940Y-87432976D01*
X171371130Y-87409166D01*
X171323511Y-87385357D01*
X171252083Y-87385357D01*
X171204464Y-87409166D01*
X171180654Y-87432976D01*
X171156845Y-87480595D01*
X171156845Y-87623452D01*
X171180654Y-87671071D01*
X171204464Y-87694880D01*
X171252083Y-87718690D01*
X171323511Y-87718690D01*
X170871130Y-87718690D02*
X170918750Y-87694880D01*
X170942559Y-87647261D01*
X170942559Y-87218690D01*
X170752083Y-87385357D02*
X170561607Y-87385357D01*
X170680654Y-87218690D02*
X170680654Y-87647261D01*
X170656845Y-87694880D01*
X170609226Y-87718690D01*
X170561607Y-87718690D01*
X170180654Y-87718690D02*
X170180654Y-87456785D01*
X170204464Y-87409166D01*
X170252083Y-87385357D01*
X170347321Y-87385357D01*
X170394940Y-87409166D01*
X170180654Y-87694880D02*
X170228273Y-87718690D01*
X170347321Y-87718690D01*
X170394940Y-87694880D01*
X170418750Y-87647261D01*
X170418750Y-87599642D01*
X170394940Y-87552023D01*
X170347321Y-87528214D01*
X170228273Y-87528214D01*
X170180654Y-87504404D01*
X169728273Y-87385357D02*
X169728273Y-87790119D01*
X169752083Y-87837738D01*
X169775892Y-87861547D01*
X169823511Y-87885357D01*
X169894940Y-87885357D01*
X169942559Y-87861547D01*
X169728273Y-87694880D02*
X169775892Y-87718690D01*
X169871130Y-87718690D01*
X169918750Y-87694880D01*
X169942559Y-87671071D01*
X169966369Y-87623452D01*
X169966369Y-87480595D01*
X169942559Y-87432976D01*
X169918750Y-87409166D01*
X169871130Y-87385357D01*
X169775892Y-87385357D01*
X169728273Y-87409166D01*
X169299702Y-87694880D02*
X169347321Y-87718690D01*
X169442559Y-87718690D01*
X169490178Y-87694880D01*
X169513988Y-87647261D01*
X169513988Y-87456785D01*
X169490178Y-87409166D01*
X169442559Y-87385357D01*
X169347321Y-87385357D01*
X169299702Y-87409166D01*
X169275892Y-87456785D01*
X169275892Y-87504404D01*
X169513988Y-87552023D01*
X168680654Y-87718690D02*
X168680654Y-87218690D01*
X168561607Y-87218690D01*
X168490178Y-87242500D01*
X168442559Y-87290119D01*
X168418750Y-87337738D01*
X168394940Y-87432976D01*
X168394940Y-87504404D01*
X168418750Y-87599642D01*
X168442559Y-87647261D01*
X168490178Y-87694880D01*
X168561607Y-87718690D01*
X168680654Y-87718690D01*
X168109226Y-87718690D02*
X168156845Y-87694880D01*
X168180654Y-87671071D01*
X168204464Y-87623452D01*
X168204464Y-87480595D01*
X168180654Y-87432976D01*
X168156845Y-87409166D01*
X168109226Y-87385357D01*
X168037797Y-87385357D01*
X167990178Y-87409166D01*
X167966369Y-87432976D01*
X167942559Y-87480595D01*
X167942559Y-87623452D01*
X167966369Y-87671071D01*
X167990178Y-87694880D01*
X168037797Y-87718690D01*
X168109226Y-87718690D01*
X167513988Y-87385357D02*
X167513988Y-87718690D01*
X167728273Y-87385357D02*
X167728273Y-87647261D01*
X167704464Y-87694880D01*
X167656845Y-87718690D01*
X167585416Y-87718690D01*
X167537797Y-87694880D01*
X167513988Y-87671071D01*
X167275892Y-87718690D02*
X167275892Y-87218690D01*
X167275892Y-87409166D02*
X167228273Y-87385357D01*
X167133035Y-87385357D01*
X167085416Y-87409166D01*
X167061607Y-87432976D01*
X167037797Y-87480595D01*
X167037797Y-87623452D01*
X167061607Y-87671071D01*
X167085416Y-87694880D01*
X167133035Y-87718690D01*
X167228273Y-87718690D01*
X167275892Y-87694880D01*
X166752083Y-87718690D02*
X166799702Y-87694880D01*
X166823511Y-87647261D01*
X166823511Y-87218690D01*
X166371130Y-87694880D02*
X166418750Y-87718690D01*
X166513988Y-87718690D01*
X166561607Y-87694880D01*
X166585416Y-87647261D01*
X166585416Y-87456785D01*
X166561607Y-87409166D01*
X166513988Y-87385357D01*
X166418750Y-87385357D01*
X166371130Y-87409166D01*
X166347321Y-87456785D01*
X166347321Y-87504404D01*
X166585416Y-87552023D01*
X166133035Y-87718690D02*
X166133035Y-87385357D01*
X166133035Y-87480595D02*
X166109226Y-87432976D01*
X166085416Y-87409166D01*
X166037797Y-87385357D01*
X165990178Y-87385357D01*
X174299702Y-88523690D02*
X174299702Y-88023690D01*
X174180654Y-88023690D01*
X174109226Y-88047500D01*
X174061607Y-88095119D01*
X174037797Y-88142738D01*
X174013988Y-88237976D01*
X174013988Y-88309404D01*
X174037797Y-88404642D01*
X174061607Y-88452261D01*
X174109226Y-88499880D01*
X174180654Y-88523690D01*
X174299702Y-88523690D01*
X173609226Y-88499880D02*
X173656845Y-88523690D01*
X173752083Y-88523690D01*
X173799702Y-88499880D01*
X173823511Y-88452261D01*
X173823511Y-88261785D01*
X173799702Y-88214166D01*
X173752083Y-88190357D01*
X173656845Y-88190357D01*
X173609226Y-88214166D01*
X173585416Y-88261785D01*
X173585416Y-88309404D01*
X173823511Y-88357023D01*
X173394940Y-88499880D02*
X173347321Y-88523690D01*
X173252083Y-88523690D01*
X173204464Y-88499880D01*
X173180654Y-88452261D01*
X173180654Y-88428452D01*
X173204464Y-88380833D01*
X173252083Y-88357023D01*
X173323511Y-88357023D01*
X173371130Y-88333214D01*
X173394940Y-88285595D01*
X173394940Y-88261785D01*
X173371130Y-88214166D01*
X173323511Y-88190357D01*
X173252083Y-88190357D01*
X173204464Y-88214166D01*
X172966369Y-88523690D02*
X172966369Y-88190357D01*
X172966369Y-88023690D02*
X172990178Y-88047500D01*
X172966369Y-88071309D01*
X172942559Y-88047500D01*
X172966369Y-88023690D01*
X172966369Y-88071309D01*
X172513988Y-88190357D02*
X172513988Y-88595119D01*
X172537797Y-88642738D01*
X172561607Y-88666547D01*
X172609226Y-88690357D01*
X172680654Y-88690357D01*
X172728273Y-88666547D01*
X172513988Y-88499880D02*
X172561607Y-88523690D01*
X172656845Y-88523690D01*
X172704464Y-88499880D01*
X172728273Y-88476071D01*
X172752083Y-88428452D01*
X172752083Y-88285595D01*
X172728273Y-88237976D01*
X172704464Y-88214166D01*
X172656845Y-88190357D01*
X172561607Y-88190357D01*
X172513988Y-88214166D01*
X172275892Y-88190357D02*
X172275892Y-88523690D01*
X172275892Y-88237976D02*
X172252083Y-88214166D01*
X172204464Y-88190357D01*
X172133035Y-88190357D01*
X172085416Y-88214166D01*
X172061607Y-88261785D01*
X172061607Y-88523690D01*
X171633035Y-88499880D02*
X171680654Y-88523690D01*
X171775892Y-88523690D01*
X171823511Y-88499880D01*
X171847321Y-88452261D01*
X171847321Y-88261785D01*
X171823511Y-88214166D01*
X171775892Y-88190357D01*
X171680654Y-88190357D01*
X171633035Y-88214166D01*
X171609226Y-88261785D01*
X171609226Y-88309404D01*
X171847321Y-88357023D01*
X171180654Y-88523690D02*
X171180654Y-88023690D01*
X171180654Y-88499880D02*
X171228273Y-88523690D01*
X171323511Y-88523690D01*
X171371130Y-88499880D01*
X171394940Y-88476071D01*
X171418750Y-88428452D01*
X171418750Y-88285595D01*
X171394940Y-88237976D01*
X171371130Y-88214166D01*
X171323511Y-88190357D01*
X171228273Y-88190357D01*
X171180654Y-88214166D01*
X170561607Y-88523690D02*
X170561607Y-88023690D01*
X170561607Y-88214166D02*
X170513988Y-88190357D01*
X170418750Y-88190357D01*
X170371130Y-88214166D01*
X170347321Y-88237976D01*
X170323511Y-88285595D01*
X170323511Y-88428452D01*
X170347321Y-88476071D01*
X170371130Y-88499880D01*
X170418750Y-88523690D01*
X170513988Y-88523690D01*
X170561607Y-88499880D01*
X170156845Y-88190357D02*
X170037797Y-88523690D01*
X169918750Y-88190357D02*
X170037797Y-88523690D01*
X170085416Y-88642738D01*
X170109226Y-88666547D01*
X170156845Y-88690357D01*
X169347321Y-88523690D02*
X169347321Y-88023690D01*
X169228273Y-88023690D01*
X169156845Y-88047500D01*
X169109226Y-88095119D01*
X169085416Y-88142738D01*
X169061607Y-88237976D01*
X169061607Y-88309404D01*
X169085416Y-88404642D01*
X169109226Y-88452261D01*
X169156845Y-88499880D01*
X169228273Y-88523690D01*
X169347321Y-88523690D01*
X168633035Y-88190357D02*
X168633035Y-88523690D01*
X168847321Y-88190357D02*
X168847321Y-88452261D01*
X168823511Y-88499880D01*
X168775892Y-88523690D01*
X168704464Y-88523690D01*
X168656845Y-88499880D01*
X168633035Y-88476071D01*
X168442559Y-88190357D02*
X168323511Y-88523690D01*
X168204464Y-88190357D02*
X168323511Y-88523690D01*
X168371130Y-88642738D01*
X168394940Y-88666547D01*
X168442559Y-88690357D01*
X167704464Y-88023690D02*
X167418750Y-88023690D01*
X167561607Y-88523690D02*
X167561607Y-88023690D01*
X167180654Y-88523690D02*
X167228273Y-88499880D01*
X167252083Y-88476071D01*
X167275892Y-88428452D01*
X167275892Y-88285595D01*
X167252083Y-88237976D01*
X167228273Y-88214166D01*
X167180654Y-88190357D01*
X167109226Y-88190357D01*
X167061607Y-88214166D01*
X167037797Y-88237976D01*
X167013988Y-88285595D01*
X167013988Y-88428452D01*
X167037797Y-88476071D01*
X167061607Y-88499880D01*
X167109226Y-88523690D01*
X167180654Y-88523690D01*
X174323511Y-89304880D02*
X174252083Y-89328690D01*
X174133035Y-89328690D01*
X174085416Y-89304880D01*
X174061607Y-89281071D01*
X174037797Y-89233452D01*
X174037797Y-89185833D01*
X174061607Y-89138214D01*
X174085416Y-89114404D01*
X174133035Y-89090595D01*
X174228273Y-89066785D01*
X174275892Y-89042976D01*
X174299702Y-89019166D01*
X174323511Y-88971547D01*
X174323511Y-88923928D01*
X174299702Y-88876309D01*
X174275892Y-88852500D01*
X174228273Y-88828690D01*
X174109226Y-88828690D01*
X174037797Y-88852500D01*
X173609226Y-89328690D02*
X173609226Y-89066785D01*
X173633035Y-89019166D01*
X173680654Y-88995357D01*
X173775892Y-88995357D01*
X173823511Y-89019166D01*
X173609226Y-89304880D02*
X173656845Y-89328690D01*
X173775892Y-89328690D01*
X173823511Y-89304880D01*
X173847321Y-89257261D01*
X173847321Y-89209642D01*
X173823511Y-89162023D01*
X173775892Y-89138214D01*
X173656845Y-89138214D01*
X173609226Y-89114404D01*
X173418750Y-88995357D02*
X173299702Y-89328690D01*
X173180654Y-88995357D01*
X172918750Y-89328690D02*
X172966369Y-89304880D01*
X172990178Y-89281071D01*
X173013988Y-89233452D01*
X173013988Y-89090595D01*
X172990178Y-89042976D01*
X172966369Y-89019166D01*
X172918750Y-88995357D01*
X172847321Y-88995357D01*
X172799702Y-89019166D01*
X172775892Y-89042976D01*
X172752083Y-89090595D01*
X172752083Y-89233452D01*
X172775892Y-89281071D01*
X172799702Y-89304880D01*
X172847321Y-89328690D01*
X172918750Y-89328690D01*
X172585416Y-89328690D02*
X172323511Y-88995357D01*
X172585416Y-88995357D02*
X172323511Y-89328690D01*
X171585416Y-89066785D02*
X171513988Y-89090595D01*
X171490178Y-89114404D01*
X171466369Y-89162023D01*
X171466369Y-89233452D01*
X171490178Y-89281071D01*
X171513988Y-89304880D01*
X171561607Y-89328690D01*
X171752083Y-89328690D01*
X171752083Y-88828690D01*
X171585416Y-88828690D01*
X171537797Y-88852500D01*
X171513988Y-88876309D01*
X171490178Y-88923928D01*
X171490178Y-88971547D01*
X171513988Y-89019166D01*
X171537797Y-89042976D01*
X171585416Y-89066785D01*
X171752083Y-89066785D01*
X171037797Y-89328690D02*
X171037797Y-89066785D01*
X171061607Y-89019166D01*
X171109226Y-88995357D01*
X171204464Y-88995357D01*
X171252083Y-89019166D01*
X171037797Y-89304880D02*
X171085416Y-89328690D01*
X171204464Y-89328690D01*
X171252083Y-89304880D01*
X171275892Y-89257261D01*
X171275892Y-89209642D01*
X171252083Y-89162023D01*
X171204464Y-89138214D01*
X171085416Y-89138214D01*
X171037797Y-89114404D01*
X170871130Y-88995357D02*
X170680654Y-88995357D01*
X170799702Y-88828690D02*
X170799702Y-89257261D01*
X170775892Y-89304880D01*
X170728273Y-89328690D01*
X170680654Y-89328690D01*
X170585416Y-88995357D02*
X170394940Y-88995357D01*
X170513988Y-88828690D02*
X170513988Y-89257261D01*
X170490178Y-89304880D01*
X170442559Y-89328690D01*
X170394940Y-89328690D01*
X170037797Y-89304880D02*
X170085416Y-89328690D01*
X170180654Y-89328690D01*
X170228273Y-89304880D01*
X170252083Y-89257261D01*
X170252083Y-89066785D01*
X170228273Y-89019166D01*
X170180654Y-88995357D01*
X170085416Y-88995357D01*
X170037797Y-89019166D01*
X170013988Y-89066785D01*
X170013988Y-89114404D01*
X170252083Y-89162023D01*
X169799702Y-89328690D02*
X169799702Y-88995357D01*
X169799702Y-89090595D02*
X169775892Y-89042976D01*
X169752083Y-89019166D01*
X169704464Y-88995357D01*
X169656845Y-88995357D01*
X169537797Y-88995357D02*
X169418750Y-89328690D01*
X169299702Y-88995357D02*
X169418750Y-89328690D01*
X169466369Y-89447738D01*
X169490178Y-89471547D01*
X169537797Y-89495357D01*
X168561607Y-89066785D02*
X168490178Y-89090595D01*
X168466369Y-89114404D01*
X168442559Y-89162023D01*
X168442559Y-89233452D01*
X168466369Y-89281071D01*
X168490178Y-89304880D01*
X168537797Y-89328690D01*
X168728273Y-89328690D01*
X168728273Y-88828690D01*
X168561607Y-88828690D01*
X168513988Y-88852500D01*
X168490178Y-88876309D01*
X168466369Y-88923928D01*
X168466369Y-88971547D01*
X168490178Y-89019166D01*
X168513988Y-89042976D01*
X168561607Y-89066785D01*
X168728273Y-89066785D01*
X168156845Y-89328690D02*
X168204464Y-89304880D01*
X168228273Y-89281071D01*
X168252083Y-89233452D01*
X168252083Y-89090595D01*
X168228273Y-89042976D01*
X168204464Y-89019166D01*
X168156845Y-88995357D01*
X168085416Y-88995357D01*
X168037797Y-89019166D01*
X168013988Y-89042976D01*
X167990178Y-89090595D01*
X167990178Y-89233452D01*
X168013988Y-89281071D01*
X168037797Y-89304880D01*
X168085416Y-89328690D01*
X168156845Y-89328690D01*
X167704464Y-89328690D02*
X167752083Y-89304880D01*
X167775892Y-89281071D01*
X167799702Y-89233452D01*
X167799702Y-89090595D01*
X167775892Y-89042976D01*
X167752083Y-89019166D01*
X167704464Y-88995357D01*
X167633035Y-88995357D01*
X167585416Y-89019166D01*
X167561607Y-89042976D01*
X167537797Y-89090595D01*
X167537797Y-89233452D01*
X167561607Y-89281071D01*
X167585416Y-89304880D01*
X167633035Y-89328690D01*
X167704464Y-89328690D01*
X167347321Y-89304880D02*
X167299702Y-89328690D01*
X167204464Y-89328690D01*
X167156845Y-89304880D01*
X167133035Y-89257261D01*
X167133035Y-89233452D01*
X167156845Y-89185833D01*
X167204464Y-89162023D01*
X167275892Y-89162023D01*
X167323511Y-89138214D01*
X167347321Y-89090595D01*
X167347321Y-89066785D01*
X167323511Y-89019166D01*
X167275892Y-88995357D01*
X167204464Y-88995357D01*
X167156845Y-89019166D01*
X166990178Y-88995357D02*
X166799702Y-88995357D01*
X166918750Y-88828690D02*
X166918750Y-89257261D01*
X166894940Y-89304880D01*
X166847321Y-89328690D01*
X166799702Y-89328690D01*
X166442559Y-89304880D02*
X166490178Y-89328690D01*
X166585416Y-89328690D01*
X166633035Y-89304880D01*
X166656845Y-89257261D01*
X166656845Y-89066785D01*
X166633035Y-89019166D01*
X166585416Y-88995357D01*
X166490178Y-88995357D01*
X166442559Y-89019166D01*
X166418750Y-89066785D01*
X166418750Y-89114404D01*
X166656845Y-89162023D01*
X166204464Y-89328690D02*
X166204464Y-88995357D01*
X166204464Y-89090595D02*
X166180654Y-89042976D01*
X166156845Y-89019166D01*
X166109226Y-88995357D01*
X166061607Y-88995357D01*
X174323511Y-89990833D02*
X174085416Y-89990833D01*
X174371130Y-90133690D02*
X174204464Y-89633690D01*
X174037797Y-90133690D01*
X173656845Y-90133690D02*
X173656845Y-89871785D01*
X173680654Y-89824166D01*
X173728273Y-89800357D01*
X173823511Y-89800357D01*
X173871130Y-89824166D01*
X173656845Y-90109880D02*
X173704464Y-90133690D01*
X173823511Y-90133690D01*
X173871130Y-90109880D01*
X173894940Y-90062261D01*
X173894940Y-90014642D01*
X173871130Y-89967023D01*
X173823511Y-89943214D01*
X173704464Y-89943214D01*
X173656845Y-89919404D01*
X173347321Y-90133690D02*
X173394940Y-90109880D01*
X173418750Y-90062261D01*
X173418750Y-89633690D01*
X173228273Y-89800357D02*
X173037797Y-89800357D01*
X173156845Y-89633690D02*
X173156845Y-90062261D01*
X173133035Y-90109880D01*
X173085416Y-90133690D01*
X173037797Y-90133690D01*
X172799702Y-90133690D02*
X172847321Y-90109880D01*
X172871130Y-90086071D01*
X172894940Y-90038452D01*
X172894940Y-89895595D01*
X172871130Y-89847976D01*
X172847321Y-89824166D01*
X172799702Y-89800357D01*
X172728273Y-89800357D01*
X172680654Y-89824166D01*
X172656845Y-89847976D01*
X172633035Y-89895595D01*
X172633035Y-90038452D01*
X172656845Y-90086071D01*
X172680654Y-90109880D01*
X172728273Y-90133690D01*
X172799702Y-90133690D01*
X172037797Y-89633690D02*
X172037797Y-90038452D01*
X172013988Y-90086071D01*
X171990178Y-90109880D01*
X171942559Y-90133690D01*
X171847321Y-90133690D01*
X171799702Y-90109880D01*
X171775892Y-90086071D01*
X171752083Y-90038452D01*
X171752083Y-89633690D01*
X171513988Y-89800357D02*
X171513988Y-90133690D01*
X171513988Y-89847976D02*
X171490178Y-89824166D01*
X171442559Y-89800357D01*
X171371130Y-89800357D01*
X171323511Y-89824166D01*
X171299702Y-89871785D01*
X171299702Y-90133690D01*
X171061607Y-90133690D02*
X171061607Y-89800357D01*
X171061607Y-89633690D02*
X171085416Y-89657500D01*
X171061607Y-89681309D01*
X171037797Y-89657500D01*
X171061607Y-89633690D01*
X171061607Y-89681309D01*
X170871130Y-89800357D02*
X170752083Y-90133690D01*
X170633035Y-89800357D01*
X170252083Y-90109880D02*
X170299702Y-90133690D01*
X170394940Y-90133690D01*
X170442559Y-90109880D01*
X170466369Y-90062261D01*
X170466369Y-89871785D01*
X170442559Y-89824166D01*
X170394940Y-89800357D01*
X170299702Y-89800357D01*
X170252083Y-89824166D01*
X170228273Y-89871785D01*
X170228273Y-89919404D01*
X170466369Y-89967023D01*
X170013988Y-90133690D02*
X170013988Y-89800357D01*
X170013988Y-89895595D02*
X169990178Y-89847976D01*
X169966369Y-89824166D01*
X169918750Y-89800357D01*
X169871130Y-89800357D01*
X169728273Y-90109880D02*
X169680654Y-90133690D01*
X169585416Y-90133690D01*
X169537797Y-90109880D01*
X169513988Y-90062261D01*
X169513988Y-90038452D01*
X169537797Y-89990833D01*
X169585416Y-89967023D01*
X169656845Y-89967023D01*
X169704464Y-89943214D01*
X169728273Y-89895595D01*
X169728273Y-89871785D01*
X169704464Y-89824166D01*
X169656845Y-89800357D01*
X169585416Y-89800357D01*
X169537797Y-89824166D01*
X169299702Y-90133690D02*
X169299702Y-89800357D01*
X169299702Y-89633690D02*
X169323511Y-89657500D01*
X169299702Y-89681309D01*
X169275892Y-89657500D01*
X169299702Y-89633690D01*
X169299702Y-89681309D01*
X169133035Y-89800357D02*
X168942559Y-89800357D01*
X169061607Y-89633690D02*
X169061607Y-90062261D01*
X169037797Y-90109880D01*
X168990178Y-90133690D01*
X168942559Y-90133690D01*
X168823511Y-89800357D02*
X168704464Y-90133690D01*
X168585416Y-89800357D02*
X168704464Y-90133690D01*
X168752083Y-90252738D01*
X168775892Y-90276547D01*
X168823511Y-90300357D01*
X168013988Y-89943214D02*
X167633035Y-89943214D01*
X167013988Y-90133690D02*
X167013988Y-89633690D01*
X166823511Y-89633690D01*
X166775892Y-89657500D01*
X166752083Y-89681309D01*
X166728273Y-89728928D01*
X166728273Y-89800357D01*
X166752083Y-89847976D01*
X166775892Y-89871785D01*
X166823511Y-89895595D01*
X167013988Y-89895595D01*
X166513988Y-90133690D02*
X166513988Y-89800357D01*
X166513988Y-89895595D02*
X166490178Y-89847976D01*
X166466369Y-89824166D01*
X166418750Y-89800357D01*
X166371130Y-89800357D01*
X166133035Y-90133690D02*
X166180654Y-90109880D01*
X166204464Y-90086071D01*
X166228273Y-90038452D01*
X166228273Y-89895595D01*
X166204464Y-89847976D01*
X166180654Y-89824166D01*
X166133035Y-89800357D01*
X166061607Y-89800357D01*
X166013988Y-89824166D01*
X165990178Y-89847976D01*
X165966369Y-89895595D01*
X165966369Y-90038452D01*
X165990178Y-90086071D01*
X166013988Y-90109880D01*
X166061607Y-90133690D01*
X166133035Y-90133690D01*
X165823511Y-89800357D02*
X165633035Y-89800357D01*
X165752083Y-89633690D02*
X165752083Y-90062261D01*
X165728273Y-90109880D01*
X165680654Y-90133690D01*
X165633035Y-90133690D01*
X165394940Y-90133690D02*
X165442559Y-90109880D01*
X165466369Y-90086071D01*
X165490178Y-90038452D01*
X165490178Y-89895595D01*
X165466369Y-89847976D01*
X165442559Y-89824166D01*
X165394940Y-89800357D01*
X165323511Y-89800357D01*
X165275892Y-89824166D01*
X165252083Y-89847976D01*
X165228273Y-89895595D01*
X165228273Y-90038452D01*
X165252083Y-90086071D01*
X165275892Y-90109880D01*
X165323511Y-90133690D01*
X165394940Y-90133690D01*
X165013988Y-89800357D02*
X165013988Y-90300357D01*
X165013988Y-89824166D02*
X164966369Y-89800357D01*
X164871130Y-89800357D01*
X164823511Y-89824166D01*
X164799702Y-89847976D01*
X164775892Y-89895595D01*
X164775892Y-90038452D01*
X164799702Y-90086071D01*
X164823511Y-90109880D01*
X164871130Y-90133690D01*
X164966369Y-90133690D01*
X165013988Y-90109880D01*
X164347321Y-90133690D02*
X164347321Y-89871785D01*
X164371130Y-89824166D01*
X164418750Y-89800357D01*
X164513988Y-89800357D01*
X164561607Y-89824166D01*
X164347321Y-90109880D02*
X164394940Y-90133690D01*
X164513988Y-90133690D01*
X164561607Y-90109880D01*
X164585416Y-90062261D01*
X164585416Y-90014642D01*
X164561607Y-89967023D01*
X164513988Y-89943214D01*
X164394940Y-89943214D01*
X164347321Y-89919404D01*
X164109226Y-89800357D02*
X164109226Y-90228928D01*
X164133035Y-90276547D01*
X164180654Y-90300357D01*
X164204464Y-90300357D01*
X164109226Y-89633690D02*
X164133035Y-89657500D01*
X164109226Y-89681309D01*
X164085416Y-89657500D01*
X164109226Y-89633690D01*
X164109226Y-89681309D01*
X163656845Y-90133690D02*
X163656845Y-89871785D01*
X163680654Y-89824166D01*
X163728273Y-89800357D01*
X163823511Y-89800357D01*
X163871130Y-89824166D01*
X163656845Y-90109880D02*
X163704464Y-90133690D01*
X163823511Y-90133690D01*
X163871130Y-90109880D01*
X163894940Y-90062261D01*
X163894940Y-90014642D01*
X163871130Y-89967023D01*
X163823511Y-89943214D01*
X163704464Y-89943214D01*
X163656845Y-89919404D01*
X163061607Y-89681309D02*
X163037797Y-89657500D01*
X162990178Y-89633690D01*
X162871130Y-89633690D01*
X162823511Y-89657500D01*
X162799702Y-89681309D01*
X162775892Y-89728928D01*
X162775892Y-89776547D01*
X162799702Y-89847976D01*
X163085416Y-90133690D01*
X162775892Y-90133690D01*
X162347321Y-89800357D02*
X162347321Y-90133690D01*
X162466369Y-89609880D02*
X162585416Y-89967023D01*
X162275892Y-89967023D01*
X162061607Y-89633690D02*
X162109226Y-89728928D01*
%LPC*%
D11*
X162500000Y-92300000D03*
D12*
X162500000Y-88700000D03*
D13*
X175500000Y-88700000D03*
D12*
X175500000Y-92300000D03*
M02*
