G04 #@! TF.GenerationSoftware,KiCad,Pcbnew,(6.0.7-1)-1*
G04 #@! TF.CreationDate,2024-07-24T16:53:06+03:00*
G04 #@! TF.ProjectId,Thermal,54686572-6d61-46c2-9e6b-696361645f70,rev?*
G04 #@! TF.SameCoordinates,Original*
G04 #@! TF.FileFunction,Soldermask,Top*
G04 #@! TF.FilePolarity,Negative*
%FSLAX46Y46*%
G04 Gerber Fmt 4.6, Leading zero omitted, Abs format (unit mm)*
G04 Created by KiCad (PCBNEW (6.0.7-1)-1) date 2024-07-24 16:53:06*
%MOMM*%
%LPD*%
G01*
G04 APERTURE LIST*
G04 Aperture macros list*
%AMRoundRect*
0 Rectangle with rounded corners*
0 $1 Rounding radius*
0 $2 $3 $4 $5 $6 $7 $8 $9 X,Y pos of 4 corners*
0 Add a 4 corners polygon primitive as box body*
4,1,4,$2,$3,$4,$5,$6,$7,$8,$9,$2,$3,0*
0 Add four circle primitives for the rounded corners*
1,1,$1+$1,$2,$3*
1,1,$1+$1,$4,$5*
1,1,$1+$1,$6,$7*
1,1,$1+$1,$8,$9*
0 Add four rect primitives between the rounded corners*
20,1,$1+$1,$2,$3,$4,$5,0*
20,1,$1+$1,$4,$5,$6,$7,0*
20,1,$1+$1,$6,$7,$8,$9,0*
20,1,$1+$1,$8,$9,$2,$3,0*%
G04 Aperture macros list end*
%ADD10RoundRect,0.102000X-0.990600X-0.177800X0.990600X-0.177800X0.990600X0.177800X-0.990600X0.177800X0*%
%ADD11R,0.790094X0.540005*%
%ADD12RoundRect,0.250000X-0.550000X-0.550000X0.550000X-0.550000X0.550000X0.550000X-0.550000X0.550000X0*%
%ADD13C,1.600000*%
%ADD14R,0.800000X0.900000*%
%ADD15R,2.800000X2.700000*%
%ADD16C,2.200000*%
%ADD17R,3.009906X2.799086*%
G04 APERTURE END LIST*
D10*
X398226256Y-97410660D03*
X398226256Y-98045660D03*
X398226256Y-98680660D03*
X398226256Y-99315660D03*
X398226256Y-99950660D03*
X398226256Y-100585660D03*
X398226256Y-101220660D03*
X398226256Y-101855660D03*
X403153856Y-101855660D03*
X403153856Y-101220660D03*
X403153856Y-100585660D03*
X403153856Y-99950660D03*
X403153856Y-99315660D03*
X403153856Y-98680660D03*
X403153856Y-98045660D03*
X403153856Y-97410660D03*
D11*
X395190056Y-99333160D03*
X394099886Y-99333160D03*
D12*
X402900000Y-93950000D03*
D13*
X406500000Y-93950000D03*
D14*
X406290006Y-100523736D03*
X407690056Y-100523736D03*
D12*
X393550000Y-93950000D03*
D13*
X397150000Y-93950000D03*
D11*
X394144971Y-98033160D03*
X395235141Y-98033160D03*
D15*
X398630112Y-105750254D03*
X398630112Y-109516320D03*
X402750000Y-109516320D03*
X402750000Y-105750000D03*
D16*
X388000000Y-94000000D03*
X388000000Y-94000000D03*
X412000000Y-94000000D03*
X412000000Y-94000000D03*
X387963800Y-109500000D03*
X387963800Y-109500000D03*
D17*
X387963800Y-98567500D03*
X387963800Y-104567500D03*
D16*
X412000000Y-109500000D03*
X412000000Y-109500000D03*
D14*
X407690056Y-98523736D03*
X406290006Y-98523736D03*
M02*
